<?xml version="1.0" encoding="utf-8"?>
<!-- Generator: Adobe Illustrator 21.0.0, SVG Export Plug-In . SVG Version: 6.00 Build 0)  -->
<svg version="1.1" id="Layer_1" xmlns="http://www.w3.org/2000/svg" xmlns:xlink="http://www.w3.org/1999/xlink" x="0px" y="0px"
	 viewBox="0 0 300 300" style="enable-background:new 0 0 300 300;" xml:space="preserve">
<style type="text/css">
	.st0{fill:#DFDFDF;}
	.st1{fill:#F0C7B1;}
	.st2{fill:#FFE4D6;}
	.st3{fill:#E1AC8F;}
	.st4{fill:none;stroke:#C27B55;stroke-width:1.5;}
	.st5{fill:url(#SvgjsPath4715_1_);}
	.st6{fill:#F3F1F3;}
	.st7{fill:#131111;}
	.st8{fill:#F3F1F4;}
	.st9{fill:#CFC8D7;}
	.st10{fill:#E1E0E1;}
	.st11{fill:#653220;}
	.st12{fill:#562413;}
	.st13{fill:#461808;}
	.st14{fill:#744230;}
	.st15{fill:#370F01;}
	.st16{fill:#F0C7B1;stroke:#C27B55;stroke-width:1.5;}
	.st17{fill:#C27B55;}
	.st18{fill:#E8B9A0;}
	.st19{fill:url(#SvgjsPath4719_1_);}
	.st20{fill:#FFFFFF;}
	.st21{fill:none;stroke:#C27B55;stroke-width:0.75;}
	.st22{fill:url(#SvgjsPath5545_1_);}
	.st23{fill:#663C1A;}
	.st24{fill:#754B2A;}
	.st25{fill:#472204;}
	.st26{fill:#381900;}
	.st27{opacity:0.9;enable-background:new    ;}
	.st28{opacity:0.7;fill:#FFFFFF;enable-background:new    ;}
	.st29{opacity:0.9;fill:#FFFFFF;enable-background:new    ;}
	.st30{fill:url(#SvgjsPath5571_1_);}
	.st31{fill:url(#SvgjsPath5576_1_);}
	.st32{fill:url(#SvgjsPath5553_1_);}
	.st33{fill:url(#SvgjsPath5592_1_);}
	.st34{fill:url(#SvgjsPath5597_1_);}
	.st35{fill:#B6ACAC;}
	.st36{fill:#E3DBDB;}
	.st37{fill:#D4B7B7;}
	.st38{fill:#B57878;}
	.st39{fill:#2A232B;}
	.st40{fill:#D0BBBB;}
	.st41{fill:#EEEEEE;}
	.st42{fill:#B17C7C;}
	.st43{fill:#26120B;}
	.st44{display:none;opacity:0.5;fill:#ECF0F1;enable-background:new    ;}
</style>
<g id="svga-group-wrapper" transform="scale(3 3)">
	
		<g id="svga-group-subwrapper" transform="matrix(0.84999948 0 0 0.84999948 14.979303539305008 17.162249694490995) translate(0 9.999999983634211e-8)">
		<g id="svga-group-hair-back" transform="matrix(1.0400003100000001 0 0 1.00020031 -4.000031000000021 -0.02003100000000302)">
			<path id="SvgjsPath4422" class="st0" d="M43.5,34.3h-0.4v-0.4h0.4V34.3z"/>
		</g>
		<g id="svga-group-humanbody-single">
			<path id="SvgjsPath2893" class="st1" d="M84.7,79.7c-1-2.1-3.8-5.4-6.8-6.2c-3.8-1.1-12.3-2.5-15.4-3.1c-2.6-0.6-7.6-5.1-9.4-6.7
				c-0.3-0.2-0.6-0.9-0.6-1.2c-0.2-5.1,1.8-18.3,1.8-18.3H41H27.6c0,0,2,13.2,1.9,18.2c0,0.4-0.2,1-0.6,1.2
				c-1.8,1.6-6.9,6.1-9.4,6.7c-3,0.7-11.6,2-15.3,3.1c-3,0.9-5.8,4-6.8,6.2c-1.8,3.7-2.1,10.3-2.1,16.1H41h45.7
				C86.7,89.9,86.4,83.3,84.7,79.7z"/>
			<path id="SvgjsPath2894" class="st2" d="M68.1,72.5c11.2,1.7,15.8,4,17.3,23.2h1.3c0-5.7-0.4-12.4-2.1-16.1
				c-1-2.1-3.8-5.4-6.8-6.2C74,72.3,65.5,71,62.4,70.3c-2.6-0.6-8.4-5.6-9.9-7.5c1.6,2.1,5.8,7.1,9.6,8.5
				C64,71.8,65.4,72.1,68.1,72.5z M19.8,71.2c3.8-1.3,8.1-6.2,9.6-8.5c-1.6,2-7.4,6.9-9.9,7.5C16.3,71,7.8,72.3,4.1,73.4
				c-3,0.9-5.8,4-6.8,6.2c-1.7,3.7-2,10.3-2,16.1h1.4C-1.8,76.6,2.9,74.1,14,72.5C16.5,72.1,18,71.8,19.8,71.2z"/>
			<path id="SvgjsPath2895" class="st3" d="M39,78.7c0,0-2.3-0.8-3.2-1.1c-4.8-1.8-20.3-3-20.3-3s16.4,0.7,20,1.2
				c-0.2-2.2-1.3-9.1-1.3-9.1s2.3,7.7,2.9,9.6C37.3,77.3,39,78.7,39,78.7z M43.9,78.1L43.9,78.1C43.9,78.1,43.9,78.1,43.9,78.1z
				 M39,78.7c0,0,1.3,1.3,2,1.3c0.9,0,2.2-1.3,2.8-1.9c-0.6,0.4-1.9,0.7-2.5,0.7C40.8,78.9,39,78.7,39,78.7z M48.6,75.2
				c-0.7,0.1-2,0.3-2,0.3l1-6.8c-0.3,1.4-2,7.5-3.7,9.3c0.9-0.8,2.8-1.1,3.8-1.2c4.7-0.7,4.7-0.7,18.8-2.2
				C66.5,74.5,53.3,74.5,48.6,75.2z"/>
			<path id="SvgjsPath2896" class="st4" d="M84.7,79.7c-1-2.1-3.8-5.4-6.8-6.2c-3.8-1.1-12.3-2.5-15.4-3.1c-2.6-0.6-7.6-5.1-9.4-6.7
				c-0.3-0.2-0.6-0.9-0.6-1.2c-0.2-5.1,1.8-18.3,1.8-18.3H41H27.6c0,0,2,13.2,1.9,18.2c0,0.4-0.2,1-0.6,1.2
				c-1.8,1.6-6.9,6.1-9.4,6.7c-3,0.7-11.6,2-15.3,3.1c-3,0.9-5.8,4-6.8,6.2c-1.8,3.7-2.1,10.3-2.1,16.1H41h45.7
				C86.7,89.9,86.4,83.3,84.7,79.7z"/>
		</g>
		<g id="svga-group-chinshadow-single">
			
				<linearGradient id="SvgjsPath4715_1_" gradientUnits="userSpaceOnUse" x1="23.1594" y1="22.3936" x2="23.1594" y2="42.5326" gradientTransform="matrix(16.5814 0 0 -16.5814 -343.2141 437.8096)">
				<stop  offset="0" style="stop-color:#E1AC8F;stop-opacity:0.8"/>
				<stop  offset="0.7" style="stop-color:#C27B55"/>
			</linearGradient>
			<path id="SvgjsPath4715" class="st5" d="M41,66.4c5.2,0,7.6-2.9,11-4.5c0-3.7,0.9-10.9,1.4-15.1c-7.4-0.9-17.8-0.9-25.2,0
				c0.6,4.1,1.6,11.4,1.4,15.1C33.4,63.5,35.8,66.4,41,66.4z"/>
		</g>
		<g id="svga-group-clothes-single">
			<path id="SvgjsPath5713" class="st6" d="M54.2,97.2H27.6V71.4c10.1,2.1,16.8,2,26.7,0L54.2,97.2L54.2,97.2z"/>
			<path id="SvgjsPath5714" class="st7" d="M44.3,97.1c-1.2,0-4.9,0.1-7.6-0.1v-0.1c-0.3-8.6,0.6-14.1,2.1-18v-0.1l0,0
				c-0.4-0.4-1.1-0.9-1.9-1.3c-0.8-0.4-1.4-1-2-1.4c0.3-0.3,0.7-0.7,1.1-1c0.1-0.1,0.6-0.3,2.8-2.2c0.1-0.1,0.1-0.1,0.1-0.1
				c0.3-0.1,1-0.1,1.7-0.1c1,0,2.1,0.1,3,0.2c0.7,0.7,1.6,2.5,1.9,3.2c-0.4,1-1,1.4-1.7,2c-0.3,0.2-0.8,0.6-1.2,1l0,0l0,0
				c1.9,9.3,1.9,11.5,1.9,13.6c0,0.9,0,3,0.1,4.6C44.6,97.1,44.6,97.1,44.3,97.1z"/>
			<path id="SvgjsPath5715" d="M45.7,75.9c-0.3-0.9-1.2-2.7-2-3.3c-1.3-0.2-3.7-0.3-4.8-0.1L36,74.9c-0.4,0.3-0.8,0.7-1.1,1.1
				c0.9,1,3,2.1,3.9,2.9c-1.7,4.2-2.5,9.9-2.1,18.1v0.1c3.1,0.2,7.6,0.1,8,0.1c-0.6-5.1,0.7-4.8-2-18.3C44.2,77.5,45,77.5,45.7,75.9
				z M43.3,84.6L43.3,84.6c0.9,4.8,0.6,8.5,1.3,12.3c-2.1-0.1-5.5,0-7.7,0c0.2-3.3,0.6-14.5,2.1-18.2c0.1,0,0.1,0,0.2-0.1l-0.4,15.9
				L40,78.4l0,0l1,15l0.2-14.9l0,0L43.1,95l-1-16.5c0.1,0,0.3,0.1,0.4,0.1l0,0C42.6,79.1,43,82.4,43.3,84.6z M42.9,78.3
				c-1.2-0.6-2.9-0.4-4.1,0.1C38,77.6,36.9,77,35.3,76c0.2-0.2,0.6-0.4,1-0.8c0,0,1.6-1.2,1.7-1.3c0.4-0.3,0.8-0.8,1.1-1.2
				c1.3,0,3.3,0,4.5,0.1c0.7,0.9,1.3,2.1,1.8,3.1C44.6,77.1,43.7,77.8,42.9,78.3z"/>
			<path id="SvgjsPath5716" class="st8" d="M31,85.8c-5.2-18.3-2.9-13.5-4.3-20.7c0.9-2.2,1.8-4.8,2.3-5.4l0,0
				c1,11,4.1,6.2,10.9,12.7C36.1,75,32.4,81.7,31,85.8z M55.3,65c-0.7-1.7-1.9-4.1-2.3-4.7c0.7,9.5-6.9,7.6-11.2,12
				c4,2.6,7.8,9.5,9.3,13.5C56.9,65.8,53.7,74.6,55.3,65z"/>
			<path id="SvgjsPath5717" class="st9" d="M52.8,60c0,2.3-0.2,4.2-0.6,4.7c-1.1,2.7-6,4.5-7.5,5.2c-1.1,0.6-2.2,1.3-3.1,2.2
				c1.8,1.1,2.6,1.6,5.9,6.6c1.9,3.2,3,5.7,3.5,7.1c6-20.2,2.8-11.3,4.3-20.9C54.6,63.1,53.3,60.5,52.8,60z M54.5,69.1
				c-0.9,8.3-1.6,6.6-3.6,15.6c-1.2-3.9-5-10.5-8.9-12.4c1.8-1.3,2.3-1.4,4.5-2.5c6.6-2.9,6.8-5.7,6.5-9.3c0.6,0.7,1.4,2.8,2.1,4.3
				C54.7,66.4,54.5,68.4,54.5,69.1z M31.5,66.9c-2-1.7-1.4-3.7-2.3-7.5c-0.4,0.4-1.4,3-2.5,5.5c0.2,1.2,0.3,3.3,0.3,4
				c0.2,5.6,0.8,5.8,4,17.1c1.3-4.1,5.2-11.2,9.3-13.7C37.1,69.4,33.1,68.3,31.5,66.9z M34,78.5c-1,1.7-2.1,3.5-2.9,6.1
				c-2-9.3-2.8-7.8-3.6-15.6c-0.1-1.3-0.3-2.8-0.7-4.1c0.8-1.7,1.8-4.7,2.1-5c0.7,3.2,0,6.1,2.6,7.8c1.2,0.9,5.1,2.5,8,4.8
				C37.9,73.5,36.9,74.1,34,78.5z"/>
			<path id="SvgjsPath5718" class="st10" d="M50.3,84.2L49.7,83c0,0,4.2-12.9,4.9-16.6C55,70.3,50.3,84.2,50.3,84.2z M31.3,83.8
				l0.7-1.4c0,0-3.9-12.2-4.7-15.8C26.9,70.3,31.3,83.8,31.3,83.8z"/>
			<path id="SvgjsPath5719" class="st11" d="M52.4,77.8c3.2-9.6,1.2-10.4,2.9-13.5c0.1-0.1,0.7,0.4,0.7,0.8
				c0.6,2.6,24.4,7.9,25.2,8.5c0.7,0.4,2.6,1.4,2.6,1.4c2.2,4.1,3.6,4.9,4.2,16.1c0.1,1.4,0,5.4,0,6.5l-39.1-0.3
				C48.8,93.6,49.3,87.1,52.4,77.8z M29.6,77.8c-3.2-9.6-1.2-10.4-2.9-13.5c-0.1-0.1-0.7,0.4-0.7,0.8C25.5,67.6,1.6,73,0.8,73.5
				C0.2,74-1.7,75-1.7,75c-2.2,4.1-3.6,4.9-4.1,16.1c-0.1,1.4,0,5.4,0,6.5l39.1-0.3C33.2,93.6,32.7,87.1,29.6,77.8z"/>
			<path id="SvgjsPath5720" class="st12" d="M54.8,75.2c-2.1,7.5-4.9,14.3-6.1,22c-0.4,0,0.7-10.4,3.7-19.4
				c3.2-9.6,1.2-10.4,2.9-13.5c0-0.1-0.3,0.9-0.1,1.1C55,68.9,55.9,71.6,54.8,75.2z M27.2,75.2c2.1,7.5,4.9,14.3,6.1,22
				c0.4,0-0.7-10.4-3.7-19.4c-3.2-9.6-1.2-10.4-2.9-13.5c0-0.1,0.3,0.9,0.1,1.1C26.9,68.9,26.1,71.6,27.2,75.2z"/>
			<path id="SvgjsPath5721" class="st13" d="M65,73.4c0,0-1,1.2-3.9,3.1c2.5-2.7,3.6-3.8,3.6-3.8L65,73.4z M66,78.8l-0.7-0.7
				c-2.1,6.4-3.5,9.4-5.9,16.7C62.9,88.4,63.7,86,66,78.8z M17.4,72.7c0,0,1.1,1.1,3.6,3.8c-2.9-2-3.9-3.1-3.9-3.1L17.4,72.7z
				 M22.6,94.9c-2.5-7.4-3.8-10.5-5.9-16.7L16,78.9C18.2,86,19.1,88.4,22.6,94.9z"/>
			<path id="SvgjsPath5722" class="st14" d="M77.4,88.6c0-5.4,1.4-8.4,4.3-12.8c0.2,0.2,0.4,0.2,0.7,0.4
				C79.1,80.1,78.6,83.8,77.4,88.6z M59.8,93.8c2.8-7.7,3.7-10.6,5.6-15.7c-0.6-0.1-4-1.3-4.5-1.6c0.2,0.4,1.4,0.8,3.6,2.1
				C64.5,78.7,62.2,85.8,59.8,93.8z M63.6,72.7c0,0-1.6,1.9-3,3.8c1.6-1.2,2.7-2.6,4-3.8c-1.8-1.6-4.8-3.9-6.7-5.6
				C59.4,68.8,63.6,72.7,63.6,72.7z M87.7,97.5L87.7,97.5c0.1-1.1,0.2-5,0.1-6.5c-0.7-11.2-1.9-11.8-4.2-16.1c0,0-1.9-1-2.6-1.4
				c-0.6-0.4-17.7-4.6-24-7.2c7.4,5,21.2,6.9,25.3,9.9C84.4,77.5,87.1,90,87.7,97.5z M-0.4,76.1c0.2-0.2,0.3-0.2,0.6-0.3
				c3,4.5,4.5,7.5,4.5,12.8C3.4,83.8,2.6,79.9-0.4,76.1z M17.5,78.7c2.1-1.3,3.3-1.7,3.6-2.1c-0.6,0.1-4,1.3-4.5,1.6
				c1.9,5.1,2.8,8.1,5.6,15.7C19.8,85.8,17.5,78.7,17.5,78.7z M24.2,67.3c-1.9,1.7-4.9,4-6.7,5.6c1.3,1.1,2.5,2.6,4,3.8
				c-1.6-1.9-3-3.8-3-3.8S22.6,68.8,24.2,67.3z M-0.4,76.1c4.1-2.9,18-4.8,25.3-9.8C18.7,69,1.5,73.1,0.8,73.5C0.2,74-1.7,75-1.7,75
				c-2.2,4.1-3.6,4.9-4.1,16.1c-0.1,1.4,0,5.4,0,6.5h0.1C-5.1,90-2.4,77.5-0.4,76.1z"/>
			<path id="SvgjsPath5723" class="st15" d="M55.7,64.4c0-0.1-0.2-0.3-0.3-0.3s-0.2,0.2-0.2,0.3c-1.7,3.1,0.2,3.8-3,13.4
				c-3.1,9.4-3.5,15.9-3.6,19.5l39.3,0.2c0-1.1,0.2-5,0.1-6.5c-0.7-11.2-2-11.9-4.2-16.1c0,0-2-1-2.7-1.4c-2.2-1.7-0.2,0-10-2.8
				c-8-2.3-8.5-3-11.4-3.8c-0.6-0.2-1.9-0.3-3.2-1.3C56.3,65.4,55.8,64.6,55.7,64.4z M48.8,96.8c1.7-10.8,2.8-13.6,5.1-21.6
				c1.6-5.1,0.7-7.9,1.4-10.4c0-0.1,0.2-0.1,0.2,0c1.1,2.9,4.2,3.5,8.6,7.8c-2.7,2.7-3.3,3.3-3.7,3.8c0.4,0.2,2.6,1,4.6,1.8
				c0,0.3-6,17.4-6.2,17.6c4.6-9.9,5.1-12.9,6.5-17.8c-0.3-0.3-3.6-1.4-4.1-1.7c2-2,2.6-2.5,3.5-3.7c0.8,0-7.2-6.1-7.7-6.5
				c0.2,0.1,1.2,0.7,1.3,0.7c6.7,2.3,1.4,1.3,16.1,5.5c1.4,0.3,3.3,0.7,4.8,0.9c0.1,0,2.5,1.2,3.8,1.8c-3.3,3.5-5.4,7.8-5.9,13.5
				c1.4-5.8,2.2-8.8,6-13.2c3.5,7,3.1,6,4.2,21.9C78.1,96.9,63.6,96.8,48.8,96.8z M25.5,65.5c-1.3,0.9-2.6,1.1-3.2,1.3
				c-2.9,0.8-3.3,1.4-11.4,3.8c-9.8,2.8-7.8,1-10,2.8c-0.7,0.4-2.7,1.4-2.7,1.4c-2.2,4.1-3.6,5-4.2,16.1c0,1.4,0.2,5.5,0.2,6.6
				l39.3-0.2c-0.1-3.6-0.4-10.1-3.6-19.5c-3.2-9.6-1.4-10.1-3-13.4c-0.1-0.1-0.1-0.3-0.2-0.3s-0.3,0.1-0.3,0.3
				C26.2,64.6,25.7,65.4,25.5,65.5z M-5.6,97.3c1.1-15.8,0.8-14.8,4.2-21.9c3.8,4.3,4.6,7.4,6,13.2c-0.4-5.7-2.6-10-5.9-13.5
				c1.3-0.6,3.7-1.8,3.8-1.8C4,73.2,6,72.7,7.3,72.4c14.7-4.2,9.4-3.1,16.1-5.5c0.1,0,1.1-0.6,1.3-0.7c-0.4,0.4-8.4,6.5-7.7,6.5
				c0.9,1.2,1.4,1.7,3.5,3.7c-0.6,0.2-3.8,1.3-4.1,1.7c1.3,4.9,1.9,8,6.5,17.8c-0.1-0.2-6.1-17.3-6.2-17.6c2-0.8,4.1-1.6,4.6-1.8
				c-0.3-0.4-1-1.2-3.7-3.8c4.3-4.3,7.5-4.9,8.6-7.8c0-0.1,0.2-0.1,0.2,0c0.8,2.3-0.1,5.2,1.4,10.4c2.3,8,3.5,10.8,5.1,21.6
				C18.4,96.8,3.9,96.9-5.6,97.3z"/>
		</g>
		<g id="svga-group-head">
			<g id="svga-group-ears-left" transform="translate(-3.0000001000000003 0)">
				<path id="SvgjsPath4701" class="st16" d="M17.8,26.8c-0.7-1.1-2.9-4.2-4.6-3.8c-1.3,0.3-1.3,2.2-1.4,3.5
					c-0.1,1.7-0.2,4.6,0.2,5.8c0.4,1.1,1.8,3.3,2.7,4.1c1,1,2.8,4.2,2.9,4.6c0.3,0.6,1,1.3,2,1.2c1.4-0.1,2.6-1.4,2.7-2
					C22.8,36.7,19.6,29.8,17.8,26.8z"/>
				<path id="SvgjsPath4702" class="st17" d="M17.1,33.7c-0.1-0.2,0-0.7,0.1-1.1c0.1-0.3,0.1-0.8,0.1-1c-0.1-1-0.9-2.8-1.3-3.8
					c-0.6-1.1-1.4-2.6-2.6-2.9c-0.4-0.1-0.8,0-1,0.2c-0.1,0.1-0.1,0.3-0.1,0.3s0.1-0.1,0.3-0.2c0.1-0.1-0.2,0,0,0
					c-0.1,0.4-0.4,2.9-0.2,4.7c0.1,1.3,0.4,2.5,0.6,2.6c0,0.1,0,0.3,0.1,0.4c0.4,2,3.5,4.7,4.1,5.5c0.1,0.1,0.2,0.2,0.3,0.2
					c0.1,0,0-0.2-0.2-0.3c-0.7-0.8-3.7-3.3-4.1-5.4s1.8-5.1,2.1-5.8c0.2,0.3,0.3,0.6,0.4,0.9c0.1,0.2,0.2,0.4,0.3,0.7
					c-0.2,0.3-2.3,2.8-1.8,4.8c0.2,0.8,1.8,1.7,2.3,1.9c0.3,0.1,0.4,0.3,0.6,0.6c0.1,0.3,0,1,0.6,1.2c0.1,0,0.2,0.1,0.3,0.1
					c0.1,0,0.2-0.1,0.3-0.1c0,0.1,0,0.3,0,0.4c0,0.2,0,0.2,0.1,0.3c0,0,0.1-0.1,0.1-0.2c0-0.2,0-0.6,0-0.7c-0.1-0.4-0.4-0.9-0.9-1.3
					C17.2,35,17.2,34,17.1,33.7z M12.9,31.9c-1.1-3.1,0.6-6,0.8-6.5c0.4,0.2,1.2,1,1.4,1.4C14.9,27.2,12.9,29.8,12.9,31.9z
					 M17.8,36.9c-0.4-0.2-0.3-0.9-0.4-1.2c-0.1-0.2-0.3-0.6-0.7-0.7c-0.1,0-0.2-0.1-0.2-0.1c-1.2-2.8,0.1-4,0.4-4.2
					c0.1,0.3,0.2,0.7,0.2,0.9c0,0.2,0,0.6-0.1,0.9c-0.1,0.4-0.1,0.9-0.1,1.2c0.1,0.4,0.2,1.3,0.6,1.9c0.3,0.4,0.7,0.9,0.9,1.2
					C18.3,36.9,18.1,37.1,17.8,36.9z"/>
			</g>
			<g id="svga-group-ears-right" transform="translate(3.0000001000000003 0)">
				<path id="SvgjsPath4703" class="st16" d="M64.1,26.8c0.7-1.1,2.9-4.2,4.6-3.8c1.3,0.3,1.3,2.2,1.4,3.5c0.1,1.7,0.2,4.6-0.2,5.8
					c-0.4,1.1-1.8,3.3-2.7,4.1c-1,1-2.8,4.2-2.9,4.6c-0.3,0.6-1,1.3-2,1.2c-1.4-0.1-2.6-1.4-2.7-2C59,36.7,62.3,29.8,64.1,26.8z"/>
				<path id="SvgjsPath4704" class="st17" d="M64.2,35.5c-0.4,0.4-0.8,0.9-0.9,1.3c0,0.1,0,0.4,0,0.7c0,0.2,0,0.2,0.1,0.2
					c0,0,0.1-0.1,0.1-0.3c0-0.1,0-0.3,0-0.4c0.1,0.1,0.2,0.1,0.3,0.1s0.2,0,0.3-0.1c0.6-0.2,0.4-1,0.6-1.2s0.2-0.4,0.6-0.6
					c0.6-0.2,2.1-1.2,2.3-1.9c0.6-2-1.6-4.5-1.8-4.8c0.1-0.2,0.2-0.4,0.3-0.7c0.1-0.2,0.2-0.6,0.4-0.9c0.3,0.7,2.6,3.7,2.1,5.8
					c-0.4,1.9-3.5,4.6-4.1,5.4c-0.1,0.1-0.2,0.2-0.2,0.3c0,0,0.2,0,0.3-0.2c0.7-0.8,3.7-3.3,4.1-5.5c0-0.1,0.1-0.3,0.1-0.4
					c0.1-0.1,0.4-1.2,0.6-2.6c0.2-1.8-0.1-4.1-0.2-4.7c0.2,0-0.1-0.1,0,0s0.2,0.2,0.3,0.2c0,0,0-0.2-0.1-0.3c-0.2-0.2-0.4-0.3-1-0.2
					c-1.1,0.3-2,1.8-2.6,2.9c-0.4,1-1.2,2.8-1.3,3.8c0,0.2,0,0.7,0.1,1c0.1,0.4,0.1,0.9,0.1,1.1C64.7,34,64.7,35,64.2,35.5z
					 M66.7,26.9c0.3-0.4,1-1.3,1.4-1.4c0.2,0.4,1.9,3.3,0.8,6.5C69,29.8,66.9,27.2,66.7,26.9z M63.5,36.8c0.1-0.3,0.4-0.8,0.9-1.2
					c0.4-0.4,0.4-1.4,0.6-1.9c0.1-0.3,0-0.8-0.1-1.2c0-0.2-0.1-0.7-0.1-0.9c0-0.2,0.1-0.6,0.2-0.9c0.3,0.2,1.7,1.4,0.4,4.2
					C65.3,35,65.2,35,65.2,35c-0.3,0.1-0.6,0.4-0.7,0.7c-0.1,0.2,0,1-0.4,1.2C63.8,37.1,63.5,36.9,63.5,36.8z"/>
			</g>
			
				<g id="svga-group-faceshape-wrap" transform="matrix(1.0400003100000001 0 0 1.00020031 -4.000070825748111 -0.016198369442832927)">
				<g id="svga-group-faceshape-single">
					<path id="SvgjsPath4712" class="st1" d="M43.3-11.4c-15.4,0-27.9,12.7-27.9,28.2c0,2.5,0.3,4.9,0.9,7.1l0,0
						c0,0,3.7,16.4,5.5,21.7c1.2,4,6.6,10,10.3,11.6c3.6,1.4,6,4.5,11.3,4.5s7.7-3,11.3-4.5c3.7-1.6,9-7.6,10.3-11.6
						c1.7-5.4,5.4-21.7,5.5-21.7l0,0c0.6-2.2,0.9-4.7,0.9-7.1C71.2,1.3,58.7-11.4,43.3-11.4z"/>
					<path id="SvgjsPath4713" class="st18" d="M61.9-4.1c4.8,5.1,7.7,12.2,7.7,20c0,2.5-0.3,4.9-0.9,7.1l0,0c0,0-3.6,16.4-5.1,21.7
						c-1.2,4-6.1,10-9.7,11.6c-3.3,1.4-5.7,4.5-10.7,4.5s-7.2-3-10.7-4.5c-3.5-1.6-8.5-7.6-9.7-11.6C21.2,39.4,17.6,23,17.6,23l0,0
						c-0.6-2.2-0.9-4.7-0.9-7.1c0-7.8,2.9-14.8,7.7-20c-5.7,5.1-9.3,12.6-9.3,21c0,2.5,0.3,4.9,0.9,7.1l0,0c0,0,3.7,16.4,5.5,21.7
						c1.2,4,6.6,10,10.3,11.6c3.6,1.4,6,4.5,11.3,4.5s7.7-3,11.3-4.5c3.7-1.6,9-7.6,10.3-11.6C66.3,40.4,70,24,70.1,24l0,0
						c0.6-2.2,0.9-4.7,0.9-7.1C71.2,8.5,67.6,1,61.9-4.1z"/>
					<path id="SvgjsPath4714" class="st4" d="M43.3-11.4c-15.4,0-27.9,12.7-27.9,28.2c0,2.5,0.3,4.9,0.9,7.1l0,0
						c0,0,3.7,16.4,5.5,21.7c1.2,4,6.6,10,10.3,11.6c3.6,1.4,6,4.5,11.3,4.5s7.7-3,11.3-4.5c3.7-1.6,9-7.6,10.3-11.6
						c1.7-5.4,5.4-21.7,5.5-21.7l0,0c0.6-2.2,0.9-4.7,0.9-7.1C71.2,1.3,58.7-11.4,43.3-11.4z"/>
				</g>
			</g>
			<g id="svga-group-mouth-single">
				
					<linearGradient id="SvgjsPath4719_1_" gradientUnits="userSpaceOnUse" x1="23.1654" y1="23.1389" x2="23.1654" y2="24.512" gradientTransform="matrix(16.5814 0 0 -16.5814 -343.2141 437.8096)">
					<stop  offset="0.1" style="stop-color:#E8B9A0"/>
					<stop  offset="1" style="stop-color:#E1AC8F"/>
				</linearGradient>
				<path id="SvgjsPath4719" class="st19" d="M41,54.2c-1.4,0-2.2-1.2-2.2-1.2s2.2,0.3,4.2,0C43,52.9,42.3,54.2,41,54.2z"/>
				<path id="SvgjsPath4723" class="st20" d="M40.9,51.7c-3.9,0-5.6-1.2-7.1-2.8H48C46.8,50.5,45,51.7,40.9,51.7z"/>
				<path id="SvgjsPath4724" class="st21" d="M40.9,51.7c-3.9,0-5.6-1.2-7.1-2.8H48C46.8,50.5,45,51.7,40.9,51.7z"/>
			</g>
			
				<g id="svga-group-eyes-left" transform="matrix(1.1000003100000002 0 0 1.1000003100000002 -7.370807036747891 -8.31002560841165) translate(5.838672220806777e-17 -1)">
				<g id="svga-group-eyesback-left">
					
						<radialGradient id="SvgjsPath5545_1_" cx="41.5767" cy="29.7052" r="6.0646" gradientTransform="matrix(-24.268 0.9341 -1.4014 -20.32 1083.5485 597.2784)" gradientUnits="userSpaceOnUse">
						<stop  offset="0" style="stop-color:#FFFFFF"/>
						<stop  offset="0.544" style="stop-color:#FDFEFE"/>
						<stop  offset="0.74" style="stop-color:#F6F8F9"/>
						<stop  offset="0.879" style="stop-color:#EAEFF2"/>
						<stop  offset="0.992" style="stop-color:#D9E3E8"/>
						<stop  offset="1" style="stop-color:#D8E2E7"/>
					</radialGradient>
					<path id="SvgjsPath5545" class="st22" d="M34.4,29.8c2.1,0.3,3.7,1.6,4.9,3.7l0,0l0,0c0.1,0.4-0.3,0.8-1,1.1
						c-2.2,0.2-4.2,0.7-6.5,0.4c-4.5-0.6-4.5-2.6-4.7-3C27,31.5,27,31.4,27,31c1.1-0.7,1.9-0.8,2.7-0.9
						C30.6,29.7,32.8,29.6,34.4,29.8z"/>
				</g>
				<g id="svga-group-eyesiriswrapper-left" transform="translate(0.25 0)">
					<g id="svga-group-eyesiriscontrol-left">
						
							<g id="svga-group-eyesiris-left" transform="matrix(1.2000007300000004 0 0 1.2000007300000004 -14.800054020000033 -16.799861429133713)">
							<path id="SvgjsPath5603" class="st23" d="M42.6,41c0,1.6-1.2,2.8-2.8,2.8S37,42.6,37,41c0-1.6,1.2-2.8,2.8-2.8
								C41.3,38.2,42.6,39.5,42.6,41z"/>
							<path id="SvgjsPath5604" class="st24" d="M38.2,42.2C38.6,42.2,38.2,42.1,38.2,42.2c-0.2-0.2-0.6-0.3-0.6-0.5
								c0-0.4,0.7-0.6,0-0.8c-0.7-0.7,0.6-0.7,0.6-0.7c-0.4-1.1,0.1-0.4,0.3-0.8c0.9-1.2,0.2,0.1,0.8,0c0.2,0-0.3-0.7,0-0.6
								c0.2,0.1,0.3,0.2,0.3,0.2c0.2,0,0.4-0.3,0.4-0.3c0.3,0.1,0.6,0.6,0.4,0.4c0.2,0,0.4-0.1,0.6-0.1c0,0,0-0.1,0.1,0
								c0.4,1.2,1.4,1.1,0.2,1.4c0,0-0.1,0,0.2,0.2c1.2,1-1,0.7,0.2,1.1c0,0-0.7,0.4-0.7,0.6c0,0.2-0.4,0.8-0.9,0.6
								c-0.2-0.1-0.2,0.2-0.4,0.1c-0.2-0.3-0.8,0-0.6-0.3c0.3-0.2-0.3,0.1-0.4,0.1c-0.3,0,0.4-1.2,1.8-0.3c0.3,0.2-0.4-0.7,0.3-0.7
								c0.1,0,0-0.2,0-0.3c-0.3-0.1,0.7,0,0.7-0.6c0.1,0,0.2-0.1-0.8,0c0,0,0-0.3,0-0.4c0-0.2,0.6-0.1,0.4-0.3L41,39.5
								c-1.2-0.2-0.6-0.3-1.2-0.1c0,0.2-1.6,0.9-1.6,1.2c0,0.3,1,0.4,0.1,1C39.5,44.3,37.3,41.7,38.2,42.2z"/>
							<path id="SvgjsPath5605" class="st25" d="M39.9,38.6l0.1,2l0.9-1.8l-0.8,1.9l1.4-1.3l-1.3,1.4l1.9-0.7L40.3,41l2,0.1l-2,0.1
								l1.8,0.9l-1.9-0.7l1.3,1.4l-1.4-1.6l0.7,1.9l-0.9-1.8l-0.1,2l-0.1-2l-0.7,2l0.7-1.9l-1.4,1.3l1.3-1.4L37.7,42l1.8-0.9l-2-0.1
								l2-0.1L37.7,40l1.9,0.7l-1.3-1.3l1.4,1.3L39,38.8l0.9,1.8V38.6z"/>
							<path id="SvgjsPath5606" class="st26" d="M40.2,39.2L40,40.8l0.9-1.2l-0.8,1.2l1.3-0.8l-1.3,0.9l1.6-0.2L40.2,41l1.4,0.3
								L40,41.1l1.2,0.9L40,41.2l0.8,1.3L40,41.4l0.2,1.6l-0.3-1.4L39.6,43l0.2-1.6l-0.9,1.2l0.8-1.3L38.3,42l1.2-0.9L38,41.4
								l1.4-0.3L38,40.7l1.6,0.2L38.3,40l1.3,0.8l-0.8-1.3l0.9,1.2l-0.2-1.4l0.3,1.4L40.2,39.2z"/>
							<path id="SvgjsPath5607" class="st27" d="M40.9,41c0,0.6-0.4,1-1,1s-1-0.4-1-1c0-0.6,0.4-1,1-1C40.4,39.9,40.9,40.5,40.9,41z
								"/>
							<path id="SvgjsPath5608" class="st28" d="M38.8,42.9c-0.1,0.1-0.4,0.1-0.7-0.1c-0.2-0.2-0.2-0.4-0.1-0.7
								c0.1-0.1,0.4-0.1,0.7,0.1C38.9,42.5,38.9,42.8,38.8,42.9z"/>
							<path id="SvgjsPath5609" class="st29" d="M42,40.5c-0.2,0.2-0.8,0-1.2-0.4s-0.7-1-0.4-1.2c0.2-0.2,0.8,0,1.2,0.4
								C42.1,39.7,42.3,40.2,42,40.5z"/>
						</g>
					</g>
				</g>
				<g id="svga-group-eyesfront-left">
					<path id="SvgjsPath5570" class="st1" d="M24.5,32.2c1.4,5.1,3.5,10.7,8.1,10.8s10.1-3.3,10.1-10.1c0.1-7.7-4.8-10.7-9.5-10.8
						C28.7,21.8,22.4,24.5,24.5,32.2z M27.2,32C27,31.4,27,31.3,27,30.8c0.9-0.6,1.9-0.7,2.7-0.9c1-0.2,3.1-0.3,4.7-0.1
						c2.1,0.3,3.7,1.6,4.9,3.7l0,0l0,0c0.1,0.4-0.3,0.8-1,1.1c-2.2,0.2-4.2,0.7-6.5,0.4C27.5,34.4,27.4,32.5,27.2,32z"/>
					
						<radialGradient id="SvgjsPath5571_1_" cx="33.3814" cy="19.7599" r="7.8001" fx="39.5316" fy="19.2646" gradientTransform="matrix(21.8142 3.0165 -2.9481 16.2303 -635.5173 -389.8178)" gradientUnits="userSpaceOnUse">
						<stop  offset="0" style="stop-color:#E1AC8F"/>
						<stop  offset="0.7" style="stop-color:#E1AC8F;stop-opacity:0.3"/>
						<stop  offset="1" style="stop-color:#F0C7B1;stop-opacity:0"/>
					</radialGradient>
					<path id="SvgjsPath5571" class="st30" d="M33.3,37.5c4.2,0.7,8.1-1.3,8.8-4.5c0.6-3.1-2.3-6.2-6.6-6.8
						c-4.2-0.7-8.1,1.3-8.8,4.5C26,33.7,29.1,36.9,33.3,37.5z M27,30.8c1-0.6,1.9-0.7,2.7-0.9c1-0.2,3.1-0.3,4.7-0.1
						c2.1,0.3,3.7,1.6,4.9,3.7l0,0l0,0c0.1,0.4-0.3,0.8-1,1.1c-2.2,0.2-4.2,0.7-6.5,0.4c-4.5-0.6-4.5-2.6-4.7-3
						C27,31.5,27,31.3,27,30.8z"/>
					
						<radialGradient id="SvgjsPath5576_1_" cx="31.5939" cy="32.9976" r="12.0088" gradientTransform="matrix(15.8525 -1.3242 -1.7719 -13.5574 -410.1098 526.3294)" gradientUnits="userSpaceOnUse">
						<stop  offset="0.95" style="stop-color:#000000;stop-opacity:0"/>
						<stop  offset="1" style="stop-color:#000000;stop-opacity:0.2"/>
					</radialGradient>
					<path id="SvgjsPath5576" class="st31" d="M27.2,32C27,31.4,27,31.3,27,30.8c1-0.6,1.9-0.7,2.7-0.9c1-0.2,3.1-0.3,4.7-0.1
						c2.1,0.3,3.7,1.6,4.9,3.7l0,0l0,0c0.1,0.4-0.3,0.8-1,1.1c-2.2,0.2-4.2,0.7-6.5,0.4C27.5,34.4,27.4,32.5,27.2,32z"/>
					<path id="SvgjsPath5580" class="st17" d="M34.2,28.6c1.6,0.2,3,0.9,4.3,1.8c0.3,0.2,0.7,0.4,1.1,0.7c-0.3-0.1-0.8-0.3-1-0.4
						c0.3,0.3,0.7,0.7,0.9,1.1c-1.1-1.4-3.3-2.6-5.2-2.9c-1.8-0.3-5-0.1-7.5,0.9C29.2,28.5,32.4,28.3,34.2,28.6z"/>
					<path id="SvgjsPath5581" d="M39.3,33.4c-1.3-2-2.8-3.2-4.9-3.6c-2.2-0.3-5.1-0.1-6.9,0.9c-0.1,0.1-0.8,0.6-0.7,0
						c0.4-0.6,2-1.1,2.8-1.3C38.2,27.4,39.9,34.2,39.3,33.4z M27,31.8c-0.3,0.9,0.4,3,4.7,3.5c3,0.2,7.2-0.8,6.7-0.8
						c-2.2,0.2-4.2,0.7-6.5,0.3C26.8,34.3,27.4,32,27,31.8z"/>
				</g>
			</g>
			
				<g id="svga-group-eyes-right" transform="matrix(1.1000003100000002 0 0 1.1000003100000002 -12.590646864746617 -8.31002560841165) translate(-5.838672220806777e-17 -1)">
				<g id="svga-group-eyesback-right">
					
						<radialGradient id="SvgjsPath5553_1_" cx="40.3605" cy="29.3258" r="6.0642" gradientTransform="matrix(24.268 0.9341 1.4014 -20.32 -960.9941 590.7029)" gradientUnits="userSpaceOnUse">
						<stop  offset="0" style="stop-color:#FFFFFF"/>
						<stop  offset="0.544" style="stop-color:#FDFEFE"/>
						<stop  offset="0.74" style="stop-color:#F6F8F9"/>
						<stop  offset="0.879" style="stop-color:#EAEFF2"/>
						<stop  offset="0.992" style="stop-color:#D9E3E8"/>
						<stop  offset="1" style="stop-color:#D8E2E7"/>
					</radialGradient>
					<path id="SvgjsPath5553" class="st32" d="M58.1,29.8c-2.1,0.3-3.7,1.6-4.9,3.7l0,0l0,0c-0.1,0.4,0.3,0.8,1,1.1
						c2.2,0.2,4.2,0.7,6.5,0.4c4.5-0.6,4.5-2.6,4.7-3c0.1-0.6,0.1-0.7,0.1-1.1c-1.1-0.7-1.9-0.8-2.7-0.9
						C61.9,29.7,59.7,29.6,58.1,29.8z"/>
				</g>
				<g id="svga-group-eyesiriswrapper-right" transform="translate(-0.25 0)">
					<g id="svga-group-eyesiriscontrol-right">
						
							<g id="svga-group-eyesiris-right" transform="matrix(1.2000007300000004 0 0 1.2000007300000004 -25.200091980000053 -16.799861429133713)">
							<path id="SvgjsPath5610" class="st23" d="M73.5,41c0,1.6-1.2,2.8-2.8,2.8s-2.8-1.2-2.8-2.8c0-1.6,1.2-2.8,2.8-2.8
								S73.5,39.5,73.5,41z"/>
							<path id="SvgjsPath5611" class="st24" d="M69.2,42.2C69.6,42.2,69.2,42.1,69.2,42.2c-0.2-0.2-0.6-0.3-0.6-0.5
								c0-0.4,0.7-0.6,0-0.8c-0.7-0.7,0.6-0.7,0.6-0.7c-0.4-1.1,0.1-0.4,0.3-0.8c0.9-1.2,0.2,0.1,0.8,0c0.2,0-0.3-0.7,0-0.6
								c0.2,0.1,0.3,0.2,0.3,0.2c0.2,0,0.4-0.3,0.4-0.3c0.3,0.1,0.6,0.6,0.4,0.4c0.2,0,0.4-0.1,0.6-0.1c0,0,0-0.1,0.1,0
								c0.4,1.2,1.4,1.1,0.2,1.4c0,0-0.1,0,0.2,0.2c1.2,1-1,0.7,0.2,1.1c0,0-0.7,0.4-0.7,0.6c0,0.2-0.4,0.8-0.9,0.6
								c-0.2-0.1-0.2,0.2-0.4,0.1c-0.2-0.3-0.8,0-0.6-0.3c0.3-0.2-0.3,0.1-0.4,0.1c-0.3,0,0.4-1.2,1.8-0.3c0.3,0.2-0.4-0.7,0.3-0.7
								c0.1,0,0-0.2,0-0.3c-0.3-0.1,0.7,0,0.7-0.6c0.1,0,0.2-0.1-0.8,0c0,0,0-0.3,0-0.4c0-0.2,0.6-0.1,0.4-0.3l-0.3-0.8
								c-1.2-0.2-0.6-0.3-1.2-0.1c0,0.2-1.6,0.9-1.6,1.2c0,0.3,1,0.4,0.1,1C70.5,44.3,68.2,41.7,69.2,42.2z"/>
							<path id="SvgjsPath5612" class="st25" d="M70.7,38.6l0.1,2l0.9-1.8l-0.8,1.9l1.4-1.3L71,40.8l1.9-0.7L71.2,41l2,0.1l-2,0.1
								l1.8,0.9l-1.9-0.7l1.3,1.4L71,41.2l0.7,1.9l-0.9-1.8l-0.1,2l-0.1-2l-0.7,1.8l0.7-1.9L69,42.7l1.3-1.4L68.4,42l1.8-0.9l-2-0.1
								l2-0.1L68.4,40l1.9,0.7L69,39.2l1.4,1.3l-0.7-1.8l0.9,1.8L70.7,38.6L70.7,38.6z"/>
							<path id="SvgjsPath5613" class="st26" d="M71.1,39.2l-0.2,1.6l0.9-1.2L71,40.8l1.3-0.8l-1.2,0.9l1.6-0.2L71.2,41l1.4,0.3
								L71,41.1l1.2,0.9l-1.3-0.8l0.8,1.3l-0.9-1.2l0.2,1.6l-0.3-1.4l-0.3,1.4l0.2-1.6l-0.9,1.2l0.8-1.3L69.2,42l1.2-0.9l-1.6,0.2
								l1.4-0.3l-1.4-0.3l1.6,0.2L69.2,40l1.3,0.8l-0.8-1.3l0.9,1.2l-0.2-1.4l0.3,1.4L71.1,39.2z"/>
							<path id="SvgjsPath5614" class="st27" d="M71.7,41c0,0.6-0.4,1-1,1s-1-0.4-1-1c0-0.6,0.4-1,1-1S71.7,40.5,71.7,41z"/>
							<path id="SvgjsPath5615" class="st28" d="M69.6,42.9c-0.1,0.1-0.4,0.1-0.7-0.1c-0.2-0.2-0.2-0.4-0.1-0.7
								c0.1-0.1,0.4-0.1,0.7,0.1C69.7,42.5,69.8,42.8,69.6,42.9z"/>
							<path id="SvgjsPath5616" class="st29" d="M72.9,40.5c-0.2,0.2-0.8,0-1.2-0.4c-0.4-0.4-0.7-1-0.4-1.2s0.8,0,1.2,0.4
								C72.9,39.7,73.2,40.2,72.9,40.5z"/>
						</g>
					</g>
				</g>
				<g id="svga-group-eyesfront-right">
					<path id="SvgjsPath5591" class="st1" d="M59.2,22c-4.7,0.1-9.6,3.2-9.5,10.8c0.1,6.9,5.6,10.4,10.1,10.1
						c4.7-0.1,7.4-7.9,8.1-10.8C69.9,24.4,63.9,21.8,59.2,22z M60.6,35c-2.2,0.3-4.3-0.1-6.5-0.4c-0.6-0.3-1.1-0.7-1-1.1l0,0l0,0
						c1.3-2,2.8-3.3,4.9-3.7c1.6-0.2,3.8,0,4.7,0.1c0.8,0.1,1.8,0.3,2.7,0.9c0,0.4,0,0.7-0.1,1.1C65.1,32.5,65.1,34.4,60.6,35z"/>
					
						<radialGradient id="SvgjsPath5592_1_" cx="49.3694" cy="18.0942" r="7.7997" fx="55.5194" fy="17.5992" gradientTransform="matrix(-21.8142 3.0165 2.9481 16.2303 1081.7008 -411.0125)" gradientUnits="userSpaceOnUse">
						<stop  offset="0" style="stop-color:#E1AC8F"/>
						<stop  offset="0.7" style="stop-color:#E1AC8F;stop-opacity:0.3"/>
						<stop  offset="1" style="stop-color:#F0C7B1;stop-opacity:0"/>
					</radialGradient>
					<path id="SvgjsPath5592" class="st33" d="M65.8,30.6c-0.6-3.1-4.6-5.1-8.8-4.5c-4.2,0.7-7.1,3.7-6.6,6.8C51,36,55,38,59.2,37.4
						C63.5,36.9,66.4,33.7,65.8,30.6z M65.3,32c-0.2,0.6-0.3,2.5-4.7,3c-2.2,0.3-4.3-0.1-6.5-0.4c-0.6-0.3-1.1-0.7-1-1.1l0,0l0,0
						c1.3-2,2.8-3.3,4.9-3.7c1.6-0.2,3.8,0,4.7,0.1c0.8,0.1,1.7,0.3,2.7,0.9C65.5,31.3,65.4,31.5,65.3,32z"/>
					
						<radialGradient id="SvgjsPath5597_1_" cx="51.1699" cy="31.7737" r="12.0088" gradientTransform="matrix(-15.8525 -1.3242 1.7719 -13.5574 815.1181 535.6591)" gradientUnits="userSpaceOnUse">
						<stop  offset="0.95" style="stop-color:#000000;stop-opacity:0"/>
						<stop  offset="1" style="stop-color:#000000;stop-opacity:0.2"/>
					</radialGradient>
					<path id="SvgjsPath5597" class="st34" d="M65.3,32c0.1-0.6,0.1-0.7,0.1-1.1c-1-0.6-1.9-0.7-2.7-0.9c-1-0.2-3.1-0.3-4.7-0.1
						c-2.1,0.3-3.7,1.6-4.9,3.7l0,0l0,0c-0.1,0.4,0.3,0.8,1,1.1c2.2,0.2,4.2,0.7,6.5,0.4C65.1,34.4,65.1,32.5,65.3,32z"/>
					<path id="SvgjsPath5601" class="st17" d="M58.3,28.6c-1.6,0.2-3,0.9-4.3,1.8c-0.3,0.2-0.7,0.4-1.1,0.7c0.3-0.1,0.8-0.3,1-0.4
						c-0.3,0.3-0.7,0.7-0.9,1.1c1.1-1.4,3.3-2.6,5.2-2.9c1.8-0.3,5-0.1,7.5,0.9C63.4,28.5,60.2,28.3,58.3,28.6z"/>
					<path id="SvgjsPath5602" d="M62.9,29.4c0.8,0.2,2.3,0.8,2.8,1.3c0.1,0.6-0.4,0-0.7,0c-1.7-0.9-4.7-1.1-6.9-0.9
						c-2.1,0.3-3.7,1.6-4.9,3.6C52.7,34.2,54.3,27.4,62.9,29.4z M60.6,35c-2.2,0.3-4.3-0.1-6.5-0.3c-0.6-0.1,3.7,1,6.7,0.8
						c4.2-0.3,5-2.5,4.7-3.5C65.1,32,65.6,34.3,60.6,35z"/>
				</g>
			</g>
			<g id="svga-group-eyebrows-left" transform="rotate(7.500000200000001 73.19987869262695 70.17048645019531)">
				<path id="SvgjsPath5621" class="st35" d="M13.1,28.2c3.5-4.3,9.3-3.6,14.2-2.9c1.2,0.2,2.5,0.3,3.7,0.6c0.9,0.2,1.6,1.2,0.9,2
					c-0.3,0.3-1,0.3-1.4,0.3C24.6,28.1,18,24.9,13.1,28.2z"/>
			</g>
			<g id="svga-group-eyebrows-right" transform="rotate(3.7500001999999997 126.83649826049805 70.32752227783203)">
				<path id="SvgjsPath5622" class="st35" d="M59.6,26.8c-1-0.7-2-1.1-3.2-1.3C52,24.8,43.8,27.7,41.6,27c-1.3-0.3-1.1-1.7-0.4-2
					c0.3-0.2,0.4-0.2,3.6-0.8C50.1,23.4,56.2,22.6,59.6,26.8z"/>
			</g>
			<g id="svga-group-nose-single">
				<path id="SvgjsPath4117" class="st3" d="M41.3,43.5c-0.1,0.1-0.6,0.1-0.7,0c0,0-2.9-1-2.6-1.9c0.6-1.4,5.8-0.3,5.8,0
					C44,42.4,41.3,43.5,41.3,43.5z"/>
				<path id="SvgjsPath4118" class="st17" d="M37.4,40.2c0,0,2.5-8.5,2.8-10.4c0.4,3-0.7,9.6-0.8,10.9c-0.2,1.7,1.6,2.7,1.6,2.7
					c0.1,0.2,0,0.2-0.2,0.2l-3.1-1.2C37,41.8,37,41.2,37.4,40.2z M42.4,41.7c0.4,0.1,0.6,0.2,0.4,0.4c0,0.2-0.2,0.4-0.6,0.2
					S41,42,41,42S42,41.6,42.4,41.7z"/>
			</g>
			<g id="svga-group-beardwrap" transform="matrix(1.0400003100000001 0 0 1.00020031 -4.000050836579533 -0.0064745547884044186)">
				
					<g id="svga-group-beard-single" transform="matrix(0.89999969 0 0 0.89999969 10.000529582478222 12.405679601803953) translate(0 2.0000001000000003)">
					<path id="SvgjsPath5678" class="st36" d="M60.2,19c-1.4,0.8-2.5,1.3-3.2,1.9c-5.1,3.5-5.7,11.6-6.6,19.2
						c-2.7-4.8-2.3-5.6-5.9-6.4c-4.3-1-5.9-1.3-7.5,0.8c-1.2-1.2-1.7-1.9-4.7-1.2c-5.4,1-5.6,0.9-7.2,4.3c-0.1,0.2-1.3,2.2-1.4,2.6
						c-0.2-1.8,0-1.9-0.7-5.9c-0.8-4.1-1.1-7.5-3.1-10.7c-2-2.8-6.4-4.8-8.5-5.6c0,3.5,0.3,8.7,0.4,9.4c0.8,8.1,4,21,9.7,26.3
						c4.8,4.3,10,4,15.6,4c2.9,0,8.3,0.2,11.6-1.4c4.5-1.8,7.6-6.6,9.4-11c3.1-7.5,4.8-15.1,4.8-27.2C61,18.6,60.6,18.7,60.2,19z
						 M38.8,46.2c0-0.3,0.2-0.8,0.3-0.9c0.4-1,2.7-4.1,3-4.3c-3,0.9-6.5,1-10,0.1c0.9,1,2.9,3.7,3.1,5.1c-3.2-1.4-7.5-2-7-5.5
						c0.2-2.6,3.1-2.7,5-2.8c7.7-0.1,12.3-0.6,12.6,2.8C46.3,44.1,42,44.8,38.8,46.2z"/>
					<path id="SvgjsPath5679" class="st37" d="M62.7,18c0,12.2-1.7,19.6-4.8,27.2c-1.8,4.5-4.9,9.4-9.4,11
						c-3.3,1.6-8.7,1.4-11.6,1.4c-5.6,0-10.8,0.3-15.6-4c-5.7-5.4-8.9-18.1-9.7-26.3c-0.1-0.7-0.4-5.9-0.4-9.4
						c0.4,0.1,1,0.3,1.7,0.7c3,13.7,3.8,32.7,19.1,38c-0.4-0.9-1.8-2.8-1.8-2.8s2.8,1.8,4.1,2.8c0-0.4-0.4-2.2-0.4-2.2
						s2.2,1.6,3.6,2c0-0.4-0.4-1.9-0.4-1.9l2.3,1.6l3.7-3.1c0,0-1.1,2.5-1.6,3.3c1.7-0.4,4.3-2.5,4.3-2.5s-0.4,1.4-0.4,1.9
						c13.4-7.5,13.4-23.4,15.4-36.9C61,18.6,61.4,18.4,62.7,18z M32,41.1c0.1,0.1,0.3,0.3,0.4,0.6c2.9,1.9,6.2,1.8,9,0
						C41.8,41.3,42,41,42,41C39.1,41.9,35.6,42,32,41.1z M37.3,55.1c-0.2-0.3-0.4-0.8-0.6-1.2l-0.1-0.6c0,0-0.2-1.1-0.1-1.1
						c0-0.7-0.1-1.4-0.1-1.9C36,53.5,36.4,54.2,37.3,55.1z M38.9,43.5C38.9,43.5,38.9,43.5,38.9,43.5c-0.1,0.8-1.2,2.1-1.3,2.9
						C37.6,45.1,38.9,44,38.9,43.5z M48.5,41.9c0.7,1.4,0.1,2.6-0.6,4C48.5,43.8,48.7,43.3,48.5,41.9z M45.9,37.4
						c0.7,1,0.9,1.2,1.7,4.2C46.9,40,46.8,39.5,45.9,37.4z M46.6,36.2c0.9,0.8,1.6,1.4,2.1,3.9C47.9,38.2,47.5,37.2,46.6,36.2z
						 M38.8,53.8c0.2-2.7,1-4.2,2.9-6.2C40.2,49.6,39.5,51.5,38.8,53.8z M41.6,52.8c1-1.6,2-3.9,4-4.5c-0.7,0.3-1,0.7-1.7,1.4
						c0,0-0.3,0.4-0.9,1.1C42.7,51.5,42,52.2,41.6,52.8z M43.6,54.7c1.1-1.8,1-2.2,2.1-3.3C44.7,52.8,44.7,53.5,43.6,54.7z
						 M42.7,49.1c0.6-1.8,1.4-3.5,3.3-4.5C44.7,45.7,43.6,47.6,42.7,49.1z M38,50.3c-0.4-1.3-0.1-2.5,0.1-3.9
						C38.1,48.2,37.9,49.1,38,50.3z M51.5,48c-1.3,1.8-2.6,2.6-4.1,3.2C48.9,50.3,49.6,49.8,51.5,48z M53.5,42.6
						c-0.7,3.3-3.3,5.5-6.2,7.1c3.1-2.6,4.3-4,4.3-4C52.2,45,52.9,43.9,53.5,42.6z M50.7,45.5c0-2.9,0.4-4.6,2-7.1
						C51.8,40.9,51.2,43.4,50.7,45.5z M56.4,33.7c0,1.2,0,3.5-3.2,7.9l2.2-4.8C56,35.4,56.1,34.8,56.4,33.7z M52.8,36.2
						c-0.1-2.6,0.6-3,1.6-5.8C53.8,32.9,53.3,33.5,52.8,36.2z M58.3,24.6c-0.6,3.2-1.1,4-3.3,8.7C55.8,29.4,56.9,28.4,58.3,24.6z
						 M26.1,45.9c-0.8-1.6-1.2-2.5-0.6-4c-0.1,0.6-0.2,0.8,0,2L26.1,45.9z M26.3,41.6c0.7-2.9,1.2-3.6,1.7-4.2
						C26.7,40.2,27.3,39.3,26.3,41.6z M25.1,40.1c0.6-2.1,1.1-3,2.1-3.9C26.3,37.3,25.8,38.4,25.1,40.1z M32.3,47.4
						c2,2.1,2.6,3.9,2.9,6.2C34.5,51.3,33.7,49.8,32.3,47.4z M28.3,48.2c0.7,0.2,1.2,0.4,1.9,1.3c0,0,0.6,0.7,1.7,2.5
						c0.2,0.4,0.4,0.7,0.4,0.7c-0.6-0.6-2.3-3-2.3-3C29.2,48.8,28.9,48.6,28.3,48.2z M27.7,51.3c1.2,1.2,1.1,1.8,2.1,3.3
						C28.7,53.6,28.7,52.8,27.7,51.3z M27.9,44.7c0.9,0.4,1.3,0.9,1.7,1.3c0,0,0.2,0.2,0.4,0.6c0.7,1.1,0.9,1.4,1.2,2.6
						c-0.3-0.7-0.6-1-1.4-2.5c-0.2-0.2-0.4-0.6-0.4-0.6C28.7,45.3,28.3,45,27.9,44.7z M35.8,46.4c0.3,1.6,0.2,2-0.1,3
						C35.8,48.3,35.8,48.4,35.8,46.4z M35.6,43.6c0.4,0.3,1,0.8,1.3,1.8c0,0,0.6,1.4,0.2,3.6C37,48.4,36.9,45.2,35.6,43.6z
						 M26.5,51.2c-1.8-0.6-3-1.7-4.1-3.2C23.8,49.4,24.8,50.2,26.5,51.2z M26.7,49.8c-3-1.7-5.6-3.7-6.2-7.1c0.4,1,1,1.9,2,3
						C22.4,45.7,23.6,47.1,26.7,49.8z M21.1,38.4c1.3,2.1,2.1,3.9,2,7.1C22.7,43.2,22.1,40.7,21.1,38.4z M20.7,41.6
						c-1.8-2.3-3.1-4.9-3.2-7.9C18.2,36.3,19.2,37.8,20.7,41.6z M19.5,30.3c1.1,3,1.7,3.5,1.6,5.8C20.7,33.5,20,33.2,19.5,30.3z
						 M18.9,33.3c-1.8-3.8-2.7-5.1-3.3-8.7C17.3,28.8,18,29.6,18.9,33.3z"/>
					<path id="SvgjsPath5680" class="st38" d="M60.2,19c-1.4,0.8-2.5,1.3-3.2,1.9c-5.1,3.5-5.7,11.6-6.6,19.2
						c-2.7-4.8-2.3-5.6-5.9-6.4c-4.3-1-5.9-1.3-7.5,0.8c-1.2-1.2-1.7-1.9-4.7-1.2c-5.4,1-5.6,0.9-7.2,4.3c-0.1,0.2-1.3,2.2-1.4,2.6
						c-0.2-1.8,0-1.9-0.7-5.9c-0.8-4.1-1.1-7.5-3.1-10.7c-2-2.8-6.4-4.8-8.5-5.6c0,3.5,0.3,8.7,0.4,9.4c0.8,8.1,4,21,9.7,26.3
						c4.8,4.3,10,4,15.6,4c2.9,0,8.3,0.2,11.6-1.4c4.5-1.8,7.6-6.6,9.4-11c3.1-7.5,4.8-15.1,4.8-27.2C61,18.6,60.6,18.7,60.2,19z
						 M53.7,51.1c-2.2,3.3-7.1,5.5-9.1,5.6c-0.7,0.1-4,0.7-11.8,0.3c-1.3,0-5.1-0.4-7.1-1.4c-7.8-3.3-11.3-16.3-13-24.6
						c-0.4-2.2-1.1-8-1.3-12.9c3,1.3,6.7,3.7,8.4,6.6c1.4,2.8,1.8,6.1,2.6,9.5c1,4.5,0.6,3.1,1.1,6c0,0.1,0,0.1,0,0.2
						c4.2-6.6,2.1-5.6,8.8-6.9c2.1-0.6,3.2-0.6,4.6,1.1c1.8-2.1,2.9-1.4,7.4-0.6c3.6,0.8,2.7,1.3,5.7,5.8c0.1,0.2,0.3,0.6,0.3,0.6
						c0.2-1,0.3-2.8,0.7-4.3c0.1-0.4,1.6-7.5,2.1-9.1c1.4-4.5,3.6-5.6,7.1-7.9c0.4-0.3,0.9-0.4,2.2-1C61.9,28.8,60.1,42.4,53.7,51.1
						z M41.6,37.5c-2.2,0-2.7,0.2-8.4,0c-1.8,0-3.5,0-4.6,1.1c-1.3,1.2-2,4.8,2.7,6.5c1.6,0.4,3.7,1.1,4.1,1.3c0-1.4-2.6-4.7-3-5.1
						c4.2,1,8,0.4,9.5-0.1c-0.7,0.7-3.1,3.8-3.1,5.2c4-1.3,6.2-1.7,7.4-3.7C46.8,41,46.4,37.5,41.6,37.5z M38.8,46.2
						c0-0.3,0.2-0.8,0.3-0.9c0.4-1,2.7-4.1,3-4.3c-3,0.9-6.5,1-10,0.1c0.9,1,2.9,3.7,3.1,5.1c-3.2-1.4-7.5-2-7-5.5
						c0.2-2.6,3.1-2.7,5-2.8c7.7-0.1,12.3-0.6,12.6,2.8C46.3,44.1,42,44.8,38.8,46.2z"/>
				</g>
			</g>
			
				<g id="svga-group-mustache-single" transform="matrix(0.79999927 0 0 0.79999927 19.999072019783938 25.23766531932968) translate(0 -1)">
				<path id="SvgjsPath5669" class="st39" d="M26.2-23L26.2-23L26.2-23L26.2-23z"/>
			</g>
			
				<g id="svga-group-hair-front" transform="matrix(1.0400003100000001 0 0 1.00020031 -3.9988147124976905 -0.009234792913545675)">
				<path id="SvgjsPath4424" class="st0" d="M20,34.5c-3.7-6.5-6.1-13-7.8-21.3C10.6,5,16-3.5,21.7-8.1c6.9-5.7,18-8,24.2-8
					c3.3,0,8.5,0.9,11.2,1.8c3.2,0.9,7.2,3.5,9.1,6.9c1.3-0.9,1.9-1.3,2.9-2.7c-0.6,1.4-0.9,1.9-2.6,4.1c1-0.2,2-0.3,3.7-1.2
					c-1.7,1.6-1.7,1.7-2.7,2.7c2.2,0.9,4.1,3,5.4,4.9c4.1,6.7-0.3,19.1-2.5,25.1c-2.3,6.5-0.9,3.1-3,7.7c-3.3-7.5-4.1-11.7-4.6-13.9
					c-1.1-5.9-2.5-7.8-2-13.3c-8.3,5.4-22.2,7.9-28.8,7.9c-3.3,0-5.4-0.6-7.5-1c-4.2,12.6-2,9.6-3.9,17.6
					C20.5,31.5,20.3,32.5,20,34.5z"/>
				<path id="SvgjsPath4425" class="st40" d="M70.5,25.5c-2.3,6.5-0.9,3.1-3,7.7c-3.3-7.5-4.1-11.7-4.6-13.9
					c-0.9-4.5-1.9-6.7-2.1-9.8c3.7,7.9,4.8,9.6,6.2,17.3c-0.2-4.9,2-9.1,1.4-15.3c1.1,3.2,0.3,8.7,0.9,11.6c1-7.8,5.5-13.3,1.7-25.1
					c0.8,0.8,1.3,1.6,1.9,2.5C77.1,7.1,72.6,19.4,70.5,25.5z M18.1,14.6c-1.3,4.5-0.4,7.9-0.4,11.2c-2.6-7-4.8-12.3-4.6-22.1
					c-1.1,3.1-1.6,6.4-0.9,9.5c1.7,8.3,4.1,14.8,7.8,21.3c0.3-1.9,0.7-3,0.8-3.9c1.9-7.8,0-6.2,3.9-17.6c-3,4.7-4.6,9.6-5,14.7
					C19.7,23.6,17.9,20.1,18.1,14.6z M64,0c-0.9,7.2-0.6,7.7,0.1,10.7c0.1,0.4,0.2,0.7,0.2,0.7c0.9,3.3,1.2,4,1.4,6.8
					C66.1,9.7,63.6,15.1,64,0z M69.7,13.5c0-6.4,0.1-11.7-2.8-15.5C70.5,1.8,70.4,8.4,69.7,13.5z M66.6,11.1
					C66.4,6.4,67.7-0.2,64.5-3C68.3-0.3,66.9,6.9,66.6,11.1z M16.3,20.1c-1-3.1-0.4-4.7-0.4-8.6C16.1,15.2,15.4,16.5,16.3,20.1z
					 M19.7,23.7c-0.2-3.2,0.3-7.9,2.8-9.9C20.4,15.8,19.9,19.8,19.7,23.7z M52.8-13.2c4-0.4,11.9,4.7,12.4,8.8
					C64.5-8.2,56.3-13.4,52.8-13.2z M42-11.5c6.1-2,13.9,1.9,13.9,1.9c2.7,1.2,5.2,3.2,6.1,5.9c-1.1-2.7-3.7-4.2-6.4-5.5
					C55.7-9.1,47.8-12.8,42-11.5z M15.3,5.4c1.9-5.1,5.1-10,10-12.8C20.9-4.5,17.5,0.5,15.3,5.4z M26.9-3c4-5.6,15.4-8.1,22-6.2
					C42.6-10.5,31.1-8,26.9-3z M59.1,3.8C47,11.1,35.5,11.7,21.2,9.2C35.5,10.6,46.6,10,59.1,3.8z M34,5.5C43.5,5,48,5,55.1,1.8
					C48.5,5.5,43.3,5.9,34,5.5z M20.3,7.4c7.5-6,15.1-6.8,27.4-8.3C35.3,1.6,28.5,1.8,20.3,7.4z M45.1-5.9c1-0.1,3-0.4,6.4,0
					c0,0,5.8,0.6,8.7,4.1c0.2,0.3,0.4,0.6,0.4,0.6C56.8-5.3,50.7-6.1,45.1-5.9z"/>
				<path id="SvgjsPath4426" class="st41" d="M25.8-8.3c11.6-7,22.8-8.8,33.9-1.1C48.3-16,37.8-14.2,25.8-8.3z M66.7-3.8
					c4.9,5.9,5.4,13.7,3,21C73.3,8.8,71.5,1.1,66.7-3.8z M17.9-1.4c-2.7,3.1-3.9,5.1-4.5,9.3c-0.2,4.3,0.6,7.5,2.2,12.2
					C13.4,10.5,12.4,6.3,17.9-1.4z"/>
				<path id="SvgjsPath4427" class="st42" d="M73.1,0.2c-1.1-1.9-3.5-4-5.5-4.8c1-1,1.4-1.4,3.6-3.5c-1.1,0.6-2.2,1.3-4.5,1.9
					c2.1-2.7,2.1-2.9,3-5.1c-1.2,1.6-1.8,2.5-3.6,3.7c-1.9-3.5-6.1-6-9-6.9c-2.7-0.9-8-1.8-11.5-1.8c-6.4,0-17.3,2.5-24.1,8
					c-5,4.1-11.2,12.8-9.5,21.5c1.6,7.6,3.8,14.5,8.1,21.7c1.2-6.5,1.2-3.9,2.1-12.6c0.2-2.2,1.9-7.2,2.6-9.3c4,0.9,8.5,2,21.3-1
					c4.7-1.1,10.4-3,14.6-5.7c-0.4,4.7,0.9,7.2,2,12.4c0.4,2,1,6.4,4.9,14.8c2.6-5.6,0.9-1.8,2.7-6.8C72,21.7,77.5,7.5,73.1,0.2z
					 M71.2,20.8c-3.6,11-2.1,7.7-3.7,11.8c-0.3-0.8-2.6-7.2-3.3-10.8c-2.3-10.9-2.7-10.1-2.9-13.3C61,3.7,62,1,62.3-0.1
					c-1.2,3.3-1.6,5.7-1.6,6.2c-5.7,3.5-18.5,6-25,6.7c-6.7,0.7-14.8-0.9-20.9-3c3.1,1.7,8.3,2.9,9.6,3.2c-0.8,2-2.7,6.5-2.9,9.3
					c-0.8,7.6-1.4,9.1-1.7,11.7c-4.5-8.4-6.9-19.9-7.1-22.8C12,5.9,16.5-2.9,22.2-7.6c6.9-5.7,18.3-7.8,23.4-7.9
					c2.9-0.1,8.5,0.7,11.3,1.4c2.9,0.7,7.5,3.3,9.3,6.7l0,0c1.1-0.7,1.3-0.9,2.2-1.8l0,0C68-8.3,67-7,66.3-6.1
					c1.2-0.2,2.3-0.6,3.5-1c-1.7,1.6-1.4,1.3-2.5,2.5c1.6,0.7,5.6,3.8,6.2,8.7C74.3,10.6,72.5,16.3,71.2,20.8z"/>
			</g>
			<g id="svga-group-glasses-single">
				<path id="SvgjsPath4292" class="st43" d="M41-3.4L41-3.4L41-3.4L41-3.4z"/>
			</g>
		</g>
	</g>
	<rect id="SvgjsRect1036" x="4.1" y="83.9" class="st44" width="91.6" height="6.9"/>
</g>
</svg>
