<?xml version="1.0" encoding="utf-8"?>
<!-- Generator: Adobe Illustrator 21.0.0, SVG Export Plug-In . SVG Version: 6.00 Build 0)  -->
<svg version="1.1" id="Layer_1" xmlns="http://www.w3.org/2000/svg" xmlns:xlink="http://www.w3.org/1999/xlink" x="0px" y="0px"
	 viewBox="0 0 300 300" style="enable-background:new 0 0 300 300;" xml:space="preserve">
<style type="text/css">
	.st0{fill:#0C080C;}
	.st1{fill:#F3D4CF;}
	.st2{fill:#FFF4F3;}
	.st3{fill:#E4B3AB;}
	.st4{fill:none;stroke:#C5796D;stroke-width:1.5;}
	.st5{fill:url(#SvgjsPath3242_1_);}
	.st6{fill:#607E83;}
	.st7{fill:#496E74;}
	.st8{fill:#355E65;}
	.st9{fill:#174046;}
	.st10{display:none;}
	.st11{display:inline;fill:#F3D4CF;stroke:#C5796D;stroke-width:1.5;}
	.st12{display:inline;fill:#C5796D;}
	.st13{fill:#EBC3BD;}
	.st14{fill:url(#SvgjsPath3457_1_);}
	.st15{fill:#FFFFFF;}
	.st16{fill:#F771A9;stroke:#E85391;stroke-width:0.75;}
	.st17{fill:#C92066;}
	.st18{fill:#FF8EBD;}
	.st19{fill:#FFA8CC;}
	.st20{fill:url(#SvgjsPath3473_1_);}
	.st21{fill:#4E60A3;}
	.st22{fill:url(#SvgjsPath3532_1_);}
	.st23{fill:url(#SvgjsPath3536_1_);}
	.st24{opacity:0.9;enable-background:new    ;}
	.st25{opacity:0.5;fill:url(#SvgjsPath3542_1_);enable-background:new    ;}
	.st26{opacity:0.5;fill:url(#SvgjsPath3546_1_);enable-background:new    ;}
	.st27{opacity:0.75;fill:url(#SvgjsPath3550_1_);enable-background:new    ;}
	.st28{fill:url(#SvgjsPath3499_1_);}
	.st29{fill:url(#SvgjsPath3504_1_);}
	.st30{fill:#C5796D;}
	.st31{fill:url(#SvgjsPath3481_1_);}
	.st32{fill:url(#SvgjsPath3555_1_);}
	.st33{fill:url(#SvgjsPath3559_1_);}
	.st34{opacity:0.5;fill:url(#SvgjsPath3565_1_);enable-background:new    ;}
	.st35{opacity:0.5;fill:url(#SvgjsPath3569_1_);enable-background:new    ;}
	.st36{opacity:0.75;fill:url(#SvgjsPath3573_1_);enable-background:new    ;}
	.st37{fill:url(#SvgjsPath3520_1_);}
	.st38{fill:url(#SvgjsPath3525_1_);}
	.st39{fill:#2A232B;}
	.st40{opacity:0.2;fill:#FFFFFF;enable-background:new    ;}
	.st41{opacity:0.1;fill:#2A232B;enable-background:new    ;}
	.st42{fill:#1B141C;}
	.st43{fill:#322C33;}
	.st44{fill:#26120B;}
	.st45{display:none;opacity:0.5;fill:#ECF0F1;enable-background:new    ;}
</style>
<g id="svga-group-wrapper" transform="scale(3 3)">
	<g id="svga-group-subwrapper" transform="matrix(0.84999948 0 0 0.84999948 14.849997513767534 17.200317882566836)">
		<g id="svga-group-hair-back">
			<path id="SvgjsPath3581" class="st0" d="M69.8,45c-0.3,14.9-2.4,47.6-27,47.5C5.6,92.3,14.6,60.3,14.3,45C13.7,23,26.7,5,42,5
				S70.5,23,69.8,45z"/>
		</g>
		<g id="svga-group-humanbody-single">
			<path id="SvgjsPath2761" class="st1" d="M83.9,87.1c-2.8-4.7-6.3-5.5-9-6.5c-3-0.9-8.9-1.4-12.2-2.1c-3.2-0.7-10.7-2.6-10.8-6.3
				c-0.1-3.7,2-18.5,2-18.5h-24c0,0,2.1,14.8,2,18.5c-0.1,3.5-7.6,5.6-10.8,6.3c-3.3,0.7-9.4,1.2-12.2,2.1c-2.9,0.9-6.3,1.8-9,6.5
				c-1.8,2.9-3.1,5.6-3.1,10.7l88.7-0.9C85.4,91.8,85.6,89.9,83.9,87.1z"/>
			<path id="SvgjsPath2762" class="st2" d="M51.7,72.3c1.1,5.1,8.4,6.4,12.1,7c10.1,2,15.6,2.4,19.6,9c1.3,2.3,2.4,5.6,2.6,9.4
				c0.9,0.1,0.3-6.3-2.3-10.7c-4.5-7.6-13.4-7-21.4-8.6C59.4,77.8,51.8,75.8,51.7,72.3L51.7,72.3z M31.9,72.3
				c-0.1,3.5-7.6,5.6-10.8,6.3c-7.8,1.5-16.9,1-21.4,8.6C-2.9,91.6-4,98.2-3.2,98c0.2-3.9,1.9-7.3,3.3-9.5c4-6.7,9.5-7,19.6-9
				C23.5,78.6,30.8,77.3,31.9,72.3L31.9,72.3z"/>
			<path id="SvgjsPath2763" class="st3" d="M19.2,82.3c0,0,13.2,0.1,15.5,0.9c1.1,0.3,3.9,2.6,3.9,2.6s-3.1-1.4-4-1.8
				C32.4,83.4,19.2,82.3,19.2,82.3z M41.7,87.2c1,0,3.6-1.8,3.6-1.8s-2.5,1-3.4,1c-0.7,0-3-0.6-3-0.6S40.9,87.2,41.7,87.2z
				 M49.8,83.8c3.1-0.9,13.8-1.5,13.8-1.5S52.5,82,49.4,83c-1,0.3-3.5,2.4-3.5,2.4S48.7,84.1,49.8,83.8z"/>
			<path id="SvgjsPath2764" class="st4" d="M83.9,87.1c-4.5-7.6-13.4-7-21.4-8.6c-3.2-0.7-10.7-2.6-10.8-6.3c-0.1-3.7,2-18.5,2-18.5
				H29.8c0,0,2.1,14.8,2,18.5c-0.1,3.5-7.6,5.6-10.8,6.3c-3.3,0.7-9.4,1.2-12.2,2.1c-2.9,0.9-6.3,1.8-9,6.5c-1.8,2.8-2.9,7.5-3,10.9
				h89.8C85.6,95,85.6,89.9,83.9,87.1z"/>
		</g>
		<g id="svga-group-chinshadow-single">
			
				<linearGradient id="SvgjsPath3242_1_" gradientUnits="userSpaceOnUse" x1="23.4518" y1="21.915" x2="23.4518" y2="38.0697" gradientTransform="matrix(16.5814 0 0 -16.5814 -347.1136 437.2441)">
				<stop  offset="0" style="stop-color:#E4B3AB;stop-opacity:0.8"/>
				<stop  offset="0.7" style="stop-color:#C5796D"/>
			</linearGradient>
			<path id="SvgjsPath3242" class="st5" d="M41.8,73.9c2.6,0,6.3-1.7,9.7-4c0.2-3.2,0.8-8,1.3-11.6c-6.5-0.9-15.6-0.8-22.1,0
				c0.4,3.5,1,8.4,1.3,11.5C35.5,72.1,39.3,73.9,41.8,73.9z"/>
		</g>
		<g id="svga-group-clothes-single">
			<path id="SvgjsPath3591" class="st6" d="M-2.9,97.8c-0.3,0-0.2,0-0.4,0c0-8.3,3.1-14.3,8.3-16.4c0.7,0.1,1.4,0.3,2.1,0.4
				C1,84.8-2.3,91.3-2.9,97.8z M79.6,81.8c-0.9,0.1-1.7,0.2-2.5,0.3c6.2,2.6,8,9.5,9,15.6c0.1,0,0.3,0,0.4,0
				C86,90.1,85.9,85,79.6,81.8z"/>
			<path id="SvgjsPath3592" class="st7" d="M79.6,83.6c0.3,0,1-0.1,1.3-0.2c-0.8-0.6-1.2-0.9-1.7-1.2c-2.8,0.4-27.4,3.3-41,3.3
				c-17.7,0-30.8-3.1-33.3-3.9c-0.6,0.3-1,0.6-1.4,1c0.4,0.1,1,0.3,1.5,0.4c-4.7,3.3-7.3,9-7.8,14.9C11.1,98,25.5,98,39.8,98l0,0
				c18.8,0,33.2-0.1,40.9-0.2c2.5,0,4.3,0,5.4,0C85.2,92.5,83.8,86.8,79.6,83.6z"/>
			<path id="SvgjsPath3593" class="st8" d="M6.5,82c-0.6,0.2-1,0.6-1.4,0.9c23,5.6,51,4.2,74.6,0.6c-0.6-0.4-1.1-0.8-1.7-1.1
				C55.3,86.3,28.5,88,6.5,82z"/>
			<path id="SvgjsPath3594" class="st9" d="M79.6,81.7C38.2,87.3,22.1,85,4.9,81.2c-6.2,2.4-8.3,9.9-8.3,16.5c0.1,0,0.1,0,0.2,0
				c48.9,0.6,84.4,0,89.7,0C86,90.1,86,85,79.6,81.7z M4.9,81.7c22.7,6.5,50.9,4.6,74.2,0.6c0.4,0.2,0.9,0.6,1.7,1.1
				c-24.3,3.9-53.5,5.4-77.3-0.8C3.9,82.2,4.5,81.9,4.9,81.7z M-3.1,97.7C-2.2,91-1,86.2,3.4,82.8c23.5,6.7,53.8,5.3,77.9,0.9
				c3.9,3.1,3.6,6.4,5.1,14C60.8,97.3,27.3,97.2-3.1,97.7z"/>
		</g>
		<g id="svga-group-head">
			<g id="svga-group-ears-left" class="st10">
				<path id="SvgjsPath3469" class="st11" d="M17.4,33.4c-0.7-1.1-2.6-3.7-4.6-3.1c-1.3,0.4-1.5,1.8-1.8,3c-0.2,1.5,0.2,4.6,0.7,5.8
					c0.4,1.1,1.7,3.2,2.4,4c1,1,2.2,4.1,2.4,4.4c0.3,0.6,0.7,1.3,1.9,1.2c1.3-0.1,2.1-0.8,2.8-0.9C22.5,47.4,19,36.3,17.4,33.4z"/>
				<path id="SvgjsPath3470" class="st12" d="M16,39.9c-0.1-0.2,0-0.7,0.1-1.1c0.1-0.3,0.1-0.8,0.1-1c-0.1-1-0.8-2.8-1.3-3.7
					c-0.6-1.1-1.3-2.5-2.4-2.9c-0.4-0.1-0.8,0-0.9,0.2c-0.1,0.1-0.1,0.3-0.1,0.3s0.1-0.1,0.2-0.2c0.1-0.1,0.2-0.2,0.4-0.2
					c-0.1,0.4-0.6,3-0.3,4.7c0.1,1.3,0.8,2.4,0.9,2.5c0,0.1,0,0.3,0.1,0.4c0.4,2,2.3,4.2,3,5c0.1,0.1,0.2,0.2,0.3,0.2
					c0,0,0-0.2-0.1-0.3c-0.7-0.8-2.5-3-2.9-4.8c-0.4-2,1.1-5.1,1.4-5.7c0.2,0.3,0.3,0.6,0.4,0.8c0.1,0.2,0.2,0.4,0.3,0.7
					c-0.2,0.3-1.5,2.8-1.1,4.7c0.2,0.7,1,1.7,1.5,1.9c0.3,0.1,0.4,0.3,0.6,0.6c0.1,0.3,0.3,0.6,0.9,0.8c0.1,0,0.2,0.1,0.3,0.1
					c0.1,0,0.2-0.1,0.3-0.1c0,0.1,0,0.3,0,0.4c0,0.2,0,0.3,0.1,0.3c0,0,0.1-0.1,0.1-0.3s0-0.6,0-0.7c-0.1-0.4-0.4-0.9-0.9-1.3
					C16.5,40.8,16.2,40.4,16,39.9z M12.6,38.2c-1-3.1,0.3-5.8,0.6-6.3c0.4,0.3,0.8,0.9,1,1.3C14.1,33.7,12.7,36.1,12.6,38.2z
					 M17,42.8c-0.4-0.2-0.7-0.4-0.8-0.8c-0.1-0.2-0.3-0.6-0.7-0.7c-0.1,0-0.1-0.1-0.2-0.1c-1.1-2.8,0.1-4,0.4-4.2
					c0.1,0.3,0.2,0.7,0.2,0.9s0,0.6-0.1,0.9c-0.1,0.4-0.1,0.9-0.1,1.2c0.1,0.4,0.4,0.9,0.9,1.4c0.3,0.4,0.7,0.9,0.8,1.2
					C17.5,42.7,17.4,42.9,17,42.8z"/>
			</g>
			<g id="svga-group-ears-right" class="st10">
				<path id="SvgjsPath3471" class="st11" d="M66.3,33.4c0.7-1.1,2.6-3.7,4.6-3.1c1.3,0.4,1.5,1.8,1.8,3c0.2,1.5-0.2,4.6-0.7,5.8
					c-0.4,1.1-1.7,3.2-2.4,4c-1,1-2.2,4.1-2.4,4.4c-0.3,0.6-0.7,1.3-1.9,1.2c-1.3-0.1-2.1-0.8-2.8-0.9
					C61.1,47.4,64.6,36.3,66.3,33.4z"/>
				<path id="SvgjsPath3472" class="st12" d="M66.7,41.3c-0.3,0.4-0.8,0.9-0.9,1.3c0,0.1,0,0.4,0,0.7s0,0.3,0.1,0.3s0.1-0.1,0.1-0.3
					c0-0.1,0-0.3,0-0.4c0.1,0.1,0.2,0.1,0.3,0.1c0.1,0,0.2,0,0.3-0.1c0.6-0.2,0.7-0.6,0.9-0.8c0.1-0.2,0.2-0.4,0.6-0.6
					c0.6-0.2,1.4-1.2,1.5-1.9c0.6-2-0.9-4.4-1.1-4.7c0.1-0.2,0.2-0.4,0.3-0.7c0.1-0.2,0.2-0.6,0.4-0.8c0.3,0.7,1.9,3.6,1.4,5.7
					c-0.4,1.9-2.3,4.2-2.9,4.8c-0.1,0.1-0.2,0.2-0.1,0.3c0,0,0.1,0,0.3-0.2c0.7-0.8,2.5-3,3-5c0-0.1,0-0.3,0.1-0.4
					c0.1-0.1,0.7-1.2,0.9-2.5c0.2-1.8-0.2-4.3-0.3-4.7c0.2,0,0.3,0.1,0.4,0.2s0.2,0.2,0.2,0.2s0-0.2-0.1-0.3
					c-0.2-0.2-0.4-0.3-0.9-0.2c-1.1,0.3-1.9,1.8-2.4,2.9c-0.4,1-1.1,2.8-1.3,3.7c0,0.2,0,0.6,0.1,1s0.1,0.9,0.1,1.1
					C67.5,40.4,67.1,40.8,66.7,41.3z M69.4,33.3c0.3-0.4,0.7-1,1-1.3c0.2,0.4,1.5,3.1,0.6,6.3C70.9,36.1,69.6,33.7,69.4,33.3z
					 M66.1,42.7c0.1-0.3,0.4-0.8,0.8-1.2c0.3-0.4,0.8-1,0.9-1.4c0.1-0.3,0-0.8-0.1-1.2c0-0.3-0.1-0.7-0.1-0.9s0.1-0.6,0.2-0.9
					c0.3,0.2,1.5,1.4,0.4,4.2c-0.1,0.1-0.2,0.1-0.2,0.1c-0.3,0.1-0.6,0.4-0.7,0.7c-0.1,0.2-0.3,0.6-0.8,0.8
					C66.3,42.9,66.1,42.7,66.1,42.7z"/>
			</g>
			<g id="svga-group-faceshape-wrap">
				<g id="svga-group-faceshape-single">
					<path id="SvgjsPath3239" class="st1" d="M69,30.1L69,30.1c0,0-5,20.5-8.7,26.3c-3,4.6-13,11.8-18.4,11.8S26.5,61,23.4,56.4
						c-3.9-5.8-8.8-26.3-8.8-26.3l0,0c-0.6-2.3-0.9-4.6-0.9-7.2c0-15.5,12.6-28.1,28.1-28.1S70,7.4,70,22.9
						C69.9,25.5,69.7,27.8,69,30.1z"/>
					<path id="SvgjsPath3240" class="st13" d="M53.7-2.4c8.8,4.7,14.9,14,14.9,24.8c0,2.4-0.3,4.8-0.9,7.2l0,0
						c0,0-5.1,20.5-8.8,26.3C56,60.1,47.4,67.5,41.8,67.5c-5.7,0-14.3-7.4-17.1-11.7c-3.9-5.8-8.8-26.3-8.8-26.3l0,0
						c-0.6-2.3-0.9-4.6-0.9-7.2c0-10.7,5.9-20,14.9-24.8C20.3,2,13.7,11.7,13.7,23c0,2.4,0.3,4.8,0.9,7.2l0,0c0,0,5.1,20.5,8.8,26.3
						c2.1,3.1,7.4,7.5,12.2,9.9c-0.2-0.1-0.4-0.2-0.8-0.3c2.5,1.3,5,2.2,6.8,2.2c0,0,0,0,0.1,0c0,0,0,0,0.1,0c1.9,0,4.3-0.9,6.8-2.2
						c-0.2,0.1-0.4,0.2-0.8,0.3C52.6,64,58,59.6,60,56.5c3.9-5.8,8.8-26.3,8.8-26.3l0,0c0.6-2.3,0.9-4.6,0.9-7.2
						C70,11.8,63.3,2.2,53.7-2.4z"/>
					<path id="SvgjsPath3241" class="st4" d="M69,30.1L69,30.1c0,0-5,20.5-8.7,26.3c-3,4.6-13,11.8-18.4,11.8S26.5,61,23.4,56.4
						c-3.9-5.8-8.8-26.3-8.8-26.3l0,0c-0.6-2.3-0.9-4.6-0.9-7.2c0-15.5,12.6-28.1,28.1-28.1S70,7.4,70,22.9
						C69.9,25.5,69.7,27.8,69,30.1z"/>
				</g>
			</g>
			<g id="svga-group-mouth-single">
				
					<linearGradient id="SvgjsPath3457_1_" gradientUnits="userSpaceOnUse" x1="23.4639" y1="22.7602" x2="23.4639" y2="24.6108" gradientTransform="matrix(16.5814 0 0 -16.5814 -347.1136 437.2441)">
					<stop  offset="0.1" style="stop-color:#EBC3BD"/>
					<stop  offset="1" style="stop-color:#E4B3AB"/>
				</linearGradient>
				<path id="SvgjsPath3457" class="st14" d="M41.8,59.9c-1.9,0-3.3-2-3.3-2c3.3,1.5,6.9,0,6.9,0S43.5,59.9,41.8,59.9z"/>
				<path id="SvgjsPath3461" class="st15" d="M47.4,55.7c0,0.3-3.6,1.7-5.6,1.7s-5.7-1.2-5.7-1.7c0-0.5,3-0.8,5.8-0.8
					C44.9,54.9,47.4,55.2,47.4,55.7z"/>
				<path id="SvgjsPath3462" class="st16" d="M39.7,53.8c0.4-0.1,1.2,0.4,2.2,0.4c0.7,0,1.5-0.4,2.1-0.4c1.2,0.1,1.8,0.9,4.8,1.1
					c0,0-1.5,0.6-1.9,0.6c-1.2,0.1-3.3-0.1-5.2-0.1c-2.1,0-4.2,0.2-5.4,0.1c-0.4,0-1.9-0.6-1.9-0.6C37.2,54.8,38.4,53.9,39.7,53.8z
					 M34.7,55.1c0,0,2.1,1.7,2.9,2.2C38.5,58,39.9,59,42,59c1.7,0,3.1-0.9,4-1.4c0.9-0.6,3.2-2.5,3.2-2.5c-1.3,0.3-1.3,0.3-1.9,0.6
					c-1.3,0.6-3.4,1.2-5.2,1.2c-2.1,0-4.2-0.8-5.5-1.2C35.5,55.4,34.7,55.1,34.7,55.1z"/>
				<path id="SvgjsPath3463" class="st17" d="M49.1,55c-0.2,0.3-1,0.3-1.3,0.4c-0.6,0.2-1,0.4-1.5,0.6c-1.2,0.4-2.5,0.9-3.9,0.9
					c-2.4,0.1-5-0.9-7.3-1.5c-0.2-0.1-0.4-0.1-0.7-0.2c-0.1-0.1,0-0.3,0.1-0.3c0.4,0.1,1,0.3,1.4,0.4c0.6,0.1,1.2,0.1,1.8,0
					c0.8,0,1.4-0.1,2.2-0.1c1.3,0,2.8,0,4.1,0c1.2,0,2.5,0.2,3.6-0.1c0.3-0.1,0.7-0.2,1-0.3C48.9,54.8,49.2,54.8,49.1,55
					C49,55.1,49.1,55,49.1,55z M45.8,55.6c-1.5,0-3.2-0.1-4.7-0.1c-0.9,0-1.8,0.1-2.6,0.1c-0.2,0-0.8-0.1-1,0.1
					c-0.2,0.1,0.6,0.3,0.7,0.4c1.5,0.4,3.2,0.8,4.7,0.7c0.8-0.1,1.5-0.3,2.3-0.6c0.3-0.1,0.7-0.1,0.9-0.3
					C46.3,55.6,45.9,55.6,45.8,55.6C45.2,55.6,46.2,55.6,45.8,55.6z"/>
				<path id="SvgjsPath3464" class="st18" d="M41.8,58.6c-1.9,0-3.4-1.1-5-2.2c3.5,1.2,6.6,1.2,10.1-0.1
					C45.5,57.3,43.8,58.6,41.8,58.6z M38.9,55c2.5-0.1,5.2,0.1,7.7,0c-0.9-0.2-1.7-0.7-2.5-0.8c-0.7-0.1-1.4,0.4-2.1,0.4
					c-0.8,0-1.4-0.4-2.2-0.4c-1,0.1-1.8,0.6-2.8,0.8C37.6,55,38.3,55,38.9,55C39.7,54.9,38.2,55,38.9,55z"/>
				<path id="SvgjsPath3465" class="st19" d="M39.6,57.6c0.8,0.1,1.5,0.2,2.3,0.2c0.7,0,1.4-0.1,2.1-0.2c-0.7,0.3-1.3,0.6-2.2,0.6
					C41.1,58.1,40.2,57.9,39.6,57.6z"/>
			</g>
			<g id="svga-group-eyes-left">
				<g id="svga-group-eyesback-left">
					
						<radialGradient id="SvgjsPath3473_1_" cx="37.5589" cy="24.5212" r="7.0226" gradientTransform="matrix(-15.1684 0.7941 -0.8675 -16.5579 620.5204 411.0146)" gradientUnits="userSpaceOnUse">
						<stop  offset="0" style="stop-color:#FFFFFF"/>
						<stop  offset="0.544" style="stop-color:#FDFEFE"/>
						<stop  offset="0.74" style="stop-color:#F6F8F9"/>
						<stop  offset="0.879" style="stop-color:#EAEFF2"/>
						<stop  offset="0.992" style="stop-color:#D9E3E8"/>
						<stop  offset="1" style="stop-color:#D8E2E7"/>
					</radialGradient>
					<path id="SvgjsPath3473" class="st20" d="M23.6,33.4c0.6-0.6,4.2-1.2,6.3-1c3.3,0.4,6.1,3.4,6.1,3.4s-2.2,1.4-6.3,1.7
						C27,37.6,24.3,36,23.6,33.4z"/>
				</g>
				<g id="svga-group-eyesiriswrapper-left" transform="translate(-1 0.25)">
					<g id="svga-group-eyesiriscontrol-left">
						<g id="svga-group-eyesiris-left">
							<path id="SvgjsPath3531" class="st21" d="M34.8,34.8c0,2.2-1.8,4-4,4s-4-1.8-4-4l0,0c0-2.2,1.8-4,4-4S34.8,32.6,34.8,34.8
								L34.8,34.8z"/>
							
								<radialGradient id="SvgjsPath3532_1_" cx="-48.8183" cy="128.2459" r="39.1246" gradientTransform="matrix(1.5917 -0.4113 -0.4062 -1.5937 160.5838 219.0326)" gradientUnits="userSpaceOnUse">
								<stop  offset="0" style="stop-color:#FFFFFF;stop-opacity:0.8"/>
								<stop  offset="1" style="stop-color:#FFFFFF;stop-opacity:0"/>
							</radialGradient>
							<path id="SvgjsPath3532" class="st22" d="M30.4,30.8L30.4,30.8c0,0.1,0,0.2,0,0.2S30.4,30.9,30.4,30.8z M30.4,31.1
								c0,1.3,0.1,2.4,0.3,2.9C30.8,33.6,30.7,32.4,30.4,31.1z M30.7,34c0,0.1-0.1,0.2-0.1,0.2c-0.1,0-0.1,0-0.2-0.1
								c0,0.1,0,0.2,0,0.2s-0.1,0.1-0.2,0c0.1,0.1,0.1,0.1,0.1,0.2c0,0.1-0.1,0.1-0.2,0.1c0.1,0,0.2,0.1,0.2,0.1
								c0,0.1,0,0.1-0.1,0.2c0.1,0,0.2,0,0.2,0s0,0.1,0,0.2c0.1-0.1,0.2-0.1,0.2-0.1c0.1,0,0.1,0.1,0.1,0.2c0-0.1,0.1-0.1,0.2-0.2
								c0.1,0,0.1,0,0.2,0.1c0-0.1,0-0.2,0.1-0.2s0.1,0,0.2,0c0-0.1-0.1-0.2,0-0.2c0-0.1,0.1-0.1,0.2-0.1c-0.1-0.1-0.1-0.1-0.1-0.2
								c0-0.1,0-0.1,0.1-0.2c-0.1,0-0.2,0-0.2-0.1s0-0.1,0-0.2c-0.1,0-0.2,0-0.2,0c-0.1,0-0.1-0.1-0.1-0.2c-0.1,0.1-0.1,0.1-0.2,0.1
								C30.8,34.1,30.8,34.1,30.7,34z M31.1,34c0.3-0.3,0.7-1.4,1-2.6C31.6,32.5,31.1,33.6,31.1,34z M32.1,31.4
								c0-0.1,0.1-0.1,0.1-0.2l0,0C32.2,31.1,32.1,31.3,32.1,31.4z M31.5,34.2c0.4-0.1,1.2-1,2.2-1.9C32.6,33.1,31.7,33.8,31.5,34.2
								z M33.6,32.4c0.1,0,0.1-0.1,0.2-0.1l0,0C33.8,32.3,33.7,32.3,33.6,32.4z M31.7,34.6c0.4,0.1,1.5-0.2,2.8-0.7
								C33.1,34.1,32,34.3,31.7,34.6z M34.5,33.9c0.1,0,0.1,0,0.2,0l0,0C34.6,33.9,34.6,33.9,34.5,33.9z M31.7,35
								c0.4,0.2,1.5,0.4,2.8,0.7C33.2,35.3,32.1,35,31.7,35z M34.5,35.7c0.1,0,0.1,0,0.2,0.1l0,0C34.6,35.8,34.5,35.7,34.5,35.7z
								 M31.5,35.3c0.2,0.4,1.1,1.1,2.2,1.9C32.7,36.3,31.9,35.6,31.5,35.3z M33.6,37.3L33.6,37.3L33.6,37.3
								C33.7,37.3,33.7,37.3,33.6,37.3z M31.1,35.6c0,0.4,0.4,1.5,1,2.6C31.8,37.1,31.5,36,31.1,35.6z M32.1,38.3L32.1,38.3
								L32.1,38.3L32.1,38.3z M30.7,35.7c-0.2,0.4-0.3,1.5-0.3,2.9C30.6,37.2,30.8,36.1,30.7,35.7z M30.4,38.5L30.4,38.5L30.4,38.5
								L30.4,38.5z M30.4,35.4c-0.4,0.2-1,1.2-1.7,2.3C29.5,36.9,30.3,36,30.4,35.4z M28.7,37.9L28.6,38l0,0L28.7,37.9z M30,35.2
								c-0.4,0-1.4,0.7-2.5,1.3C28.7,36,29.8,35.6,30,35.2z M27.5,36.5c-0.1,0-0.1,0-0.2,0.1l0,0C27.4,36.5,27.5,36.5,27.5,36.5z
								 M30,34.8c-0.4-0.2-1.5-0.1-2.9,0C28.4,34.9,29.6,35,30,34.8z M27.1,34.8c-0.1,0-0.1,0-0.2,0l0,0
								C27,34.8,27.1,34.8,27.1,34.8z M30,34.5c-0.3-0.3-1.3-0.9-2.5-1.3C28.6,33.8,29.6,34.3,30,34.5z M27.5,33
								c-0.1,0-0.1-0.1-0.2-0.1l0,0C27.4,33,27.5,33,27.5,33z M30.4,34.1c-0.1-0.4-0.8-1.3-1.7-2.4C29.4,32.9,29.9,33.9,30.4,34.1z
								 M28.7,31.7c0-0.1-0.1-0.1-0.1-0.2l0,0C28.6,31.6,28.7,31.7,28.7,31.7z"/>
							
								<radialGradient id="SvgjsPath3536_1_" cx="-67.3223" cy="115.3463" r="39.1916" gradientTransform="matrix(1.6432 1.468498e-02 1.823948e-02 -1.6432 139.2986 225.279)" gradientUnits="userSpaceOnUse">
								<stop  offset="0" style="stop-color:#FFFFFF;stop-opacity:0.8"/>
								<stop  offset="1" style="stop-color:#FFFFFF;stop-opacity:0"/>
							</radialGradient>
							<path id="SvgjsPath3536" class="st23" d="M31.4,30.8L31.4,30.8c0,0.1-0.1,0.2-0.1,0.2C31.4,31,31.4,30.9,31.4,30.8z
								 M31.4,31.1c-0.3,1.2-0.6,2.4-0.4,2.9C31.1,33.6,31.3,32.4,31.4,31.1z M30.9,34c0,0.1-0.1,0.1-0.2,0.2c-0.1,0-0.1,0-0.2-0.1
								c0,0.1,0,0.2-0.1,0.2s-0.1,0-0.2,0c0,0.1,0.1,0.2,0,0.2c0,0.1-0.1,0.1-0.2,0.1c0.1,0.1,0.1,0.1,0.1,0.2
								c0,0.1-0.1,0.1-0.1,0.2c0.1,0,0.2,0,0.2,0.1s0,0.1,0,0.2c0.1,0,0.2,0,0.2,0c0.1,0,0.1,0.1,0.1,0.2c0.1-0.1,0.1-0.1,0.2-0.1
								s0.1,0.1,0.2,0.2c0-0.1,0.1-0.2,0.1-0.2c0.1,0,0.1,0,0.2,0.1c0-0.1,0-0.2,0-0.2s0.1-0.1,0.2,0c-0.1-0.1-0.1-0.1-0.1-0.2
								c0-0.1,0.1-0.1,0.2-0.1c-0.1,0-0.2-0.1-0.2-0.1c0-0.1,0-0.1,0.1-0.2c-0.1,0-0.2,0-0.2-0.1c0,0,0-0.1,0-0.2
								c-0.1,0.1-0.2,0.1-0.2,0.1C31,34.1,30.9,34.1,30.9,34z M31.3,34.1c0.4-0.2,1-1.2,1.7-2.3C32.1,32.8,31.5,33.7,31.3,34.1z
								 M33,31.8c0.1-0.1,0.1-0.1,0.2-0.2l0,0C33.1,31.6,33,31.7,33,31.8z M31.6,34.5c0.4,0,1.4-0.7,2.5-1.3
								C32.9,33.6,31.9,34.1,31.6,34.5z M34.1,33.1c0.1,0,0.1-0.1,0.2-0.1l0,0C34.2,33,34.2,33.1,34.1,33.1z M31.7,34.8
								c0.4,0.2,1.5,0.1,2.9,0.1C33.2,34.8,32.1,34.7,31.7,34.8z M34.6,34.9c0.1,0,0.1,0,0.2,0l0,0C34.7,34.9,34.6,34.9,34.6,34.9z
								 M31.6,35.2c0.3,0.3,1.3,0.9,2.5,1.4C33,35.9,32,35.2,31.6,35.2z M34,36.7L34,36.7L34,36.7C34.2,36.7,34.1,36.7,34,36.7z
								 M31.3,35.6C31.4,36,32,37,32.8,38C32.2,36.8,31.7,35.8,31.3,35.6z M32.8,37.9C32.8,37.9,32.8,38,32.8,37.9L32.8,37.9
								C32.9,38,32.9,38,32.8,37.9z M30.9,35.7c-0.1,0.4,0,1.5,0.3,2.9C31.1,37.2,31.1,36.1,30.9,35.7z M31.1,38.5L31.1,38.5
								L31.1,38.5L31.1,38.5z M30.5,35.6c-0.3,0.3-0.7,1.4-1.1,2.6C30,37.1,30.5,36.1,30.5,35.6z M29.4,38.2c0,0,0,0.1-0.1,0.1l0,0
								C29.4,38.3,29.4,38.3,29.4,38.2z M30.2,35.3c-0.4,0.1-1.3,1-2.2,1.9C29.1,36.4,29.9,35.8,30.2,35.3z M28,37.2l-0.1,0.1l0,0
								C27.8,37.3,28,37.2,28,37.2z M30,35c-0.4-0.1-1.5,0.2-2.9,0.7C28.5,35.4,29.6,35.2,30,35z M27.2,35.6c-0.1,0-0.1,0-0.2,0l0,0
								C27.1,35.7,27.1,35.7,27.2,35.6z M30,34.6c-0.3-0.3-1.5-0.6-2.8-0.8C28.4,34.2,29.5,34.7,30,34.6z M27.2,33.8
								c-0.1,0-0.1,0-0.2-0.1l0,0C27.1,33.8,27.2,33.8,27.2,33.8z M30.2,34.2c-0.2-0.4-1.1-1.2-2.1-2C28.9,33.2,29.7,34,30.2,34.2z
								 M28.1,32.3c0-0.1-0.1-0.1-0.1-0.2l0,0L28.1,32.3z M30.5,34c0-0.4-0.4-1.5-1-2.8C29.9,32.6,30.3,33.7,30.5,34z M29.6,31.3
								c0-0.1,0-0.2-0.1-0.2l0,0C29.5,31.1,29.5,31.3,29.6,31.3z"/>
							<path id="SvgjsPath3540" class="st21" d="M32.4,34.8c0,0.9-0.7,1.5-1.5,1.5c-0.9,0-1.5-0.7-1.5-1.5c0-0.9,0.7-1.5,1.5-1.5
								C31.7,33.2,32.4,33.9,32.4,34.8z"/>
							<path id="SvgjsPath3541" class="st24" d="M32.4,34.8c0,0.9-0.7,1.5-1.5,1.5c-0.9,0-1.5-0.7-1.5-1.5c0-0.9,0.7-1.5,1.5-1.5
								C31.7,33.2,32.4,33.9,32.4,34.8z"/>
							
								<linearGradient id="SvgjsPath3542_1_" gradientUnits="userSpaceOnUse" x1="27.3441" y1="23.9153" x2="27.958" y2="24.6467" gradientTransform="matrix(16.5814 0 0 -16.5814 -424.7477 434.0869)">
								<stop  offset="0" style="stop-color:#FFFFFF"/>
								<stop  offset="1" style="stop-color:#FFFFFF;stop-opacity:0"/>
							</linearGradient>
							<path id="SvgjsPath3542" class="st25" d="M28.7,36.5c0.3-0.2,0.7-0.1,0.9,0.2c0.2,0.3,0.1,0.7-0.2,0.9s-0.7,0.1-0.9-0.2
								C28.3,37.1,28.4,36.8,28.7,36.5L28.7,36.5z"/>
							
								<linearGradient id="SvgjsPath3546_1_" gradientUnits="userSpaceOnUse" x1="27.4025" y1="24.1482" x2="26.4772" y2="23.2228" gradientTransform="matrix(16.5814 0 0 -16.5814 -422.7477 434.0869)">
								<stop  offset="0" style="stop-color:#FFFFFF"/>
								<stop  offset="1" style="stop-color:#FFFFFF;stop-opacity:0"/>
							</linearGradient>
							<path id="SvgjsPath3546" class="st26" d="M32,34.6c-0.1,0.2-0.7,0.2-1.1-0.1s-0.7-0.7-0.4-1l0,0c0.1-0.2,0.7-0.2,1.1,0.1
								C32,33.8,32.2,34.2,32,34.6L32,34.6z"/>
							
								<linearGradient id="SvgjsPath3550_1_" gradientUnits="userSpaceOnUse" x1="27.5032" y1="24.2428" x2="25.6526" y2="22.3922" gradientTransform="matrix(16.5814 0 0 -16.5814 -422.7477 434.0869)">
								<stop  offset="0" style="stop-color:#FFFFFF"/>
								<stop  offset="1" style="stop-color:#FFFFFF;stop-opacity:0"/>
							</linearGradient>
							<path id="SvgjsPath3550" class="st27" d="M33.9,33.9c-0.3,0.6-1.3,0.7-2.1,0.1c-0.8-0.6-1.2-1.4-0.8-2
								c0.3-0.6,1.3-0.7,2.1-0.1C33.9,32.4,34.3,33.2,33.9,33.9L33.9,33.9z"/>
						</g>
					</g>
				</g>
				<g id="svga-group-eyesfront-left">
					<path id="SvgjsPath3498" class="st1" d="M21.2,35.3c0,6.4,3.7,11.6,8.4,11.6S38,41.7,38,35.3s-3.7-11.6-8.4-11.6
						S21.2,28.9,21.2,35.3z M23.6,33.4c0.6-0.6,4.2-1.2,6.3-1c3.3,0.4,6.1,3.4,6.1,3.4s-2.2,1.4-6.3,1.7C27,37.6,24.3,36,23.6,33.4z
						"/>
					
						<radialGradient id="SvgjsPath3499_1_" cx="24.7448" cy="11.4207" r="7.8288" fx="31.062" fy="11.2512" gradientTransform="matrix(16.4156 2.3396 -1.7993 12.6148 -354.25 -168.7333)" gradientUnits="userSpaceOnUse">
						<stop  offset="0" style="stop-color:#E4B3AB"/>
						<stop  offset="0.7" style="stop-color:#E4B3AB;stop-opacity:0.3"/>
						<stop  offset="1" style="stop-color:#F3D4CF;stop-opacity:0"/>
					</radialGradient>
					<path id="SvgjsPath3499" class="st28" d="M29.9,39.3c4.4,1,8.5-0.8,9.4-4c0.8-3.2-2.1-6.6-6.4-7.7c-4.4-1-8.6,0.8-9.4,4
						C22.7,34.9,25.5,38.3,29.9,39.3z M23.6,33.4c0.6-0.6,4.2-1.2,6.3-1c3.3,0.4,6.1,3.4,6.1,3.4s-2.2,1.4-6.3,1.7
						C27,37.6,24.3,36,23.6,33.4z"/>
					
						<radialGradient id="SvgjsPath3504_1_" cx="22.7982" cy="23.6263" r="13.6529" gradientTransform="matrix(17.1385 0 0 -17.1385 -362.4443 452.084)" gradientUnits="userSpaceOnUse">
						<stop  offset="0.95" style="stop-color:#000000;stop-opacity:0"/>
						<stop  offset="1" style="stop-color:#000000;stop-opacity:0.3"/>
					</radialGradient>
					<path id="SvgjsPath3504" class="st29" d="M23.6,33.4c0.6-0.6,4.2-1.2,6.3-1c3.3,0.4,6.1,3.4,6.1,3.4s-2.2,1.4-6.3,1.7
						C27,37.6,24.3,36,23.6,33.4z"/>
					<path id="SvgjsPath3508" class="st30" d="M36,33.3c-3-2-1.9-1.4-7.5-3.1c1.5,0.2,4.4,1,5.4,1.5C34.4,32,35.5,32.9,36,33.3z"/>
					<path id="SvgjsPath3509" d="M21.2,33c0,0,1,0.6,1.8,0.6c0.1,0.3,1,2,2.8,3c2.5,1.4,5.5,1,8.4,0.3c1.4-0.3,1.3-0.7,3.6-1
						c-1.8-0.8-1.7-1.1-4.1-2.5c1.1,0.2,2.6,1.1,2.6,1.1c-0.6-0.7-4.6-3.2-11-3.5c0,0,2.2,0.6,3,0.8c-3.7,0.6-4.7,0-5-0.2
						c0.1,0.1,0.6,0.6,1.4,0.9c-0.9,0.1-2.4-0.4-2.4-0.4s0.4,0.3,1.2,0.9C22.5,33.3,21.2,33,21.2,33z M23.6,33.5
						c0.6-0.6,4.2-1.2,6.3-0.9C33.2,33.1,36,36,36,36s-2.2,1.3-6.3,1.5C27,37.5,24.3,35.9,23.6,33.5z"/>
				</g>
			</g>
			<g id="svga-group-eyes-right">
				<g id="svga-group-eyesback-right">
					
						<radialGradient id="SvgjsPath3481_1_" cx="23.1583" cy="23.8305" r="7.0226" gradientTransform="matrix(15.1684 0.7941 0.8675 -16.5579 -317.7744 411.0146)" gradientUnits="userSpaceOnUse">
						<stop  offset="0" style="stop-color:#FFFFFF"/>
						<stop  offset="0.544" style="stop-color:#FDFEFE"/>
						<stop  offset="0.74" style="stop-color:#F6F8F9"/>
						<stop  offset="0.879" style="stop-color:#EAEFF2"/>
						<stop  offset="0.992" style="stop-color:#D9E3E8"/>
						<stop  offset="1" style="stop-color:#D8E2E7"/>
					</radialGradient>
					<path id="SvgjsPath3481" class="st31" d="M60.1,33.4c-0.6-0.6-4.2-1.2-6.3-1c-3.3,0.4-6.1,3.4-6.1,3.4s2.2,1.4,6.3,1.7
						C56.7,37.6,59.4,36,60.1,33.4z"/>
				</g>
				<g id="svga-group-eyesiriswrapper-right" transform="translate(1 0.25)">
					<g id="svga-group-eyesiriscontrol-right">
						<g id="svga-group-eyesiris-right">
							<path id="SvgjsPath3554" class="st21" d="M56.8,34.8c0,2.2-1.8,4-4,4s-4-1.8-4-4l0,0c0-2.2,1.8-4,4-4S56.8,32.6,56.8,34.8
								L56.8,34.8z"/>
							
								<radialGradient id="SvgjsPath3555_1_" cx="-69.5955" cy="132.4805" r="39.1616" gradientTransform="matrix(1.5917 -0.4113 -0.4062 -1.5937 217.437 217.2437)" gradientUnits="userSpaceOnUse">
								<stop  offset="0" style="stop-color:#FFFFFF;stop-opacity:0.8"/>
								<stop  offset="1" style="stop-color:#FFFFFF;stop-opacity:0"/>
							</radialGradient>
							<path id="SvgjsPath3555" class="st32" d="M52.4,30.8L52.4,30.8c0,0.1,0,0.2,0,0.2C52.5,31,52.5,30.9,52.4,30.8z M52.5,31.1
								c0,1.3,0.1,2.4,0.3,2.9C52.9,33.6,52.7,32.4,52.5,31.1z M52.8,34c0,0.1-0.1,0.2-0.1,0.2c-0.1,0-0.1,0-0.2-0.1
								c0,0.1,0,0.2,0,0.2s-0.1,0.1-0.2,0c0.1,0.1,0.1,0.1,0.1,0.2c0,0.1-0.1,0.1-0.2,0.1c0.1,0,0.2,0.1,0.2,0.1
								c0,0.1,0,0.1-0.1,0.2c0.1,0,0.2,0,0.2,0s0,0.1,0,0.2c0.1-0.1,0.2-0.1,0.2-0.1c0.1,0,0.1,0.1,0.1,0.2c0-0.1,0.1-0.1,0.2-0.2
								c0.1,0,0.1,0,0.2,0.1c0-0.1,0-0.2,0.1-0.2s0.1,0,0.2,0c0-0.1-0.1-0.2,0-0.2c0-0.1,0.1-0.1,0.2-0.1c-0.1-0.1-0.1-0.1-0.1-0.2
								c0-0.1,0-0.1,0.1-0.2c-0.1,0-0.2,0-0.2-0.1s0-0.1,0-0.2c-0.1,0-0.2,0-0.2,0c-0.1,0-0.1-0.1-0.1-0.2c-0.1,0.1-0.1,0.1-0.2,0.1
								C52.9,34.1,52.8,34.1,52.8,34z M53.2,34c0.3-0.3,0.7-1.4,1-2.6C53.7,32.5,53.2,33.6,53.2,34z M54.3,31.4
								c0-0.1,0.1-0.1,0.1-0.2l0,0C54.3,31.1,54.3,31.3,54.3,31.4z M53.5,34.2c0.4-0.1,1.2-1,2.2-1.9C54.6,33.1,53.7,33.8,53.5,34.2
								z M55.7,32.4c0.1,0,0.1-0.1,0.2-0.1l0,0C55.8,32.3,55.7,32.3,55.7,32.4z M53.7,34.6c0.4,0.1,1.5-0.2,2.8-0.7
								C55.3,34.1,54,34.3,53.7,34.6z M56.5,33.9c0.1,0,0.1,0,0.2,0l0,0C56.7,33.9,56.6,33.9,56.5,33.9z M53.7,35
								c0.4,0.2,1.5,0.4,2.8,0.7C55.3,35.3,54.2,35,53.7,35z M56.5,35.7c0.1,0,0.1,0,0.2,0.1l0,0C56.6,35.8,56.6,35.7,56.5,35.7z
								 M53.5,35.3c0.2,0.4,1.1,1.1,2.2,1.9C54.8,36.3,53.9,35.6,53.5,35.3z M55.7,37.3L55.7,37.3L55.7,37.3
								C55.8,37.3,55.7,37.3,55.7,37.3z M53.2,35.6c0,0.4,0.4,1.5,1,2.6C53.8,37.1,53.5,36,53.2,35.6z M54.2,38.3L54.2,38.3
								L54.2,38.3C54.3,38.4,54.3,38.3,54.2,38.3z M52.8,35.7c-0.2,0.4-0.3,1.5-0.3,2.9C52.7,37.2,52.9,36.1,52.8,35.7z M52.4,38.5
								L52.4,38.5L52.4,38.5L52.4,38.5z M52.4,35.4c-0.4,0.2-1,1.2-1.7,2.3C51.6,36.9,52.3,36,52.4,35.4z M50.7,37.9L50.6,38l0,0
								C50.7,38,50.7,37.9,50.7,37.9z M52.2,35.2c-0.4,0-1.4,0.7-2.5,1.3C50.7,36,51.8,35.6,52.2,35.2z M49.6,36.5
								c-0.1,0-0.1,0-0.2,0.1l0,0C49.5,36.5,49.5,36.5,49.6,36.5z M52.1,34.8c-0.4-0.2-1.5-0.1-2.9,0C50.4,34.9,51.6,35,52.1,34.8z
								 M49.2,34.8c-0.1,0-0.1,0-0.2,0l0,0C49,34.8,49.1,34.8,49.2,34.8z M52.2,34.5c-0.3-0.3-1.3-0.9-2.5-1.3
								C50.7,33.8,51.7,34.3,52.2,34.5z M49.6,33c-0.1,0-0.1-0.1-0.2-0.1l0,0C49.4,33,49.5,33,49.6,33z M52.4,34.1
								c-0.1-0.4-0.8-1.3-1.7-2.4C51.4,32.9,52.1,33.9,52.4,34.1z M50.7,31.7c0-0.1-0.1-0.1-0.1-0.2l0,0
								C50.6,31.6,50.7,31.7,50.7,31.7z"/>
							
								<radialGradient id="SvgjsPath3559_1_" cx="-88.5896" cy="114.8709" r="39.1919" gradientTransform="matrix(1.6432 1.468498e-02 1.823948e-02 -1.6432 196.3123 224.8101)" gradientUnits="userSpaceOnUse">
								<stop  offset="0" style="stop-color:#FFFFFF;stop-opacity:0.8"/>
								<stop  offset="1" style="stop-color:#FFFFFF;stop-opacity:0"/>
							</radialGradient>
							<path id="SvgjsPath3559" class="st33" d="M53.5,30.8C53.5,30.8,53.4,30.8,53.5,30.8c0,0.1-0.1,0.2-0.1,0.2
								S53.5,30.9,53.5,30.8z M53.4,31.1c-0.3,1.2-0.6,2.4-0.4,2.9C53.3,33.6,53.3,32.4,53.4,31.1z M52.9,34c0,0.1-0.1,0.1-0.2,0.2
								c-0.1,0-0.1,0-0.2-0.1c0,0.1,0,0.2-0.1,0.2s-0.1,0-0.2,0c0,0.1,0.1,0.2,0,0.2c0,0.1-0.1,0.1-0.2,0.1c0.1,0.1,0.1,0.1,0.1,0.2
								c0,0.1-0.1,0.1-0.1,0.2c0.1,0,0.2,0,0.2,0.1s0,0.1,0,0.2c0.1,0,0.2,0,0.2,0c0.1,0,0.1,0.1,0.1,0.2c0.1-0.1,0.1-0.1,0.2-0.1
								s0.1,0.1,0.2,0.2c0-0.1,0.1-0.2,0.1-0.2c0.1,0,0.1,0,0.2,0.1c0-0.1,0-0.2,0-0.2s0.1-0.1,0.2,0c-0.1-0.1-0.1-0.1-0.1-0.2
								c0-0.1,0.1-0.1,0.2-0.1c-0.1,0-0.2-0.1-0.2-0.1c0-0.1,0-0.1,0.1-0.2c-0.1,0-0.2,0-0.2-0.1c0,0,0-0.1,0-0.2
								c-0.1,0.1-0.2,0.1-0.2,0.1C53.1,34.1,53.1,34.1,52.9,34z M53.4,34.1c0.4-0.2,1-1.2,1.7-2.3C54.3,32.8,53.5,33.7,53.4,34.1z
								 M55,31.8c0.1-0.1,0.1-0.1,0.2-0.2l0,0C55.1,31.6,55.1,31.7,55,31.8z M53.6,34.5c0.4,0,1.4-0.7,2.5-1.3
								C55,33.6,53.9,34.1,53.6,34.5z M56.2,33.1c0.1,0,0.1-0.1,0.2-0.1l0,0L56.2,33.1z M53.7,34.8c0.4,0.2,1.5,0.1,2.9,0.1
								C55.3,34.8,54.2,34.7,53.7,34.8z M56.6,34.9c0.1,0,0.1,0,0.2,0l0,0C56.7,34.9,56.7,34.9,56.6,34.9z M53.6,35.2
								c0.3,0.3,1.3,0.9,2.5,1.4C55,35.9,54,35.2,53.6,35.2z M56.1,36.7L56.1,36.7L56.1,36.7C56.2,36.7,56.1,36.7,56.1,36.7z
								 M53.4,35.6c0.1,0.4,0.8,1.4,1.5,2.4C54.3,36.8,53.7,35.8,53.4,35.6z M54.9,37.9C54.9,37.9,54.9,38,54.9,37.9L54.9,37.9
								C55,38,54.9,38,54.9,37.9z M52.9,35.7c-0.1,0.4,0,1.5,0.3,2.9C53.2,37.2,53.2,36.1,52.9,35.7z M53.3,38.5L53.3,38.5
								L53.3,38.5L53.3,38.5z M52.5,35.6c-0.3,0.3-0.7,1.4-1.1,2.6C52.1,37.1,52.5,36.1,52.5,35.6z M51.5,38.2
								C51.5,38.2,51.5,38.3,51.5,38.2L51.5,38.2C51.4,38.3,51.5,38.3,51.5,38.2z M52.3,35.3c-0.4,0.1-1.3,1-2.2,1.9
								C51.1,36.4,52,35.8,52.3,35.3z M50.1,37.2L50.1,37.2L50.1,37.2C50,37.3,50,37.2,50.1,37.2z M52.1,35
								c-0.4-0.1-1.5,0.2-2.9,0.7C50.5,35.4,51.6,35.2,52.1,35z M49.2,35.6c-0.1,0-0.1,0-0.2,0l0,0C49.1,35.7,49.2,35.7,49.2,35.6z
								 M52.1,34.6c-0.3-0.3-1.5-0.6-2.8-0.8C50.5,34.2,51.6,34.7,52.1,34.6z M49.3,33.8c-0.1,0-0.1,0-0.2-0.1l0,0
								C49.1,33.8,49.2,33.8,49.3,33.8z M52.3,34.2c-0.2-0.4-1.1-1.2-2.1-2C51.1,33.2,51.8,34,52.3,34.2z M50.2,32.3
								c0-0.1-0.1-0.1-0.1-0.2l0,0C50,32.1,50.1,32.3,50.2,32.3z M52.6,34c0-0.4-0.4-1.5-1-2.8C52,32.6,52.3,33.7,52.6,34z
								 M51.6,31.3c0-0.1,0-0.2-0.1-0.2l0,0C51.5,31.1,51.6,31.3,51.6,31.3z"/>
							<path id="SvgjsPath3563" class="st21" d="M54.4,34.8c0,0.9-0.7,1.5-1.5,1.5s-1.5-0.7-1.5-1.5c0-0.9,0.7-1.5,1.5-1.5
								C53.7,33.2,54.4,33.9,54.4,34.8z"/>
							<path id="SvgjsPath3564" class="st24" d="M54.4,34.8c0,0.9-0.7,1.5-1.5,1.5s-1.5-0.7-1.5-1.5c0-0.9,0.7-1.5,1.5-1.5
								C53.7,33.2,54.4,33.9,54.4,34.8z"/>
							
								<linearGradient id="SvgjsPath3565_1_" gradientUnits="userSpaceOnUse" x1="22.4444" y1="23.9171" x2="23.0583" y2="24.6481" gradientTransform="matrix(16.5814 0 0 -16.5814 -321.4798 434.0869)">
								<stop  offset="0" style="stop-color:#FFFFFF"/>
								<stop  offset="1" style="stop-color:#FFFFFF;stop-opacity:0"/>
							</linearGradient>
							<path id="SvgjsPath3565" class="st34" d="M50.7,36.5c0.3-0.2,0.7-0.1,0.9,0.2s0.1,0.7-0.2,0.9s-0.7,0.1-0.9-0.2
								C50.4,37.1,50.4,36.8,50.7,36.5L50.7,36.5z"/>
							
								<linearGradient id="SvgjsPath3569_1_" gradientUnits="userSpaceOnUse" x1="22.6297" y1="24.1439" x2="21.7044" y2="23.2185" gradientTransform="matrix(16.5814 0 0 -16.5814 -321.4798 434.0869)">
								<stop  offset="0" style="stop-color:#FFFFFF"/>
								<stop  offset="1" style="stop-color:#FFFFFF;stop-opacity:0"/>
							</linearGradient>
							<path id="SvgjsPath3569" class="st35" d="M54.2,34.6c-0.1,0.2-0.7,0.2-1.1-0.1c-0.4-0.3-0.7-0.7-0.4-1l0,0
								c0.1-0.2,0.7-0.2,1.1,0.1C54,33.8,54.3,34.2,54.2,34.6L54.2,34.6z"/>
							
								<linearGradient id="SvgjsPath3573_1_" gradientUnits="userSpaceOnUse" x1="22.7274" y1="24.2415" x2="20.8768" y2="22.3909" gradientTransform="matrix(16.5814 0 0 -16.5814 -321.4798 434.0869)">
								<stop  offset="0" style="stop-color:#FFFFFF"/>
								<stop  offset="1" style="stop-color:#FFFFFF;stop-opacity:0"/>
							</linearGradient>
							<path id="SvgjsPath3573" class="st36" d="M56,33.9c-0.3,0.6-1.3,0.7-2.1,0.1s-1.2-1.4-0.8-2c0.3-0.6,1.3-0.7,2.1-0.1
								C56,32.4,56.4,33.2,56,33.9L56,33.9z"/>
						</g>
					</g>
				</g>
				<g id="svga-group-eyesfront-right">
					<path id="SvgjsPath3519" class="st1" d="M54.2,23.7c-4.6,0-8.4,5.2-8.4,11.6s3.9,11.6,8.4,11.6s8.4-5.2,8.4-11.6
						S58.8,23.7,54.2,23.7z M54.1,37.5c-4.1-0.2-6.3-1.7-6.3-1.7s2.6-3,6.1-3.4c2.1-0.3,5.7,0.4,6.3,1C59.4,36,56.7,37.6,54.1,37.5z
						"/>
					
						<radialGradient id="SvgjsPath3520_1_" cx="37.8223" cy="8.9954" r="7.8276" fx="44.1384" fy="8.8261" gradientTransform="matrix(-16.4156 2.3396 1.7993 12.6148 656.9956 -168.7333)" gradientUnits="userSpaceOnUse">
						<stop  offset="0" style="stop-color:#E4B3AB"/>
						<stop  offset="0.7" style="stop-color:#E4B3AB;stop-opacity:0.3"/>
						<stop  offset="1" style="stop-color:#F3D4CF;stop-opacity:0"/>
					</radialGradient>
					<path id="SvgjsPath3520" class="st37" d="M60.2,31.6c-0.8-3.2-5-5-9.4-4c-4.4,1-7.3,4.5-6.4,7.7c0.8,3.2,5,5,9.4,4
						C58.1,38.3,61,34.9,60.2,31.6z M54.1,37.5c-4.1-0.2-6.3-1.7-6.3-1.7s2.6-3,6.1-3.4c2.1-0.3,5.7,0.4,6.3,1
						C59.4,36,56.7,37.6,54.1,37.5z"/>
					
						<radialGradient id="SvgjsPath3525_1_" cx="35.5784" cy="23.6263" r="13.6524" gradientTransform="matrix(-17.1385 0 0 -17.1385 665.1899 452.084)" gradientUnits="userSpaceOnUse">
						<stop  offset="0.95" style="stop-color:#000000;stop-opacity:0"/>
						<stop  offset="1" style="stop-color:#000000;stop-opacity:0.3"/>
					</radialGradient>
					<path id="SvgjsPath3525" class="st38" d="M60.1,33.4c-0.6-0.6-4.2-1.2-6.3-1c-3.3,0.4-6.1,3.4-6.1,3.4s2.2,1.4,6.3,1.7
						C56.7,37.6,59.4,36,60.1,33.4z"/>
					<path id="SvgjsPath3529" class="st30" d="M47.7,33.3c3-2,1.9-1.4,7.5-3.1c-1.5,0.2-4.4,1-5.4,1.5C49.2,32,48.1,32.9,47.7,33.3z
						"/>
					<path id="SvgjsPath3530" d="M60.4,33c0.8-0.6,1.2-0.9,1.2-0.9s-1.5,0.4-2.4,0.4c0.9-0.3,1.2-0.8,1.4-0.9
						c-0.2,0.1-1.2,0.7-5,0.2c0.8-0.3,3-0.8,3-0.8c-6.4,0.3-10.5,2.8-11,3.5c0,0,1.5-0.9,2.6-1.1c-2.5,1.3-2.3,1.8-4.1,2.5
						c2.3,0.2,2.2,0.7,3.6,1c2.9,0.7,5.8,1.2,8.4-0.3c1.7-1,2.6-2.5,2.8-3c0.8,0,1.8-0.6,1.8-0.6S61.1,33.3,60.4,33z M54.1,37.4
						c-4.1-0.2-6.3-1.5-6.3-1.5s2.6-2.9,6.1-3.3c2.1-0.2,5.7,0.4,6.3,0.9C59.4,35.9,56.7,37.5,54.1,37.4z"/>
				</g>
			</g>
			<g id="svga-group-eyebrows-left">
				<path id="SvgjsPath3577" class="st39" d="M30.1,26.6c-2.1-0.2-9.8,1.8-9.8,1.8s7.8-3.1,11-2.6c2.4,0.3,6.6,2.3,5.8,3.4
					C36.6,29.9,34.7,27,30.1,26.6z"/>
			</g>
			<g id="svga-group-eyebrows-right">
				<path id="SvgjsPath3578" class="st39" d="M46.3,28.9c-0.8-1.1,3.5-3,6.3-3.2c3.3-0.2,10.6,1.9,10.6,1.9s-7.4-1.2-9.5-1
					C49.2,27.3,47,29.8,46.3,28.9z"/>
			</g>
			<g id="svga-group-nose-single">
				<path id="SvgjsPath3466" class="st3" d="M38.3,48.4c-0.3,1,2.3,2,3.3,2.1c1.1,0.1,4.2-1.3,3.6-2.3c-0.6-1-2.6-0.1-3.5-0.1
					C40.9,48,38.7,47.1,38.3,48.4z"/>
				<path id="SvgjsPath3467" class="st30" d="M42.9,48.9c-0.1-0.2,0.6-0.7,0.8-0.7c0.3-0.1,1.2,0.1,1.1,0.3c0,0.2-0.8-0.1-1,0
					S43,49.1,42.9,48.9z M39.6,48.6c0.3,0,0.8,0.2,0.9,0s-0.8-0.4-1-0.4s-0.9,0.4-0.8,0.7C38.9,49,39.2,48.6,39.6,48.6z"/>
				<path id="SvgjsPath3468" class="st40" d="M41.8,47.1c0.3,0,0.9-0.3,0.9-0.9c0.3-2.5-0.2-9.4-0.9-9.4s-1.2,6.9-1,9.4
					C40.8,46.9,41.4,47.1,41.8,47.1"/>
			</g>
			<g id="svga-group-hair-front">
				<path id="SvgjsPath3583" class="st41" d="M59.4,60.2c7.6-25.9-1.3-40.1-2.3-44.6c-0.2-0.9-1.3-3.5-1.3-3.5
					c-4.1-2.3-6.4-2.8-11.2-2.8c-3.2,0-5,0.1-8.2,1.1c-3.3,3.3-12.9,15.1-16.9,23.9c2,7.4,3.2,31.5,2.2,33.6
					c-7.2,0.2-4.6-59.7-4.6-59.7c2.5,0,47.7-1.9,50.3-1.9C67.4,6.3,70.1,59.3,59.4,60.2z"/>
				<path id="SvgjsPath3584" class="st39" d="M55.5,103.7c3.5-7.4,2.5-12.2,1.7-17c-0.7-3.5-1.4-7.3-0.2-11.9
					c-0.3-6.3,1.2-11.5,3-17c3.2-10.5,6.9-22.4-2.8-44.6l0,0l0,0c-4.1-2.3-8.8-3.4-13.7-3.4c-3.2,0-6.5,0.6-9.7,1.5
					C30.5,14.7,22.7,25,18.7,33.9c0.1,1.9,0.4,3.7,0.9,6.2c2,9.9,2.1,18,2.2,25.7c0.1,11.7,0.2,22.7,7.2,37.5
					c-0.9-0.8-1.7-1.4-2.5-2.2c-8.6-7.5-14.3-12.3-15.9-23.6h-0.2c0,0-0.1,4.3-0.2,6.1c-4.8-23.4-5.4-42.2-2.6-61
					c2.3-15.9,17.1-31,28.9-31c2.5,0,4.8,0.4,7.2,1.3l0,0l0,0c2.9-1.1,5.5-1.7,8-1.7c7.5,0,13.9,3.5,18.4,12.8
					c5.4,10.8,8.3,27.5,7.6,44.9c-0.6,16.9-4.3,31.5-9.8,39.2c0.3-1.7,0.4-2.3,0.6-4.1h-0.2c-3.4,9.3-7.9,14.3-12.3,19.1
					C55.8,103.3,55.6,103.5,55.5,103.7z"/>
				<path id="SvgjsPath3585" class="st42" d="M18.7,34.4c0.1,1.7,0.4,3.4,0.9,5.5c2,9.9,2.1,18,2.2,25.7c0.1,11.7,0.2,22.7,7.2,37.5
					c-0.9-0.8-1.7-1.4-2.5-2.2c-4.4-3.9-8-6.9-10.8-10.7C11.4,81.8,10,75.8,10,62.1c2.1,11.2,2.6,16.9,11,28.1
					C12.5,74.1,9.4,50.2,18.7,34.4z M76.7,51c-0.9,5.6-2.3,18.1-4.4,23.7c1.2-8.3,1-10.8,0.9-18.9C71.3,66.4,68.9,79,64,87.2
					c1.8-7.3,3.3-13.3,3.3-22.5c-2.3,8.6-6.4,10-7,16.4C62,64.3,69.9,46.3,62,28.6c2.8,13,0.1,21.6-2.3,29.3
					c-1.7,5.5-3.3,10.7-2.9,16.9c-1.2,4.6-0.4,8.4,0.2,11.9c0.9,4.7,1.9,9.7-1.7,17c0.2-0.2,0.3-0.4,0.6-0.6
					c4.4-4.8,8.9-9.8,12.3-19.1h0.2c-0.2,1.8-0.3,2.5-0.6,4.1C73.3,80.8,76,67,76.7,51z M12.9,28.1c-1.1,2.5-3,28.9-1.5,34.5
					c0,0.1,0-0.1-0.1-0.4C8.9,54.9,11.5,30.6,12.9,28.1z M9,63.8c0.1,0.8,0.1,1.3,0.1,1.2C9,64.8,8.2,44.7,8.4,44.6l0,0
					C8,44.7,8.4,57.9,9,63.8z M70.5,56.2c-0.7,7.7-2.4,16.4-1,8.8c2.6-12.9,3.3-24.5,0.1-37.1C70.9,34.3,71.8,39.3,70.5,56.2z"/>
				<path id="SvgjsPath3586" class="st43" d="M54.4,8c7.8,3,14.8,34.7,12,53.2c4.7-20.4,3.5-37.6-5.1-55.1
					c7.8,12.9,11.1,18,12.2,38.1c1.5-9,1.3-20-0.2-32.4c-0.9-2.9-2-5.5-3.2-7.9c-4.6-9.3-11-12.8-18.4-12.8c-2.5,0-5.3,0.6-8,1.7
					l0,0l0,0c-2.2-0.9-4.6-1.3-7.2-1.3c-5.8,0-12.6,3.9-18.1,9.5C10.7,12.7,8.2,27.3,8.7,41C9,30.2,14.5,19.1,21.4,10.9
					c-5.1,12-8.8,24.6-9.3,37.5c3-18.2,16.5-41,27-44.5c3.2-1.1,7.2-0.6,8.2,3c0.6,0.9,0.9,1.9,0.7,3.1c0.7-0.6,1.3-0.9,1.9-1.2
					C51.3,7.4,53.1,7.6,54.4,8z"/>
				<path id="SvgjsPath3587" class="st0" d="M47.9,9.9c0.4-2.8-2.3-5.4-4.6-5.4c-3.7,0-7.5,3.6-9.8,7c0.1-0.1,0.2-0.2,0.3-0.3
					c3.2-1,6.4-1.5,9.7-1.5c4.8,0,9.6,1.2,13.7,3.4l0,0l0,0c0,0.1,0,0.1,0.1,0.2c-0.1-1.7-1.9-3.5-2.8-4.2
					C52.1,7.9,50.1,7.8,47.9,9.9z"/>
				<path id="SvgjsPath3588" class="st39" d="M52.7,1.8c6.8,1.3,9.9,8.8,11.8,15.4C64.8,18.5,61.4,3.8,52.7,1.8z M73.2,22.8
					C72,12.7,67.9,2.5,59.1-2.5C71.3,5.2,73.4,24,73.2,22.8z M37.9,3.1c0.9-0.2-5.7,0.6-10.8,6.9c-3.3,4.1-6.3,10.1-7.5,12.6
					C23.3,15.3,29.8,5.1,37.9,3.1z M30.7-2.4c-7.4,2.4-12,7.7-14.4,14.3C21.1,0.3,32.8-3,30.7-2.4z M47.1-2.9
					C45.2-7,41.4-9,35.7-8.2c5.6-0.3,9.4,2.1,10.9,5.4c-3.2-3.4-8.9,0.6-8.5,0.4c0.4-0.3,6.5-2.2,8.7,0.1c1,2.2,1.5,4.8,1.8,7.8
					c0.2,4.1,0.1-2.1-0.1-3.9c-0.2-1.7-0.6-3.1-1.1-4.3C49.3-5,52.7-5.2,55.6-4l0,0C52.6-5.4,48.3-5.6,47.1-2.9z"/>
				<path id="SvgjsPath3589" d="M48.3,9.6c2.4-2.1,6.1-1.8,8.4,3.1l0.3,0.7c14.8,33.7-1.3,43.3-0.1,61.5c-2.9,11,4.8,16.2-1.8,29.5
					c4.5-5.1,9.6-10.1,13.3-20.2c-0.2,2-0.3,2.6-0.7,4.5C85.7,64.9,82-22.4,43.5-6.9c-12.4-6-32.1,6.3-36,29.5
					C4,42.8,5.7,62.5,10.2,84.2c0-0.3,0.2-6.8,0.2-6.8c1.8,12.4,8.5,17.1,18.7,26.1c-11.8-24.8-4.4-38.4-9.5-63.6
					c-0.4-2-0.8-4.1-0.9-6.2c3.9-8.7,11.6-18.9,15-22.4l0.6-0.6c0,0,2.5-2.4,2.6-2.5c3.7-1.5,8-1.9,10.4,1.7
					c-1.4-3.7-6.1-3.7-9.6-2.3c3.9-3.4,8.6-4.7,10.2,1.9c0,0.2,0,0.6,0,0.6S48.2,9.8,48.3,9.6z M76.6,49.2
					c-0.2,5.7-1.2,25.3-8.2,38.1c0.4-2.1,0.8-3.9,0.9-5.9c2.2-6.8,2.8-12.1,2.8-12.6c-2.5,12.7-7.2,23.8-16,34
					c6.3-13.8-1.2-16.6,0.8-27.4c0.4,5.1,2,10,3.6,14.9c0.2-4.5,1.2-10.1,3.4-14.2c-0.9,1.1-3.3,6.5-3.6,12.1
					C53.6,64.8,62.7,65.1,64,38c1.2,9.8,0,13.1,0,13.1c2.6-8.9,0.2-15-0.3-19.9C63,25,59,15.3,58.3,14c-2.2-4.7-5.6-7.6-9.8-4.8
					C44.7-1.9,35,9,32.1,12.1c-4.1,4.5-10.5,13-13.5,20.5l0,0c-2.2,5.4-2.9,9.7-3.4,13.3c1.1-5.3,2.1-8.5,3.4-11.5
					c0.1,1.5,0.2,3.1,0.6,4.5c4.2,26.7-3.2,38.3,9.3,63.2c-16.2-14.6-18-19.1-18.6-37c-0.1,11.6,0.4,4.8-0.1,14.2
					C7.1,61.2,4.8,48,8.6,24.4C12.9-2.3,32.8-11.3,43.5-6.8C57.6-12.5,66.2-4,71.9,9.4c1.3,3.1,4.8,17.3,2.6,28.9c0,0,1-3,1.7-8.7
					C76.9,36,76.7,42.8,76.6,49.2z"/>
			</g>
			<g id="svga-group-glasses-single">
				<path id="SvgjsPath3579" class="st44" d="M41.8,3L41.8,3L41.8,3L41.8,3z"/>
			</g>
		</g>
	</g>
	<rect id="SvgjsRect1033" x="4.3" y="90.3" class="st45" width="92.5" height="6.9"/>
</g>
</svg>
