<?xml version="1.0" encoding="utf-8"?>
<!-- Generator: Adobe Illustrator 21.0.0, SVG Export Plug-In . SVG Version: 6.00 Build 0)  -->
<svg version="1.1" id="Layer_1" xmlns="http://www.w3.org/2000/svg" xmlns:xlink="http://www.w3.org/1999/xlink" x="0px" y="0px"
	 viewBox="0 0 453.5 113.4" style="enable-background:new 0 0 453.5 113.4;" xml:space="preserve">
<style type="text/css">
	.st0{fill:#81BBE7;}
	.st1{fill:#FCEC48;}
	.st2{fill:#A0C639;}
	.st3{fill:#575756;}
	.st4{font-family:'Verdana';}
	.st5{font-size:39.4431px;}
	.st6{fill:#508FCC;}
</style>
<g>
	<g>
		<path class="st0" d="M112.3,56.9l-12.4,0c0,0,0,0.1,0,0.1h-9.8l-2,12.4h10.3c-4.8,17.2-20.6,30-39.4,30
			c-22.6,0-40.9-18.4-40.9-40.9c0-0.3,0-0.6,0-0.9c0.5-22.1,18.7-40,40.9-40c4.5,0,9,0.7,13.2,2.2l0-12.7C66.7,5.2,64.9,5.2,59,5.2
			C29.9,5.2,6.2,28.6,5.7,57.6c0,0.3,0,0.6,0,0.9c0,29.4,23.9,53.4,53.4,53.4c29.4,0,53.4-23.9,53.4-53.4
			C112.4,58,112.4,57.5,112.3,56.9z"/>
		<polyline class="st1" points="90.1,57.1 90.1,16.2 77.7,9.2 77.7,33.7 		"/>
		<path class="st2" d="M77.7,33.7C72.5,29.8,66,27.4,59,27.4c-17.1,0-31.1,13.9-31.1,31.1c0,17.1,13.9,31.1,31.1,31.1
			c13.3,0,24.6-8.4,29-20.1l2-12.4C88.9,41.1,77.7,33.7,77.7,33.7z M59,77.2c-10.3,0-18.7-8.4-18.7-18.7c0-10.3,8.4-18.7,18.7-18.7
			c10.3,0,18.7,8.4,18.7,18.7C77.7,68.8,69.3,77.2,59,77.2z"/>
	</g>
	<text transform="matrix(1 0 0 1 130.5061 42.601)"><tspan x="0" y="0" class="st3 st4 st5">One Group </tspan><tspan x="0" y="47.3" class="st6 st4 st5">Digital</tspan><tspan x="126.7" y="47.3" class="st3 st4 st5"> Solutions</tspan></text>
</g>
</svg>
