<?xml version="1.0" encoding="UTF-8"?>
<svg xml:space="preserve" xmlns:xlink="http://www.w3.org/1999/xlink" id="jsIcons"
     style="enable-background:new 0 0 72 72;" version="1.1" viewBox="0 0 72 72" x="0px"
     xmlns="http://www.w3.org/2000/svg" y="0px">
                                <defs>
                                    <linearGradient id="gradient" x1="0%" x2="100%" y1="0%" y2="0%">
                                        <stop offset="0%" style="stop-color:rgb(57,146,230);stop-opacity:1"></stop>
                                        <stop offset="100%" style="stop-color:rgb(160,102,255);stop-opacity:1"></stop>
                                    </linearGradient>
                                </defs>
    <path class="js-path st0"
          d="M70.6,36C69.1,46.1,66,49,60.5,55.8C55,61.6,47.2,71.2,36,70.6C25.9,69.1,23,66,16.2,60.5 C10.4,55,0.8,47.2,1.4,36C2.9,25.9,6,23,11.5,16.2C17,10.4,24.8,0.8,36,1.4C46.1,2.9,49,6,55.8,11.5C61.6,17,71.2,24.8,70.6,36z"></path>
    <g id="Layer_1_1_">
                                    <g>
                                        <g>
                                            <path class="st1" d="M26,22.9h5.9v16.7c0,7.5-3.6,10.1-9.3,10.1c-1.4,0-3.2-0.2-4.3-0.6l0.7-4.8c0.8,0.3,1.9,0.5,3.1,0.5
                                      c2.5,0,4.1-1.2,4.1-5.2L26,22.9L26,22.9z"></path>
                                            <path class="st1" d="M37.2,43.1c1.6,0.8,4.1,1.6,6.6,1.6c2.7,0,4.1-1.2,4.1-2.9c0-1.6-1.2-2.6-4.4-3.7c-4.3-1.6-7.3-4-7.3-7.9
                                      c0-4.4,3.8-7.8,10-7.8c3,0,5.2,0.6,6.7,1.4l-1.4,4.8c-1-0.5-2.9-1.2-5.4-1.2c-2.6,0-3.8,1.2-3.8,2.5c0,1.7,1.4,2.5,4.9,3.7
                                      c4.6,1.7,6.8,4.1,6.8,7.9c0,4.4-3.3,8.2-10.6,8.2c-3,0-6-0.8-7.5-1.6L37.2,43.1z">

                                            </path>
                                        </g>
                                    </g>
                                </g>
                  </svg>

