<?xml version="1.0" encoding="utf-8"?>
<!-- Generator: Adobe Illustrator 21.0.0, SVG Export Plug-In . SVG Version: 6.00 Build 0)  -->
<svg version="1.1" id="Layer_1" xmlns="http://www.w3.org/2000/svg" xmlns:xlink="http://www.w3.org/1999/xlink" x="0px" y="0px"
	 viewBox="0 0 566.9 170.1" style="enable-background:new 0 0 566.9 170.1;" xml:space="preserve">
<style type="text/css">
	.st0{fill:#81BBE7;}
	.st1{fill:#FCEC48;}
	.st2{fill:#A0C639;}
	.st3{fill:#575756;}
	.st4{font-family:'Verdana';}
	.st5{font-size:47.3308px;}
	.st6{fill:#508FCC;}
</style>
<g>
	<g>
		<path class="st0" d="M141.5,82.8l-14.9,0c0,0,0,0.1,0,0.1h-11.8l-2.4,14.9h12.4c-5.8,20.7-24.8,35.9-47.3,35.9
			c-27.1,0-49.1-22-49.1-49.1c0-0.4,0-0.7,0-1.1c0.6-26.6,22.4-48,49.1-48c5.4,0,10.8,0.9,15.9,2.6l0-15.2
			c-6.7-2.3-8.8-2.3-15.9-2.3c-34.9,0-63.4,28.1-64,62.9c0,0.4,0,0.7,0,1.1c0,35.3,28.7,64,64,64c35.3,0,64-28.7,64-64
			C141.5,84.1,141.5,83.4,141.5,82.8z"/>
		<polyline class="st1" points="114.8,82.9 114.8,33.8 99.9,25.5 99.9,54.9 		"/>
		<path class="st2" d="M99.9,54.9c-6.2-4.7-14-7.5-22.4-7.5c-20.6,0-37.3,16.7-37.3,37.3c0,20.6,16.7,37.3,37.3,37.3
			c15.9,0,29.5-10,34.9-24.1l2.4-14.9C113.4,63.8,99.9,54.9,99.9,54.9z M77.5,107.1c-12.3,0-22.4-10-22.4-22.4
			c0-12.3,10-22.4,22.4-22.4c12.3,0,22.4,10,22.4,22.4C99.9,97,89.8,107.1,77.5,107.1z"/>
	</g>
	<text transform="matrix(1 0 0 1 163.2909 65.5746)"><tspan x="0" y="0" class="st3 st4 st5">One Group </tspan><tspan x="0" y="56.8" class="st6 st4 st5">Digital</tspan><tspan x="152" y="56.8" class="st3 st4 st5"> Solutions</tspan></text>
</g>
</svg>
