<?xml version="1.0" encoding="UTF-8"?>
<svg xml:space="preserve" xmlns:xlink="http://www.w3.org/1999/xlink" id="dataBaseIcon" style="enable-background:new 0 0 504 504;" version="1.1" viewBox="0 0 504 504" x="0px" xmlns="http://www.w3.org/2000/svg" y="0px">
                    <defs>
                        <linearGradient id="gradient" x1="0%" x2="100%" y1="0%" y2="0%">
                            <stop offset="0%" style="stop-color:rgb(57,146,230);stop-opacity:1"></stop>
                            <stop offset="100%" style="stop-color:rgb(160,102,255);stop-opacity:1"></stop>
                        </linearGradient>
                    </defs>
    <path class="dataBaseIcon st0" d="M458.5,258.3c-9.2,58.5-27.1,75.6-58.8,114.9c-31.7,33.3-77.3,88.9-141.9,85.8c-58.5-9.2-75.6-27.1-114.9-58.8
                        c-33.3-31.7-88.9-77.3-85.8-141.9c9.2-58.5,27.1-75.6,58.8-114.9c31.7-33.3,77.3-88.9,141.9-85.8c58.5,9.2,75.6,27.1,114.9,58.8
                        C406,148.1,461.6,193.7,458.5,258.3z"></path>
    <g>
                                    <g id="Layer_1_16_">
                                        <g>
                                            <g>
                                                <g>
                                                    <path class="st1" d="M245,203c2.2,0,4.4,0,6.5-0.1c1.1-15.1,24.9-24.1,51.7-26.2v-12.2c0-11.7-26.1-21.2-58.2-21.2
                                            s-58.2,9.5-58.2,21.2v17.4C186.8,193.5,212.8,203,245,203z"></path>
                                                </g>
                                            </g>
                                            <path class="st1" d="M186.8,193.5l0,19.4c8.1-1.9,16.9-2.9,25.8-3.3C198.2,206,188.1,200.2,186.8,193.5z"></path>
                                            <g>
                                                <g>
                                                    <path class="st1" d="M317.8,184.2c-32.1,0-58.2,9.5-58.2,21.2v9.2c7.1,2.2,13.4,5,18.1,8.5l0.3,0.3c5.7,4.3,9,9.7,9,16.2v1.2
                                            c8.9,2,19.4,3.2,30.7,3.2c32.1,0,58.2-9.5,58.2-21.2v-17.4C375.9,193.7,349.9,184.2,317.8,184.2z"></path>
                                                </g>
                                            </g>
                                            <path class="st1" d="M376,234.6c-2.2,11-27.5,19.6-58.2,19.6c-11.3,0-21.8-1.2-30.7-3.2v30.3c8.9,2,19.4,3.2,30.7,3.2
                                    c32.1,0,58.2-9.5,58.2-21.2C375.9,263.3,376.1,235.1,376,234.6z"></path>
                                            <path class="st1" d="M375.9,275.5c-2.2,11-27.5,19.6-58.2,19.6c-11.3,0-21.8-1.2-30.7-3.2v30.3c8.9,2,19.4,3.2,30.7,3.2
                                    c32.1,0,58.2-9.5,58.2-21.2C375.9,304.3,376,276,375.9,275.5z"></path>
                                            <g>
                                                <g>
                                                    <path class="st1" d="M220.8,216.9c-32.1,0-58.2,9.5-58.2,21.2v17.4c0,11.7,26.1,21.2,58.2,21.2c32.1,0,58.2-9.5,58.2-21.2
                                            v-17.4C279,226.4,253,216.9,220.8,216.9z"></path>
                                                </g>
                                            </g>
                                            <g>
                                                <g>
                                                    <path class="st1" d="M220.8,286.9c-30.7,0-56-8.7-58.2-19.6c-0.1,0.5,0,28.7,0,28.7c0,11.7,26.1,21.2,58.2,21.2
                                            c32.1,0,58.2-9.5,58.2-21.2c0,0,0.1-28.2,0-28.8C276.8,278.3,251.5,286.9,220.8,286.9z"></path>
                                                </g>
                                            </g>
                                            <g>
                                                <g>
                                                    <path class="st1" d="M220.8,327.9c-30.7,0-56-8.7-58.2-19.6l0,28.8c0,11.7,26.1,21.2,58.2,21.2c32.1,0,58.2-9.5,58.2-21.2
                                            c0,0,0.1-28.2,0-28.8C276.8,319.2,251.5,327.9,220.8,327.9z"></path>
                                                </g>
                                            </g>
                                        </g>
                                    </g>
                                </g>
                    </svg>
