<?xml version="1.0" encoding="UTF-8"?>
<svg xml:space="preserve" xmlns:xlink="http://www.w3.org/1999/xlink" id="phpIcon"
     style="enable-background:new 0 0 72 72;" version="1.1" viewBox="0 0 72 72" x="0px"
     xmlns="http://www.w3.org/2000/svg" y="0px">
                    <defs>
                      <linearGradient id="gradient" x1="0%" x2="100%" y1="0%" y2="0%">
                        <stop offset="0%" style="stop-color:rgb(57,146,230);stop-opacity:1"></stop>
                          <stop offset="100%" style="stop-color:rgb(160,102,255);stop-opacity:1"></stop>
                      </linearGradient>
                    </defs>
    <path class="phpIcon st0" d="M70.6,36C69.1,46.1,66,49,60.5,55.8C55,61.6,47.2,71.2,36,70.6C25.9,69.1,23,66,16.2,60.5
                        C10.4,55,0.8,47.2,1.4,36C2.9,25.9,6,23,11.5,16.2C17,10.4,24.8,0.8,36,1.4C46.1,2.9,49,6,55.8,11.5C61.6,17,71.2,24.8,70.6,36z"></path>
    <g id="Layer_2_1_">
                        <g>
                            <g>
                                <path class="st1" d="M20.8,32.2c1.6,0,2.5,0.3,3,0.8c0.5,0.5,0.6,1.6,0.3,2.8c-0.3,1.4-0.8,2.4-1.6,3c-0.8,0.6-2,0.9-3.6,0.9
                                    h-2.4L18,32C18,32.2,20.8,32.2,20.8,32.2z M11,47.7h4l0.9-4.9h3.5c1.6,0,2.7-0.1,3.8-0.5c1-0.3,1.9-0.8,2.6-1.6
                                    c0.7-0.6,1.2-1.4,1.7-2.1c0.4-0.7,0.7-1.6,0.8-2.4c0.4-2.2,0.1-3.9-0.9-5.1c-1-1.2-2.7-1.8-5-1.8h-7.8L11,47.7z"></path>
                                <path class="st1" d="M32.4,24.3h4l-0.9,4.9h3.6c2.2,0,3.8,0.4,4.6,1.2c0.8,0.8,1.2,2.1,0.7,3.8l-1.7,8.6h-4.1l1.6-8.1
                                    c0.2-0.9,0.1-1.6-0.2-1.9c-0.3-0.3-1-0.5-2-0.5h-3.2l-2.1,10.5h-4L32.4,24.3z"></path>
                                <path class="st1" d="M53.2,32.2c1.6,0,2.5,0.3,3,0.8c0.5,0.5,0.6,1.6,0.3,2.8c-0.3,1.4-0.8,2.4-1.6,3c-0.8,0.6-2,0.9-3.6,0.9
                                    h-2.4l1.5-7.8C50.4,32.2,53.2,32.2,53.2,32.2z M43.5,47.7h4l0.9-4.9h3.5c1.6,0,2.7-0.1,3.8-0.5c1-0.3,1.9-0.8,2.6-1.6
                                    c0.7-0.6,1.2-1.4,1.7-2.1c0.4-0.7,0.7-1.6,0.8-2.4c0.4-2.2,0.1-3.9-0.9-5.1c-1-1.2-2.7-1.8-5-1.8h-7.8L43.5,47.7z"></path>
                            </g>
                        </g>
                    </g>
                    </svg>
