<?xml version="1.0" encoding="UTF-8"?>
<svg version="1.1" xmlns="http://www.w3.org/2000/svg" xmlns:xlink="http://www.w3.org/1999/xlink">
    <symbol id="custom_icon" viewBox="0 0 49 65">
        <g id="custom_svg" transform="translate(-1368 -1083)">
            <path d="M1416 1108.23a22.9 22.9 0 0 1-4.3 13.41 23.4 23.4 0 0 1-10.47 8.17l-1 13.3h-4.07l-.98 3.89h-5.36l-.98-3.88h-4.07l-1-13.3a23.4 23.4 0 0 1-10.46-8.18 22.9 22.9 0 0 1-4.31-13.4c0-12.82 10.54-23.24 23.5-23.24s23.5 10.42 23.5 23.23zm-21.25 21.42l5.42-19.16a7 7 0 0 0-.43.37c-.61.53-1.37 1.2-2.82 1.2-1.46 0-2.22-.67-2.83-1.2-.5-.45-.84-.75-1.6-.75-.75 0-1.08.3-1.6.75a3.89 3.89 0 0 1-5.63 0c-.15-.14-.3-.26-.43-.36l5.42 19.15zm-9 1.82l.15 2.06h13.2l.16-2.06zm.44 5.94h12.62l.16-2.06h-12.94zm8.08 5.7h-3.54l.53 2.07h2.48zm4.25-1.81l.15-2.07h-12.34l.15 2.07zm15.64-33.07c0-11.8-9.72-21.41-21.66-21.41s-21.66 9.6-21.66 21.41a21.1 21.1 0 0 0 3.97 12.36 21.59 21.59 0 0 0 10.16 7.73l.55.2.09 1.13h2.73l-6.54-23.11 1.77-.5.65 2.29c1.1.14 1.74.7 2.26 1.17.51.44.84.74 1.6.74.75 0 1.09-.3 1.6-.74.6-.54 1.36-1.2 2.82-1.2 1.45 0 2.2.66 2.82 1.2.5.44.84.74 1.6.74.75 0 1.09-.3 1.6-.74a4.02 4.02 0 0 1 2.26-1.17l.65-2.28 1.77.49-6.54 23.1h2.73l.09-1.12.55-.2c4.1-1.5 7.62-4.18 10.16-7.73a21.1 21.1 0 0 0 3.97-12.36z"/>
        </g>
    </symbol>

    <symbol id="landing_icons" viewBox="0 0 77 91">
        <g id="landing_svg" transform="translate(-775 -1065)">
            <path d="M817.26 1130.68a3.77 3.77 0 1 1-7.54 0 3.77 3.77 0 0 1 7.54 0zm-1.52 0a2.24 2.24 0 1 0-4.49 0 2.24 2.24 0 0 0 4.49 0zm35.26-42.52v46.41c0 2.9-2.36 5.27-5.26 5.27h-22.45l2.55 7.3h.24a4.09 4.09 0 0 1 4.08 4.08v3.02c0 .42-.34.76-.76.76h-31.8a.76.76 0 0 1-.76-.76v-3.02a4.09 4.09 0 0 1 4.08-4.09h.24l2.55-7.29h-22.45a5.27 5.27 0 0 1-5.26-5.27v-46.4c0-2.91 2.36-5.28 5.26-5.28h22.64c1.92-7.69 5.2-13.54 9.23-15.8a.76.76 0 0 1 .74 0c4.03 2.26 7.3 8.11 9.23 15.8h22.64c2.9 0 5.26 2.37 5.26 5.27zm-1.52 0a3.75 3.75 0 0 0-3.74-3.74h-22.28a68.05 68.05 0 0 1 1.52 13.75 24.81 24.81 0 0 1 6.25 10.34 7.05 7.05 0 0 1 8.32 3.48c2.6 1 4.37 3.45 4.5 6.24a7.46 7.46 0 0 1 2.13 4.5h3.3zm-53.28 27.7c0 .35.01.7.04 1.1h4.88c.33-1.81 1.06-3.49 2.08-4.94-.7-3.7-1.1-7.6-1.17-11.64a23.25 23.25 0 0 0-5.83 15.48zm27.6-3.84a12.57 12.57 0 0 1 2.08 4.94h4.88a68.83 68.83 0 0 1-6.96-4.93zm-10.3-3.84a11.1 11.1 0 0 0-11.08 11.25h22.16v-.15a11.1 11.1 0 0 0-11.08-11.1zm-18.82 7.68c0-1.96.23-3.89.66-5.75a5.52 5.52 0 0 0-7.03 2.82.76.76 0 0 1-.45.4 5.5 5.5 0 0 0-3.78 5.23c0 .22-.09.42-.24.56a5.93 5.93 0 0 0-1.86 3.6h62.66a5.93 5.93 0 0 0-1.86-3.6.76.76 0 0 1-.24-.56 5.5 5.5 0 0 0-3.77-5.22.76.76 0 0 1-.46-.41 5.52 5.52 0 0 0-6.68-2.95 25.23 25.23 0 0 1 .6 7.8c-.02.4-.35.7-.75.7h-5.4a12.62 12.62 0 0 1-.02 1.77c-.03.4-.36.7-.76.7h-23.6c-.4 0-.73-.3-.76-.7a12.76 12.76 0 0 1-.01-1.77h-5.4c-.4 0-.74-.3-.77-.7-.05-.72-.08-1.34-.08-1.92zm11.87-36.59c-1.97 5.67-3.01 12.5-3.01 19.77 0 3.96.3 7.8.93 11.45a12.55 12.55 0 0 1 18.06 0c.62-3.65.93-7.49.93-11.45 0-7.27-1.04-14.1-3-19.77-1.8-5.16-4.26-8.91-6.96-10.63-2.7 1.72-5.16 5.47-6.95 10.63zm-29.03 43.46h2.93c.17-1.7.92-3.29 2.12-4.5a7.03 7.03 0 0 1 4.5-6.23 7.05 7.05 0 0 1 8.67-3.37 24.8 24.8 0 0 1 6.28-10.46c.06-4.9.6-9.57 1.52-13.75h-22.28a3.75 3.75 0 0 0-3.74 3.74zm48.56 25.93h-25.16a2.56 2.56 0 0 0-2.56 2.56v2.25h30.28v-2.25a2.56 2.56 0 0 0-2.56-2.56zm-4.4-8.82h-16.36l-2.55 7.3h21.45zm-44.16-5.27a3.75 3.75 0 0 0 3.74 3.75h64.48a3.75 3.75 0 0 0 3.74-3.75v-10.32h-71.96zm31.67-51.68a4.32 4.32 0 1 1 8.64 0 4.32 4.32 0 0 1-8.64 0zm1.52 0a2.8 2.8 0 1 0 5.59 0 2.8 2.8 0 0 0-5.59 0z"/>
        </g>
    </symbol>

    <symbol id="blog_icons" viewBox="0 0 83 74">
        <g id="blog_svg" transform="translate(-1064 -1076)">
            <path d="M1146 1107.32c0 7.87-4.2 15.26-11.8 20.8-7.54 5.5-17.56 8.52-28.2 8.52-1.84 0-3.7-.1-5.54-.28l-14.8 12.48a.7.7 0 0 1-1.15-.53v-16.26c-5.48-2.56-10.06-6.08-13.28-10.21-3.42-4.4-5.23-9.42-5.23-14.52 0-7.88 4.19-15.26 11.8-20.8 7.54-5.5 17.56-8.52 28.2-8.52s20.66 3.02 28.2 8.52c7.61 5.54 11.8 12.92 11.8 20.8zm-76.67 8.77c2.76 6.08 8.39 11.35 16.16 14.89.25.11.4.36.4.63v15.2l13.9-11.7a.7.7 0 0 1 .52-.17c1.88.2 3.8.3 5.69.3 21.3 0 38.61-12.52 38.61-27.92 0-3.99-1.16-7.78-3.25-11.21l-4.7-5.74c-7.06-6.67-18.18-10.98-30.66-10.98-21.3 0-38.61 12.53-38.61 27.93 0 2.53.46 5.01 1.36 7.39zm16.99-14.5a.7.7 0 0 1-.7-.7v-8.4c0-.38.32-.7.7-.7h12.72c.39 0 .7.32.7.7v8.4a.7.7 0 0 1-.7.7zm.7-8.4v7h11.33v-7zm42.13 5.47a.7.7 0 0 1-.7.7h-23.7a.7.7 0 0 1 0-1.4h23.7c.39 0 .7.31.7.7zm-7.37 22.12a.7.7 0 0 1-.7.7h-13.65a.7.7 0 0 1 0-1.4h13.65c.39 0 .7.32.7.7zm7.37-14.75a.7.7 0 0 1-.7.7h-41.9a.7.7 0 0 1 0-1.4h41.9c.39 0 .7.32.7.7zm0 7.38a.7.7 0 0 1-.7.69h-41.9a.7.7 0 1 1 0-1.39h41.9c.39 0 .7.31.7.7z"/>
        </g>
    </symbol>

    <symbol id="cart_icon" viewBox="0 0 84 63">
        <g id="cart_svg" transform="translate(-479 -1083)">
            <path d="M563.97 1095.15l-6.5 35.15a3.45 3.45 0 0 1-3.3 2.74H510.7a3.44 3.44 0 0 1-3.31-2.74l-6.5-35.15v-.06l-1.24-6H495v1.07c0 1.12-.92 2.04-2.05 2.04h-9.9a2.05 2.05 0 0 1-2.06-2.04v-3.12c0-1.13.92-2.04 2.05-2.04h9.9c1.14 0 2.06.91 2.06 2.04v.6h5.24c.34 0 .63.25.7.58l.91 4.42c.44-.32.98-.5 1.56-.5h58.03c.8 0 1.52.33 2 .9.47.56.66 1.33.52 2.1zm-70.4-8.11a.6.6 0 0 0-.61-.6h-9.9a.6.6 0 0 0-.62.6v.3h5.83c.4 0 .73.32.73.72 0 .4-.33.72-.73.72h-5.83v1.38c0 .33.28.6.61.6h9.9a.6.6 0 0 0 .61-.6zM524 1131.6l-1.05-5.74h-7.2l1.06 5.74zm-1.32-7.18l-2.91-15.8h-7.2l2.92 15.8zm-14.9 0h6.24l-2.92-15.8h-6.24zm-3.18-17.23h6.24l-.8-4.32h-6.24zm14.9 0l-.8-4.32h-7.2l.8 4.32zm-1.06-5.75l-1.45-7.87h-7.2l1.45 7.87zm-16.11-6.56l1.2 6.56h6.24l-1.45-7.87h-4.9c-.37 0-.68.13-.88.38-.2.24-.28.57-.21.93zm8.38 36.72h4.64l-1.06-5.74h-6.24l.77 4.17a2.02 2.02 0 0 0 1.89 1.57zm48.5-18.67l2.83-15.3zm0 0l-.26 1.44h-12.49a.72.72 0 0 1-.72-.72c0-.4.32-.72.72-.72zm-.26 1.44l-.8 4.3 1.06-5.74 3.1-16.74.24-1.31c.06-.36-.01-.7-.21-.93-.2-.25-.52-.38-.89-.38h-42.99l1.45 7.87H545a.72.72 0 0 1 0 1.43h-24.81l.79 4.32h5.3c.39 0 .71.32.71.71 0 .4-.32.72-.72.72h-5.03l2.92 15.8h21.58a.72.72 0 0 1 0 1.43H524.4l1.06 5.75h28.7c.86 0 1.73-.72 1.89-1.57l1.83-9.92 1.06-5.74zm-37.36 26.6a3.37 3.37 0 0 1-6.76 0 3.37 3.37 0 0 1 6.76 0zm-1.44 0c0-1.05-.87-1.92-1.94-1.92-1.07 0-1.93.87-1.93 1.93a1.93 1.93 0 0 0 3.87 0zm5.12 0a7.04 7.04 0 0 1-7.06 7.02 7.04 7.04 0 0 1-7.06-7.01 7.04 7.04 0 0 1 7.06-7.01c3.9 0 7.06 3.14 7.06 7zm-1.44 0a5.6 5.6 0 0 0-5.62-5.57 5.6 5.6 0 0 0-5.61 5.58 5.6 5.6 0 0 0 5.61 5.58 5.6 5.6 0 0 0 5.62-5.58zm29.89 0a7.04 7.04 0 0 1-7.06 7.02 7.04 7.04 0 0 1-7.06-7.01 7.04 7.04 0 0 1 7.06-7.01c3.9 0 7.06 3.14 7.06 7zm-1.45 0a5.6 5.6 0 0 0-5.61-5.57 5.6 5.6 0 0 0-5.62 5.58 5.6 5.6 0 0 0 5.62 5.58 5.6 5.6 0 0 0 5.61-5.58zm-2.23 0a3.37 3.37 0 0 1-6.76 0 3.37 3.37 0 0 1 6.76 0zm-1.44 0c0-1.05-.87-1.92-1.94-1.92-1.07 0-1.94.87-1.94 1.93a1.93 1.93 0 0 0 3.88 0z"/>
        </g>
    </symbol>
</svg>
