<?xml version="1.0" encoding="utf-8"?>
<!-- Generator: Adobe Illustrator 21.0.0, SVG Export Plug-In . SVG Version: 6.00 Build 0)  -->
<svg version="1.1" id="Layer_1" xmlns="http://www.w3.org/2000/svg" xmlns:xlink="http://www.w3.org/1999/xlink" x="0px" y="0px"
	 viewBox="0 0 300 300" style="enable-background:new 0 0 300 300;" xml:space="preserve">
<style type="text/css">
	.st0{fill:#0C080C;}
	.st1{fill:#F0C7B1;}
	.st2{fill:#FFE4D6;}
	.st3{fill:#E1AC8F;}
	.st4{fill:none;stroke:#C27B55;stroke-width:1.5;}
	.st5{fill:url(#SvgjsPath3951_1_);}
	.st6{fill:#F3F1F3;}
	.st7{fill:#131111;}
	.st8{fill:#F3F1F4;}
	.st9{fill:#CFC8D7;}
	.st10{fill:#E1E0E1;}
	.st11{fill:#152C5E;}
	.st12{fill:#0A1F4F;}
	.st13{fill:#01153F;}
	.st14{fill:#233B6D;}
	.st15{fill:#000F30;}
	.st16{fill:#F0C7B1;stroke:#C27B55;stroke-width:1.5;}
	.st17{fill:#C27B55;}
	.st18{fill:#E8B9A0;}
	.st19{fill:url(#SvgjsPath3943_1_);}
	.st20{fill:url(#SvgjsPath3955_1_);}
	.st21{fill:#4E60A3;}
	.st22{opacity:0.7;fill:url(#SvgjsPath4014_1_);enable-background:new    ;}
	.st23{opacity:0.4;fill:url(#SvgjsPath4018_1_);enable-background:new    ;}
	.st24{opacity:0.9;enable-background:new    ;}
	.st25{opacity:0.5;fill:url(#SvgjsPath4024_1_);enable-background:new    ;}
	.st26{opacity:0.5;fill:url(#SvgjsPath4028_1_);enable-background:new    ;}
	.st27{opacity:0.75;fill:url(#SvgjsPath4032_1_);enable-background:new    ;}
	.st28{fill:url(#SvgjsPath3981_1_);}
	.st29{fill:url(#SvgjsPath3986_1_);}
	.st30{fill:url(#SvgjsPath3963_1_);}
	.st31{opacity:0.7;fill:url(#SvgjsPath4037_1_);enable-background:new    ;}
	.st32{opacity:0.4;fill:url(#SvgjsPath4041_1_);enable-background:new    ;}
	.st33{opacity:0.5;fill:url(#SvgjsPath4047_1_);enable-background:new    ;}
	.st34{opacity:0.5;fill:url(#SvgjsPath4051_1_);enable-background:new    ;}
	.st35{opacity:0.75;fill:url(#SvgjsPath4055_1_);enable-background:new    ;}
	.st36{fill:url(#SvgjsPath4002_1_);}
	.st37{fill:url(#SvgjsPath4007_1_);}
	.st38{fill:#2A232B;}
	.st39{opacity:0.2;fill:#FFF5EF;enable-background:new    ;}
	.st40{fill:#1B141C;}
	.st41{fill:#3A353A;}
	.st42{opacity:0.2;fill:#FFFFFF;enable-background:new    ;}
	.st43{opacity:0.4;fill:#FFFFFF;enable-background:new    ;}
	.st44{fill:#26120B;}
	.st45{display:none;opacity:0.5;fill:#ECF0F1;enable-background:new    ;}
</style>
<g id="svga-group-wrapper" transform="scale(3 3)">
	
		<g id="svga-group-subwrapper" transform="matrix(0.84999948 0 0 0.84999948 14.979303539305008 17.162249694490995) translate(0 9.999999983634211e-8)">
		<g id="svga-group-hair-back">
			<path id="SvgjsPath3843" class="st0" d="M62.8,37.7c-20.7-0.5-41.5,0-41.9,0c-1.2,1.8-1.9,5.2-1.5,7c0.5,1.9,2,3.6,2.5,7.3
				c0,0.3,0,0.8,0.1,1.2c0.1,0.5,0.9,1.5,1.5,1.6c0.1,0,0.2,0,0.2,0c0.2,0.5,0.7,0.6,0.9,0.5c0.7,1.2,1.4-0.2,2.3,0.6
				c1.5,1.2,1.7,0,2.9-0.5c1,0,2.3,1.6,3.5,0.3c2.5-2.4,3.6,2,5.8,0.8c0.5-0.2,1.8-1.2,2.7-0.7c1.7-1.1,2.6,2.3,5.2,0
				c2.5-2.3,2.9,0.6,4.7,0.2c0.8-0.2,1.1-0.8,1.9-0.8c1.2,0.5,1.5,1.6,2.9,0.5c0.9-0.8,1.6,0.7,2.3-0.6c0.2,0.1,0.7,0,0.9-0.5h0.2
				c0.6-0.1,1.4-1.1,1.5-1.6c0.2-0.7-0.1-2.5,1.6-6C64.9,43.6,64.7,40.3,62.8,37.7z"/>
			<path id="SvgjsPath3844" d="M62.8,37.7c-20.7-0.5-41.5,0-41.9,0c-1.2,1.8-1.9,5.2-1.5,7c0.5,1.9,2,3.6,2.5,7.3
				c0,0.3,0,0.8,0.1,1.2c0.1,0.5,0.9,1.5,1.5,1.6c0.1,0,0.2,0,0.2,0c0.2,0.5,0.7,0.6,0.9,0.5c0.7,1.2,1.4-0.2,2.3,0.6
				c1.5,1.2,1.7,0,2.9-0.5c1,0,2.3,1.6,3.5,0.3c2.5-2.4,3.6,2,5.8,0.8c0.5-0.2,1.8-1.2,2.7-0.7c1.7-1.1,2.6,2.3,5.2,0
				c2.5-2.3,2.9,0.6,4.7,0.2c0.8-0.2,1.1-0.8,1.9-0.8c1.2,0.5,1.5,1.6,2.9,0.5c0.9-0.8,1.6,0.7,2.3-0.6c0.2,0.1,0.7,0,0.9-0.5h0.2
				c0.6-0.1,1.4-1.1,1.5-1.6c0.2-0.7-0.1-2.5,1.6-6C64.9,43.6,64.7,40.3,62.8,37.7z M62.8,47c-2.5,4.6-1,6.5-2.7,7.2c0,0,0,0-0.1,0
				s-0.3-0.1-0.6-0.2c0,0-0.1,0.2-0.1,0.5c0,0,0,0-0.1,0.1c0,0,0,0-0.1,0s-0.5-0.2-0.6-0.2c-0.5,1-0.5,0.8-0.8,0.7
				c-1.4-0.5-1.5,0.3-2,0.7c-0.6,0.2-1-0.6-2-0.9c-1.1-0.1-1.5,0.7-2.1,0.8c-1.1,0.2-2.4-2.5-5,0c-2.3,2.3-2.8-1-4.8,0.1
				c-1.9-1.1-2.6,2.1-4.8-0.1c-2.5-2.4-3.8-0.1-4.4,0c-0.9,0.2-1.1-0.6-2.4-0.8c-1.2,0-1.7,1.2-2.4,0.9c-0.6-0.2-0.7-1-2-0.7
				c-0.5,0.1-0.5,0.2-0.8-0.7c-0.1,0.1-0.5,0.3-0.6,0.2c0,0,0,0-0.1,0C24,54.3,24.1,54.2,24,54c0.1,0-0.3,0.1-0.6,0.2c0,0,0,0-0.1,0
				s-0.2-0.1-0.3-0.3c-0.8-0.9-0.7-0.6-0.7-1.9c-0.8-5.4-5.1-7.8-1.6-14.2c13.4,0.2,28,0.3,41.9,0C64.8,41.7,64.2,44.3,62.8,47z"/>
		</g>
		<g id="svga-group-humanbody-single">
			<path id="SvgjsPath2893" class="st1" d="M84.4,80.1c-1-2.1-3.6-5.3-6.7-6.1c-3.7-1.1-12-2.4-15.1-3c-2.5-0.6-7.4-5.1-9.1-6.5
				c-0.3-0.2-0.6-0.8-0.6-1.2c-0.1-4.8,1.9-17.7,1.9-17.7h-13H28.7c0,0,1.9,12.9,1.9,17.7c0,0.5-0.2,1-0.6,1.2
				c-1.7,1.5-6.8,6-9.1,6.5c-3,0.7-11.4,2-15.1,3.2c-2.9,0.9-5.6,3.9-6.7,6.1C-2.5,83.6-3,90.2-3,95.7h44.6h44.6
				C86.5,90.2,86,83.6,84.4,80.1z"/>
			<path id="SvgjsPath2894" class="st2" d="M68.2,73c10.8,1.6,15.4,3.8,16.9,22.7h1.4c0-5.6-0.3-12.1-2-15.7c-1-2.1-3.6-5.3-6.7-6.1
				c-3.7-1.1-12-2.4-15.1-3c-2.5-0.6-8.1-5.4-9.7-7.3c1.5,2.1,5.8,7,9.4,8.2C64.1,72.5,65.6,72.7,68.2,73z M21.1,71.8
				c3.7-1.2,7.9-6.1,9.4-8.2c-1.5,1.9-7.2,6.8-9.7,7.3c-3,0.7-11.4,2-15.1,3.2C2.7,75,0,78-1,80.1c-1.5,3.5-2,10.1-2,15.6h1.4
				c1.5-18.6,6-21.1,16.9-22.7C17.9,72.7,19.4,72.5,21.1,71.8z"/>
			<path id="SvgjsPath2895" class="st3" d="M39.8,79.1c0,0-2.3-0.7-3.2-1c-4.6-1.8-19.8-2.9-19.8-2.9s16,0.7,19.5,1.2
				c-0.2-2.1-1.4-8.9-1.4-8.9s2.3,7.6,2.8,9.4C38.1,77.9,39.8,79.1,39.8,79.1z M44.6,78.6L44.6,78.6C44.5,78.6,44.6,78.6,44.6,78.6z
				 M39.8,79.1c0,0,1.2,1.4,1.9,1.4c0.9,0,2.1-1.2,2.7-1.8c-0.6,0.5-1.8,0.7-2.4,0.7C41.6,79.3,39.8,79.1,39.8,79.1z M49.2,75.7
				c-0.7,0.1-1.9,0.3-1.9,0.3l1-6.7c-0.3,1.4-2,7.2-3.6,9c0.9-0.7,2.7-1,3.7-1.2c4.6-0.7,4.6-0.7,18.4-2.3
				C66.7,75.1,53.8,75.1,49.2,75.7z"/>
			<path id="SvgjsPath2896" class="st4" d="M84.4,80.1c-1-2.1-3.6-5.3-6.7-6.1c-3.7-1.1-12-2.4-15.1-3c-2.5-0.6-7.4-5.1-9.1-6.5
				c-0.3-0.2-0.6-0.8-0.6-1.2c-0.1-4.8,1.9-17.7,1.9-17.7h-13H28.7c0,0,1.9,12.9,1.9,17.7c0,0.5-0.2,1-0.6,1.2
				c-1.7,1.5-6.8,6-9.1,6.5c-3,0.7-11.4,2-15.1,3.2c-2.9,0.9-5.6,3.9-6.7,6.1C-2.5,83.6-3,90.2-3,95.7h44.6h44.6
				C86.5,90.2,86,83.6,84.4,80.1z"/>
		</g>
		<g id="svga-group-chinshadow-single">
			
				<linearGradient id="SvgjsPath3951_1_" gradientUnits="userSpaceOnUse" x1="23.2197" y1="22.3487" x2="23.2197" y2="42.0031" gradientTransform="matrix(16.5814 0 0 -16.5814 -343.2141 437.8096)">
				<stop  offset="0" style="stop-color:#E1AC8F;stop-opacity:0.8"/>
				<stop  offset="0.7" style="stop-color:#C27B55"/>
			</linearGradient>
			<path id="SvgjsPath3951" class="st5" d="M41.8,67.2c5.1,0,7.4-2.8,10.8-4.3c0-3.5,0.9-10.7,1.5-14.7c-7.2-0.8-17.4-0.8-24.6,0
				c0.6,4.1,1.5,11.2,1.5,14.7C34.4,64.4,36.6,67.2,41.8,67.2z"/>
		</g>
		<g id="svga-group-clothes-single">
			<path id="SvgjsPath3860" class="st6" d="M54.7,97.2h-26V72c9.9,2.1,16.5,1.9,25.9,0v25.2H54.7z"/>
			<path id="SvgjsPath3861" class="st7" d="M45.1,97c-1.2,0-4.7,0.1-7.3-0.1v-0.1c-0.3-8.3,0.5-13.8,2-17.6l0,0l0,0
				c-0.5-0.5-1.1-0.9-1.8-1.4s-1.5-1-1.9-1.5c0.2-0.3,0.7-0.7,1-1c0.1,0,0.6-0.3,2.7-2.3c0.1-0.1,0.1-0.1,0.1-0.1
				c0.3-0.1,0.9-0.1,1.7-0.1c1,0,2.1,0.1,2.9,0.2c0.7,0.7,1.6,2.4,1.8,3.2c-0.5,1-0.9,1.4-1.7,1.9c-0.3,0.2-0.8,0.6-1.2,0.9l0,0l0,0
				c1.8,9,1.8,11.2,1.8,13.2c0,0.9,0,2.9,0.1,4.5C45.3,97,45.2,97,45.1,97z"/>
			<path id="SvgjsPath3862" d="M46.4,76.4c-0.3-0.9-1.2-2.6-1.9-3.3c-1.4-0.3-3.6-0.5-4.7-0.1L37,75.4c-0.5,0.3-0.8,0.7-1.1,1
				c0.9,0.9,2.9,2,3.8,2.8c-1.6,4.1-2.4,9.7-2,17.6v0.1c3,0.2,7.4,0.1,7.9,0.1c-0.6-5.1,0.7-4.6-1.9-17.8
				C44.8,78.1,45.7,78,46.4,76.4z M44.1,84.9L44.1,84.9c0.9,4.6,0.6,8.2,1.2,12c-2.1-0.1-5.4,0-7.4,0c0.1-3.3,0.6-14.2,2.1-17.7
				c0.1,0,0.1,0,0.2,0l-0.5,15.6L40.8,79l0,0l0.8,14.5l0.2-14.7l0,0l2,16.2l-1-16.1c0.1,0,0.2,0.1,0.5,0.1l0,0
				C43.4,79.5,43.7,82.8,44.1,84.9z M43.6,78.8c-1.2-0.6-2.8-0.5-4.1,0.1c-0.8-0.8-1.8-1.4-3.4-2.4c0.2-0.2,0.6-0.5,1-0.8l1.6-1.2
				c0.5-0.3,0.8-0.8,1.1-1.1c1.4,0,3.3,0,4.4,0.1c0.7,0.8,1.4,2.1,1.8,3C45.2,77.7,44.3,78.2,43.6,78.8z"/>
			<path id="SvgjsPath3863" class="st8" d="M32,86c-5.2-17.9-2.8-13.2-4.2-20.3c0.9-2.1,1.8-4.6,2.3-5.2l0,0
				c1,10.7,3.9,6.1,10.6,12.4C37,75.5,33.5,82.1,32,86z M55.7,65.8c-0.7-1.7-1.8-4.1-2.4-4.6c0.7,9.2-6.8,7.4-10.8,11.7
				c3.9,2.6,7.7,9.2,9,13.2C57.4,66.6,54.2,75.2,55.7,65.8z"/>
			<path id="SvgjsPath3864" class="st9" d="M53.3,61c0,2.3-0.2,4.1-0.6,4.6c-1.1,2.6-5.9,4.4-7.3,5.2c-1.1,0.6-2.3,1.2-3,2.1
				c1.7,1.1,2.6,1.5,5.8,6.4c1.9,3.2,2.9,5.5,3.4,7c6-19.8,2.8-11.2,4.3-20.5C55.1,63.9,53.8,61.4,53.3,61z M54.9,69.7
				c-0.9,8.1-1.6,6.4-3.5,15.2c-1.2-3.8-5-10.3-8.7-12.1c1.8-1.4,2.3-1.4,4.4-2.4c6.4-2.8,6.7-5.5,6.3-9c0.6,0.7,1.4,2.7,2.1,4.3
				C55.1,67.1,55,69.1,54.9,69.7z M32.4,67.6C30.5,66,31,64,30.1,60.4c-0.5,0.5-1.4,2.9-2.4,5.4c0.2,1.2,0.3,3.3,0.3,3.9
				c0.2,5.4,0.8,5.8,3.9,16.6c1.4-3.9,5.2-10.9,9-13.4C38,70.1,34,69,32.4,67.6z M34.9,79c-1,1.7-2,3.4-2.8,6c-2-9-2.7-7.6-3.5-15.2
				c-0.1-1.4-0.2-2.7-0.7-3.9c0.7-1.6,1.8-4.6,2.1-5c0.6,3.2,0,6,2.5,7.6c1.1,0.9,5,2.4,7.8,4.6C38.8,74,37.7,74.6,34.9,79z"/>
			<path id="SvgjsPath3865" class="st10" d="M50.8,84.5l-0.6-1.1c0,0,4.1-12.6,4.8-16.2C55.4,70.9,50.8,84.5,50.8,84.5z M32.3,84.1
				l0.7-1.5c0,0-3.8-11.8-4.5-15.4C28,70.9,32.3,84.1,32.3,84.1z"/>
			<path id="SvgjsPath3866" class="st11" d="M52.9,78.2c3.2-9.4,1.2-10,2.8-13.2c0.1-0.1,0.7,0.5,0.7,0.7C57,68.2,80.2,73.5,81,74
				c0.7,0.5,2.5,1.4,2.5,1.4c2.3,4.1,3.5,4.7,4.1,15.7c0.1,1.4,0,5.3,0,6.3L49.2,97C49.4,93.7,49.8,87.4,52.9,78.2z M30.6,78.2
				c-3.2-9.4-1.2-10-2.8-13.2c-0.1-0.1-0.7,0.5-0.7,0.7c-0.6,2.6-23.8,7.9-24.6,8.5C1.9,74.7,0,75.6,0,75.6
				c-2.3,4.1-3.5,4.7-4.1,15.7c-0.1,1.4,0,5.3,0,6.3l38.2-0.3C34.1,93.7,33.7,87.4,30.6,78.2z"/>
			<path id="SvgjsPath3867" class="st12" d="M55.3,75.7c-2,7.3-4.8,13.9-6.1,21.4c-0.5,0,0.7-10.1,3.6-18.9c3.2-9.4,1.2-10,2.8-13.2
				c0-0.1-0.2,0.9-0.1,1.1C55.4,69.7,56.3,72.2,55.3,75.7z M28.2,75.7c2,7.3,4.8,13.9,6.1,21.4c0.5,0-0.7-10.1-3.6-18.9
				c-3.2-9.4-1.2-10-2.8-13.2c0-0.1,0.2,0.9,0.1,1.1C28,69.7,27.1,72.2,28.2,75.7z"/>
			<path id="SvgjsPath3868" class="st13" d="M65.1,73.9c0,0-1,1.1-3.8,3c2.4-2.6,3.5-3.7,3.5-3.7L65.1,73.9z M66.2,79.2l-0.7-0.6
				c-2,6.2-3.4,9.2-5.8,16.3C63.1,88.6,63.9,86.3,66.2,79.2z M18.7,73.4c0,0,1.1,1,3.5,3.7c-2.8-1.9-3.8-3-3.8-3L18.7,73.4z
				 M23.8,95C21.4,87.8,20,84.9,18,78.7l-0.7,0.6C19.6,86.3,20.4,88.6,23.8,95z"/>
			<path id="SvgjsPath3869" class="st14" d="M77.2,88.8c0-5.2,1.4-8.2,4.3-12.5c0.2,0.1,0.5,0.2,0.6,0.3
				C79,80.5,78.4,84.1,77.2,88.8z M60.2,93.9c2.7-7.4,3.6-10.4,5.4-15.3c-0.6-0.1-3.8-1.4-4.4-1.5c0.2,0.5,1.4,0.8,3.5,2.1
				C64.7,79.1,62.4,86,60.2,93.9z M63.9,73.3c0,0-1.5,1.8-2.9,3.7c1.5-1.2,2.6-2.5,3.8-3.6c-1.8-1.5-4.7-3.8-6.5-5.4
				C59.7,69.5,63.9,73.3,63.9,73.3z M87.4,97.5L87.4,97.5c0.1-1,0.2-5,0.1-6.3c-0.7-10.8-1.9-11.6-4.1-15.7c0,0-1.9-0.9-2.5-1.4
				c-0.6-0.5-17.4-4.4-23.5-7.1c7.1,4.8,20.6,6.8,24.7,9.6C84.1,78.1,86.7,90.2,87.4,97.5z M1.3,76.6c0.2-0.2,0.2-0.1,0.6-0.3
				c2.9,4.4,4.4,7.3,4.4,12.5C5,84.1,4.3,80.4,1.3,76.6z M18.8,79.1c2.1-1.2,3.3-1.7,3.5-2.1c-0.6,0.1-3.8,1.4-4.4,1.5
				c1.8,5,2.7,7.9,5.4,15.3C21.1,86,18.8,79.1,18.8,79.1z M25.3,68c-1.9,1.6-4.7,3.9-6.5,5.4c1.4,1.1,2.4,2.5,3.8,3.6
				c-1.5-1.9-2.9-3.7-2.9-3.7S23.8,69.5,25.3,68z M1.4,76.6c3.9-2.9,17.5-4.7,24.7-9.6c-6.2,2.6-22.9,6.5-23.6,7.1
				C1.9,74.6,0,75.5,0,75.5c-2.3,4.1-3.5,4.7-4.1,15.7c-0.1,1.4,0,5.3,0,6.3H-4C-3.2,90.2-0.6,78.1,1.4,76.6z"/>
			<path id="SvgjsPath3870" class="st15" d="M56.1,65.1c0-0.1-0.2-0.3-0.3-0.3c-0.1,0-0.2,0.2-0.2,0.3c-1.6,3,0.2,3.7-2.9,13.1
				c-3,9.1-3.4,15.6-3.5,19.1l38.3,0.1c0-1,0.2-5,0.1-6.3c-0.7-10.8-1.9-11.6-4.2-15.7c0,0-1.9-1-2.6-1.5c-2.1-1.7-0.2,0-9.8-2.7
				c-7.9-2.3-8.2-2.9-11.2-3.7c-0.6-0.1-1.8-0.3-3.2-1.2C56.7,66.2,56.2,65.5,56.1,65.1z M49.4,96.8c1.7-10.5,2.7-13.3,5.1-21.1
				c1.6-5,0.7-7.8,1.5-10c0-0.1,0.2-0.1,0.2,0c1.1,2.8,4.2,3.4,8.5,7.7C62,76,61.3,76.6,61,77.1c0.3,0.2,2.5,1,4.4,1.7
				c-0.1,0.3-6,17-6.1,17.3c4.5-9.6,5.1-12.6,6.3-17.5c-0.3-0.2-3.5-1.5-4.1-1.6c1.9-2,2.5-2.4,3.4-3.6c0.7,0-7.1-6-7.4-6.3
				c0.2,0.1,1.2,0.7,1.4,0.7c6.5,2.3,1.4,1.2,15.7,5.4c1.4,0.3,3.3,0.7,4.7,0.8c0.1,0,2.4,1.2,3.7,1.8c-3.2,3.4-5.3,7.7-5.8,13.2
				c1.5-5.6,2.3-8.6,5.9-12.9c3.4,6.9,3,5.9,4.2,21.3C78,96.9,63.9,96.8,49.4,96.8z M26.7,66.3c-1.2,0.9-2.5,1.1-3.2,1.2
				c-2.8,0.8-3.3,1.5-11.2,3.7c-9.5,2.7-7.6,1.1-9.8,2.7C1.9,74.4,0,75.4,0,75.4c-2.3,4.1-3.5,4.8-4.2,15.7
				c-0.1,1.4,0.1,5.3,0.1,6.3l38.3-0.1c-0.1-3.5-0.5-9.9-3.5-19.1c-3.2-9.4-1.4-9.9-2.9-13.1c-0.1-0.1-0.1-0.3-0.2-0.3
				c-0.1,0-0.3,0.1-0.3,0.3C27.3,65.5,26.8,66.2,26.7,66.3z M-3.7,97.3C-2.6,81.8-3.1,82.8,0.4,76c3.6,4.3,4.4,7.2,5.9,12.9
				C5.8,83.3,3.8,79,0.5,75.6c1.4-0.6,3.6-1.8,3.7-1.8C5.7,73.7,7.6,73.4,9,73c14.3-4.1,9.1-3,15.7-5.4c0.1,0,1.1-0.5,1.4-0.7
				c-0.3,0.5-8.2,6.3-7.4,6.3c0.9,1.1,1.5,1.6,3.4,3.6c-0.6,0.2-3.7,1.4-4.1,1.6c1.4,4.8,1.9,7.8,6.3,17.5c-0.1-0.2-6-16.9-6.1-17.3
				c1.9-0.8,4.1-1.6,4.4-1.7c-0.3-0.5-1-1.1-3.6-3.7c4.3-4.2,7.3-4.8,8.5-7.7c0-0.1,0.2-0.1,0.2,0c0.8,2.3-0.1,5.1,1.5,10
				c2.4,7.9,3.4,10.6,5.1,21.1C19.6,96.8,5.5,96.9-3.7,97.3z"/>
		</g>
		<g id="svga-group-head">
			<g id="svga-group-ears-left">
				<path id="SvgjsPath3936" class="st16" d="M17.4,28.5c-0.7-1.1-2.8-4.1-4.5-3.7c-1.4,0.3-1.4,2.3-1.5,3.4
					c-0.1,1.6-0.2,4.5,0.2,5.6c0.4,1.1,1.8,3.3,2.6,4.1c1,1,2.7,4.2,2.8,4.5c0.3,0.6,0.9,1.2,1.9,1.2c1.4-0.1,2.6-1.4,2.7-2
					C22.4,38.2,19.3,31.4,17.4,28.5z"/>
				<path id="SvgjsPath3937" class="st17" d="M16.8,35.3c-0.1-0.2,0-0.7,0.1-1.1c0.1-0.3,0.1-0.7,0.1-1c-0.1-0.9-0.9-2.7-1.4-3.7
					c-0.6-1.1-1.5-2.5-2.5-2.8c-0.5-0.1-0.8,0-0.9,0.2c-0.1,0.1-0.1,0.3-0.1,0.3s0.1-0.1,0.2-0.2c0.1-0.1-0.2,0,0,0
					c-0.1,0.5-0.3,2.8-0.2,4.5c0.1,1.4,0.5,2.4,0.6,2.5c0,0.1,0,0.3,0.1,0.5c0.5,1.9,3.4,4.5,4.1,5.3c0.1,0.1,0.2,0.2,0.3,0.2
					c0,0,0-0.1-0.2-0.3c-0.7-0.7-3.6-3.3-3.9-5.2c-0.5-2,1.7-5,2.1-5.6c0.2,0.3,0.3,0.6,0.5,0.8s0.2,0.5,0.3,0.7
					c-0.2,0.3-2.3,2.7-1.8,4.6c0.2,0.7,1.7,1.6,2.3,1.9c0.3,0.1,0.5,0.3,0.6,0.6c0.1,0.2,0,1,0.6,1.2c0.1,0,0.2,0.1,0.3,0.1
					s0.2-0.1,0.3-0.1c0,0.1,0,0.2,0,0.5s0,0.2,0.1,0.2c0,0,0.1-0.1,0.1-0.2c0-0.2,0-0.6,0-0.7c-0.1-0.5-0.5-0.9-0.9-1.4
					C17,36.5,16.9,35.6,16.8,35.3z M12.7,33.5c-1-3,0.6-5.9,0.8-6.3c0.5,0.2,1.1,1,1.5,1.5C14.7,28.9,12.7,31.4,12.7,33.5z
					 M17.6,38.4c-0.5-0.2-0.3-0.9-0.5-1.1c-0.1-0.2-0.3-0.5-0.7-0.7c-0.1,0-0.2-0.1-0.2-0.1c-1.2-2.7,0.1-3.9,0.5-4.2
					c0.1,0.3,0.2,0.7,0.2,0.9s0,0.6-0.1,0.9c-0.1,0.5-0.1,0.9-0.1,1.1c0.1,0.5,0.2,1.4,0.6,1.8c0.3,0.5,0.7,0.9,0.8,1.2
					C18,38.4,17.9,38.5,17.6,38.4z"/>
			</g>
			<g id="svga-group-ears-right">
				<path id="SvgjsPath3938" class="st16" d="M65.9,28.5c0.7-1.1,2.8-4.1,4.5-3.7c1.4,0.3,1.4,2.3,1.5,3.4c0.1,1.6,0.2,4.5-0.2,5.6
					s-1.8,3.3-2.6,4.1c-1,1-2.7,4.2-2.8,4.5c-0.3,0.6-0.9,1.2-1.9,1.2c-1.4-0.1-2.6-1.4-2.7-2C61,38.2,64.1,31.4,65.9,28.5z"/>
				<path id="SvgjsPath3939" class="st17" d="M66,37c-0.3,0.5-0.8,0.9-0.9,1.4c0,0.1,0,0.5,0,0.7s0,0.2,0.1,0.2c0,0,0.1-0.1,0.1-0.2
					c0-0.1,0-0.3,0-0.5c0.1,0.1,0.2,0.1,0.3,0.1c0.1,0,0.2,0,0.3-0.1c0.6-0.2,0.3-0.9,0.6-1.2c0.1-0.2,0.2-0.5,0.6-0.6
					c0.6-0.2,2.1-1.1,2.3-1.9c0.6-1.9-1.6-4.3-1.8-4.6c0.1-0.2,0.2-0.5,0.3-0.7c0.1-0.2,0.2-0.6,0.5-0.8c0.3,0.7,2.6,3.6,2.1,5.6
					c-0.5,1.9-3.3,4.5-3.9,5.2c-0.1,0.1-0.2,0.2-0.2,0.3c0,0,0.1,0,0.3-0.2c0.7-0.8,3.6-3.3,4.1-5.3c0-0.1,0.1-0.3,0.1-0.5
					c0.1-0.1,0.5-1.1,0.6-2.5c0.2-1.7-0.1-4.1-0.2-4.5c0.2,0-0.1-0.1,0,0s0.2,0.2,0.2,0.2s0-0.2-0.1-0.3c-0.2-0.2-0.5-0.3-0.9-0.2
					c-1.1,0.3-2,1.8-2.6,2.8c-0.5,1-1.2,2.7-1.4,3.7c0,0.2,0,0.6,0.1,1c0.1,0.5,0.1,0.8,0.1,1.1C66.5,35.6,66.4,36.5,66,37z
					 M68.4,28.6c0.3-0.5,1-1.2,1.5-1.5c0.2,0.5,1.8,3.3,0.8,6.3C70.7,31.4,68.6,28.9,68.4,28.6z M65.4,38.3c0.1-0.3,0.5-0.8,0.8-1.2
					c0.3-0.5,0.5-1.4,0.6-1.8c0.1-0.3,0-0.7-0.1-1.1c0-0.3-0.1-0.7-0.1-0.9s0.1-0.6,0.2-0.9c0.3,0.2,1.7,1.5,0.5,4.2
					c-0.1,0.1-0.2,0.1-0.2,0.1c-0.3,0.1-0.6,0.5-0.7,0.7c-0.1,0.2,0,0.9-0.5,1.1C65.5,38.5,65.4,38.4,65.4,38.3z"/>
			</g>
			<g id="svga-group-faceshape-wrap">
				<g id="svga-group-faceshape-single">
					<path id="SvgjsPath3948" class="st1" d="M41.8-8.7c-15,0-27.2,12.4-27.2,27.5c0,2.4,0.3,4.7,0.9,7l0,0c0,0,3.6,16,5.3,21.2
						c1.2,3.9,6.4,9.8,10,11.3c3.5,1.5,5.9,4.4,11,4.4s7.6-2.9,11-4.4c3.6-1.5,8.8-7.4,10-11.3c1.7-5.2,5.3-21.2,5.3-21.2l0,0
						c0.6-2.3,0.9-4.6,0.9-7C69,3.6,56.8-8.7,41.8-8.7z"/>
					<path id="SvgjsPath3949" class="st18" d="M60-1.7c4.6,5,7.6,11.8,7.6,19.5c0,2.4-0.3,4.7-0.9,7l0,0c0,0-3.4,16-5,21.2
						c-1.1,3.9-6.1,9.8-9.5,11.3c-3.3,1.5-5.5,4.4-10.4,4.4s-7.1-2.9-10.4-4.4C28,55.8,23.1,49.8,22,46c-1.7-5.2-5.1-21.2-5.1-21.2
						l0,0c-0.6-2.3-0.8-4.6-0.9-7c0-7.6,2.8-14.4,7.6-19.5c-5.5,5.1-9,12.4-9,20.5c0,2.4,0.3,4.7,0.9,7l0,0c0,0,3.6,16,5.3,21.2
						c1.2,3.9,6.4,9.8,10,11.3c3.5,1.5,5.9,4.4,11,4.4s7.6-2.9,11-4.4c3.6-1.5,8.8-7.4,10-11.3c1.7-5.2,5.3-21.2,5.3-21.2l0,0
						c0.6-2.3,0.9-4.6,0.9-7C69,10.7,65.5,3.4,60-1.7z"/>
					<path id="SvgjsPath3950" class="st4" d="M41.8-8.7c-15,0-27.2,12.4-27.2,27.5c0,2.4,0.3,4.7,0.9,7l0,0c0,0,3.6,16,5.3,21.2
						c1.2,3.9,6.4,9.8,10,11.3c3.5,1.5,5.9,4.4,11,4.4s7.6-2.9,11-4.4c3.6-1.5,8.8-7.4,10-11.3c1.7-5.2,5.3-21.2,5.3-21.2l0,0
						c0.6-2.3,0.9-4.6,0.9-7C69,3.6,56.8-8.7,41.8-8.7z"/>
				</g>
			</g>
			<g id="svga-group-mouth-single">
				
					<linearGradient id="SvgjsPath3943_1_" gradientUnits="userSpaceOnUse" x1="23.2287" y1="23.1299" x2="23.2287" y2="24.47" gradientTransform="matrix(16.5814 0 0 -16.5814 -343.2141 437.8096)">
					<stop  offset="0.1" style="stop-color:#E8B9A0"/>
					<stop  offset="1" style="stop-color:#E1AC8F"/>
				</linearGradient>
				<path id="SvgjsPath3943" class="st19" d="M40.1,53.1l3.7-0.1C43.4,55,40.3,54.7,40.1,53.1z"/>
				<path id="SvgjsPath3947" class="st17" d="M40.1,53.2c-0.1,0-0.1-0.2,0-0.2c0,0,1.9,0.2,3.5-0.1c0.2,0,0.2,0.2,0.1,0.2
					C42.5,53.3,40.9,53.3,40.1,53.2z M41.8,51.6c-0.7,0-1.4-0.2-2-0.3s-1.5,0-2.1,0c-0.8,0.1-2.4,0-2.8-0.3
					c-0.2-0.1-0.2-0.6,0.1-0.7c0.2-0.1,0.7,0.1,1,0.1c1.2,0.2,1.9,0,3,0c1.7,0,1.9,0.7,4.1,0.2c2.3-0.5,3.4-0.1,5-0.6
					c0.2-0.1,0.5-0.2,0.8-0.1c0.2,0.1,0.2,0.6,0,0.7c-1.5,0.7-3.2,0.5-4.8,0.7C43.2,51.4,42.5,51.6,41.8,51.6z"/>
			</g>
			<g id="svga-group-eyes-left" transform="translate(5.838672220806777e-17 -1)">
				<g id="svga-group-eyesback-left">
					
						<radialGradient id="SvgjsPath3955_1_" cx="36.7728" cy="25.9037" r="5.7438" gradientTransform="matrix(-17.5631 6.632536e-03 6.632536e-03 -15.4507 675.6735 428.247)" gradientUnits="userSpaceOnUse">
						<stop  offset="0" style="stop-color:#FFFFFF"/>
						<stop  offset="0.544" style="stop-color:#FDFEFE"/>
						<stop  offset="0.74" style="stop-color:#F6F8F9"/>
						<stop  offset="0.879" style="stop-color:#EAEFF2"/>
						<stop  offset="0.992" style="stop-color:#D9E3E8"/>
						<stop  offset="1" style="stop-color:#D8E2E7"/>
					</radialGradient>
					<path id="SvgjsPath3955" class="st20" d="M34.1,31.2c-1.5-0.3-2.3,0.5-4.4,0.6c-3.6,0.1-4.4-0.2-5-1.1
						c-0.2-0.3-0.5-0.9-0.6-1.1v-1.8c0.6-1.8,8.7-1.9,11.6,0.8c0.1,0.3,0.2,0.6,0.2,0.8c-0.1,0.5-0.2,0.8-0.5,1.2
						C35.3,30.7,34.8,31.1,34.1,31.2z"/>
				</g>
				<g id="svga-group-eyesiriswrapper-left" transform="translate(0.25 0.25)">
					<g id="svga-group-eyesiriscontrol-left">
						<g id="svga-group-eyesiris-left">
							<path id="SvgjsPath4013" class="st21" d="M32.7,28.7c0,1.5-1.2,2.7-2.7,2.7c-1.5,0-2.7-1.2-2.7-2.7l0,0
								c0-1.5,1.2-2.7,2.7-2.7C31.5,26.1,32.7,27.3,32.7,28.7L32.7,28.7z"/>
							
								<radialGradient id="SvgjsPath4014_1_" cx="-51.0594" cy="132.5573" r="26.6903" gradientTransform="matrix(1.5917 -0.4113 -0.4062 -1.5937 165.0909 219.0409)" gradientUnits="userSpaceOnUse">
								<stop  offset="0" style="stop-color:#FFFFFF"/>
								<stop  offset="1" style="stop-color:#FFFFFF;stop-opacity:0"/>
							</radialGradient>
							<path id="SvgjsPath4014" class="st22" d="M29.7,26.1L29.7,26.1c0,0.1,0,0.1,0,0.2C29.7,26.3,29.7,26.1,29.7,26.1z M29.7,26.4
								c0,0.9,0.1,1.7,0.2,1.9C30,28,29.9,27.2,29.7,26.4z M29.9,28.3c0,0.1,0,0.1-0.1,0.1h-0.1c0,0.1,0,0.1,0,0.1h-0.1
								c0,0.1,0.1,0.1,0.1,0.1l-0.1,0.1c0.1,0,0.1,0.1,0.1,0.1s0,0.1-0.1,0.1c0.1,0,0.1,0,0.1,0s0,0.1,0,0.2c0.1,0,0.1-0.1,0.1,0
								l0.1,0.1c0-0.1,0.1-0.1,0.1-0.1s0.1,0,0.1,0.1c0-0.1,0-0.1,0.1-0.1c0,0,0.1,0,0.2,0c0-0.1,0-0.1,0-0.1l0.1-0.1
								c-0.1,0-0.1-0.1-0.1-0.1s0-0.1,0.1-0.1c-0.1,0-0.1,0-0.1-0.1v-0.1c-0.1,0-0.1,0-0.2,0v-0.1c0,0.1-0.1,0.1-0.1,0.1
								C30,28.4,30,28.3,29.9,28.3z M30.2,28.3c0.2-0.2,0.5-1,0.7-1.8C30.6,27.3,30.2,28,30.2,28.3z M30.9,26.5c0,0,0-0.1,0.1-0.1
								l0,0C30.9,26.4,30.9,26.4,30.9,26.5z M30.4,28.5c0.3-0.1,0.9-0.7,1.5-1.4C31.2,27.7,30.6,28.2,30.4,28.5z M31.9,27.2L32,27
								l0,0L31.9,27.2z M30.6,28.7c0.3,0,1.1-0.2,1.9-0.5C31.6,28.4,30.8,28.5,30.6,28.7z M32.5,28.3L32.5,28.3L32.5,28.3
								C32.6,28.2,32.5,28.2,32.5,28.3z M30.6,29c0.2,0.2,1,0.3,1.9,0.5C31.6,29.2,30.9,29,30.6,29z M32.5,29.4L32.5,29.4L32.5,29.4
								L32.5,29.4z M30.4,29.2c0.1,0.3,0.8,0.8,1.5,1.4C31.2,29.9,30.8,29.3,30.4,29.2z M31.9,30.5L31.9,30.5
								C32,30.7,32,30.7,31.9,30.5L31.9,30.5z M30.2,29.4c0,0.3,0.3,1,0.7,1.8C30.7,30.3,30.4,29.6,30.2,29.4z M30.9,31.2
								C30.9,31.2,30.9,31.3,30.9,31.2C30.9,31.3,30.9,31.3,30.9,31.2C30.9,31.3,30.9,31.2,30.9,31.2z M29.9,29.4
								c-0.1,0.3-0.2,1-0.2,1.9C29.9,30.5,30,29.8,29.9,29.4z M29.7,31.3C29.7,31.4,29.7,31.4,29.7,31.3
								C29.7,31.4,29.7,31.4,29.7,31.3C29.7,31.4,29.7,31.4,29.7,31.3z M29.7,29.3c-0.2,0.2-0.7,0.9-1.1,1.6
								C29.1,30.2,29.5,29.6,29.7,29.3z M28.5,30.9C28.5,31,28.5,31,28.5,30.9C28.5,31,28.5,31,28.5,30.9C28.5,31,28.5,31,28.5,30.9
								z M29.5,29.1c-0.3,0-1,0.5-1.7,0.9C28.5,29.6,29.3,29.3,29.5,29.1z M27.7,30h-0.1C27.6,30.1,27.6,30.1,27.7,30
								C27.7,30.1,27.7,30.1,27.7,30z M29.4,28.9c-0.3-0.1-1.1-0.1-1.9,0C28.3,29,29.1,29,29.4,28.9z M27.5,28.9h-0.1l0,0
								C27.4,28.9,27.4,28.9,27.5,28.9z M29.5,28.6c-0.2-0.2-0.9-0.6-1.7-0.9C28.5,28.2,29.2,28.5,29.5,28.6z M27.7,27.6l-0.1-0.1
								l0,0C27.6,27.6,27.7,27.6,27.7,27.6z M29.7,28.4c-0.1-0.3-0.6-0.9-1.1-1.6C29,27.5,29.4,28.2,29.7,28.4z M28.5,26.7l-0.1-0.1
								l0,0C28.5,26.7,28.5,26.7,28.5,26.7z"/>
							
								<radialGradient id="SvgjsPath4018_1_" cx="-70.4699" cy="119.5284" r="26.6913" gradientTransform="matrix(1.6432 1.468497e-02 1.823948e-02 -1.6432 143.5818 226.2506)" gradientUnits="userSpaceOnUse">
								<stop  offset="0" style="stop-color:#FFFFFF"/>
								<stop  offset="1" style="stop-color:#FFFFFF;stop-opacity:0"/>
							</radialGradient>
							<path id="SvgjsPath4018" class="st23" d="M30.4,26.1C30.3,26.1,30.3,26.1,30.4,26.1c0,0.1,0,0.1,0,0.2
								C30.3,26.3,30.3,26.3,30.4,26.1z M30.3,26.4c-0.2,0.9-0.3,1.6-0.2,1.9C30.2,28,30.3,27.2,30.3,26.4z M30.1,28.3
								c0,0.1-0.1,0.1-0.1,0.1s-0.1,0-0.1-0.1c0,0.1,0,0.1-0.1,0.1c0,0-0.1,0-0.2,0c0,0.1,0,0.1,0,0.1l-0.1,0.1
								c0.1,0,0.1,0.1,0.1,0.1s0,0.1-0.1,0.1c0.1,0,0.1,0,0.1,0.1V29c0.1,0,0.1,0,0.2,0v0.1l0.1-0.1c0,0,0.1,0,0.1,0.1
								c0-0.1,0-0.1,0.1-0.1h0.1c0-0.1,0-0.1,0-0.1h0.1c0-0.1-0.1-0.1-0.1-0.1l0.1-0.1c-0.1,0-0.1-0.1-0.1-0.1s0-0.1,0.1-0.1
								c-0.1,0-0.1,0-0.1,0s0-0.1,0-0.2C30.1,28.3,30.1,28.4,30.1,28.3C30.1,28.4,30.1,28.4,30.1,28.3z M30.3,28.4
								c0.2-0.2,0.7-0.8,1.1-1.6C30.9,27.5,30.4,28.1,30.3,28.4z M31.5,26.8l0.1-0.1l0,0C31.6,26.7,31.5,26.7,31.5,26.8z M30.6,28.6
								c0.3,0,1-0.5,1.8-0.9C31.5,28.1,30.7,28.4,30.6,28.6z M32.2,27.7c0,0,0.1,0,0.1-0.1l0,0C32.4,27.6,32.4,27.7,32.2,27.7z
								 M30.6,28.9c0.3,0.1,1.1,0.1,1.9,0C31.7,28.9,30.9,28.7,30.6,28.9z M32.5,28.9L32.5,28.9L32.5,28.9
								C32.6,28.9,32.6,28.9,32.5,28.9z M30.4,29.1c0.2,0.2,0.9,0.6,1.7,0.9C31.5,29.5,30.8,29.2,30.4,29.1z M32.2,30.1L32.2,30.1
								C32.3,30.2,32.3,30.2,32.2,30.1C32.2,30.1,32.2,30.1,32.2,30.1z M30.3,29.3c0.1,0.3,0.6,0.9,1.1,1.7
								C31,30.2,30.6,29.5,30.3,29.3z M31.3,31C31.3,31,31.5,31,31.3,31C31.5,31.1,31.5,31.1,31.3,31C31.5,31,31.5,31,31.3,31z
								 M30,29.4c-0.1,0.3,0,1.1,0.2,1.9C30.2,30.4,30.2,29.6,30,29.4z M30.2,31.3C30.2,31.4,30.2,31.4,30.2,31.3
								C30.2,31.4,30.2,31.4,30.2,31.3C30.2,31.4,30.2,31.4,30.2,31.3z M29.8,29.4c-0.2,0.2-0.5,1-0.8,1.8
								C29.4,30.4,29.8,29.6,29.8,29.4z M29,31.2L29,31.2C29,31.3,29,31.3,29,31.2L29,31.2z M29.5,29.2c-0.3,0.1-0.9,0.7-1.5,1.2
								C28.8,30,29.4,29.5,29.5,29.2z M28.1,30.4C28.1,30.5,28,30.5,28.1,30.4C28,30.5,28,30.5,28.1,30.4
								C28,30.5,28.1,30.5,28.1,30.4z M29.4,29c-0.3,0-1.1,0.1-1.9,0.5C28.4,29.3,29.2,29.2,29.4,29z M27.5,29.4h-0.1l0,0H27.5z
								 M29.4,28.7c-0.2-0.2-1-0.3-1.9-0.6C28.4,28.5,29.1,28.7,29.4,28.7z M27.5,28.2h-0.1l0,0H27.5z M29.5,28.4
								c-0.1-0.3-0.8-0.8-1.5-1.4C28.8,27.7,29.3,28.3,29.5,28.4z M28.1,27.2L28,27l0,0C28.1,27,28.1,27,28.1,27.2z M29.8,28.3
								c0-0.3-0.3-1-0.7-1.8C29.3,27.3,29.5,28.1,29.8,28.3z M29.1,26.5c0-0.1,0-0.1,0-0.2l0,0C29.1,26.4,29.1,26.4,29.1,26.5z"/>
							<path id="SvgjsPath4022" class="st21" d="M31,28.7c0,0.6-0.5,1-1,1s-1-0.5-1-1s0.5-1,1-1C30.6,27.7,31,28.2,31,28.7z"/>
							<path id="SvgjsPath4023" class="st24" d="M31,28.7c0,0.6-0.5,1-1,1s-1-0.5-1-1s0.5-1,1-1C30.6,27.7,31,28.2,31,28.7z"/>
							
								<linearGradient id="SvgjsPath4024_1_" gradientUnits="userSpaceOnUse" x1="25.1664" y1="25.1248" x2="25.5845" y2="25.6233" gradientTransform="matrix(16.5814 0 0 -16.5814 -388.8057 447.2812)">
								<stop  offset="0" style="stop-color:#FFFFFF"/>
								<stop  offset="1" style="stop-color:#FFFFFF;stop-opacity:0"/>
							</linearGradient>
							<path id="SvgjsPath4024" class="st25" d="M28.5,30c0.2-0.1,0.5-0.1,0.6,0.1c0.1,0.2,0.1,0.5-0.1,0.6s-0.5,0.1-0.6-0.1
								S28.3,30.2,28.5,30L28.5,30z"/>
							
								<linearGradient id="SvgjsPath4028_1_" gradientUnits="userSpaceOnUse" x1="25.2882" y1="25.2862" x2="24.9537" y2="24.8873" gradientTransform="matrix(16.5814 0 0 -16.5814 -388.8057 447.2812)">
								<stop  offset="0" style="stop-color:#FFFFFF"/>
								<stop  offset="1" style="stop-color:#FFFFFF;stop-opacity:0"/>
							</linearGradient>
							<path id="SvgjsPath4028" class="st26" d="M30.8,28.6c-0.1,0.1-0.5,0.1-0.7,0c-0.3-0.2-0.5-0.5-0.3-0.7l0,0
								c0.1-0.1,0.5-0.1,0.7,0C30.8,28.2,30.9,28.5,30.8,28.6L30.8,28.6z"/>
							
								<linearGradient id="SvgjsPath4032_1_" gradientUnits="userSpaceOnUse" x1="25.3523" y1="25.3538" x2="24.5813" y2="24.435" gradientTransform="matrix(16.5814 0 0 -16.5814 -388.8057 447.2812)">
								<stop  offset="0" style="stop-color:#FFFFFF"/>
								<stop  offset="1" style="stop-color:#FFFFFF;stop-opacity:0"/>
							</linearGradient>
							<path id="SvgjsPath4032" class="st27" d="M32.1,28.2c-0.2,0.3-0.9,0.5-1.5,0c-0.6-0.3-0.8-1-0.6-1.4c0.2-0.3,0.9-0.5,1.5,0
								C32.1,27.2,32.4,27.8,32.1,28.2L32.1,28.2z"/>
						</g>
					</g>
				</g>
				<g id="svga-group-eyesfront-left">
					<path id="SvgjsPath3980" class="st1" d="M21.1,28.9c-0.2,1.5,4.4,9.8,9,9.8s8.7-2.4,8.7-9.8c0-7.9-4.2-9.8-8.7-9.8
						S22,21.6,21.1,28.9z M24.2,29.4v-1.8c0.6-1.8,8.7-1.9,11.6,0.8c0.7,1.5-0.2,2.5-1.6,2.9c-1.5-0.3-2.3,0.5-4.4,0.6
						c-3.6,0.1-4.4-0.2-5-1.1C24.6,30.2,24.3,29.7,24.2,29.4z"/>
					
						<radialGradient id="SvgjsPath3981_1_" cx="25.2435" cy="10.3149" r="7.9949" fx="29.9713" fy="8.5732" gradientTransform="matrix(16.5781 0.3034 -0.2751 11.6701 -384.2743 -100.0879)" gradientUnits="userSpaceOnUse">
						<stop  offset="0" style="stop-color:#E1AC8F"/>
						<stop  offset="0.7" style="stop-color:#E1AC8F;stop-opacity:0.3"/>
						<stop  offset="1" style="stop-color:#F0C7B1;stop-opacity:0"/>
					</radialGradient>
					<path id="SvgjsPath3981" class="st28" d="M23.8,28.3c0,3.4,3.4,6.1,7.7,6.1c4.2,0,7.6-2.7,7.6-6.1s-3.4-6.1-7.7-6.1
						C27.1,22.2,23.8,24.9,23.8,28.3z M24.2,29.4v-1.8c0.6-1.8,8.7-1.9,11.6,0.8c0.7,1.5-0.2,2.5-1.6,2.9c-1.5-0.3-2.3,0.5-4.4,0.6
						c-3.6,0.1-4.4-0.2-5-1.1C24.6,30.2,24.3,29.7,24.2,29.4z"/>
					
						<radialGradient id="SvgjsPath3986_1_" cx="23.8235" cy="26.7479" r="10.3668" gradientTransform="matrix(18.1914 -0.8272 -0.9552 -15.8238 -378.7047 479.7978)" gradientUnits="userSpaceOnUse">
						<stop  offset="0.9" style="stop-color:#000000;stop-opacity:0"/>
						<stop  offset="1" style="stop-color:#000000;stop-opacity:0.2"/>
					</radialGradient>
					<path id="SvgjsPath3986" class="st29" d="M24.8,30.5c-0.2-0.3-0.5-0.9-0.6-1.1v-1.8c0.6-1.8,8.7-1.9,11.6,0.8
						c0.7,1.5-0.2,2.5-1.6,2.9c-1.5-0.3-2.3,0.5-4.4,0.6C26.2,31.9,25.3,31.4,24.8,30.5z"/>
					<path id="SvgjsPath3990" class="st17" d="M37.1,27.7c-4.3-2.6-7.4-2.7-12.5-2.4C28.7,24.6,33.7,25.1,37.1,27.7z"/>
					<path id="SvgjsPath3991" d="M36.5,29.5c-1.5-3.7-11.6-3.7-12.3-1.9v1.7c-0.5-0.7-0.5-0.7-0.7-1.5l-1,0.3c0,0,1.2-1.7,2.4-1.9
						C34.9,24.3,36.4,28.9,36.5,29.5z M34.9,31.3c-2-0.9-2.7,0.1-5.2,0.2c-3.6,0.1-4.3-0.3-5-1.1c0.3,0.9,0.6,1.4,4.8,1.4
						C32.1,31.8,33.3,30.9,34.9,31.3z"/>
				</g>
			</g>
			<g id="svga-group-eyes-right" transform="translate(-5.838672220806777e-17 -1)">
				<g id="svga-group-eyesback-right">
					
						<radialGradient id="SvgjsPath3963_1_" cx="24.2799" cy="25.8983" r="5.7359" gradientTransform="matrix(17.5631 6.632536e-03 -6.632536e-03 -15.4507 -372.9279 428.247)" gradientUnits="userSpaceOnUse">
						<stop  offset="0" style="stop-color:#FFFFFF"/>
						<stop  offset="0.544" style="stop-color:#FDFEFE"/>
						<stop  offset="0.74" style="stop-color:#F6F8F9"/>
						<stop  offset="0.879" style="stop-color:#EAEFF2"/>
						<stop  offset="0.992" style="stop-color:#D9E3E8"/>
						<stop  offset="1" style="stop-color:#D8E2E7"/>
					</radialGradient>
					<path id="SvgjsPath3963" class="st30" d="M49.1,31.2c1.5-0.3,2.3,0.5,4.4,0.6c3.6,0.1,4.4-0.2,5-1.1c0.2-0.3,0.5-0.9,0.6-1.1
						v-1.8c-0.6-1.8-8.7-1.9-11.6,0.8c-0.1,0.3-0.2,0.6-0.2,0.8c0.1,0.5,0.2,0.8,0.5,1.2C48.1,30.7,48.6,31.1,49.1,31.2z"/>
				</g>
				<g id="svga-group-eyesiriswrapper-right" transform="translate(-0.25 0.25)">
					<g id="svga-group-eyesiriscontrol-right">
						<g id="svga-group-eyesiris-right">
							<path id="SvgjsPath4036" class="st21" d="M56.2,28.7c0,1.5-1.2,2.7-2.7,2.7s-2.7-1.2-2.7-2.7l0,0c0-1.5,1.2-2.7,2.7-2.7
								C55,26.1,56.2,27.3,56.2,28.7L56.2,28.7z"/>
							
								<radialGradient id="SvgjsPath4037_1_" cx="-67.0811" cy="136.8917" r="26.6907" gradientTransform="matrix(1.5917 -0.4113 -0.4062 -1.5937 215.8596 219.3589)" gradientUnits="userSpaceOnUse">
								<stop  offset="0" style="stop-color:#FFFFFF"/>
								<stop  offset="1" style="stop-color:#FFFFFF;stop-opacity:0"/>
							</radialGradient>
							<path id="SvgjsPath4037" class="st31" d="M53.2,26.1L53.2,26.1c0,0.1,0,0.1,0,0.2C53.2,26.3,53.2,26.1,53.2,26.1z M53.2,26.4
								c0,0.9,0.1,1.7,0.2,1.9C53.5,28,53.4,27.2,53.2,26.4z M53.5,28.3c0,0.1,0,0.1-0.1,0.1h-0.1c0,0.1,0,0.1,0,0.1h-0.1
								c0,0.1,0.1,0.1,0.1,0.1l-0.1,0.1c0.1,0,0.1,0.1,0.1,0.1s0,0.1-0.1,0.1c0.1,0,0.1,0,0.1,0s0,0.1,0,0.2c0.1,0,0.1-0.1,0.1,0
								l0.1,0.1c0-0.1,0.1-0.1,0.1-0.1s0.1,0,0.1,0.1c0-0.1,0-0.1,0.1-0.1c0,0,0.1,0,0.2,0c0-0.1,0-0.1,0-0.1l0.1-0.1
								c-0.1,0-0.1-0.1-0.1-0.1s0-0.1,0.1-0.1c-0.1,0-0.1,0-0.1-0.1v-0.1c-0.1,0-0.1,0-0.2,0s0-0.1,0-0.1c0,0.1-0.1,0.1-0.1,0.1
								C53.5,28.4,53.5,28.3,53.5,28.3z M53.7,28.3c0.2-0.2,0.5-1,0.7-1.8C54.1,27.3,53.7,28,53.7,28.3z M54.4,26.5
								c0,0,0-0.1,0.1-0.1l0,0C54.4,26.4,54.4,26.4,54.4,26.5z M53.9,28.5c0.3-0.1,0.9-0.7,1.5-1.4C54.7,27.7,54.1,28.2,53.9,28.5z
								 M55.4,27.2l0.1-0.1l0,0C55.5,27,55.4,27.2,55.4,27.2z M54.1,28.7c0.3,0,1.1-0.2,1.9-0.5C55.1,28.4,54.3,28.5,54.1,28.7z
								 M56,28.3h0.1l0,0C56.1,28.2,56,28.2,56,28.3z M54.1,29c0.2,0.2,1,0.3,1.9,0.5C55.2,29.2,54.4,29,54.1,29z M56,29.4h0.1l0,0
								H56z M53.9,29.2c0.1,0.3,0.8,0.8,1.5,1.4C54.8,29.9,54.3,29.3,53.9,29.2z M55.4,30.5L55.4,30.5
								C55.5,30.7,55.5,30.7,55.4,30.5L55.4,30.5z M53.7,29.4c0,0.3,0.3,1,0.7,1.8C54.2,30.3,53.9,29.6,53.7,29.4z M54.4,31.2
								C54.4,31.2,54.4,31.3,54.4,31.2C54.4,31.3,54.4,31.3,54.4,31.2C54.4,31.3,54.4,31.2,54.4,31.2z M53.4,29.4
								c-0.1,0.3-0.2,1-0.2,1.9C53.4,30.5,53.5,29.8,53.4,29.4z M53.2,31.3C53.2,31.4,53.2,31.4,53.2,31.3
								C53.2,31.4,53.2,31.4,53.2,31.3C53.2,31.4,53.2,31.4,53.2,31.3z M53.2,29.3c-0.2,0.2-0.7,0.9-1.1,1.6
								C52.6,30.2,53.2,29.6,53.2,29.3z M52,30.9C52,31,52,31,52,30.9C52,31,52,31,52,30.9C52,31,52,31,52,30.9z M53,29.1
								c-0.3,0-1,0.5-1.7,0.9C52,29.6,52.8,29.3,53,29.1z M51.2,30L51.2,30C51.1,30.1,51.1,30.1,51.2,30
								C51.2,30.1,51.2,30.1,51.2,30z M52.9,28.9c-0.3-0.1-1.1-0.1-1.9,0C51.8,29,52.6,29,52.9,28.9z M51,28.9L51,28.9L51,28.9
								C50.9,28.9,50.9,28.9,51,28.9z M53,28.6c-0.2-0.2-0.9-0.6-1.7-0.9C52,28.2,52.7,28.5,53,28.6z M51.2,27.6l-0.1-0.1l0,0
								C51.1,27.6,51.2,27.6,51.2,27.6z M53.2,28.4c-0.1-0.3-0.6-0.9-1.1-1.6C52.5,27.5,52.9,28.2,53.2,28.4z M52,26.7l-0.1-0.1l0,0
								C52,26.7,52,26.7,52,26.7z"/>
							
								<radialGradient id="SvgjsPath4041_1_" cx="-87.036" cy="119.3735" r="26.6926" gradientTransform="matrix(1.6432 1.468497e-02 1.823948e-02 -1.6432 194.3111 226.2394)" gradientUnits="userSpaceOnUse">
								<stop  offset="0" style="stop-color:#FFFFFF"/>
								<stop  offset="1" style="stop-color:#FFFFFF;stop-opacity:0"/>
							</radialGradient>
							<path id="SvgjsPath4041" class="st32" d="M53.9,26.1C53.8,26.1,53.8,26.1,53.9,26.1c0,0.1,0,0.1,0,0.2
								C53.8,26.3,53.8,26.3,53.9,26.1z M53.8,26.4c-0.2,0.9-0.3,1.6-0.2,1.9C53.7,28,53.8,27.2,53.8,26.4z M53.6,28.3
								c0,0.1-0.1,0.1-0.1,0.1s-0.1,0-0.1-0.1c0,0.1,0,0.1-0.1,0.1c0,0-0.1,0-0.2,0c0,0.1,0,0.1,0,0.1L53,28.6
								c0.1,0,0.1,0.1,0.1,0.1s0,0.1-0.1,0.1c0.1,0,0.1,0,0.1,0.1V29c0.1,0,0.1,0,0.2,0v0.1l0.1-0.1c0,0,0.1,0,0.1,0.1
								c0-0.1,0-0.1,0.1-0.1h0.1c0-0.1,0-0.1,0-0.1h0.1c0-0.1-0.1-0.1-0.1-0.1l0.1-0.1c-0.1,0-0.1-0.1-0.1-0.1s0-0.1,0.1-0.1
								c-0.1,0-0.1,0-0.1,0S53.7,28.4,53.6,28.3C53.6,28.3,53.6,28.4,53.6,28.3C53.6,28.4,53.6,28.4,53.6,28.3z M53.8,28.4
								c0.2-0.2,0.7-0.8,1.1-1.6C54.4,27.5,53.9,28.1,53.8,28.4z M55,26.8l0.1-0.1l0,0C55.1,26.7,55,26.7,55,26.8z M54.1,28.6
								c0.3,0,1-0.5,1.8-0.9C55,28.1,54.2,28.4,54.1,28.6z M55.8,27.7c0,0,0.1,0,0.1-0.1l0,0C55.9,27.6,55.9,27.7,55.8,27.7z
								 M54.1,28.9c0.3,0.1,1.1,0.1,1.9,0C55.2,28.9,54.4,28.7,54.1,28.9z M56,28.9h0.1l0,0C56.1,28.9,56.1,28.9,56,28.9z
								 M53.9,29.1c0.2,0.2,0.9,0.6,1.7,0.9C55,29.5,54.3,29.2,53.9,29.1z M55.8,30.1L55.8,30.1C55.9,30.2,55.9,30.2,55.8,30.1
								C55.8,30.1,55.8,30.1,55.8,30.1z M53.8,29.3c0.1,0.3,0.6,0.9,1.1,1.7C54.5,30.2,54.1,29.5,53.8,29.3z M54.8,31
								C54.8,31,55,31,54.8,31C55,31.1,55,31.1,54.8,31C55,31,55,31,54.8,31z M53.5,29.4c-0.1,0.3,0,1.1,0.2,1.9
								C53.7,30.4,53.7,29.6,53.5,29.4z M53.7,31.3C53.7,31.4,53.7,31.4,53.7,31.3C53.7,31.4,53.7,31.4,53.7,31.3
								C53.7,31.4,53.7,31.4,53.7,31.3z M53.3,29.4c-0.2,0.2-0.5,1-0.8,1.8C52.9,30.4,53.3,29.6,53.3,29.4z M52.6,31.2
								C52.5,31.2,52.5,31.2,52.6,31.2C52.5,31.3,52.5,31.3,52.6,31.2C52.5,31.2,52.5,31.2,52.6,31.2z M53,29.2
								c-0.3,0.1-0.9,0.7-1.5,1.2C52.3,30,52.9,29.5,53,29.2z M51.6,30.4C51.6,30.5,51.5,30.5,51.6,30.4
								C51.5,30.5,51.5,30.5,51.6,30.4C51.5,30.5,51.6,30.5,51.6,30.4z M52.9,29c-0.3,0-1.1,0.1-1.9,0.5
								C51.9,29.3,52.7,29.2,52.9,29z M51,29.4L51,29.4L51,29.4L51,29.4z M52.9,28.7c-0.2-0.2-1-0.3-1.9-0.6
								C51.9,28.5,52.6,28.7,52.9,28.7z M51,28.2L51,28.2L51,28.2L51,28.2z M53,28.4c-0.1-0.3-0.8-0.8-1.5-1.4
								C52.3,27.7,52.8,28.3,53,28.4z M51.6,27.2L51.5,27l0,0C51.6,27,51.6,27,51.6,27.2z M53.3,28.3c0-0.3-0.3-1-0.7-1.8
								C52.8,27.3,53,28.1,53.3,28.3z M52.6,26.5c0-0.1,0-0.1,0-0.2l0,0C52.6,26.4,52.6,26.4,52.6,26.5z"/>
							<path id="SvgjsPath4045" class="st21" d="M54.5,28.7c0,0.6-0.5,1-1,1c-0.6,0-1-0.5-1-1s0.5-1,1-1
								C54.1,27.7,54.5,28.2,54.5,28.7z"/>
							<path id="SvgjsPath4046" class="st24" d="M54.5,28.7c0,0.6-0.5,1-1,1c-0.6,0-1-0.5-1-1s0.5-1,1-1
								C54.1,27.7,54.5,28.2,54.5,28.7z"/>
							
								<linearGradient id="SvgjsPath4047_1_" gradientUnits="userSpaceOnUse" x1="24.2207" y1="25.1249" x2="24.6388" y2="25.6234" gradientTransform="matrix(16.5814 0 0 -16.5814 -349.6227 447.2812)">
								<stop  offset="0" style="stop-color:#FFFFFF"/>
								<stop  offset="1" style="stop-color:#FFFFFF;stop-opacity:0"/>
							</linearGradient>
							<path id="SvgjsPath4047" class="st33" d="M52,30c0.2-0.1,0.5-0.1,0.6,0.1c0.1,0.2,0.1,0.5-0.1,0.6c-0.2,0.1-0.5,0.1-0.6-0.1
								C51.8,30.4,51.8,30.2,52,30L52,30z"/>
							
								<linearGradient id="SvgjsPath4051_1_" gradientUnits="userSpaceOnUse" x1="24.3425" y1="25.2863" x2="24.0079" y2="24.8874" gradientTransform="matrix(16.5814 0 0 -16.5814 -349.6227 447.2812)">
								<stop  offset="0" style="stop-color:#FFFFFF"/>
								<stop  offset="1" style="stop-color:#FFFFFF;stop-opacity:0"/>
							</linearGradient>
							<path id="SvgjsPath4051" class="st34" d="M54.3,28.6c-0.1,0.1-0.5,0.1-0.7,0c-0.3-0.2-0.5-0.5-0.3-0.7l0,0
								c0.1-0.1,0.5-0.1,0.7,0C54.3,28.2,54.4,28.5,54.3,28.6L54.3,28.6z"/>
							
								<linearGradient id="SvgjsPath4055_1_" gradientUnits="userSpaceOnUse" x1="24.4066" y1="25.3539" x2="23.6357" y2="24.435" gradientTransform="matrix(16.5814 0 0 -16.5814 -349.6227 447.2812)">
								<stop  offset="0" style="stop-color:#FFFFFF"/>
								<stop  offset="1" style="stop-color:#FFFFFF;stop-opacity:0"/>
							</linearGradient>
							<path id="SvgjsPath4055" class="st35" d="M55.6,28.2c-0.2,0.3-0.9,0.5-1.5,0c-0.6-0.3-0.8-1-0.6-1.4c0.2-0.3,0.9-0.5,1.5,0
								C55.6,27.2,55.9,27.8,55.6,28.2L55.6,28.2z"/>
						</g>
					</g>
				</g>
				<g id="svga-group-eyesfront-right">
					<path id="SvgjsPath4001" class="st1" d="M53.3,19.1c-4.5,0-8.7,1.9-8.7,9.8c0,7.4,4.2,9.8,8.7,9.8s8.9-8,9-9.8
						C62.5,21.6,57.8,19.1,53.3,19.1z M58.5,30.5c-0.6,0.9-1.4,1.2-5,1.1c-2.1,0-2.9-0.9-4.4-0.6c-1.4-0.5-2.3-1.5-1.6-2.9
						c2.8-2.7,10.9-2.6,11.6-0.8v1.8C58.9,29.7,58.7,30.2,58.5,30.5z"/>
					
						<radialGradient id="SvgjsPath4002_1_" cx="38.4253" cy="9.9715" r="7.9949" fx="43.1531" fy="8.2298" gradientTransform="matrix(-16.5781 0.3034 0.2751 11.6701 686.2212 -100.0806)" gradientUnits="userSpaceOnUse">
						<stop  offset="0" style="stop-color:#E1AC8F"/>
						<stop  offset="0.7" style="stop-color:#E1AC8F;stop-opacity:0.3"/>
						<stop  offset="1" style="stop-color:#F0C7B1;stop-opacity:0"/>
					</radialGradient>
					<path id="SvgjsPath4002" class="st36" d="M51.9,22.1c-4.2,0-7.6,2.7-7.7,6.1c0,3.4,3.4,6.1,7.6,6.1s7.6-2.7,7.6-6.1
						C59.6,24.9,56.2,22.2,51.9,22.1z M58.5,30.5c-0.6,0.9-1.4,1.2-5,1.1c-2.1,0-2.9-0.9-4.4-0.6c-1.4-0.5-2.3-1.5-1.6-2.9
						c2.8-2.7,10.9-2.6,11.6-0.8v1.8C58.9,29.7,58.7,30.2,58.5,30.5z"/>
					
						<radialGradient id="SvgjsPath4007_1_" cx="35.8523" cy="26.1192" r="10.3668" gradientTransform="matrix(-18.1914 -0.8272 0.9552 -15.8238 681.45 479.8015)" gradientUnits="userSpaceOnUse">
						<stop  offset="0.9" style="stop-color:#000000;stop-opacity:0"/>
						<stop  offset="1" style="stop-color:#000000;stop-opacity:0.2"/>
					</radialGradient>
					<path id="SvgjsPath4007" class="st37" d="M58.5,30.5c0.2-0.3,0.5-0.9,0.6-1.1v-1.8c-0.6-1.8-8.7-1.9-11.6,0.8
						c-0.7,1.5,0.2,2.5,1.6,2.9c1.5-0.3,2.3,0.5,4.4,0.6C57.1,31.9,57.9,31.4,58.5,30.5z"/>
					<path id="SvgjsPath4011" class="st17" d="M46.3,27.7c4.3-2.6,7.4-2.7,12.5-2.4C54.5,24.6,49.7,25.1,46.3,27.7z"/>
					<path id="SvgjsPath4012" d="M58.4,26.2c1.1,0.2,2.4,1.9,2.4,1.9l-1-0.3c-0.2,0.8-0.2,0.8-0.7,1.5v-1.7
						c-0.7-1.9-10.8-1.8-12.3,1.9C46.9,28.9,48.5,24.3,58.4,26.2z M53.6,31.9c4.3,0,4.5-0.5,4.8-1.4c-0.7,0.8-1.4,1.1-5,1.1
						c-2.5,0-3-1.1-5.2-0.2C49.9,30.9,51.3,31.8,53.6,31.9z"/>
				</g>
			</g>
			<g id="svga-group-eyebrows-left" transform="rotate(-10.714285714285715 73.23676490783691 71.77741622924805)">
				<path id="SvgjsPath4059" class="st38" d="M40.3,15.4c-2-0.2-9.5,1.7-9.5,1.7s7.6-3,10.6-2.5c2.4,0.3,6.4,2.3,5.6,3.3
					C46.5,18.7,44.6,15.9,40.3,15.4z"/>
			</g>
			<g id="svga-group-eyebrows-right" transform="rotate(10.714285914285714 126.76323318481445 71.77741622924805)">
				<path id="SvgjsPath4060" class="st38" d="M38.3,39.4c-0.8-1,3.4-2.8,6.1-3c3.2-0.2,10.3,1.8,10.3,1.8s-7.1-1.1-9.1-0.9
					C41.1,37.8,38.9,40.2,38.3,39.4z"/>
			</g>
			<g id="svga-group-nose-single">
				<path id="SvgjsPath3940" class="st3" d="M37.7,42.5c-0.3,0.9,2.7,1.9,3.8,2c1.2,0.1,4.7-1.2,4.2-2.3c-0.7-1-2.9-0.1-3.9-0.1
					C40.8,42,38.3,41.2,37.7,42.5z"/>
				<path id="SvgjsPath3941" class="st17" d="M42.6,43.2c-0.1-0.3,0.8-0.7,1.2-0.8c0.5-0.1,1.5,0.3,1.5,0.7c-0.1,0.3-1-0.2-1.2-0.2
					C43.6,42.9,42.7,43.5,42.6,43.2z M39.5,43c0.5,0,1.1,0.2,1.2,0c0.1-0.3-0.9-0.7-1.2-0.6c-0.2,0-1.2,0.6-1.1,0.8
					C38.4,43.5,39,43,39.5,43z"/>
				<path id="SvgjsPath3942" class="st39" d="M41.8,40.9c0.2,0,0.8-0.3,0.8-1c0.1-2.7-0.5-10.6-0.8-10.6s-1,7.9-0.9,10.6
					C40.9,40.6,41.5,40.9,41.8,40.9z"/>
			</g>
			<g id="svga-group-beardwrap">
				
					<g id="svga-group-beard-single" transform="matrix(1.1000003100000002 0 0 1.1000003100000002 -10.005030939205838 -14.570234854336093) translate(0 4.0000003)">
					<path id="SvgjsPath3857" class="st38" d="M47.1,4.9L47.1,4.9L47.1,4.9L47.1,4.9z"/>
				</g>
			</g>
			
				<g id="svga-group-mustache-single" transform="matrix(1.1000003100000002 0 0 1.1000003100000002 -10.000031000000021 -12.45843551265149) translate(0 -3.0000002)">
				<path id="SvgjsPath3851" class="st38" d="M47.1,7.7L47.1,7.7L47.1,7.7L47.1,7.7z"/>
			</g>
			<g id="svga-group-hair-front">
				<path id="SvgjsPath3846" class="st38" d="M17.2,31.3c-0.8-2.3-1.9-5.5-3.9-6.9C12,17.8,9.8,9.2,16.8,1c1.5-1.8,3.4-3.3,5.8-3.6
					c5.6-8.3,12.4-12.3,28-7.2C73.9-3,70,14.1,69.2,24.2c-1.1,1.1-2.1,4.4-2.7,6.4C65.9,19.4,61.8,3.5,49.2,3.5
					C42.9,3.5,41.5,6,32.5,5C15.9,3.7,18.9,23.5,17.2,31.3z"/>
				<path id="SvgjsPath3847" class="st0" d="M42.9-0.5c-6.5,1.1-10-1.6-8.8-6.4c-2.5,1.6-3.5,4.2-3,6.4c-1.6-1.8-1.5-4.7-0.6-8.2
					c-3.6,3.8-4.2,7.2-3.4,10.6c-2.3-2.5-3.8-5.6-1.7-8.5c-1,1.1-2,2.4-2.9,3.8c-0.2,0-1.8,1-1.8,1c1.4,0,4.2,1.4,5.9,4.1
					c-2-0.7-4.8,0.1-6.1,1c-4.2,3.5-6.3,9.4-3.2,27.4c1-5.3,0.7-10.5,1.5-14.9c1.2-7.2,4.5-12,13.8-11.2c9,1,10.3-1.5,16.7-1.5
					c12.5,0,16.8,15.9,17.3,27.2c0.6-2,1.7-5.3,2.7-6.4c0.1-1.7,0.2-1.6,0.3-3.5C65.8,3.6,56.6-2.8,42.9-0.5z"/>
				<path id="SvgjsPath3848" class="st40" d="M14.6,18.6C12.9,0.2,22.6,0.2,24,1.2C22.2,1,15.9-0.6,14.6,18.6z M35.8-4.9
					c0.8,1.8,2,3.2,4.8,3.3c0,0,0.5,0.3,7.8-0.9c1-0.2,1.8-0.2,2.1-0.2C45.2-3.3,38.6,0.2,35.8-4.9z M64.2,2.7c0,0-0.2-0.2-0.5-0.7
					C59.6-3.3,52.5-3.4,53-3c-0.5-0.6,8.7,1,12.1,8.2c2.1,3.9,0.7,1.1,2.5,4.7C65.9,5,65,3.9,64.2,2.7z M55.2-1.4
					c0,0-0.6-0.2-1.1-0.3C53.5-1.8,53-1.9,53-1.9C51.4-2.1,50.1-2,49.3-2c2.8,0,7,0.7,9.2,2.5C57.5-0.4,56.3-1,55.2-1.4z M13.7,10.8
					c-0.6,4.4-0.8,9.5,1.5,13.3C13.7,20.5,13.7,14.7,13.7,10.8z M30,3.8c0.3,0.1,0.5,0,0.5,0S30.3,3.8,30,3.8c-3-1-4.4-6.9,0.5-12.3
					C24.6-3.9,26.1,3.2,30,3.8z M34-6.8C32.3-5.4,31.2-4,31-2c-0.3,3.2,1.5,5.8,4.8,6C30.4,2.8,30.6-3.3,34-6.8z M46-4.5
					c0,0-3.8,0.2-7.4-1.2c3.7,2.1,7.7,1.9,12.1,1.1C48.8-4.7,47.8-4.5,46-4.5z"/>
				<path id="SvgjsPath3849" class="st41" d="M51.9-5.6c-4.6,0.3-5.8,0.1-7.8-1C46.8-5.4,47.8-5.8,51.9-5.6z M35.7-1.7
					C33.2-4.3,34-5.6,34-5.6s-1.2,3.2,3,5.2c2.4,1.2,6.3,0,7.6-0.1C42.9-0.6,38,0.5,35.7-1.7z M23.6,2.1c-8.3,0.1-8.5,13.1-7.4,21.3
					C16.4,15.6,16.2,3.2,23.6,2.1z M68.9,18.7c-1-6-3.5-13-8.8-16C64.4,6.1,67.5,13.6,68.9,18.7z M68.4,10.6
					C68.1,4.7,64.8,0.2,60.3-3C64.2,0.8,67.4,5.2,68.4,10.6z M56.9-5.2c-5.3-3-10-5.2-16.3-3.4C46.3-9.5,51-7.8,56.9-5.2z
					 M34.1-10.1c-4.5,0.5-7.9,2.6-8.2,7.1C26.6-7.5,30-9.2,34.1-10.1z M30.8-3.3c1-5.1,4.5-6.1,8.6-6.9C34.9-9.8,30.9-8.4,30.8-3.3z
					"/>
				<path id="SvgjsPath3850" d="M50.5-10.1c-15.8-5.2-22.5-1-28.1,7.2c-2.3,0.3-4.3,1.9-5.8,3.7c-7.1,8.2-4.7,17-3.5,23.6
					c2.1,1.4,3.3,5,4.1,7.2c2-7.4-1.6-27.8,15.2-26.6c9.2,1,10.4-1.7,17.1-1.5C61.2,3,66,19.8,66.4,31.3c0.5-1.7,1.7-5.9,2.9-7.2
					C70,15.6,74.8-3,50.5-10.1z M68.9,24.3c-1,1.2-1.9,3.5-2.4,5.2c0.1-10.7-4.6-27.6-16.9-27.3c-7.1-0.1-8,2.5-17,1.6
					c-8.3-0.6-13,4.3-14.4,12c-0.9,4.4-0.2,10.1-1,15c-0.7-2.1-1.8-5.1-3.7-6.3C12.6,16,10.7,9.6,17.1,1.3c1.4-1.8,3.6-3.4,5.8-3.9
					c3.3-3.3,6.9-13.1,27.4-6.4C72.1-2.6,69.8,13.2,68.9,24.3z"/>
			</g>
			<g id="svga-group-glasses-single">
				<path id="SvgjsPath4063" class="st42" d="M38.1,30.8c-1.7,3.4-6.3,3.6-7.9,3.6h-5.4c-2.6,0-4.8-3.6-4.8-6.4v-2.7
					c0-0.1,0-0.2,0.1-0.3L38.1,30.8z M46.4,25.1c-0.9,0.7-1.5,1.5-1.5,2.6v0.2c0,1.1,0.2,2,0.6,2.7c1.7,3.4,6.3,3.6,7.9,3.6h5.4
					c1.8,0,3.5-1.8,4.3-3.8L46.4,25.1z"/>
				<path id="SvgjsPath4064" class="st43" d="M38.1,30.8l-18-5.9c0.5-0.6,1.9-1.2,2.7-1.4c1-0.1,2.9-0.3,5.3-0.3
					c3.9,0,10.6,0.6,10.6,4.4v0.2C38.6,29.1,38.4,30,38.1,30.8z M63.7,27.9v-2.7c0-0.1,0-0.2-0.1-0.3c-0.5-0.6-1.9-1.2-2.7-1.4
					c-1-0.1-2.9-0.3-5.3-0.3c-2.8,0-6.9,0.3-9.1,1.8l16.8,5.4C63.4,29.6,63.7,28.7,63.7,27.9z"/>
				<path id="SvgjsPath4065" class="st44" d="M64,26v-0.8c0-0.9-2.1-1.8-3.2-1.9c-4.2-0.5-14.1-0.9-15.9,3c-1.2-0.5-2.6-0.6-3.2-0.6
					c-0.6,0-1.9,0.1-3.2,0.6c-1.9-3.9-11.7-3.5-15.9-3c-0.9,0.1-3.2,0.9-3.2,1.9V26h-2.1v1h2.1v0.9c0,2.8,2.3,6.7,5.2,6.7H30
					c3.7,0,8.8-1.4,8.8-6.7v-0.2c0-0.3,0-0.7-0.1-0.9c1.6-0.5,2.5-0.6,2.9-0.6c0.5,0,1.5,0.1,2.9,0.6c-0.1,0.3-0.1,0.6-0.1,0.9v0.2
					c0,5.3,5.1,6.7,8.8,6.7h5.4c2.8,0,5.2-3.8,5.2-6.7V27h2.1v-1H64z M38.5,27.9c0,5.9-6.4,6.3-8.5,6.3h-5.4c-2.5,0-4.7-3.5-4.7-6.3
					v-2.7c0-0.6,1.8-1.5,2.8-1.6s2.9-0.3,5.3-0.3c3.9,0,10.5,0.6,10.5,4.4V27.9L38.5,27.9z M63.6,27.9c0,2.8-2.3,6.3-4.7,6.3h-5.4
					c-2,0-8.5-0.5-8.5-6.3v-0.2c0-3.8,6.5-4.4,10.5-4.4c2.4,0,4.4,0.2,5.3,0.3c1,0.1,2.8,0.9,2.8,1.6C63.6,25.2,63.6,27.9,63.6,27.9
					z"/>
			</g>
		</g>
	</g>
	<rect id="SvgjsRect1036" x="6.9" y="82.5" class="st45" width="87.3" height="6.5"/>
</g>
</svg>
