<?xml version="1.0" encoding="utf-8"?>
<!-- Generator: Adobe Illustrator 21.0.0, SVG Export Plug-In . SVG Version: 6.00 Build 0)  -->
<svg version="1.1" id="Layer_1" xmlns="http://www.w3.org/2000/svg" xmlns:xlink="http://www.w3.org/1999/xlink" x="0px" y="0px"
	 viewBox="0 0 300 300" style="enable-background:new 0 0 300 300;" xml:space="preserve">
<style type="text/css">
	.st0{fill:#2A232B;}
	.st1{fill:#D9B8AF;}
	.st2{fill:#E8D7D3;}
	.st3{fill:#CA9B8E;}
	.st4{fill:none;stroke:#AB6957;stroke-width:1.5;}
	.st5{fill:url(#SvgjsPath3092_1_);}
	.st6{fill:#F3F1F3;}
	.st7{fill:#131111;}
	.st8{fill:#F3F1F4;}
	.st9{fill:#CFC8D7;}
	.st10{fill:#E1E0E1;}
	.st11{fill:#3C6E76;}
	.st12{fill:#083840;}
	.st13{fill:#2B5E67;}
	.st14{fill:#D9B8AF;stroke:#AB6957;stroke-width:1.5;}
	.st15{fill:#AB6957;}
	.st16{fill:#D1A99E;}
	.st17{fill:url(#SvgjsPath3184_1_);}
	.st18{fill:#FFFFFF;}
	.st19{fill:none;stroke:#AB6957;stroke-width:0.75;}
	.st20{fill:url(#SvgjsPath4008_1_);}
	.st21{stroke:#000000;stroke-width:0.5;}
	.st22{fill:#0F0F0F;}
	.st23{opacity:0.9;enable-background:new    ;}
	.st24{fill:none;stroke:#000000;stroke-width:0.75;}
	.st25{opacity:0.5;fill:#FFFFFF;enable-background:new    ;}
	.st26{opacity:0.8;fill:#FFFFFF;enable-background:new    ;}
	.st27{fill:url(#SvgjsPath4031_1_);}
	.st28{fill:url(#SvgjsPath4036_1_);}
	.st29{fill:url(#SvgjsPath4015_1_);}
	.st30{fill:url(#SvgjsPath4051_1_);}
	.st31{fill:url(#SvgjsPath4056_1_);}
	.st32{fill:url(#SvgjsPath2885_1_);}
	.st33{fill:url(#SvgjsPath2889_1_);}
	.st34{fill:#1B141C;}
	.st35{fill:#0C080C;}
	.st36{fill:#3A353A;}
	.st37{opacity:0.2;fill:#FFFFFF;enable-background:new    ;}
	.st38{opacity:0.4;fill:#FFFFFF;enable-background:new    ;}
	.st39{fill:#26120B;}
</style>
<g id="svga-group-subwrapper" transform="matrix(0.84999948 0 0 0.84999948 14.70012423820431 16.20690690320106) translate(-2 0)">
	<g id="svga-group-hair-back" transform="rotate(3.0000001 100 150)">
		<path id="SvgjsPath4216" class="st0" d="M170.4,144.8h-1.3v-1.3h1.3V144.8z"/>
	</g>
	<g id="svga-group-humanbody-single">
		<path id="SvgjsPath2893" class="st1" d="M294.6,281.7c-2.9-6.4-11-15.8-20-18.4c-11.1-3.2-36-7.1-45.3-9.3
			c-7.4-1.7-22.4-15.2-27.6-19.7c-0.9-0.8-1.7-2.5-1.7-3.7c-0.2-14.6,5.6-53.3,5.6-53.3h-39.2h-39.2c0,0,5.8,38.8,5.6,53.3
			c0,1.2-0.8,2.9-1.7,3.7c-5.2,4.5-20.2,17.9-27.6,19.7c-9.3,2.2-34.2,6.2-45.3,9.4c-9,2.6-17,11.9-20,18.3c-5,10.8-6.2,30.2-6.2,47
			h134.3h134.3C300.7,311.9,299.5,292.4,294.6,281.7z"/>
		<path id="SvgjsPath2894" class="st2" d="M245.9,260.6c32.7,4.8,46.4,11.7,50.7,68.1h4.1c0-16.8-1.2-36.2-6.2-47
			c-2.9-6.4-11-15.8-20-18.4c-11.1-3.2-36-7.1-45.3-9.3c-7.4-1.7-24.5-16.2-29.1-22c4.5,6.3,17.2,21,28.3,24.8
			C233.8,258.6,238.3,259.5,245.9,260.6z M104.4,256.8c11.1-3.8,23.8-18.5,28.3-24.8c-4.6,5.7-21.6,20.2-29.1,22
			c-9.3,2.2-34.2,6.2-45.3,9.4c-8.9,2.6-17,11.9-20,18.3c-5,10.8-6.2,30.2-6.2,47h4.1c4.3-56.1,18.1-63.4,50.7-68.1
			C94.6,259.5,99,258.6,104.4,256.8z"/>
		<path id="SvgjsPath2895" class="st3" d="M160.6,278.8c0,0-6.8-2.2-9.5-3.2c-14-5.4-59.6-8.9-59.6-8.9s48,1.9,58.6,3.7
			c-0.6-6.4-4.1-26.9-4.1-26.9s6.9,22.6,8.6,28.3C155.5,274.9,160.6,278.8,160.6,278.8z M175.1,277c-0.1,0.1-0.3,0.2-0.4,0.4
			C174.8,277.2,175,277.1,175.1,277z M160.6,278.8c0,0,3.9,4,5.8,4.1c2.6,0.1,6.5-3.9,8.3-5.5c-1.7,1.3-5.6,1.9-7.1,1.9
			C165.8,279.4,160.6,278.8,160.6,278.8z M188.8,268.7c-2.1,0.3-5.9,1.1-5.9,1.1l3.1-20c-0.9,4.1-6,21.8-10.9,27.2
			c2.6-2.2,8.3-3.2,11.2-3.6c13.7-2,13.7-2,55.1-6.6C241.4,266.7,202.4,266.5,188.8,268.7z"/>
		<path id="SvgjsPath2896" class="st4" d="M294.6,281.7c-2.9-6.4-11-15.8-20-18.4c-11.1-3.2-36-7.1-45.3-9.3
			c-7.4-1.7-22.4-15.2-27.6-19.7c-0.9-0.8-1.7-2.5-1.7-3.7c-0.2-14.6,5.6-53.3,5.6-53.3h-39.2h-39.2c0,0,5.8,38.8,5.6,53.3
			c0,1.2-0.8,2.9-1.7,3.7c-5.2,4.5-20.2,17.9-27.6,19.7c-9.3,2.2-34.2,6.2-45.3,9.4c-9,2.6-17,11.9-20,18.3c-5,10.8-6.2,30.2-6.2,47
			h134.3h134.3C300.7,311.9,299.5,292.4,294.6,281.7z"/>
	</g>
	<g id="svga-group-chinshadow-single">
		
			<linearGradient id="SvgjsPath3092_1_" gradientUnits="userSpaceOnUse" x1="30.3042" y1="-8.3695" x2="30.3042" y2="-26.7207" gradientTransform="matrix(2.1675 0 0 2.1675 100.9158 261.1945)">
			<stop  offset="0" style="stop-color:#CA9B8E;stop-opacity:0.8"/>
			<stop  offset="0.7" style="stop-color:#AB6957"/>
		</linearGradient>
		<path id="SvgjsPath3092" class="st5" d="M133.7,232c9.6,7.1,20.8,12.2,32.8,12.2c12,0,23.2-5.1,32.8-12.2c-0.1-0.5-0.2-1-0.2-1.4
			c-0.1-9.2,2.1-27.7,3.8-40.3c-21-2.6-51.6-2.6-72.6,0c1.7,12.6,3.9,31.1,3.8,40.3C133.9,231.1,133.8,231.5,133.7,232z"/>
	</g>
	<g id="svga-group-clothes-single">
		<path id="SvgjsPath4324" class="st6" d="M205.2,333h-78.1v-75.4c29.9,6.3,49.5,5.8,78.1,0V333L205.2,333z"/>
		<path id="SvgjsPath4325" class="st7" d="M176.4,332.6c-3.7,0-14.4,0.3-22.2-0.3v-0.2c-1.1-25.1,1.5-41.2,6.1-52.8l0.1-0.2
			l-0.1-0.1c-1.2-1.2-3.3-2.6-5.4-4.1c-2.2-1.5-4.4-3-5.8-4.4c0.8-1,1.9-2,3.2-3c0.3-0.2,1.6-1.1,8-6.7c0.3-0.2,0.5-0.4,0.5-0.4
			c1.1-0.2,2.9-0.4,5-0.4c2.9,0,6.4,0.3,8.7,0.8c2.1,2,4.6,7.2,5.6,9.6c-1.3,3.1-2.9,4.2-5,5.8c-1,0.8-2.2,1.6-3.6,2.8l-0.1,0.1v0.1
			c5.4,27.3,5.4,33.6,5.4,39.8c0,2.7,0,8.9,0.5,13.4C177.1,332.6,176.8,332.6,176.4,332.6z"/>
		<path id="SvgjsPath4326" d="M180.3,270.6c-1-2.7-3.6-8-5.7-9.9c-3.9-0.8-10.7-1.1-14.1-0.3c-0.1,0.1-8.4,7.2-8.5,7.1
			c-1.2,1-2.4,2-3.4,3.2c2.8,2.8,8.9,6.1,11.4,8.6c-4.9,12.3-7.2,29-6.1,52.9c0,0.1,0,0.3,0,0.5c9.1,0.7,22.2,0.4,23.6,0.3
			c-1.6-15.2,1.9-14-5.9-53.5C175.8,275.6,178.3,275.3,180.3,270.6z M173.3,296.1c0-0.1-0.1-0.1-0.1-0.2c2.7,14.2,1.9,25,3.9,36.2
			c-6.4-0.4-16.1-0.1-22.5-0.1c0.5-9.7,1.6-42.5,6.4-53.4c0.2-0.1,0.5-0.1,0.7-0.2l-1.4,46.6l3.7-47.1h0.1l2.4,43.8l0.6-44h0.1
			l5.6,48.8l-3.1-48.5c0.4,0.1,0.8,0.2,1.3,0.3h0.1C171.2,279.9,172.3,289.9,173.3,296.1z M172.1,277.6c-3.7-1.7-8.5-1.4-12.3,0.3
			c-2.3-2.4-5.5-4.1-10.1-7.2c0.7-0.6,1.7-1.4,3-2.4c0.1,0,4.7-3.7,4.8-3.8c1.2-1.1,2.3-2.4,3.4-3.5c3.9-0.2,9.7,0,13.2,0.2
			c2,2.5,3.9,6.3,5.4,9.3C176.8,274.3,174.2,276,172.1,277.6z"/>
		<path id="SvgjsPath4327" class="st8" d="M137.2,299.6c-15.5-53.8-8.5-39.7-12.6-60.9c2.7-6.5,5.3-14,6.8-15.6l0.1-0.1
			c3.1,32.2,12,18.3,31.9,37.2C152,267.8,141.4,287.5,137.2,299.6z M208.3,238.7c-1.9-5-5.5-12.3-7-13.9
			c1.9,27.8-20.3,22.2-32.7,35.2c11.8,7.7,23.1,27.7,27.1,39.6C213.3,241.1,203.8,266.8,208.3,238.7z"/>
		<path id="SvgjsPath4328" class="st9" d="M201.1,224.2c0,6.9-0.6,12.3-1.7,13.9c-3.3,7.8-17.6,13.2-22,15.5
			c-3.4,1.6-6.6,3.8-9.2,6.5c5.1,3.3,7.7,4.5,17.4,19.4c5.7,9.5,8.8,16.7,10.2,21c18-59.5,8.4-33.5,12.9-61.8
			C206.5,233.2,202.4,225.4,201.1,224.2z M206,250.4c-2.6,24.3-4.7,19.5-10.4,45.9c-3.6-11.6-14.9-30.8-26.1-36.4
			c5.3-4,6.8-4.2,13.1-7.1c19.3-8.6,20.1-16.6,19-27.2c1.6,1.9,4.2,8.3,6.3,12.8C206.7,242.7,206.2,248.7,206,250.4z M138.5,244.3
			c-5.9-4.9-4.2-11-7-21.8c-1.2,1.3-4.2,8.9-7.3,16.2c0.7,3.8,0.9,9.9,1,11.9c0.8,16.4,2.3,17.1,11.9,49.9
			c4.1-12,15.5-32.7,27.2-40.3C155,251.6,143.3,248.4,138.5,244.3z M145.8,278.5c-3,4.9-6.1,10-8.6,17.8c-6-27.2-8.1-22.8-10.4-45.9
			c-0.4-4-0.8-8.1-1.9-12c2.2-4.8,5.3-13.8,6.4-14.8c1.8,9.5,0.1,18.1,7.6,22.8c3.5,2.7,14.9,7.1,23.5,13.9
			C157.3,263.5,154.5,265.3,145.8,278.5z"/>
		<path id="SvgjsPath4329" class="st10" d="M193.7,295.2l-1.6-3.6c0,0,12.3-37.8,14.4-48.6C207.7,254.2,193.7,295.2,193.7,295.2z
			 M138.1,293.7l1.9-4.4c0,0-11.5-35.5-13.7-46.3C125.1,254.2,138.1,293.7,138.1,293.7z"/>
		<path id="SvgjsPath4330" class="st11" d="M199.7,276.1c9.5-28,3.7-30.3,8.5-39.6c0.2-0.4,1.9,1.4,2.1,2.2
			c1.8,7.6,71.6,23.3,73.8,25c2,1.4,7.6,4.2,7.6,4.2c6.6,12.2,10.4,14.4,12.3,47c0.2,4.1-0.1,15.8-0.1,19L189,333
			C189.3,322.5,190.6,303.7,199.7,276.1z M133.2,276.1c-9.5-28-3.7-30.3-8.5-39.6c-0.2-0.4-1.9,1.4-2.1,2.2
			c-1.8,7.6-71.6,23.3-73.8,25c-2,1.4-7.6,4.2-7.6,4.2c-6.6,12.2-10.4,14.4-12.3,47c-0.2,4.1,0.1,15.8,0.1,19l114.9-0.9
			C143.6,322.5,142.3,303.7,133.2,276.1z"/>
		<path id="SvgjsPath4331" class="st12" d="M207.1,268.6c-6.1,22-14.5,41.8-18.1,64.4c-1.2,0,2-30.5,10.7-56.9
			c9.5-28,3.7-30.3,8.5-39.6c0.1-0.2-0.8,2.7-0.3,3.3C207.7,250.2,210.2,258.2,207.1,268.6z M125.7,268.6
			c6.1,22,14.5,41.8,18.1,64.4c1.2,0-2-30.5-10.7-56.9c-9.5-28-3.7-30.3-8.5-39.6c-0.1-0.2,0.8,2.7,0.3,3.3
			C125.2,250.2,122.6,258.2,125.7,268.6z"/>
		<path id="SvgjsPath4332" class="st13" d="M236.8,263.2c0,0-3.1,3.4-11.6,9.3c7.1-7.9,10.4-11.1,10.4-11.1L236.8,263.2z
			 M239.8,279.2l-2.1-1.8c-6.1,18.5-10.2,27.6-17.2,49.2C230.6,307.3,233,300.5,239.8,279.2z M97.2,261.5c0,0,3.3,3.2,10.4,11.1
			c-8.5-5.9-11.6-9.3-11.6-9.3L97.2,261.5z M112.4,326.5c-7.1-21.5-11.1-30.7-17.2-49.2l-2.1,1.8
			C99.8,300.5,102.3,307.3,112.4,326.5z"/>
		<path id="SvgjsPath4333" class="st13" d="M273.1,308c0-15.6,4.2-24.6,12.9-37.8c0.8,0.5,1.3,0.7,1.8,1.2
			C278.5,282.9,276.7,293.6,273.1,308z M221.9,323.2c8.2-22.4,10.8-31.2,16.3-46.2c-1.5-0.5-11.6-4-13.2-4.5
			c0.6,1.3,4.2,2.4,10.5,6.3C235.5,278.9,228.7,299.6,221.9,323.2z M233,261.3c0,0-4.5,5.6-8.9,11.2c4.5-3.6,7.7-7.6,11.7-11
			c-5.4-4.5-14.1-11.4-19.8-16.2C220.4,250,233,261.3,233,261.3z M303.5,333.9h0.4c0-3.1,0.3-14.8,0.1-19
			c-1.9-32.6-5.7-34.8-12.3-47c0,0-5.6-2.8-7.6-4.2c-1.8-1.4-52.1-13.3-70.5-21.3c21.5,14.7,62.1,20.2,74.2,29
			C293.6,275.6,301.4,312,303.5,333.9z M45.1,271.3c0.7-0.5,0.8-0.5,1.6-1c8.7,13.1,13.2,22.1,13.2,37.6
			C56.2,293.6,53.8,282.4,45.1,271.3z M97.4,278.9c6.3-3.9,10-5,10.5-6.3c-1.5,0.5-11.6,4-13.2,4.5c5.4,15,8,23.7,16.3,46.2
			C104.2,299.6,97.4,278.9,97.4,278.9z M117,245.2c-5.7,4.8-14.4,11.7-19.8,16.2c4,3.4,7.1,7.4,11.7,11c-4.4-5.6-8.9-11.2-8.9-11.2
			S112.5,250,117,245.2z M45.1,271.3c12-8.8,52.7-14.2,74.2-29c-18.4,8-68.7,20-70.5,21.3c-2,1.4-7.6,4.2-7.6,4.2
			c-6.6,12.2-10.4,14.4-12.3,47c-0.2,4.1,0.1,15.8,0.1,19h0.4C31.4,312,39.3,275.6,45.1,271.3z"/>
		<path id="SvgjsPath4334" class="st12" d="M209.7,236.8c-0.1-0.4-0.6-0.9-1-0.9s-0.6,0.6-0.8,1c-4.8,9.3,0.6,11.2-8.9,39.2
			c-9.1,27.6-10.2,46.8-10.5,57.3l115.3,0.5c0-3.1,0.7-14.8,0.5-19c-1.9-32.6-5.8-35.1-12.4-47.2c0,0-5.9-2.9-7.9-4.3
			c-6.6-5-0.8,0-29.6-8.1c-23.6-6.9-24.9-8.8-33.4-11.2c-1.7-0.5-5.4-1.1-9.3-3.8C211.4,240,209.9,237.6,209.7,236.8z M189.2,332.1
			c5-31.6,8.2-39.9,15.2-63.5c4.7-14.9,2.1-23.4,4.4-30.3c0.1-0.4,0.6-0.4,0.8,0c3.3,8.3,12.4,10.3,25.3,22.9
			c-7.8,7.8-9.8,9.9-10.8,11.3c1.2,0.6,7.5,3,13.3,5.2c-0.3,1-18,51.1-18.2,51.7c13.4-29,15.2-37.9,19.1-52.4
			c-1.1-0.8-10.6-4.3-12.2-4.9c5.7-5.9,7.4-7.2,10.1-10.7c2.2,0-21.3-17.9-22.5-19.1c0.6,0.5,3.7,1.9,4,2
			c19.7,6.9,4.1,3.8,47.3,16.1c4.1,1,9.9,2.1,14.1,2.5c0.3,0,7.2,3.7,11.2,5.3c-9.7,10-15.8,23-17.2,39.6c4.3-17,6.6-25.9,17.6-38.7
			c10.2,20.7,9.1,17.7,12.4,64.1C275.4,332.2,233,332,189.2,332.1z M121.1,240.2c-3.9,2.7-7.6,3.3-9.3,3.8
			c-8.6,2.4-9.8,4.3-33.4,11.2c-28.8,8.1-23,3-29.6,8.1c-2,1.4-7.9,4.3-7.9,4.3c-6.6,12.2-10.6,14.6-12.4,47.2
			c-0.2,4.1,0.5,15.8,0.5,19l115.3-0.5c-0.3-10.5-1.3-29.7-10.5-57.3c-9.5-28-4.2-29.9-8.9-39.2c-0.2-0.4-0.4-1-0.8-1
			s-0.9,0.5-1,0.9C123,237.6,121.5,240,121.1,240.2z M29.8,333.3c3.3-46.3,2.2-43.4,12.4-64.1c11,12.8,13.3,21.7,17.6,38.7
			c-1.4-16.6-7.5-29.6-17.2-39.6c4-1.7,10.9-5.3,11.2-5.3c4.3-0.4,10-1.5,14.1-2.5c43.1-12.3,27.6-9.2,47.3-16.1
			c0.3-0.1,3.4-1.5,4-2c-1.1,1.2-24.6,19.1-22.5,19.1c2.7,3.5,4.4,4.8,10.1,10.7c-1.6,0.6-11.1,4.1-12.2,4.9
			c3.9,14.5,5.7,23.4,19.1,52.4c-0.2-0.7-17.9-50.7-18.2-51.7c5.8-2.2,12.1-4.6,13.3-5.2c-1-1.3-3-3.4-10.8-11.3
			c12.9-12.6,22-14.5,25.3-22.9c0.1-0.4,0.6-0.3,0.8,0c2.3,6.9-0.4,15.4,4.4,30.3c7,23.6,10.2,31.8,15.2,63.5
			C99.9,332,57.5,332.2,29.8,333.3z"/>
	</g>
	<g id="svga-group-head" transform="rotate(3.0000001 100 150)">
		<g id="svga-group-ears-left" transform="matrix(0.9499999 0 0 0.9499999 2.2241708416128176 4.799904695615382) translate(0 -1)">
			<path id="SvgjsPath3228" class="st14" d="M101.2,123.5c-1.8-3.3-7.6-11.4-13.4-9.4c-3.7,1.3-4.4,5.4-5,9
				c-0.8,4.8,0.6,14.4,1.9,17.8c1.2,3.3,4.7,9.7,7.1,12.1c2.9,3,6.4,12.5,7,13.5c0.9,1.6,2.1,3.9,5.5,3.6c3.8-0.3,6.2-2.5,7.9-2.8
				C116.4,166.5,106.1,132.1,101.2,123.5z"/>
			<path id="SvgjsPath3229" class="st15" d="M97.5,143.5c-0.2-0.8,0-2.1,0.2-3.4c0.2-1.2,0.3-2.2,0.2-3c-0.4-2.9-2.4-8.4-3.7-11.4
				c-1.5-3.4-4-7.7-7.1-8.9c-1.3-0.5-2.1,0.1-2.6,0.6c-0.4,0.4-0.4,0.9-0.3,0.9c0.1,0.1,0.4-0.3,0.8-0.7c0.3-0.3,0.8-0.6,1.4-0.5
				c-0.3,1.4-1.6,9.2-1,14.6c0.4,4.2,2.1,7.3,2.4,7.8c0,0.5,0.1,1,0.2,1.4c1.2,6.1,6.7,13,8.6,15.3c0.3,0.4,0.7,0.7,0.8,0.6
				c0.1-0.1-0.1-0.5-0.5-0.9c-1.9-2.3-7.2-9.2-8.4-15.1c-1.3-6.3,3.1-15.5,4.1-17.5c0.5,0.9,0.9,1.8,1.2,2.5c0.3,0.6,0.5,1.3,0.8,2
				c-0.6,1-4.6,8.5-3.1,14.5c0.5,2.2,3,5,4.6,5.8c0.9,0.4,1.2,1.1,1.6,1.8c0.5,0.9,1,1.8,2.5,2.5c0.3,0.1,0.6,0.2,0.8,0.2
				c0.4,0,0.7-0.2,1-0.4c0,0.4,0,0.9,0,1.3c0,0.6,0.1,1.1,0.2,1.1s0.3-0.4,0.3-1c0-0.7,0-1.6-0.1-2c-0.3-1.2-1.4-2.6-2.4-4.1
				C98.9,146.2,97.8,144.7,97.5,143.5z M87.8,138.1c-2.9-9.6,0.9-17.9,1.5-19.2c1.1,1.1,2.1,2.6,3,4
				C91.7,124.1,87.9,131.7,87.8,138.1z M100.4,152.1c-1.3-0.6-1.8-1.5-2.2-2.3c-0.4-0.8-0.8-1.5-1.8-2c-0.2-0.1-0.5-0.3-0.7-0.5
				c-3.3-8.4,0.4-12.1,1.3-12.8c0.3,1,0.5,2,0.6,2.7s-0.1,1.8-0.2,2.9c-0.2,1.3-0.4,2.7-0.2,3.6c0.3,1.3,1.4,2.9,2.5,4.4
				c1,1.3,2,2.7,2.3,3.8C101.7,152,101.3,152.6,100.4,152.1z"/>
		</g>
		<g id="svga-group-ears-right" transform="matrix(0.9499999 0 0 0.9499999 7.762725333769225 4.799904695615382) translate(0 -1)">
			<path id="SvgjsPath3230" class="st14" d="M245.2,123.5c1.8-3.3,7.6-11.4,13.4-9.4c3.7,1.3,4.4,5.4,5,9c0.8,4.8-0.6,14.4-1.9,17.8
				c-1.2,3.3-4.7,9.7-7.1,12.1c-2.9,3-6.4,12.5-7,13.5c-0.9,1.6-2.1,3.9-5.5,3.6c-3.8-0.3-6.2-2.5-7.9-2.8
				C230.1,166.5,240.4,132.1,245.2,123.5z"/>
			<path id="SvgjsPath3231" class="st15" d="M246.6,147.7c-1.1,1.5-2.1,2.9-2.4,4.1c-0.1,0.4-0.1,1.3-0.1,2c0,0.6,0.2,1,0.3,1
				s0.2-0.5,0.2-1.1c0-0.4,0-0.9,0-1.3c0.2,0.2,0.6,0.4,1,0.4c0.2,0,0.5-0.1,0.8-0.2c1.5-0.7,2-1.7,2.5-2.5c0.4-0.7,0.7-1.4,1.6-1.8
				c1.6-0.8,4.1-3.6,4.6-5.8c1.5-6-2.6-13.4-3.1-14.5c0.3-0.7,0.6-1.4,0.8-2c0.3-0.7,0.8-1.6,1.2-2.5c1,2,5.4,11.2,4.1,17.5
				c-1.2,5.9-6.6,12.8-8.4,15.1c-0.3,0.4-0.6,0.8-0.5,0.9c0.1,0.1,0.5-0.1,0.8-0.6c1.9-2.3,7.3-9.2,8.6-15.3c0.1-0.5,0.2-1,0.2-1.4
				c0.3-0.5,2-3.6,2.4-7.8c0.6-5.3-0.7-13.1-1-14.6c0.6-0.1,1.1,0.2,1.4,0.5c0.4,0.4,0.7,0.8,0.8,0.7c0.1-0.1,0-0.5-0.3-0.9
				c-0.5-0.6-1.3-1.1-2.6-0.6c-3.1,1.1-5.5,5.4-7.1,8.9c-1.3,3-3.3,8.5-3.7,11.4c-0.1,0.8,0.1,1.9,0.2,3c0.2,1.3,0.4,2.6,0.2,3.4
				C248.7,144.7,247.6,146.2,246.6,147.7z M254.2,122.9c0.8-1.4,1.8-2.9,3-4c0.7,1.3,4.5,9.6,1.5,19.2
				C258.6,131.7,254.8,124.1,254.2,122.9z M244.6,151.8c0.3-1.1,1.3-2.5,2.3-3.8c1.1-1.5,2.2-3,2.5-4.4c0.2-0.9,0-2.3-0.2-3.6
				c-0.2-1.1-0.3-2.2-0.2-2.9c0.1-0.8,0.3-1.7,0.6-2.7c0.9,0.8,4.6,4.4,1.3,12.8c-0.3,0.2-0.5,0.4-0.7,0.5c-1,0.5-1.4,1.3-1.8,2
				c-0.4,0.8-0.9,1.7-2.2,2.3C245.2,152.6,244.7,152,244.6,151.8z"/>
		</g>
		<g id="svga-group-faceshape-wrap">
			<g id="svga-group-faceshape-single">
				<path id="SvgjsPath3089" class="st1" d="M169.7,11C124.6,11,88.1,47.9,88,93.6c0,7.3,0.9,14.3,2.6,21l0,0
					c0,0.1,11.7,52.7,19.5,68.7c8.2,16.8,32,43.9,59.6,43.9c27.6,0,51.5-27.1,59.6-43.9c7.8-16,19.5-68.6,19.5-68.7l0,0
					c1.7-6.7,2.6-13.7,2.6-21C251.4,47.9,214.9,11,169.7,11z"/>
				<path id="SvgjsPath3090" class="st16" d="M197.6,15.9c28.8,12.7,48.9,41.8,48.9,75.7c0,7.3-0.9,14.3-2.6,21l0,0
					c0,0.1-11.7,52.7-19.5,68.7c-7.7,15.8-29,43.6-54.7,43.6s-47-27.8-54.7-43.6c-7.8-16-19.5-68.6-19.5-68.7l0,0
					c-1.7-6.7-2.6-13.7-2.6-21c0.1-33.9,20.2-62.9,48.9-75.7C110.5,27.4,88.1,57.8,88,93.6c0,7.3,0.9,14.3,2.6,21l0,0
					c0,0.1,11.7,52.7,19.5,68.7c8.2,16.8,32,43.9,59.6,43.9c27.6,0,51.5-27.1,59.6-43.9c7.8-16,19.5-68.6,19.5-68.7l0,0
					c1.7-6.7,2.6-13.7,2.6-21C251.4,57.8,229,27.4,197.6,15.9z"/>
				<path id="SvgjsPath3091" class="st4" d="M169.7,11C124.6,11,88.1,47.9,88,93.6c0,7.3,0.9,14.3,2.6,21l0,0
					c0,0.1,11.7,52.7,19.5,68.7c8.2,16.8,32,43.9,59.6,43.9c27.6,0,51.5-27.1,59.6-43.9c7.8-16,19.5-68.6,19.5-68.7l0,0
					c1.7-6.7,2.6-13.7,2.6-21C251.4,47.9,214.9,11,169.7,11z"/>
			</g>
		</g>
		<g id="svga-group-mouth-single" transform="translate(0 1.0000000005838672e-7)">
			
				<linearGradient id="SvgjsPath3184_1_" gradientUnits="userSpaceOnUse" x1="25.61" y1="-22.3434" x2="25.61" y2="-23.6862" gradientTransform="matrix(2.1675 -3.699733e-05 3.699733e-05 2.1675 114.4322 248.9693)">
				<stop  offset="0.1" style="stop-color:#D1A99E"/>
				<stop  offset="1" style="stop-color:#CA9B8E"/>
			</linearGradient>
			<path id="SvgjsPath3184" class="st17" d="M170,201.8c-3.8,0.2-4.9-3.7-4.9-3.7s5.3,0.8,9.4-0.5
				C174.5,197.6,173.4,201.7,170,201.8z"/>
			<path id="SvgjsPath3188" class="st15" d="M170.4,198.9c-2.7,0.1-5.1-0.1-5.2-0.1c-0.2,0-0.3-0.2-0.3-0.4s0.2-0.3,0.4-0.3
				c0.1,0,5.5,0.5,9-0.5c0.2,0,0.4,0.1,0.4,0.2c0.1,0.2-0.1,0.4-0.2,0.4C173.2,198.6,171.8,198.8,170.4,198.9z"/>
			<path id="SvgjsPath3189" class="st18" d="M146.2,184.8c0,0,16.8,2,22.4,2c6.1,0,25.9-2,25.9-2c-5.7,4.7-12,9.3-26.3,9.4
				C155.6,194.3,152.3,189.7,146.2,184.8z"/>
			<path id="SvgjsPath3190" class="st19" d="M146.2,184.8c0,0,16.8,2,22.4,2c6.1,0,25.9-2,25.9-2c-5.7,4.7-12,9.3-26.3,9.4
				C155.6,194.3,152.3,189.7,146.2,184.8z"/>
		</g>
		<g id="svga-group-eyes-left" transform="translate(1.0000000005838672e-7 0)">
			<g id="svga-group-eyesback-left">
				
					<radialGradient id="SvgjsPath4008_1_" cx="202.9604" cy="-64.8084" r="6.7662" gradientTransform="matrix(-2.1556 0.2258 0.2258 2.1556 585.9558 217.1531)" gradientUnits="userSpaceOnUse">
					<stop  offset="0" style="stop-color:#FFFFFF"/>
					<stop  offset="0.315" style="stop-color:#FCFDFD"/>
					<stop  offset="0.504" style="stop-color:#F4F7F8"/>
					<stop  offset="0.66" style="stop-color:#E5ECEF"/>
					<stop  offset="0.76" style="stop-color:#D8E2E7"/>
				</radialGradient>
				<path id="SvgjsPath4008" class="st20" d="M118.4,120.7c-0.7-3.1,7-5.3,17.1-4.1s17.1,7.4,16.2,10.5c-0.5,1.7-14.3,4.4-19.1,3.8
					C127.6,130.4,120,128.1,118.4,120.7z"/>
			</g>
			<g id="svga-group-eyesiriswrapper-left" transform="translate(0.25 0.25)">
				<g id="svga-group-eyesiriscontrol-left">
					<g id="svga-group-eyesiris-left">
						<path id="SvgjsPath4132" class="st21" d="M142.7,124.9c-1.2,4.3-5.6,6.8-9.9,5.6c-4.3-1.2-6.8-5.6-5.7-9.9
							c1.2-4.3,5.6-6.8,9.9-5.6C141.3,116.2,143.9,120.6,142.7,124.9z"/>
						<path id="SvgjsPath4133" class="st22" d="M142.5,123.3c-0.6,4.8-4.1,7.2-8,7c-3.6-0.2-6.8-2.9-7.1-7.4c1.2-0.4,2.9,0.2,4.3,0
							c0,0.1,0,0.1,0,0.2c-0.1,1.7,1.3,3.3,3.1,3.4s3.4-1.2,3.5-2.9c0-0.2,0-0.5,0-0.7C139.7,122.9,141.2,122.8,142.5,123.3z"/>
						<path id="SvgjsPath4134" class="st23" d="M136.1,120.1c-1.8-0.5-3.6,0.5-4,2.3c-0.5,1.8,0.6,3.6,2.4,4.1
							c1.8,0.5,3.6-0.5,4-2.3C138.9,122.4,137.9,120.6,136.1,120.1z"/>
						<path id="SvgjsPath4135" class="st24" d="M136.1,120.1c-1.8-0.5-3.6,0.5-4,2.3c-0.5,1.8,0.6,3.6,2.4,4.1
							c1.8,0.5,3.6-0.5,4-2.3C138.9,122.4,137.9,120.6,136.1,120.1z"/>
						<path id="SvgjsPath4136" class="st25" d="M131.1,127.7c-0.2,0.6-1.1,0.3-0.9-0.3c0.2-0.6,0.6-0.9,0.9-1.4
							c0.3-0.5,1.1-0.1,0.8,0.5C131.7,126.9,131.2,127.2,131.1,127.7L131.1,127.7z M132.6,126.7c-0.3,0.3-0.6,1.4-0.7,1.7
							c-0.2,0.6,0.7,0.8,0.9,0.3c0.1-0.2,0.3-1.2,0.5-1.3C133.6,126.9,133,126.3,132.6,126.7L132.6,126.7z M134.5,129.5
							c0.5-0.6,0.4-1.2,0.4-1.9c0-0.6-1-0.6-0.9,0c0,0.4,0.1,0.9-0.2,1.3C133.5,129.3,134.1,130,134.5,129.5L134.5,129.5z
							 M135.5,127.5c0,0.6,0.1,1.2,0.3,1.7c0.2,0.6,1.1,0.3,0.9-0.3c-0.2-0.5-0.2-1-0.2-1.5C136.4,126.9,135.5,126.9,135.5,127.5
							L135.5,127.5z"/>
						<path id="SvgjsPath4137" class="st26" d="M140.6,121.4c-0.9,0.6-2.3,0.1-3.1-1.1s-0.7-2.6,0.3-3.2c0.9-0.6,2.3-0.1,3.1,1.1
							C141.6,119.4,141.5,120.8,140.6,121.4z"/>
					</g>
				</g>
			</g>
			<g id="svga-group-eyesfront-left">
				<path id="SvgjsPath4030" class="st1" d="M107,121.3c1.1,14.6,15.6,31.7,27.5,29.9c14.1,0.1,28-10.6,28-30s-6.8-35.6-28.4-35.6
					C118.8,85.6,107,101.9,107,121.3z M118.4,120.7c-0.7-3.1,7-5.3,17.1-4.1s17.1,7.4,16.2,10.5c-0.5,1.7-14.3,4.4-19.1,3.8
					C127.6,130.4,120,128.1,118.4,120.7z"/>
				
					<radialGradient id="SvgjsPath4031_1_" cx="71.8622" cy="37.5317" r="7.1628" fx="76.8989" fy="37.5456" gradientTransform="matrix(2.1671 4.507968e-02 3.597784e-02 -1.7335 -16.862 182.4663)" gradientUnits="userSpaceOnUse">
					<stop  offset="0" style="stop-color:#CA9B8E"/>
					<stop  offset="0.7" style="stop-color:#CA9B8E;stop-opacity:0.3"/>
					<stop  offset="1" style="stop-color:#D9B8AF;stop-opacity:0"/>
				</radialGradient>
				<path id="SvgjsPath4031" class="st27" d="M132.5,130.9c4.9,0.5,18.6-2.1,19.1-3.8c0.9-3.1-6.1-9.3-16.2-10.5
					c-8.7-1.1-15.5,0.5-16.9,2.9c1.2-8.6,10.3-15.3,21.5-15.4c12,0,21.7,7.6,21.7,17.1s-9.6,17.3-21.6,17.3s-21.7-7.6-21.7-17.1
					c0-0.1,0-0.3,0-0.4C120.3,128.1,127.6,130.4,132.5,130.9z"/>
				
					<radialGradient id="SvgjsPath4036_1_" cx="7.6674" cy="-46.2447" r="13.2146" gradientTransform="matrix(2.2404 3.609851e-05 -3.609851e-05 2.2404 111.7139 262.3397)" gradientUnits="userSpaceOnUse">
					<stop  offset="0.95" style="stop-color:#000000;stop-opacity:0"/>
					<stop  offset="1" style="stop-color:#000000;stop-opacity:0.2"/>
				</radialGradient>
				<path id="SvgjsPath4036" class="st28" d="M118.4,120.7c-0.7-3.1,7-5.3,17.1-4.1s17.1,7.4,16.2,10.5c-0.5,1.7-14.3,4.4-19.1,3.8
					C127.6,130.4,120,128.1,118.4,120.7z"/>
				<path id="SvgjsPath4040" class="st15" d="M118.9,113.8c5.7-2.7,12.6-2.9,18.6-1.3c3.2,0.8,6.7,1.7,9.5,3.5
					c2.6,1.5,4.7,3.4,6.7,5.6c-1.8-2.3-3.7-4.2-6.2-5.7c-3.1-1.9-6.4-3.1-9.9-3.9C131.4,110.5,124.5,110.8,118.9,113.8z"/>
				<path id="SvgjsPath4041" d="M119.8,114.6c1.2-0.5,5.5-1.3,7.3-1.4c2.3-0.1,6.8,0.2,9,0.6c4.5,0.8,12.4,3.3,15.7,9.6
					c1,1.9,0.1,3.3-0.2,3.6c0.4-3.3-6.5-9.1-16.2-10.2c-10.1-1.2-17.7,1-17.1,4c1.6,7.2,9.2,9.4,14.1,9.9c5.5,0.6,15.7-2.1,17-2.4
					c-2.7,1.4-10.1,2.8-13.1,3.1c-1,0.1-3,0.1-4,0.1c-8-0.2-13.7-4.3-15.7-9.7C115.3,118.3,116.8,115.8,119.8,114.6z"/>
			</g>
		</g>
		<g id="svga-group-eyes-right" transform="translate(-1.0000000005838672e-7 0)">
			<g id="svga-group-eyesback-right">
				
					<radialGradient id="SvgjsPath4015_1_" cx="40.8355" cy="-47.8219" r="6.7658" gradientTransform="matrix(2.1556 0.2258 -0.2258 2.1556 106.3039 217.1531)" gradientUnits="userSpaceOnUse">
					<stop  offset="0" style="stop-color:#FFFFFF"/>
					<stop  offset="0.316" style="stop-color:#FCFDFD"/>
					<stop  offset="0.505" style="stop-color:#F4F7F8"/>
					<stop  offset="0.661" style="stop-color:#E5ECEF"/>
					<stop  offset="0.76" style="stop-color:#D8E2E7"/>
				</radialGradient>
				<path id="SvgjsPath4015" class="st29" d="M220.6,120.7c0.7-3.1-7-5.3-17.1-4.1c-10.1,1.2-17.1,7.4-16.2,10.5
					c0.5,1.7,14.3,4.4,19.1,3.8C211.4,130.4,218.9,128.1,220.6,120.7z"/>
			</g>
			<g id="svga-group-eyesiriswrapper-right" transform="translate(-0.25 0.25)">
				<g id="svga-group-eyesiriscontrol-right">
					<g id="svga-group-eyesiris-right">
						<path id="SvgjsPath4138" class="st21" d="M212.3,124.9c-1.2,4.3-5.6,6.8-9.9,5.6c-4.3-1.2-6.8-5.6-5.7-9.9
							c1.2-4.3,5.6-6.8,9.9-5.6C211,116.2,213.5,120.6,212.3,124.9z"/>
						<path id="SvgjsPath4139" class="st22" d="M212.1,123.3c-0.6,4.8-4.1,7.2-8,7c-3.6-0.2-6.8-2.9-7.1-7.4c1.2-0.4,2.9,0.2,4.3,0
							c0,0.1,0,0.1,0,0.2c-0.1,1.7,1.3,3.3,3.1,3.4s3.4-1.2,3.5-2.9c0-0.2,0-0.5,0-0.7C209.3,122.9,210.9,122.8,212.1,123.3z"/>
						<path id="SvgjsPath4140" class="st23" d="M205.7,120.1c-1.8-0.5-3.6,0.5-4,2.3c-0.5,1.8,0.6,3.6,2.4,4.1
							c1.8,0.5,3.6-0.5,4-2.3C208.6,122.4,207.5,120.6,205.7,120.1z"/>
						<path id="SvgjsPath4141" class="st24" d="M205.7,120.1c-1.8-0.5-3.6,0.5-4,2.3c-0.5,1.8,0.6,3.6,2.4,4.1
							c1.8,0.5,3.6-0.5,4-2.3C208.6,122.4,207.5,120.6,205.7,120.1z"/>
						<path id="SvgjsPath4142" class="st25" d="M200.8,127.7c-0.2,0.6-1.1,0.3-0.9-0.3c0.2-0.6,0.6-0.9,0.9-1.4
							c0.3-0.5,1.1-0.1,0.8,0.5C201.3,126.9,200.9,127.2,200.8,127.7L200.8,127.7z M202.2,126.7c-0.3,0.3-0.6,1.4-0.7,1.7
							c-0.2,0.6,0.7,0.8,0.9,0.3c0.1-0.2,0.3-1.2,0.5-1.3C203.3,126.9,202.6,126.3,202.2,126.7L202.2,126.7z M204.2,129.5
							c0.5-0.6,0.4-1.2,0.4-1.9c0-0.6-1-0.6-0.9,0c0,0.4,0.1,0.9-0.2,1.3C203.1,129.3,203.8,130,204.2,129.5L204.2,129.5z
							 M205.2,127.5c0,0.6,0.1,1.2,0.3,1.7c0.2,0.6,1.1,0.3,0.9-0.3c-0.2-0.5-0.2-1-0.2-1.5C206.1,126.9,205.1,126.9,205.2,127.5
							L205.2,127.5z"/>
						<path id="SvgjsPath4143" class="st26" d="M210.2,121.4c-0.9,0.6-2.3,0.1-3.1-1.1s-0.7-2.6,0.3-3.2c0.9-0.6,2.3-0.1,3.1,1.1
							S211.1,120.8,210.2,121.4z"/>
					</g>
				</g>
			</g>
			<g id="svga-group-eyesfront-right">
				<path id="SvgjsPath4050" class="st1" d="M204.7,85.6c-21.5,0-28.4,16.2-28.4,35.6s13.9,30.1,28,30c11.9,1.8,26.4-15.2,27.5-29.9
					C231.9,101.9,220.2,85.6,204.7,85.6z M206.5,130.9c-4.9,0.5-18.6-2.1-19.1-3.8c-0.9-3.1,6.1-9.3,16.2-10.5s17.7,1,17.1,4.1
					C218.9,128.1,211.4,130.4,206.5,130.9z"/>
				
					<radialGradient id="SvgjsPath4051_1_" cx="233.7204" cy="41.7554" r="7.1628" fx="238.7567" fy="41.7693" gradientTransform="matrix(-2.1671 4.507976e-02 -3.597791e-02 -1.7335 706.7198 182.4912)" gradientUnits="userSpaceOnUse">
					<stop  offset="0" style="stop-color:#CA9B8E"/>
					<stop  offset="0.7" style="stop-color:#CA9B8E;stop-opacity:0.3"/>
					<stop  offset="1" style="stop-color:#D9B8AF;stop-opacity:0"/>
				</radialGradient>
				<path id="SvgjsPath4051" class="st30" d="M206.5,130.9c-4.9,0.5-18.6-2.1-19.1-3.8c-0.9-3.1,6.1-9.3,16.2-10.5
					c8.7-1.1,15.5,0.5,16.9,2.9c-1.2-8.6-10.3-15.3-21.5-15.4c-12,0-21.7,7.6-21.7,17.1s9.6,17.3,21.6,17.3c12,0,21.7-7.6,21.7-17.1
					c0-0.1,0-0.3,0-0.4C218.7,128.1,211.3,130.4,206.5,130.9z"/>
				
					<radialGradient id="SvgjsPath4056_1_" cx="165.369" cy="-46.2446" r="13.2146" gradientTransform="matrix(-2.2404 3.618414e-05 3.618414e-05 2.2404 580.5402 262.3397)" gradientUnits="userSpaceOnUse">
					<stop  offset="0.95" style="stop-color:#000000;stop-opacity:0"/>
					<stop  offset="1" style="stop-color:#000000;stop-opacity:0.2"/>
				</radialGradient>
				<path id="SvgjsPath4056" class="st31" d="M220.6,120.7c0.7-3.1-7-5.3-17.1-4.1c-10.1,1.2-17.1,7.4-16.2,10.5
					c0.5,1.7,14.3,4.4,19.1,3.8C211.4,130.4,218.9,128.1,220.6,120.7z"/>
				<path id="SvgjsPath4060" class="st15" d="M220,113.8c-5.7-2.7-12.6-2.9-18.6-1.3c-3.2,0.8-6.7,1.7-9.5,3.5
					c-2.6,1.5-4.7,3.4-6.7,5.6c1.8-2.3,3.7-4.2,6.2-5.7c3.1-1.9,6.4-3.1,9.9-3.9C207.5,110.5,214.4,110.8,220,113.8z"/>
				<path id="SvgjsPath4061" d="M219.2,114.6c-1.2-0.5-5.5-1.3-7.3-1.4c-2.3-0.1-6.8,0.2-9,0.6c-4.5,0.8-12.4,3.3-15.7,9.6
					c-1,1.9-0.1,3.3,0.2,3.6c-0.4-3.3,6.5-9.1,16.2-10.2c10.1-1.2,17.7,1,17.1,4c-1.6,7.2-9.2,9.4-14.1,9.9
					c-5.5,0.6-15.7-2.1-17-2.4c2.7,1.4,10.1,2.8,13.1,3.1c1,0.1,3,0.1,4,0.1c8-0.2,13.7-4.3,15.7-9.7
					C223.6,118.3,222.2,115.8,219.2,114.6z"/>
			</g>
		</g>
		<g id="svga-group-facehighlight-single">
			
				<radialGradient id="SvgjsPath2885_1_" cx="25.521" cy="-39.6855" r="18.3475" gradientTransform="matrix(2.1675 -3.699733e-05 3.699733e-05 2.1675 114.4322 248.9693)" gradientUnits="userSpaceOnUse">
				<stop  offset="0" style="stop-color:#E8D7D3;stop-opacity:0.5"/>
				<stop  offset="0.9" style="stop-color:#D9B8AF;stop-opacity:0"/>
			</radialGradient>
			<path id="SvgjsPath2885" class="st32" d="M224.8,162.9c0,30.4-24.6,55-55,55.1c-30.4,0-55.1-24.5-55.1-54.9s24.6-55.1,55-55.2
				C200.1,107.8,224.8,132.5,224.8,162.9z"/>
			
				<radialGradient id="SvgjsPath2889_1_" cx="25.4997" cy="-76.8483" r="16.5624" gradientTransform="matrix(2.1675 -3.699733e-05 3.699733e-05 2.1675 114.4322 248.9693)" gradientUnits="userSpaceOnUse">
				<stop  offset="0" style="stop-color:#E8D7D3;stop-opacity:0.5"/>
				<stop  offset="0.9" style="stop-color:#D9B8AF;stop-opacity:0"/>
			</radialGradient>
			<path id="SvgjsPath2889" class="st33" d="M220.1,82.4c0,27.8-22.5,50.4-50.4,50.4c-27.8,0-50.4-22.5-50.4-50.4S141.9,32,169.7,32
				C197.6,32,220.1,54.6,220.1,82.4z"/>
		</g>
		
			<g id="svga-group-eyebrows-left" transform="rotate(-10.714285714285715 73.56969271169433 71.30099868774414) translate(2.0000001000000003 -5.838672220806777e-17)">
			<path id="SvgjsPath4150" class="st0" d="M100.8,111.8c9.4,4.8,20.2,6,42.5,8.6c0.7,0.1,1.2,0.3,1.7,0.3c2.2,0,4.1-2.1,3.8-3.9
				C147.8,109.8,110.2,113.1,100.8,111.8z"/>
		</g>
		
			<g id="svga-group-eyebrows-right" transform="rotate(10.714285914285714 126.43021764291993 71.30099868774414) translate(-2.0000001000000003 -5.838672220806777e-17)">
			<path id="SvgjsPath4151" class="st0" d="M236.3,85.9c-9.4,4.8-20.2,6-42.5,8.6c-0.7,0.1-1.2,0.3-1.7,0.3c-2.2,0-4.1-2.1-3.8-3.9
				C189.3,83.9,226.9,87.2,236.3,85.9z"/>
		</g>
		<g id="svga-group-nose-single" transform="translate(0 -4.0000003)">
			<path id="SvgjsPath3206" class="st3" d="M168.5,129.4c0,0-1.2,27.5-1,33.5c0,1.7,3.3,6.2,3.1,9.5c0,0-6.4-0.5-8.5-1.2
				c-2.2-0.8-5.6-2.3-4.2-6.5C159.8,158.6,168.5,129.4,168.5,129.4z"/>
			<path id="SvgjsPath3207" class="st15" d="M167.9,169.1c0,0-2.7-0.9-4.3-0.9c-1.5,0-1.8-1-1.6-1.6s0.7-0.9,2.2-0.5
				C165.6,166.5,167.9,169.1,167.9,169.1z M171.9,169.1c0,0,2.7-0.9,4.3-0.9c1.5,0,1.8-1,1.6-1.6s-0.7-0.9-2.2-0.6
				C174.2,166.5,171.9,169.1,171.9,169.1z"/>
		</g>
		<g id="svga-group-beardwrap">
			<g id="svga-group-beard-single" transform="translate(0 1.0000000050247593e-7)">
				<path id="SvgjsPath4248" class="st0" d="M132.7,225.1c-7.8-5-17.7-14.9-21.4-19.8c-10.3-13.1-6.3-24.1-11.5-47.2
					c-2.7-10.1-7.1-24.8-7.6-28.5c1.2,0.2,7.8,1.1,8.9,1.2c1.6,12.6,15.8,21.6,18.3,47.5c2.1,16.3,10.2,24.2,23.4,32.3
					c5.6,3.5,16.4,9.1,18.9,3c2.1-4.9-1.5-14.9,7.1-16.6c1.8-0.3,5.6,0.4,7.1,3.7c2.3,5.3-1.2,15.5,6.4,15.5
					c7.9,0,21.5-10.1,25.3-13.6c14.9-12.2,10-27.1,16.9-43.3c7.9-17.5,10.4-15.3,13.8-28.6c0.9-0.1,7.9-1.1,8.9-1.2
					c-5.6,22.8-10,33.9-10.6,48.3c-1.1,21.4-7.5,28.2-22,41.4c-8.1,7-18.1,13.9-43.5,14.9C163.8,234.6,143,231.8,132.7,225.1z"/>
				<path id="SvgjsPath4249" class="st34" d="M163.5,201c0.8-1.9,2.4-3.5,5.3-4c1.8-0.3,5.7,0.4,7.2,3.8c0.1,0.1,0.1,0.2,0.1,0.3
					C173.9,203,170.4,214.5,163.5,201z M224.8,200.5c-10.8,19.3-30.3,29.9-51.6,29.9c-1.7,0.1-4.8,0.1-6.9,0
					c-21.3-0.1-40.8-10.7-51.6-29.9c-12.4-18.6-9.9-41.7-20-61c1.6,5.8,3.6,12.9,5.1,18.6c5.2,23.1,1.2,34.1,11.5,47.3
					c3.8,5.1,13.6,14.9,21.4,19.9c9.8,6.4,28.8,9.2,37.1,9.1c8.3,0.1,27.3-2.6,37.1-9.1c7.7-5,17.6-14.8,21.4-19.9
					c10.3-13.2,6.3-24.2,11.5-47.3c1.5-5.7,3.5-12.8,5.1-18.6C234.7,158.8,237.2,182,224.8,200.5z"/>
				<path id="SvgjsPath4250" d="M238.2,130.6c-3.4,13.4-5.9,11.1-13.8,28.6c-6.9,16.3-2,31.1-16.9,43.3c-3.7,3.4-19.6,15.3-27,13.4
					c-5.1-1.9-2.3-10.3-4.5-15.2c-1.5-3.4-5.4-4.1-7.2-3.8c-8.7,1.6-5.2,11.8-7.2,16.6c-2.5,6-13.2,0.3-18.7-3.1
					c-13.5-8.4-21.2-16.4-23.3-32.2c-2.4-26.1-16.7-35-18.3-47.6c-0.1,0-9-1.2-9.1-1.3c0.4,3.4,4.9,18.4,7.6,28.7
					c5.2,23.1,1.2,34.1,11.5,47.3c3.8,5.1,13.6,14.9,21.4,19.9c10.4,6.8,31.1,9.5,38.5,9.1c25.2-1,35.4-7.9,43.5-14.9
					c14.7-13.5,21-20.2,22-41.5c0.6-14.5,5-25.3,10.7-48.4C247.3,129.4,238.5,130.6,238.2,130.6z M234.4,177.5
					c-1.8,21.6-6.2,26.2-20.8,39.5c-10.4,9-21.3,14.1-44,15.7c-10.1-0.8-28.1-4.1-36.5-10c-8.8-6-17.9-16-20.2-19.2
					c-9.7-12.4-5-23.9-11.2-45.9c-4-12.7-6.1-16.8-9.3-27.9c1.3,0.2,4.5,0.8,8.8,1.2c1.8,14.3,14.1,21.4,16.3,47.5
					c0.5,3.1,1,9.2,5.4,16.5c2.2,3.8,5.1,7.1,7.7,9.2c7.5,6.9,32.5,23.4,32.8,5.5c0.1-4.9-0.6-11.5,6.3-12.6
					c11.7,1.7,1.7,17.5,10.4,20.3c8.4,2.3,36.4-11.9,40.8-33.5c2.3-8.1-1.2-13.9,11.4-37.6c3.3-6,5-8.8,5.9-15.2
					c1.7-0.2,7.7-0.9,8.8-1.3C242.1,146.4,235.3,161.8,234.4,177.5z"/>
			</g>
		</g>
		
			<g id="svga-group-mustache-single" transform="matrix(0.84999948 0 0 0.84999948 14.999301264975585 19.378247109331056) translate(0 -4.0000003)">
			<path id="SvgjsPath4251" class="st0" d="M202.5,203.8c-4.9,0-11.3-1.4-20.4-7.1c-2.6,1.5-9.8,6.9-20.3,6.9
				c-13.6,0-24.7-9.4-26.5-22.3c18.7,11.3,20.4,1.4,36.8-1.8c1.4-0.2,3.1-0.5,4.5-0.2l0.1-0.1c7.1,2.1,7.1,0.6,10.9,0.1l0,0
				c3.5-0.1,4.5-0.7,13.3,3.2c12.1,5.3,17.2,5.5,28.2-1.1C227.2,193.3,216.5,203.8,202.5,203.8z"/>
			<path id="SvgjsPath4252" class="st34" d="M182.1,189.9c-15.1,14-36,7.1-46.8-7.6c3.2,18.6,25.3,28.6,45.2,15.5
				c0.5-0.3,1.1-0.7,1.6-1c12.3,7.5,22.6,9.9,35.1,2.8c7.3-4.9,11.1-12.1,11.9-18.6c0,0-0.1,0-0.1,0.1
				C220.4,197.7,196.2,204,182.1,189.9z"/>
			<path id="SvgjsPath4253" class="st35" d="M135.8,182.7c13,16.4,32.4,18.8,46.3,7.3C168.9,202.4,148.3,200.6,135.8,182.7z
				 M206.6,196.8c-11,1.3-16.6-0.4-24.5-6.9c8.3,7.7,14.5,9,24.7,7.7c10.8-2.9,15.7-6.5,21.6-15
				C222.2,190.4,217.4,193.9,206.6,196.8z"/>
			<path id="SvgjsPath4254" d="M224.3,183.8c-15.6,8-25.6-6.3-36.6-4.6h-0.3c-2.4,0.3-4,1.5-7.3,0.8c-0.1,0-3.5-0.9-3.6-0.8
				c-1.3-0.2-3.1,0-4.5,0.2c-16.6,3.3-18.1,13.2-37,1.7c2.4,19.4,25,30.2,45.4,16.8c0.5-0.3,1.1-0.7,1.6-1
				c12.3,7.5,22.6,9.9,35.1,2.8c7.3-4.9,11.1-12.1,11.9-18.6C227.6,182,225.6,183.1,224.3,183.8z M182.1,195.7
				c-1.3,0.6-10,5.1-18.8,5.5c-11.2,1.2-22.6-7-26.7-17.7c15.2,11,20.2,1.9,35.8-2.3c6.3-1.6,4.1,0.6,13.7-0.4
				c11.1-1.2,23.1,12.4,35.4,6.4c2.3-1,4.3-2.4,6-3.6C223,195,208.9,209.1,182.1,195.7z"/>
		</g>
		<g id="svga-group-hair-front">
			<path id="SvgjsPath4218" class="st0" d="M95.9,137.3c-3.3-11.8-5-22.2-7.4-33h0.1c-0.9-2.3-4.2-20.2-4.3-20.4
				C80.9,60,91,58.6,90.8,48.7c4.2,2.1,8.4,1.1,12.1-1.8c-3.9-2-2.7-2.3-7.9-5.5c3.7-0.6,5.8,0.2,8.9,0.6c-2.7-2.7-7.9-8.1-11.3-7.4
				l-0.2-0.5c4.9-3.8,11.5,4.2,17.4,2c0.2-22,32.3-26.6,40.1-29.8c10.4-4,21.3-12.7,28.9-13.5c-4.3,4.4-7,11.3-7.2,16.6
				c6.3-6,6.8-5.8,16.3-16.5c0,8.5-2.4,9.6-5.4,14.6c8.3-5.5,18.7-20.8,34.8-23.1l0.2,0.5C211.7-11.7,207.3-6,204.2,2
				c3-3.7,7.3-7.6,12.1-8.3l0.2,0.5c-3,1.8-8.8,7.7-10.1,17.6c5.9-6.6,15.2-12,21.7-14.1l0.3,0.5c-5.9,4.8-8.3,13.2-9.6,20.3
				c4.1-6.1,6.5-7.6,11.7-10.1c-1.7,2.5-1.6,2.1-2.9,4.8c3.2,8.2,13.8,8.5,15.7,22.9c2.2-1.9,3.1-2.4,5.6-4.2l0.4,0.4
				c-1.9,2.9-3.4,8.1-4.5,11.6c3.7-2.9,9.5-5,13.6-6.4l0.3,0.4c-3.4,3.5-7.6,8.8-8.3,14.5c1.3-0.8,1.4-0.7,3.2-2
				c0,4.1,0.1,3.6,0.2,5.5c1.7-1.5,1.9-1.7,3.1-2.9c-0.2,43.5-2.5,34.8-8.5,65.1c-1.1,5.3-2.9,14.6-4.1,19.1l-8.1,1.4
				c2.5-30.1-0.1-23.5,1.7-42.4c2.7-27.9-19.9-50.8-49.7-43.3c-6,1.5-30.1,1.5-36.2,0c-33-8.3-44.8,11-48.4,44.7
				c-1.7,16.5-2.2,11,0.4,41L95.9,137.3z"/>
			<path id="SvgjsPath4219" class="st36" d="M253.5,56c0-1.9-0.2-1.4-0.2-5.5c-1.7,1.3-1.8,1.2-3.2,2c0.7-5.8,4.8-11.1,8.3-14.5
				l-0.3-0.4c-4.1,1.5-9.8,3.6-13.6,6.4c1-3.5,2.6-8.7,4.5-11.6l-0.4-0.4c-2.5,1.8-3.4,2.2-5.6,4.2c-1.8-14.4-12.4-14.7-15.7-22.9
				c1.3-2.7,1.2-2.3,2.9-4.8c-5.2,2.6-7.6,4-11.7,10.1c1.3-7.1,3.7-15.5,9.6-20.3L228-2.3c-6.4,2.1-15.8,7.5-21.7,14.1
				c1.3-9.9,7.2-15.9,10.1-17.6l-0.2-0.5c-4.7,0.7-9,4.7-12.1,8.3c3.1-7.9,7.5-13.7,13.3-17.1l-0.2-0.5c-16,2.3-26.4,17.7-34.8,23.1
				c3.1-5,5.4-6.1,5.4-14.6c-9.6,10.6-10,10.4-16.3,16.5c0.2-5.2,2.8-12.2,7.2-16.6c-7.6,0.8-18.5,9.5-28.9,13.5
				c-7.8,3.3-40,7.8-40.1,29.8c-5.9,2.2-12.5-5.8-17.4-2l0.2,0.5c3.4-0.7,8.6,4.7,11.3,7.4c-3.1-0.4-5.3-1.2-8.9-0.6
				c5.2,3.2,4,3.5,7.9,5.5c-3.7,2.9-7.9,4-12.1,1.8c0.2,10-9.9,11.3-6.5,35.2c0,0.2,3.4,18.1,4.3,20.4h-0.1
				c2.4,10.8,4.2,21.2,7.4,33l0,0c-0.9-22.1-14.8-53.5-6.6-73.6c1.1-2.6,5.2-9.5,5.2-9.5s12.9-1.7,13.5-6.7c0,0-2.7-1.3-4-2.7
				c2.7,1.3,2.7-2.7,5.4-1.3c0-2.7-4-1.3-4-4c2.7,0,5.4,0,8.1,2.7c-1.3-6.7,0-13.4,5.4-17.5c13.4-10.7,30.9-9.4,44.3-20.1
				c-1.3,6.7-2.7,13.4-2.7,20.1c8.1-4,10.7-12.1,17.5-17.5c1.3,5.4-1.3,12.1-1.3,17.5c4-9.4,9.4-18.8,21.5-21.5
				c-5.4,5.4-5.4,13.4-5.4,20.1c0-5.4,5.4-8.1,6.7-12.1c0,5.4,0,10.7,0,16.1c2.7-8.1,8.1-12.1,14.8-14.8c-5.4,5.4-4,10.7-5.4,17.5
				c4-4,9.4-5.4,13.4-9.4c4,8.1,1.3,14.8,1.3,22.8c1.3-6.7,8.1-10.7,12.1-16.1c1.3,6.7,1.3,13.4,0,20.1c1.3-4,4-6.7,5.4-10.7
				c0,6.5-0.9,12.2-2.7,17.6c1.7-1.9,4.4-2.8,5.3-5.6c0,5.8,0,10.6,0,16.1c0.8-1.6,3.1-2.2,4-4.1c-1.1,4.6-0.3,8.2-0.1,12.5
				c0.5-2.6,3-4.2,3.9-6.7c0.1-1,0.1-2.1,0.2-3.1c0.3,1.2,0.2,2.2-0.2,3.1c-1.2,23.9-3.5,47.7-8.4,70.7l0.9-0.1
				c1.2-4.5,3.1-13.8,4.1-19.1c6-30.3,8.2-21.6,8.5-65.1C255.4,54.3,255.2,54.5,253.5,56z"/>
			<path id="SvgjsPath4220" d="M260.8,36.3c-6.6,1.1-11.3,3.3-14.8,5.7c0.5-1.3,2.9-9,5.6-12.2c-4,1.8-6.3,3.7-7.7,4.7
				c0-1.4-0.5-3-0.8-3.8c-0.3-0.7-0.5-1.5-1.7-3.5c-6.9-9.8-7.4-5.7-13.1-13.2c1-2.4,2.5-4.8,4.4-6.8c-5.2,0.7-8,2.8-11.3,6.1
				c-0.1,0.1-0.1,0.1-0.1,0.2c2.1-8.2,6.2-15.4,14.2-18c-9.9-0.4-22.2,7-28.4,14.3c2.7-8.6,6.2-12.7,11.5-16.4
				c-3.8-0.6-7.6,1-10.5,3.5c3.4-5.9,8.5-10.6,12.6-12.8c-0.6,0-1.3-0.1-2,0c-1-0.3-7.4,0.8-9.6,1.7c-11.2,4.4-19.3,14.5-22.8,17.8
				c2.6-4.2,2.7-7.1,2.2-11.4C187.6-7,172.9,7,172.7,7.2c1-5.8,3-9.3,6.7-14.5c-6.6-1.2-23.3,9.7-33.6,12.6
				c-10.8,2.9-37.6,9-36.4,30.5c-5.8,1.1-14.2-8.2-18.6-0.4c3.6-2.1,8.3,3,11.5,5.9c-1.3-0.2-5.8-1.3-8,0.2c2.5,1,4.8,3.9,7.9,5.5
				c0,0,0.1,0,0.1,0.1c-2.9,1.5-6.3,2.7-9.4,1.9c-0.5-0.1-0.8-0.2-0.8-0.2c-0.4-0.2-0.8-0.3-1.2-0.5l0,0l0,0
				c-0.2-0.1-0.3-0.2-0.5-0.3c0.9,7.5-10.5,13.6-9.2,29.6c0.5,9.8,6.6,39.6,14.3,59.8l0.6,0.2c-3.2-11.6-5.1-22.5-7.5-33.2
				c-0.2,0-4.1-20.2-4.2-20.4c-3.4-23.7,6.7-25.4,6.5-34.7c4.2,2.1,8.8,0.6,12.3-2.3c-4.2-2.1-3.3-2.7-7.6-5.3
				c2.9-0.5,6.4,0.6,8.9,0.8c-3.2-3.2-8.5-8.7-12.1-8c4.8-3.7,11.4,4.4,17.5,2c0-22,31.9-26.4,40-29.8C159.7,3,171.8-6,178-6.7
				c-3.3,3.3-6.7,10.6-6.7,16.9c6.5-6.2,7.1-6.2,16.3-16.4c0,8.1-3,9.5-5.9,14.7c8.6-5,19-21.3,35.6-23.7
				c-6.9,4.1-11.3,11.2-14,18.8c3.2-4.1,7.8-8.8,12.9-9.5c-2.7,1.6-9.2,7.8-10.4,18.7c5.8-6.9,15.6-12.5,22.1-14.6
				c-6.2,5-8.6,13.9-9.9,21.8c2.3-3.5,4.5-6.6,8-8.8c0,0,0,0,0.1,0c1.4-0.9,1-0.7,3.4-1.9c-0.9,1.3-1,1.2-2.4,4.1
				c3.3,8.6,14.1,8.6,15.7,23.5c2.5-2.2,3.3-2.6,5.9-4.5c-2.1,3.2-3.7,9.1-4.8,12.5c3.9-3.3,11.1-5.8,14.2-6.9
				c-4,4.1-7.9,9.5-8.4,15.3c0.8-0.6,1.9-1,3.2-2c0,3.7,0.2,3.2,0.2,5.6c0.7-0.6,2.3-2,3-2.8c-0.3,42.6-2.5,34.3-8.5,64.3
				c-2.2,11.2-3.4,16.4-4.1,19.2l0.6-0.1c4.8-14.4,14.4-47.1,14-63.9c0-6.3-1.4-19.5-1.5-20.8l-2.8,2.6c0-0.7-0.3-3.6-0.3-5.2
				c-0.5,0.4-1.5,1-2.8,1.8C252.7,46.1,255.5,42.6,260.8,36.3z"/>
		</g>
		
			<g id="svga-group-glasses-single" transform="matrix(0.99999989 0 0 0.99999989 0.000011000180847986485 0.00000957055809180929)">
			<path id="SvgjsPath4209" class="st37" d="M226.5,140.7c-5.6,3.9-13.4,6-22.1,5.2c-13.5-1.3-21.5-10.1-24.5-17.8
				c-2.6-6.5-1.5-11.1,3.5-15.3c3.9-3.2,11.1-5.6,19-6.4C217.3,111.5,230.5,126.5,226.5,140.7z M125.4,106.5
				c-8.9,1.1-17,4.9-20.3,12.7c-5.7,14.4,9.7,28.6,29.9,26.7c5.6-0.6,10.3-2.4,14.1-5C153.3,126.8,140.3,111.7,125.4,106.5z"/>
			<path id="SvgjsPath4210" class="st38" d="M226.5,140.7c3.9-14.2-9.2-29.2-24-34.3c12.8-1.3,27.2,1.7,31.9,12.8
				C237.6,127.4,234,135.5,226.5,140.7z M156,112.8c-5.7-4.7-18.9-7.8-30.6-6.3c14.8,5.2,27.8,20.3,23.7,34.4
				c5.2-3.5,8.7-8.4,10.4-12.9C162.2,121.5,161.1,116.9,156,112.8z"/>
			<path id="SvgjsPath4211" class="st39" d="M241.9,122.3c-0.3-1.3-0.9-2.7-1.4-3.2c-0.9-0.9-3.5-1.5-5.2-1.6
				c-9.2-19.5-50.8-15.1-57.3-0.3c-4.5-2.6-11.9-2.7-16.4,0c-6.5-14.8-48.2-19.2-57.3,0.3c-1.7,0.1-4.3,0.7-5.2,1.6
				c-0.5,0.5-1.1,1.9-1.4,3.2c-0.2,0.8-0.8,1.6-0.6,2.1c0.6,1.3,1.8,0.5,2.3,0.2c0.4-0.1,2.1,0.1,3.2,0.9
				c0.1,12.7,14.4,23.6,32.7,21.8c18.8-1.8,28.3-18,27.1-27.4c2.6-1.9,12.3-1.9,14.9,0c-1.3,9.5,8.3,25.6,27.1,27.4
				c18.4,1.8,32.6-9.1,32.7-21.8c1.1-0.8,2.8-1.1,3.2-0.9c0.5,0.3,1.7,1.2,2.3-0.2C242.7,123.9,242,123.2,241.9,122.3z M102.6,123.1
				c-0.9-0.4-2-0.7-2.8-0.7c0.2-0.7,0.5-1.5,0.7-1.7c0.3-0.3,1.5-0.9,2.8-0.8C103,120.9,102.8,122,102.6,123.1z M159,127.8
				c-2.9,7.5-10.7,16.1-23.9,17.4c-19.9,1.9-34.7-12-29.3-25.8c0.1-0.3,0.2-0.5,0.3-0.7c7.4-16.4,39.7-13.5,49.6-5.4
				C160.1,116.9,161.7,121,159,127.8z M204.5,145.2c-13.2-1.3-21.1-9.9-24-17.4c-2.7-6.8-1.1-10.8,3.4-14.5
				c9.9-8.1,42.1-11,49.6,5.4c0.1,0.3,0.2,0.4,0.3,0.7C239.2,133.2,224.4,147.2,204.5,145.2z M236.8,123.1c-0.1-1.1-0.3-2.2-0.7-3.2
				c1.3,0,2.4,0.5,2.8,0.8c0.2,0.2,0.5,1,0.7,1.7C238.8,122.4,237.8,122.7,236.8,123.1z"/>
		</g>
	</g>
</g>
</svg>
