<?xml version="1.0" encoding="utf-8"?>
<!-- Generator: Adobe Illustrator 21.0.0, SVG Export Plug-In . SVG Version: 6.00 Build 0)  -->
<svg version="1.1" id="Layer_1" xmlns="http://www.w3.org/2000/svg" xmlns:xlink="http://www.w3.org/1999/xlink" x="0px" y="0px"
	 viewBox="0 0 300 300" style="enable-background:new 0 0 300 300;" xml:space="preserve">
<style type="text/css">
	.st0{fill:#6B4E40;}
	.st1{fill:#F0C7B1;}
	.st2{fill:#FFE4D6;}
	.st3{fill:#E1AC8F;}
	.st4{fill:none;stroke:#C27B55;stroke-width:1.5;}
	.st5{fill:url(#SvgjsPath3064_1_);}
	.st6{fill:#F3F1F3;}
	.st7{fill:#131111;}
	.st8{fill:#F3F1F4;}
	.st9{fill:#CFC8D7;}
	.st10{fill:#E1E0E1;}
	.st11{fill:#39557E;}
	.st12{fill:#27446F;}
	.st13{fill:#18355F;}
	.st14{fill:#4E688D;}
	.st15{fill:#0C2850;}
	.st16{fill:#F0C7B1;stroke:#C27B55;stroke-width:1.5;}
	.st17{fill:#C27B55;}
	.st18{fill:#E8B9A0;}
	.st19{fill:url(#SvgjsPath3091_2_);}
	.st20{fill:#FFFFFF;}
	.st21{fill:none;stroke:#C27B55;stroke-width:0.75;}
	.st22{fill:url(#SvgjsPath3345_1_);}
	.st23{fill:#4E60A3;stroke:#152975;stroke-width:0.5;}
	.st24{fill:#6777B2;}
	.st25{opacity:0.9;enable-background:new    ;}
	.st26{fill:none;stroke:#152975;stroke-width:0.75;}
	.st27{opacity:0.5;fill:#FFFFFF;enable-background:new    ;}
	.st28{opacity:0.8;fill:#FFFFFF;enable-background:new    ;}
	.st29{fill:url(#SvgjsPath3371_1_);}
	.st30{fill:url(#SvgjsPath3376_1_);}
	.st31{fill:#210D34;}
	.st32{fill:url(#SvgjsPath3353_1_);}
	.st33{fill:url(#SvgjsPath3392_1_);}
	.st34{fill:url(#SvgjsPath3397_1_);}
	.st35{fill:url(#SvgjsPath2885_2_);}
	.st36{fill:url(#SvgjsPath2889_2_);}
	.st37{fill:#2A232B;}
	.st38{fill:#5C3D2E;}
	.st39{fill:#7A6155;}
	.st40{fill:#3D2012;}
	.st41{opacity:0.2;fill:#FFFFFF;enable-background:new    ;}
	.st42{opacity:0.4;fill:#FFFFFF;enable-background:new    ;}
	.st43{fill:#26120B;}
	.st44{display:none;opacity:0.5;fill:#ECF0F1;enable-background:new    ;}
</style>
<g id="svga-group-wrapper" transform="scale(3 3)">
	<g id="svga-group-subwrapper_1_" transform="matrix(0.84999948 0 0 0.84999948 14.979303539305008 17.657869314911963)">
		<g id="svga-group-hair-back_1_" transform="rotate(3.0000001 100 150)">
			<path id="SvgjsPath3574" class="st0" d="M38.7,41.1h-0.4v-0.4h0.4V41.1z"/>
		</g>
		<g id="svga-group-humanbody-single_1_">
			<path id="SvgjsPath2893_1_" class="st1" d="M84,80.4c-0.9-2-3.5-5-6.4-5.9c-3.5-1-11.5-2.3-14.4-3c-2.4-0.6-7.1-4.8-8.8-6.3
				c-0.3-0.3-0.5-0.8-0.5-1.2c-0.1-4.6,1.8-17,1.8-17H43.2H30.7c0,0,1.9,12.3,1.8,17c0,0.4-0.3,0.9-0.5,1.2
				c-1.7,1.4-6.4,5.7-8.8,6.3c-2.9,0.7-10.9,2-14.4,3c-2.8,0.8-5.4,3.8-6.4,5.8c-1.6,3.4-2,9.6-2,15h42.7h42.7
				C85.9,90,85.6,83.8,84,80.4z"/>
			<path id="SvgjsPath2894_1_" class="st2" d="M68.5,73.7c10.4,1.5,14.8,3.7,16.2,21.7h1.3c0-5.3-0.4-11.5-2-15
				c-0.9-2-3.5-5-6.4-5.9c-3.5-1-11.5-2.3-14.4-3c-2.4-0.6-7.8-5.2-9.2-7c1.4,2,5.5,6.7,9,7.9C64.6,73.1,66.1,73.3,68.5,73.7z
				 M23.4,72.5c3.5-1.2,7.6-5.9,9-7.9c-1.5,1.8-6.9,6.4-9.2,7c-2.9,0.7-10.9,2-14.4,3c-2.8,0.8-5.4,3.8-6.4,5.8c-1.6,3.4-2,9.6-2,15
				h1.3c1.4-17.8,5.8-20.2,16.2-21.7C20.3,73.3,21.8,73.1,23.4,72.5z"/>
			<path id="SvgjsPath2895_1_" class="st3" d="M41.3,79.5c0,0-2.2-0.7-3-1c-4.5-1.7-19-2.8-19-2.8s15.3,0.6,18.7,1.2
				c-0.2-2-1.3-8.5-1.3-8.5s2.2,7.2,2.7,9C39.7,78.2,41.3,79.5,41.3,79.5z M46,78.9c0,0-0.1,0.1-0.1,0.1C45.9,79,45.9,78.9,46,78.9z
				 M41.3,79.5c0,0,1.2,1.3,1.9,1.3c0.8,0,2.1-1.2,2.6-1.8c-0.5,0.4-1.8,0.6-2.3,0.6C43,79.6,41.3,79.5,41.3,79.5z M50.3,76.3
				c-0.7,0.1-1.9,0.3-1.9,0.3l1-6.4c-0.3,1.3-1.9,6.9-3.5,8.7c0.8-0.7,2.6-1,3.6-1.2c4.4-0.6,4.4-0.6,17.5-2.1
				C67.1,75.6,54.6,75.6,50.3,76.3z"/>
			<path id="SvgjsPath2896_1_" class="st4" d="M84,80.4c-0.9-2-3.5-5-6.4-5.9c-3.5-1-11.5-2.3-14.4-3c-2.4-0.6-7.1-4.8-8.8-6.3
				c-0.3-0.3-0.5-0.8-0.5-1.2c-0.1-4.6,1.8-17,1.8-17H43.2H30.7c0,0,1.9,12.3,1.8,17c0,0.4-0.3,0.9-0.5,1.2
				c-1.7,1.4-6.4,5.7-8.8,6.3c-2.9,0.7-10.9,2-14.4,3c-2.8,0.8-5.4,3.8-6.4,5.8c-1.6,3.4-2,9.6-2,15h42.7h42.7
				C85.9,90,85.6,83.8,84,80.4z"/>
		</g>
		<g id="svga-group-chinshadow-single_1_">
			
				<linearGradient id="SvgjsPath3064_1_" gradientUnits="userSpaceOnUse" x1="30.3067" y1="39.3482" x2="30.3067" y2="55.5871" gradientTransform="matrix(2.55 0 0 -2.55 -34.0817 168.0069)">
				<stop  offset="0" style="stop-color:#E1AC8F;stop-opacity:0.8"/>
				<stop  offset="0.7" style="stop-color:#C27B55"/>
			</linearGradient>
			<path id="SvgjsPath3064" class="st5" d="M44.8,67.7c2.3-0.7,5.7-3,8.8-5.5c0.2-2.8,0.6-6.8,1-10c-6.4-1-16.4-1-22.8,0
				c0.4,3.1,0.9,7,1,9.8c3,2.5,6.3,4.9,8.8,5.6C42,67.9,44.4,67.9,44.8,67.7z"/>
		</g>
		<g id="svga-group-clothes-single_1_">
			<path id="SvgjsPath3678" class="st6" d="M55.5,96.7H30.7v-24c9.5,2,15.8,1.9,24.8,0L55.5,96.7L55.5,96.7z"/>
			<path id="SvgjsPath3679" class="st7" d="M46.4,96.6c-1.2,0-4.6,0.1-7.1-0.1l0-0.1c-0.3-8,0.5-13.1,1.9-16.8l0-0.1l0,0
				c-0.4-0.4-1-0.8-1.7-1.3c-0.7-0.5-1.4-0.9-1.9-1.4c0.3-0.3,0.6-0.6,1-0.9c0.1-0.1,0.5-0.4,2.6-2.1c0.1-0.1,0.1-0.1,0.2-0.1
				c0.3-0.1,0.9-0.1,1.6-0.1c0.9,0,2,0.1,2.8,0.2c0.7,0.6,1.5,2.3,1.8,3.1c-0.4,1-0.9,1.3-1.6,1.8c-0.3,0.2-0.7,0.5-1.1,0.9l0,0l0,0
				c1.7,8.7,1.7,10.7,1.7,12.7c0,0.9,0,2.8,0.1,4.3C46.6,96.6,46.5,96.6,46.4,96.6z"/>
			<path id="SvgjsPath3680" d="M47.6,76.9c-0.3-0.9-1.2-2.5-1.8-3.1c-1.2-0.2-3.4-0.4-4.5-0.1c0,0-2.7,2.3-2.7,2.2
				c-0.4,0.3-0.8,0.6-1.1,1c0.9,0.9,2.8,1.9,3.6,2.7c-1.6,3.9-2.3,9.2-1.9,16.8c0,0,0,0.1,0,0.1c2.9,0.2,7.1,0.1,7.5,0.1
				c-0.5-4.8,0.6-4.5-1.9-17C46.2,78.5,47,78.4,47.6,76.9z M45.4,85C45.4,85,45.4,84.9,45.4,85c0.8,4.5,0.6,7.9,1.2,11.5
				c-2-0.1-5.1,0-7.2,0c0.2-3.1,0.5-13.5,2-17c0.1,0,0.1,0,0.2-0.1l-0.4,14.8l1.2-15c0,0,0,0,0,0l0.8,13.9l0.2-14c0,0,0,0,0,0
				l1.8,15.5l-1-15.4c0.1,0,0.3,0.1,0.4,0.1c0,0,0,0,0,0C44.7,79.8,45.1,83,45.4,85z M45,79.1c-1.2-0.5-2.7-0.4-3.9,0.1
				c-0.7-0.8-1.7-1.3-3.2-2.3c0.2-0.2,0.5-0.5,0.9-0.8c0,0,1.5-1.2,1.5-1.2c0.4-0.4,0.7-0.8,1.1-1.1c1.3-0.1,3.1,0,4.2,0.1
				c0.6,0.8,1.3,2,1.7,3C46.5,78,45.7,78.6,45,79.1z"/>
			<path id="SvgjsPath3681" class="st8" d="M33.9,86.1c-4.9-17.1-2.7-12.6-4-19.4c0.9-2.1,1.7-4.5,2.2-5l0,0
				c1,10.3,3.8,5.8,10.2,11.8C38.6,76,35.2,82.3,33.9,86.1z M56.5,66.7c-0.6-1.6-1.7-3.9-2.2-4.4c0.6,8.8-6.5,7.1-10.4,11.2
				c3.8,2.4,7.3,8.8,8.6,12.6C58.1,67.5,55.1,75.6,56.5,66.7z"/>
			<path id="SvgjsPath3682" class="st9" d="M54.2,62.1c0,2.2-0.2,3.9-0.5,4.4c-1,2.5-5.6,4.2-7,4.9c-1.1,0.5-2.1,1.2-2.9,2.1
				c1.6,1.1,2.4,1.4,5.5,6.2c1.8,3,2.8,5.3,3.2,6.7c5.7-18.9,2.7-10.7,4.1-19.7C55.9,65,54.7,62.5,54.2,62.1z M55.8,70.4
				c-0.8,7.7-1.5,6.2-3.3,14.6c-1.2-3.7-4.7-9.8-8.3-11.6c1.7-1.3,2.1-1.3,4.2-2.3c6.2-2.7,6.4-5.3,6-8.7c0.5,0.6,1.3,2.6,2,4.1
				C56,68,55.8,69.9,55.8,70.4z M34.3,68.5c-1.9-1.6-1.4-3.5-2.2-6.9c-0.4,0.4-1.3,2.8-2.3,5.2c0.2,1.2,0.3,3.2,0.3,3.8
				c0.2,5.2,0.7,5.5,3.8,15.9c1.3-3.8,4.9-10.4,8.6-12.8C39.6,70.8,35.8,69.8,34.3,68.5z M36.6,79.4c-0.9,1.6-1.9,3.2-2.7,5.7
				c-1.9-8.7-2.6-7.2-3.3-14.6c-0.1-1.3-0.3-2.6-0.6-3.8c0.7-1.5,1.7-4.4,2-4.7c0.6,3,0,5.8,2.4,7.3c1.1,0.9,4.7,2.3,7.5,4.4
				C40.3,74.6,39.4,75.2,36.6,79.4z"/>
			<path id="SvgjsPath3683" class="st10" d="M51.9,84.7l-0.5-1.1c0,0,3.9-12,4.6-15.5C56.3,71.6,51.9,84.7,51.9,84.7z M34.2,84.2
				l0.6-1.4c0,0-3.7-11.3-4.3-14.8C30.1,71.6,34.2,84.2,34.2,84.2z"/>
			<path id="SvgjsPath3684" class="st11" d="M53.8,78.6c3-8.9,1.2-9.6,2.7-12.6c0.1-0.1,0.6,0.4,0.7,0.7c0.6,2.4,22.8,7.4,23.5,7.9
				c0.6,0.5,2.4,1.3,2.4,1.3c2.1,3.9,3.3,4.6,3.9,15c0.1,1.3,0,5,0,6l-36.6-0.3C50.5,93.4,50.9,87.4,53.8,78.6z M32.6,78.6
				c-3-8.9-1.2-9.6-2.7-12.6c-0.1-0.1-0.6,0.4-0.7,0.7c-0.6,2.4-22.8,7.4-23.5,7.9C5.1,75.1,3.3,76,3.3,76C1.2,79.9,0,80.6-0.6,91
				c-0.1,1.3,0,5,0,6L36,96.7C35.9,93.4,35.5,87.4,32.6,78.6z"/>
			<path id="SvgjsPath3685" class="st12" d="M56.1,76.2c-1.9,7-4.6,13.3-5.8,20.5c-0.4,0,0.6-9.7,3.4-18.1c3-8.9,1.2-9.6,2.7-12.6
				c0-0.1-0.3,0.8-0.1,1C56.3,70.4,57.1,72.9,56.1,76.2z M30.2,76.2c1.9,7,4.6,13.3,5.8,20.5c0.4,0-0.6-9.7-3.4-18.1
				c-3-8.9-1.2-9.6-2.7-12.6c0-0.1,0.3,0.8,0.1,1C30.1,70.4,29.3,72.9,30.2,76.2z"/>
			<path id="SvgjsPath3686" class="st13" d="M65.6,74.5c0,0-1,1.1-3.7,3c2.3-2.5,3.3-3.5,3.3-3.5L65.6,74.5z M66.5,79.6L65.9,79
				c-1.9,5.9-3.2,8.8-5.5,15.6C63.6,88.5,64.4,86.4,66.5,79.6z M21.2,74c0,0,1,1,3.3,3.5c-2.7-1.9-3.7-3-3.7-3L21.2,74z M26,94.7
				c-2.2-6.9-3.5-9.8-5.5-15.6l-0.7,0.6C22,86.4,22.8,88.5,26,94.7z"/>
			<path id="SvgjsPath3687" class="st14" d="M77.1,88.8c0-5,1.3-7.8,4.1-12c0.3,0.2,0.4,0.2,0.6,0.4C78.9,80.8,78.3,84.2,77.1,88.8z
				 M60.9,93.6c2.6-7.1,3.4-9.9,5.2-14.7c-0.5-0.1-3.7-1.3-4.2-1.4c0.2,0.4,1.3,0.8,3.3,2C65.2,79.5,63,86.1,60.9,93.6z M64.4,73.9
				c0,0-1.4,1.8-2.8,3.6C63,76.3,64,75,65.2,74c-1.7-1.4-4.5-3.6-6.3-5.2C60.4,70.3,64.4,73.9,64.4,73.9z M86.8,97l0.1,0
				c0-1,0.1-4.7,0-6c-0.6-10.4-1.8-11.1-3.9-15c0,0-1.8-0.9-2.4-1.3c-0.6-0.4-16.6-4.2-22.4-6.8c6.8,4.7,19.8,6.4,23.6,9.2
				C83.7,78.5,86.2,90,86.8,97z M4.6,77.1c0.2-0.2,0.3-0.2,0.5-0.3c2.8,4.2,4.2,7,4.2,12C8.1,84.2,7.3,80.6,4.6,77.1z M21.2,79.5
				c2-1.2,3.2-1.6,3.3-2c-0.5,0.2-3.7,1.3-4.2,1.4c1.7,4.8,2.6,7.6,5.2,14.7C23.4,86.1,21.2,79.5,21.2,79.5z M27.5,68.8
				c-1.8,1.5-4.6,3.7-6.3,5.2c1.3,1.1,2.3,2.4,3.7,3.5c-1.4-1.8-2.8-3.6-2.8-3.6S26,70.3,27.5,68.8z M4.6,77.1
				c3.8-2.8,16.8-4.5,23.6-9.2c-5.9,2.5-21.9,6.3-22.4,6.8C5.1,75.1,3.3,76,3.3,76C1.2,79.9,0,80.6-0.6,91c-0.1,1.3,0,5,0,6l0.1,0
				C0.2,90,2.7,78.5,4.6,77.1z"/>
			<path id="SvgjsPath3688" class="st15" d="M57,66.1c0-0.1-0.2-0.3-0.3-0.3c-0.1,0-0.2,0.2-0.2,0.3c-1.5,3,0.2,3.6-2.8,12.5
				c-2.9,8.8-3.2,14.9-3.3,18.2L86.9,97c0-1,0.2-4.7,0.2-6c-0.6-10.4-1.8-11.2-4-15c0,0-1.9-0.9-2.5-1.4c-2.1-1.6-0.3,0-9.4-2.6
				c-7.5-2.2-7.9-2.8-10.6-3.6c-0.6-0.2-1.7-0.4-3-1.2C57.5,67.1,57,66.4,57,66.1z M50.5,96.4c1.6-10.1,2.6-12.7,4.8-20.2
				c1.5-4.7,0.7-7.4,1.4-9.6c0-0.1,0.2-0.1,0.2,0c1,2.7,3.9,3.3,8,7.3c-2.5,2.5-3.1,3.2-3.4,3.6c0.4,0.2,2.4,1,4.2,1.7
				c-0.1,0.3-5.7,16.2-5.8,16.5c4.3-9.2,4.8-12.1,6.1-16.7c-0.3-0.3-3.4-1.4-3.9-1.6c1.8-1.9,2.4-2.3,3.2-3.4c0.7,0-6.8-5.7-7.1-6.1
				c0.2,0.2,1.2,0.6,1.3,0.6c6.3,2.2,1.3,1.2,15,5.1c1.3,0.3,3.1,0.7,4.5,0.8c0.1,0,2.3,1.2,3.6,1.7c-3.1,3.2-5,7.3-5.5,12.6
				c1.4-5.4,2.1-8.2,5.6-12.3c3.3,6.6,2.9,5.6,3.9,20.4C77.9,96.5,64.4,96.4,50.5,96.4z M28.8,67.2c-1.2,0.9-2.4,1.1-3,1.2
				c-2.7,0.8-3.1,1.4-10.6,3.6c-9.2,2.6-7.3,1-9.4,2.6c-0.6,0.5-2.5,1.4-2.5,1.4c-2.1,3.9-3.4,4.7-4,15c-0.1,1.3,0.2,5,0.2,6
				l36.7-0.2c-0.1-3.3-0.4-9.4-3.3-18.2c-3-8.9-1.3-9.5-2.8-12.5c-0.1-0.1-0.1-0.3-0.2-0.3c-0.1,0-0.3,0.2-0.3,0.3
				C29.4,66.4,28.9,67.1,28.8,67.2z M-0.3,96.8C0.8,82.1,0.4,83,3.6,76.4c3.5,4.1,4.2,6.9,5.6,12.3c-0.4-5.3-2.4-9.4-5.5-12.6
				c1.3-0.5,3.5-1.7,3.6-1.7c1.4-0.1,3.2-0.5,4.5-0.8c13.7-3.9,8.8-2.9,15-5.1c0.1,0,1.1-0.5,1.3-0.6C27.8,68.3,20.3,74,21,74
				c0.9,1.1,1.4,1.5,3.2,3.4c-0.5,0.2-3.5,1.3-3.9,1.6c1.3,4.6,1.8,7.4,6.1,16.7c-0.1-0.2-5.7-16.1-5.8-16.5
				c1.8-0.7,3.9-1.5,4.2-1.7c-0.3-0.4-1-1.1-3.4-3.6c4.1-4,7-4.6,8-7.3c0-0.1,0.2-0.1,0.2,0c0.7,2.2-0.1,4.9,1.4,9.6
				c2.2,7.5,3.2,10.1,4.8,20.2C22,96.4,8.5,96.5-0.3,96.8z"/>
		</g>
		<g id="svga-group-head_1_" transform="rotate(3.0000001 100 150)">
			
				<g id="svga-group-ears-left_1_" transform="matrix(0.9499999 0 0 0.9499999 2.195986562069322 4.850014277645869) translate(0 -0.9999999999999999)">
				<path id="SvgjsPath3693" class="st16" d="M13.8,31.7c-0.6-1.1-2.7-3.9-4.3-3.5c-1.3,0.3-1.3,2.1-1.4,3.2
					c-0.1,1.6-0.2,4.3,0.2,5.4c0.4,1.1,1.7,3.1,2.5,3.9c1,1,2.6,4,2.7,4.3c0.3,0.5,0.9,1.2,1.8,1.2c1.3-0.1,2.4-1.3,2.5-1.9
					C18.5,40.9,15.4,34.4,13.8,31.7z"/>
				<path id="SvgjsPath3694" class="st17" d="M13.1,38.1c-0.1-0.2,0-0.6,0.1-1c0.1-0.4,0.1-0.7,0.1-0.9c-0.1-0.9-0.8-2.6-1.3-3.5
					c-0.5-1.1-1.4-2.4-2.4-2.7c-0.4-0.1-0.7,0-0.9,0.2c-0.1,0.1-0.2,0.3-0.1,0.3c0,0,0.1-0.1,0.3-0.2c0.1-0.1-0.2,0,0,0
					c-0.1,0.4-0.4,2.7-0.2,4.3c0.2,1.3,0.4,2.3,0.5,2.4c0,0.2,0,0.3,0.1,0.4c0.4,1.9,3.2,4.3,3.9,5.1c0.1,0.1,0.2,0.2,0.3,0.2
					c0,0,0-0.2-0.2-0.3c-0.6-0.7-3.4-3.2-3.8-5c-0.4-1.9,1.7-4.8,2-5.4c0.2,0.3,0.3,0.6,0.4,0.8c0.1,0.2,0.2,0.4,0.3,0.6
					c-0.2,0.3-2.2,2.6-1.7,4.5c0.2,0.7,1.6,1.6,2.2,1.8c0.3,0.1,0.4,0.3,0.6,0.6c0.2,0.3,0,1,0.5,1.2c0.1,0,0.2,0.1,0.3,0.1
					c0.1,0,0.3-0.1,0.3-0.1c0,0.1,0,0.3,0,0.4c0,0.2,0,0.3,0.1,0.3c0,0,0.1-0.1,0.1-0.3c0-0.2,0-0.5,0-0.6c-0.1-0.4-0.5-0.8-0.8-1.3
					C13.3,39.3,13.2,38.5,13.1,38.1z M9.2,36.5c-1-3,0.5-5.7,0.8-6.1c0.4,0.2,1.1,0.9,1.4,1.4C11.1,32.1,9.2,34.5,9.2,36.5z
					 M13.8,41.2c-0.5-0.2-0.3-0.8-0.5-1.1c-0.1-0.2-0.3-0.5-0.6-0.6c-0.1,0-0.2-0.1-0.2-0.1c-1.1-2.6,0.1-3.7,0.4-4
					c0.1,0.3,0.2,0.6,0.2,0.8c0,0.2,0,0.6-0.1,0.9c-0.1,0.4-0.1,0.8-0.1,1.1c0.1,0.4,0.2,1.3,0.6,1.7c0.3,0.4,0.7,0.8,0.8,1.2
					C14.3,41.1,14.1,41.3,13.8,41.2z"/>
			</g>
			
				<g id="svga-group-ears-right_1_" transform="matrix(0.9499999 0 0 0.9499999 7.790906847651684 4.850014277645869) translate(0 -0.9999999999999999)">
				<path id="SvgjsPath3695" class="st16" d="M56.7,31.7c0.6-1.1,2.7-3.9,4.3-3.5c1.3,0.3,1.3,2.1,1.4,3.2c0.1,1.6,0.2,4.3-0.2,5.4
					c-0.4,1.1-1.7,3.1-2.5,3.9c-1,1-2.6,4-2.7,4.3c-0.3,0.5-0.9,1.2-1.8,1.2c-1.3-0.1-2.4-1.3-2.5-1.9C52,40.9,55.1,34.4,56.7,31.7z
					"/>
				<path id="SvgjsPath3696" class="st17" d="M56.8,39.8c-0.4,0.5-0.7,0.9-0.8,1.3c0,0.1,0,0.4,0,0.6c0,0.2,0.1,0.3,0.1,0.3
					c0,0,0.1-0.1,0.1-0.3c0-0.1,0-0.3,0-0.4c0.1,0.1,0.2,0.1,0.3,0.1c0.1,0,0.2,0,0.3-0.1c0.5-0.2,0.4-0.9,0.5-1.2
					c0.1-0.2,0.2-0.4,0.6-0.6c0.6-0.2,2-1.1,2.2-1.8c0.5-1.8-1.5-4.1-1.7-4.5c0.1-0.2,0.2-0.4,0.3-0.6c0.1-0.2,0.3-0.5,0.4-0.8
					c0.3,0.6,2.4,3.5,2,5.4c-0.4,1.8-3.2,4.3-3.8,5c-0.1,0.1-0.2,0.3-0.2,0.3c0,0,0.2,0,0.3-0.2c0.6-0.7,3.4-3.2,3.9-5.1
					c0-0.1,0.1-0.3,0.1-0.4c0.1-0.1,0.4-1.1,0.5-2.4c0.2-1.6-0.1-3.9-0.2-4.3c0.2,0-0.1-0.1,0,0c0.1,0.1,0.2,0.2,0.3,0.2
					c0,0,0-0.2-0.1-0.3c-0.2-0.2-0.5-0.3-0.9-0.2c-1.1,0.3-1.9,1.7-2.4,2.7c-0.5,0.9-1.1,2.6-1.3,3.5c0,0.2,0,0.6,0.1,0.9
					c0.1,0.4,0.1,0.8,0.1,1C57.2,38.5,57.2,39.3,56.8,39.8z M59.1,31.8c0.3-0.4,0.9-1.2,1.4-1.4c0.2,0.4,1.8,3.1,0.8,6.1
					C61.2,34.5,59.3,32.1,59.1,31.8z M56.1,41.1c0.1-0.3,0.5-0.8,0.8-1.2c0.4-0.5,0.4-1.3,0.6-1.7c0.1-0.3,0-0.7-0.1-1.1
					c-0.1-0.3-0.1-0.7-0.1-0.9c0-0.2,0.1-0.5,0.2-0.8c0.3,0.2,1.6,1.4,0.4,4c-0.1,0.1-0.2,0.1-0.2,0.1c-0.4,0.2-0.5,0.4-0.6,0.6
					c-0.1,0.3,0,0.9-0.5,1.1C56.4,41.3,56.2,41.1,56.1,41.1z"/>
			</g>
			<g id="svga-group-faceshape-wrap_1_">
				<g id="svga-group-faceshape-single_1_">
					<path id="SvgjsPath3061" class="st1" d="M54.9,55.8c-3.2,3.3-10.8,9.6-14.8,10.8c-0.3,0.1-2.8,0.1-3.1,0
						c-4.4-1.3-11.3-7.7-14.8-10.8c-0.3-0.3-0.8-0.9-1-1.3C18.3,49,13.3,31,13.3,31c-0.6-2.1-0.9-4.3-0.9-6.6
						c0-14.3,11.6-25.9,26-25.9c14.4,0,26,11.6,26.1,25.9c0,2.3-0.3,4.5-0.8,6.6c0,0-5,18-7.8,23.5C55.6,54.8,55.2,55.5,54.9,55.8z"
						/>
					<path id="SvgjsPath3062" class="st18" d="M48.3,0.4C56.6,4.5,62.4,13.5,62.4,24c0,2.3-0.3,4.5-0.8,6.6c0,0-4.6,18-7.2,23.5
						c-0.2,0.4-0.6,1-0.9,1.3c-3,3.3-9.9,9.6-13.6,10.8c-0.3,0.1-2.6,0.1-2.9,0c-4.1-1.3-10.4-7.7-13.6-10.8
						c-0.3-0.3-0.7-0.9-0.9-1.3c-2.7-5.5-7.3-23.5-7.3-23.5c-0.5-2.1-0.8-4.3-0.8-6.6c0-10.5,5.8-19.6,14.1-23.6
						c-9.5,3.9-16.2,13.2-16.1,24c0,2.3,0.3,4.5,0.9,6.6c0,0,5,18,7.9,23.5c0.2,0.4,0.7,1,1,1.3c3.4,3.1,10.3,9.5,14.8,10.8
						c0.3,0.1,2.8,0.1,3.1,0c4-1.2,11.5-7.5,14.8-10.8c0.3-0.3,0.8-1,0.9-1.3c2.8-5.5,7.8-23.5,7.8-23.5c0.5-2.1,0.8-4.3,0.8-6.6
						C64.5,13.5,57.8,4.3,48.3,0.4z"/>
					<path id="SvgjsPath3063" class="st4" d="M54.9,55.8c-3.2,3.3-10.8,9.6-14.8,10.8c-0.3,0.1-2.8,0.1-3.1,0
						c-4.4-1.3-11.3-7.7-14.8-10.8c-0.3-0.3-0.8-0.9-1-1.3C18.3,49,13.3,31,13.3,31c-0.6-2.1-0.9-4.3-0.9-6.6
						c0-14.3,11.6-25.9,26-25.9c14.4,0,26,11.6,26.1,25.9c0,2.3-0.3,4.5-0.8,6.6c0,0-5,18-7.8,23.5C55.6,54.8,55.2,55.5,54.9,55.8z"
						/>
				</g>
			</g>
			<g id="svga-group-mouth-single_1_">
				
					<linearGradient id="SvgjsPath3091_2_" gradientUnits="userSpaceOnUse" x1="21.8951" y1="45.6969" x2="21.8951" y2="46.9789" gradientTransform="matrix(2.5465 -0.1335 -0.1335 -2.5465 -11.1155 178.0903)">
					<stop  offset="0.1" style="stop-color:#E8B9A0"/>
					<stop  offset="1" style="stop-color:#E1AC8F"/>
				</linearGradient>
				<path id="SvgjsPath3091_1_" class="st19" d="M38.6,59.2C37.4,59.3,37,58,37,58s1.7,0.2,3-0.2C40,57.9,39.7,59.2,38.6,59.2z"/>
				<path id="SvgjsPath3095" class="st17" d="M38.7,58.3c-0.8,0-1.6,0-1.7,0c-0.1,0-0.1-0.1-0.1-0.1c0-0.1,0.1-0.1,0.1-0.1
					c0,0,1.8,0.2,2.9-0.1c0.1,0,0.1,0,0.1,0.1s0,0.1-0.1,0.1C39.6,58.2,39.2,58.2,38.7,58.3z"/>
				<path id="SvgjsPath3096" class="st20" d="M31,53.8c0,0,5.4,0.6,7.1,0.6c1.9,0,8.2-0.6,8.2-0.6c-1.8,1.5-3.8,3-8.4,3
					C34,56.8,33,55.3,31,53.8z"/>
				<path id="SvgjsPath3097" class="st21" d="M31,53.8c0,0,5.4,0.6,7.1,0.6c1.9,0,8.2-0.6,8.2-0.6c-1.8,1.5-3.8,3-8.4,3
					C34,56.8,33,55.3,31,53.8z"/>
			</g>
			<g id="svga-group-eyes-left_1_" transform="translate(1.0000000005838672e-7 0)">
				<g id="svga-group-eyesback-left_1_">
					
						<radialGradient id="SvgjsPath3345_1_" cx="110.9036" cy="55.246" r="5.6622" gradientTransform="matrix(-2.8086 -1.515638e-02 -1.495411e-02 -2.3502 339.5105 165.65)" gradientUnits="userSpaceOnUse">
						<stop  offset="0" style="stop-color:#FFFFFF"/>
						<stop  offset="0.544" style="stop-color:#FDFEFE"/>
						<stop  offset="0.74" style="stop-color:#F6F8F9"/>
						<stop  offset="0.879" style="stop-color:#EAEFF2"/>
						<stop  offset="0.992" style="stop-color:#D9E3E8"/>
						<stop  offset="1" style="stop-color:#D8E2E7"/>
					</radialGradient>
					<path id="SvgjsPath3345" class="st22" d="M28.6,31.6c2,0.3,3.4,1.5,4.6,3.4c0,0,0,0,0,0c0,0,0,0,0,0c0.1,0.4-0.3,0.8-0.9,1
						c-2,0.3-4,0.6-6.1,0.4c-4.1-0.5-4.2-2.4-4.4-2.8c-0.1-0.5-0.1-0.6-0.1-1.1c1-0.6,1.7-0.7,2.5-0.9
						C25.1,31.5,27.1,31.4,28.6,31.6z"/>
				</g>
				<g id="svga-group-eyesiriswrapper-left_1_" transform="translate(0.25 0)">
					<g id="svga-group-eyesiriscontrol-left_1_">
						<g id="svga-group-eyesiris-left_1_" transform="matrix(0.84999926 0 0 0.84999926 11.100162334993591 12.599956301628637)">
							<path id="SvgjsPath3700" class="st23" d="M21.5,25.9c-0.4,1.4-1.8,2.2-3.1,1.8c-1.4-0.4-2.2-1.8-1.8-3.1
								c0.4-1.4,1.8-2.2,3.1-1.8C21.1,23.1,21.9,24.5,21.5,25.9z"/>
							<path id="SvgjsPath3701" class="st24" d="M21.4,25.4c-0.2,1.5-1.3,2.3-2.5,2.2c-1.1-0.1-2.2-0.9-2.2-2.4
								c0.4-0.1,0.9,0.1,1.4,0c0,0,0,0,0,0c0,0.6,0.4,1,1,1.1c0.6,0,1.1-0.4,1.1-0.9c0-0.1,0-0.1,0-0.2C20.5,25.3,21,25.2,21.4,25.4
								z"/>
							<path id="SvgjsPath3702" class="st25" d="M19.4,24.3c-0.6-0.2-1.1,0.2-1.3,0.7c-0.1,0.6,0.2,1.1,0.8,1.3
								c0.6,0.2,1.1-0.2,1.3-0.7C20.3,25.1,20,24.5,19.4,24.3z"/>
							<path id="SvgjsPath3703" class="st26" d="M19.4,24.3c-0.6-0.2-1.1,0.2-1.3,0.7c-0.1,0.6,0.2,1.1,0.8,1.3
								c0.6,0.2,1.1-0.2,1.3-0.7C20.3,25.1,20,24.5,19.4,24.3z"/>
							<path id="SvgjsPath3704" class="st27" d="M17.8,26.8c-0.1,0.2-0.3,0.1-0.3-0.1c0.1-0.2,0.2-0.3,0.3-0.5
								c0.1-0.2,0.4,0,0.3,0.2C18,26.5,17.8,26.6,17.8,26.8L17.8,26.8z M18.3,26.5c-0.1,0.1-0.2,0.4-0.2,0.6
								c-0.1,0.2,0.2,0.3,0.3,0.1c0-0.1,0.1-0.4,0.2-0.4C18.6,26.5,18.4,26.3,18.3,26.5L18.3,26.5z M18.9,27.4
								c0.2-0.2,0.1-0.4,0.1-0.6c0-0.2-0.3-0.2-0.3,0c0,0.1,0,0.3,0,0.4C18.6,27.3,18.8,27.5,18.9,27.4L18.9,27.4z M19.2,26.7
								c0,0.2,0,0.4,0.1,0.5c0.1,0.2,0.3,0.1,0.3-0.1c0-0.2-0.1-0.3-0.1-0.5C19.5,26.5,19.2,26.5,19.2,26.7L19.2,26.7z"/>
							<path id="SvgjsPath3705" class="st28" d="M20.8,24.8c-0.3,0.2-0.7,0-1-0.4c-0.3-0.4-0.2-0.8,0.1-1c0.3-0.2,0.7,0,1,0.4
								C21.1,24.1,21.1,24.6,20.8,24.8z"/>
						</g>
					</g>
				</g>
				<g id="svga-group-eyesfront-left_1_">
					<path id="SvgjsPath3370" class="st1" d="M19.3,33.8c1.4,4.8,3.2,10,7.6,10.1s9.5-3.1,9.5-9.5c0.1-7.2-4.5-10-8.8-10.1
						C23.2,24.2,17.3,26.6,19.3,33.8z M21.8,33.6c-0.1-0.5-0.1-0.6-0.1-1.1c0.9-0.5,1.7-0.7,2.5-0.8c0.9-0.2,2.9-0.4,4.4-0.1
						c2,0.3,3.4,1.5,4.6,3.4c0,0,0,0,0,0c0,0,0,0,0,0c0.1,0.4-0.3,0.8-0.9,1c-2,0.3-4,0.6-6.1,0.4C22.1,35.9,22,34.1,21.8,33.6z"/>
					
						<radialGradient id="SvgjsPath3371_1_" cx="26.2251" cy="-25.6869" r="7.2826" fx="31.9672" fy="-26.1493" gradientTransform="matrix(2.4991 0.4463 -0.4721 1.8545 -49.085 69.2086)" gradientUnits="userSpaceOnUse">
						<stop  offset="0" style="stop-color:#E1AC8F"/>
						<stop  offset="0.7" style="stop-color:#E1AC8F;stop-opacity:0.3"/>
						<stop  offset="1" style="stop-color:#F0C7B1;stop-opacity:0"/>
					</radialGradient>
					<path id="SvgjsPath3371" class="st29" d="M27.5,38.8c4,0.6,7.6-1.3,8.2-4.2c0.6-2.9-2.2-5.8-6.1-6.4c-4-0.6-7.6,1.3-8.2,4.2
						C20.8,35.3,23.5,38.2,27.5,38.8z M21.7,32.6c0.9-0.5,1.7-0.7,2.5-0.8c0.9-0.2,2.9-0.4,4.4-0.1c2,0.3,3.4,1.5,4.6,3.4
						c0,0,0,0,0,0c0,0,0,0,0,0c0.1,0.4-0.3,0.8-0.9,1c-2,0.3-4,0.6-6.1,0.4c-4.1-0.5-4.2-2.4-4.4-2.8C21.7,33.2,21.7,33,21.7,32.6z"
						/>
					
						<radialGradient id="SvgjsPath3376_1_" cx="14.9049" cy="89.445" r="11.2121" gradientTransform="matrix(1.8184 -0.2348 -0.3003 -1.5563 26.3272 181.1491)" gradientUnits="userSpaceOnUse">
						<stop  offset="0.95" style="stop-color:#000000;stop-opacity:0"/>
						<stop  offset="1" style="stop-color:#000000;stop-opacity:0.2"/>
					</radialGradient>
					<path id="SvgjsPath3376" class="st30" d="M21.8,33.6c-0.1-0.5-0.1-0.6-0.1-1.1c0.9-0.5,1.7-0.7,2.5-0.8
						c0.9-0.2,2.9-0.4,4.4-0.1c2,0.3,3.4,1.5,4.6,3.4c0,0,0,0,0,0c0,0,0,0,0,0c0.1,0.4-0.3,0.8-0.9,1c-2,0.3-4,0.6-6.1,0.4
						C22.1,35.9,22,34.1,21.8,33.6z"/>
					<path id="SvgjsPath3380" class="st17" d="M28.4,30.5c1.4,0.2,2.8,0.9,4.1,1.7c0.3,0.2,0.6,0.4,1.1,0.6c-0.4-0.1-0.7-0.3-1-0.4
						c0.3,0.3,0.6,0.7,0.8,1c-1.1-1.3-3.1-2.4-4.9-2.7c-1.7-0.3-4.7-0.1-6.9,0.9C23.7,30.4,26.7,30.2,28.4,30.5z"/>
					<path id="SvgjsPath3381" class="st31" d="M33.2,35c-1.2-1.9-2.6-3-4.6-3.3c-2.1-0.3-4.8-0.1-6.4,0.8c-0.1,0.1-0.7,0.5-0.6,0
						c0.4-0.5,1.8-1.1,2.6-1.3C32.1,29.3,33.6,35.7,33.2,35z M21.7,33.5c-0.3,0.9,0.4,2.8,4.3,3.2c2.8,0.3,6.7-0.7,6.3-0.7
						c-2,0.3-4,0.6-6.1,0.4C21.5,35.8,22.1,33.6,21.7,33.5z"/>
				</g>
			</g>
			<g id="svga-group-eyes-right_1_" transform="translate(-1.0000000005838672e-7 0)">
				<g id="svga-group-eyesback-right_1_">
					
						<radialGradient id="SvgjsPath3353_1_" cx="28.9072" cy="55.7748" r="5.6618" gradientTransform="matrix(2.8086 -1.515649e-02 1.495401e-02 -2.3502 -32.3531 165.65)" gradientUnits="userSpaceOnUse">
						<stop  offset="0" style="stop-color:#FFFFFF"/>
						<stop  offset="0.544" style="stop-color:#FDFEFE"/>
						<stop  offset="0.74" style="stop-color:#F6F8F9"/>
						<stop  offset="0.879" style="stop-color:#EAEFF2"/>
						<stop  offset="0.992" style="stop-color:#D9E3E8"/>
						<stop  offset="1" style="stop-color:#D8E2E7"/>
					</radialGradient>
					<path id="SvgjsPath3353" class="st32" d="M48.3,31.6c-2,0.3-3.4,1.5-4.6,3.4c0,0,0,0,0,0c0,0,0,0,0,0c-0.1,0.4,0.3,0.8,0.9,1
						c2,0.3,4,0.6,6.1,0.4c4.1-0.5,4.2-2.4,4.4-2.8c0.1-0.5,0.1-0.6,0.1-1.1c-1-0.6-1.7-0.7-2.5-0.9C51.8,31.5,49.8,31.4,48.3,31.6z
						"/>
				</g>
				<g id="svga-group-eyesiriswrapper-right_1_" transform="translate(-0.25 0)">
					<g id="svga-group-eyesiriscontrol-right_1_">
						<g id="svga-group-eyesiris-right_1_" transform="matrix(0.84999926 0 0 0.84999926 18.900103539733422 12.599956301628637)">
							<path id="SvgjsPath3706" class="st23" d="M38.8,25.9c-0.4,1.4-1.8,2.2-3.1,1.8c-1.4-0.4-2.2-1.8-1.8-3.1
								c0.4-1.4,1.8-2.2,3.1-1.8C38.4,23.1,39.2,24.5,38.8,25.9z"/>
							<path id="SvgjsPath3707" class="st24" d="M38.7,25.4c-0.2,1.5-1.3,2.3-2.5,2.2c-1.1-0.1-2.2-0.9-2.2-2.4
								c0.4-0.1,0.9,0.1,1.4,0c0,0,0,0,0,0c0,0.6,0.4,1,1,1.1c0.6,0,1.1-0.4,1.1-0.9c0-0.1,0-0.1,0-0.2
								C37.8,25.3,38.3,25.2,38.7,25.4z"/>
							<path id="SvgjsPath3708" class="st25" d="M36.7,24.3c-0.6-0.2-1.1,0.2-1.3,0.7c-0.1,0.6,0.2,1.1,0.8,1.3
								c0.6,0.2,1.1-0.2,1.3-0.7C37.6,25.1,37.3,24.5,36.7,24.3z"/>
							<path id="SvgjsPath3709" class="st26" d="M36.7,24.3c-0.6-0.2-1.1,0.2-1.3,0.7c-0.1,0.6,0.2,1.1,0.8,1.3
								c0.6,0.2,1.1-0.2,1.3-0.7C37.6,25.1,37.3,24.5,36.7,24.3z"/>
							<path id="SvgjsPath3710" class="st27" d="M35.1,26.8c-0.1,0.2-0.3,0.1-0.3-0.1c0.1-0.2,0.2-0.3,0.3-0.5
								c0.1-0.2,0.4,0,0.3,0.2C35.3,26.5,35.2,26.6,35.1,26.8L35.1,26.8z M35.6,26.5c-0.1,0.1-0.2,0.4-0.2,0.6
								c-0.1,0.2,0.2,0.3,0.3,0.1c0-0.1,0.1-0.4,0.2-0.4C35.9,26.5,35.7,26.3,35.6,26.5L35.6,26.5z M36.2,27.4
								c0.2-0.2,0.1-0.4,0.1-0.6c0-0.2-0.3-0.2-0.3,0c0,0.1,0,0.3,0,0.4C35.9,27.3,36.1,27.5,36.2,27.4L36.2,27.4z M36.5,26.7
								c0,0.2,0,0.4,0.1,0.5c0.1,0.2,0.3,0.1,0.3-0.1c0-0.2-0.1-0.3-0.1-0.5C36.8,26.5,36.5,26.5,36.5,26.7L36.5,26.7z"/>
							<path id="SvgjsPath3711" class="st28" d="M38.1,24.8c-0.3,0.2-0.7,0-1-0.4c-0.3-0.4-0.2-0.8,0.1-1c0.3-0.2,0.7,0,1,0.4
								C38.4,24.1,38.4,24.6,38.1,24.8z"/>
						</g>
					</g>
				</g>
				<g id="svga-group-eyesfront-right_1_">
					<path id="SvgjsPath3391" class="st1" d="M49.3,24.3c-4.4,0.2-8.9,3-8.8,10.1c0.1,6.4,5.2,9.7,9.5,9.5c4.4-0.2,6.9-7.4,7.6-10.1
						C59.3,26.5,53.7,24.2,49.3,24.3z M50.7,36.5c-2.1,0.3-4-0.1-6.1-0.4c-0.6-0.3-1-0.6-0.9-1c0,0,0,0,0,0c0,0,0,0,0,0
						c1.2-1.9,2.6-3.1,4.6-3.4c1.5-0.2,3.5,0,4.4,0.1c0.8,0.2,1.6,0.3,2.5,0.8c0,0.5,0,0.6-0.1,1.1C54.9,34.1,54.8,35.9,50.7,36.5z"
						/>
					
						<radialGradient id="SvgjsPath3392_1_" cx="114.0564" cy="-46.8451" r="7.2822" fx="119.7986" fy="-47.3072" gradientTransform="matrix(-2.4991 0.4463 0.4721 1.8545 355.4457 69.251)" gradientUnits="userSpaceOnUse">
						<stop  offset="0" style="stop-color:#E1AC8F"/>
						<stop  offset="0.7" style="stop-color:#E1AC8F;stop-opacity:0.3"/>
						<stop  offset="1" style="stop-color:#F0C7B1;stop-opacity:0"/>
					</radialGradient>
					<path id="SvgjsPath3392" class="st33" d="M55.5,32.4c-0.6-2.9-4.2-4.8-8.2-4.2c-4,0.6-6.7,3.5-6.1,6.4c0.6,2.9,4.2,4.8,8.2,4.2
						C53.3,38.2,56.1,35.3,55.5,32.4z M55.1,33.6c-0.2,0.5-0.3,2.3-4.4,2.8c-2.1,0.3-4-0.1-6.1-0.4c-0.6-0.3-1-0.6-0.9-1
						c0,0,0,0,0,0c0,0,0,0,0,0c1.2-1.9,2.6-3.1,4.6-3.4c1.5-0.2,3.5,0,4.4,0.1c0.8,0.2,1.6,0.3,2.5,0.8C55.2,33,55.2,33.2,55.1,33.6
						z"/>
					
						<radialGradient id="SvgjsPath3397_1_" cx="138.4672" cy="70.8097" r="11.2121" gradientTransform="matrix(-1.8184 -0.2348 0.3003 -1.5563 280.8293 181.1561)" gradientUnits="userSpaceOnUse">
						<stop  offset="0.95" style="stop-color:#000000;stop-opacity:0"/>
						<stop  offset="1" style="stop-color:#000000;stop-opacity:0.2"/>
					</radialGradient>
					<path id="SvgjsPath3397" class="st34" d="M55.1,33.6c0.1-0.5,0.1-0.6,0.1-1.1c-0.9-0.5-1.7-0.7-2.5-0.8
						c-0.9-0.2-2.9-0.4-4.4-0.1c-2,0.3-3.4,1.5-4.6,3.4c0,0,0,0,0,0c0,0,0,0,0,0c-0.1,0.4,0.3,0.8,0.9,1c2,0.3,4,0.6,6.1,0.4
						C54.8,35.9,54.9,34.1,55.1,33.6z"/>
					<path id="SvgjsPath3401" class="st17" d="M48.5,30.5c-1.4,0.2-2.8,0.9-4.1,1.7c-0.3,0.2-0.6,0.4-1.1,0.6c0.4-0.1,0.7-0.3,1-0.4
						c-0.3,0.3-0.6,0.7-0.8,1c1.1-1.3,3.1-2.4,4.9-2.7c1.7-0.3,4.7-0.1,6.9,0.9C53.2,30.4,50.2,30.2,48.5,30.5z"/>
					<path id="SvgjsPath3402" class="st31" d="M52.8,31.3c0.7,0.2,2.2,0.8,2.6,1.3c0.1,0.5-0.5,0-0.6,0c-1.6-0.9-4.4-1.1-6.4-0.8
						c-2,0.3-3.4,1.5-4.6,3.3C43.2,35.7,44.7,29.3,52.8,31.3z M50.7,36.4c-2.1,0.3-4-0.1-6.1-0.4C44.1,36,48,37,50.8,36.7
						c4-0.4,4.6-2.3,4.3-3.2C54.8,33.6,55.3,35.8,50.7,36.4z"/>
				</g>
			</g>
			<g id="svga-group-facehighlight-single_1_">
				
					<radialGradient id="SvgjsPath2885_2_" cx="22.132" cy="50.3835" r="17.5211" gradientTransform="matrix(2.5465 -0.1335 -0.1335 -2.5465 -11.1155 178.0903)" gradientUnits="userSpaceOnUse">
					<stop  offset="0" style="stop-color:#FFE4D6;stop-opacity:0.5"/>
					<stop  offset="0.9" style="stop-color:#F0C7B1;stop-opacity:0"/>
				</radialGradient>
				<path id="SvgjsPath2885_1_" class="st35" d="M56,46.8c0,9.7-7.8,17.5-17.5,17.5c-9.7,0-17.5-7.8-17.5-17.5
					c0-9.7,7.8-17.5,17.5-17.6C48.2,29.3,56,37.2,56,46.8z"/>
				
					<radialGradient id="SvgjsPath2889_2_" cx="22.6583" cy="60.4247" r="15.8114" gradientTransform="matrix(2.5465 -0.1335 -0.1335 -2.5465 -11.1155 178.0903)" gradientUnits="userSpaceOnUse">
					<stop  offset="0" style="stop-color:#FFE4D6;stop-opacity:0.5"/>
					<stop  offset="0.9" style="stop-color:#F0C7B1;stop-opacity:0"/>
				</radialGradient>
				<path id="SvgjsPath2889_1_" class="st36" d="M54.5,21.2c0,8.9-7.2,16-16,16c-8.9,0-16-7.2-16-16s7.2-16,16-16
					C47.4,5.2,54.5,12.3,54.5,21.2z"/>
			</g>
			<g id="svga-group-eyebrows-left_1_" transform="rotate(-10.714285714285715 73.29999542236328 72.24482727050781)">
				<path id="SvgjsPath3712" class="st0" d="M28.6,21.4c13.8-4,16.9,4.2,14,1.6C39.7,20.4,32.8,20.6,28.6,21.4z"/>
			</g>
			<g id="svga-group-eyebrows-right_1_" transform="rotate(10.714285914285714 127 72.04515838623047)">
				<path id="SvgjsPath3713" class="st0" d="M50.6,44.3c-4-0.7-9.7-1-13.2,1.1c-0.4,0.3-2.1,1.7-1.7,0.7
					C36.5,44.2,42,41.8,50.6,44.3z"/>
			</g>
			<g id="svga-group-nose-single_1_">
				<path id="SvgjsPath3111" class="st17" d="M38.4,49.4c-0.4,0-0.8,0-1.2-0.2c-0.4-0.2-0.6-0.2-1-0.4c-0.4-0.1-0.8,0.2-1.2,0.2
					c-0.3,0-0.7-0.1-0.9-0.3c-0.6-0.8,0.1-1.3,0.1-1.3S34,48,34.2,48.3c0.1,0.2,0.3,0.4,0.6,0.5c0.4,0.1,0.8-0.2,1.2-0.2
					c0.5,0,0.8,0,1.1,0.2c0.3,0.3,0.7,0.3,1.1,0.3c0.4,0,0.8,0,1.2-0.1c0.3-0.1,0.6-0.4,0.9-0.5c0.6-0.4,1.1,0.1,1.8,0.3
					c0.5,0.1,1.1-0.4,0.9-1c-0.1-0.3-0.1-0.5-0.1-0.5s0.5,0.2,0.5,0.8c0,0.7-0.6,1.2-1.3,1c-0.3-0.1-0.7-0.3-1.1-0.3
					c-0.4,0.1-0.6,0.1-1,0.3C39.5,49.3,39,49.4,38.4,49.4z"/>
				<path id="SvgjsPath3112" class="st18" d="M35.7,45.2c0,0,1.4-1.9,2.6-2c1.2,0,2.7,1.7,2.7,1.7s-1.4-0.6-2.8-0.5
					C36.9,44.6,35.7,45.2,35.7,45.2z"/>
			</g>
			<g id="svga-group-beardwrap_1_">
				<g id="svga-group-beard-single_1_">
					<path id="SvgjsPath3628" class="st37" d="M38.5,5.9L38.5,5.9L38.5,5.9L38.5,5.9z"/>
				</g>
			</g>
			<g id="svga-group-mustache-single_1_">
				<path id="SvgjsPath3606" class="st37" d="M38.5,5.9L38.5,5.9L38.5,5.9L38.5,5.9z"/>
			</g>
			<g id="svga-group-hair-front_1_">
				<path id="SvgjsPath3576" class="st0" d="M61.2,40.3c-1.9-5.3,0.3-13.5-3.5-19.5c-1.7-2.9-3.2-4.9-3-8.2l-0.2-0.1
					c-0.4,0.6-0.9,1.2-1.2,1.6c0.2-0.5,0.5-1.2,0.7-1.7L54,12.3c-1.1,1.3-2.1,2-3.4,2.4c1.4-1,3-2.7,3.7-3.7l-0.1-0.1
					C49.3,13.9,43.8,14,39,14c-4.4,0-7.1-0.1-10.2-1.9c-2.3,0.8-4.1,0.7-6-0.7c-6.2,11.9-3.4,6-7.1,28.1c-2.1-2.9-2.8-4.7-3.3-7.4
					c-0.1-0.9-0.3-2.2-0.2-3.1l0,0c-1.9-4.2-2.8-6.6-2.3-14.8c0.3-3.4,1.1-6,3.2-8.7c-0.3-1.5-0.3-2.9-0.1-4.4
					c-1.1-2.1-1.9-4.2-2.2-4.9c1.6,1.2,1.7,1.3,3,1.7c0.3-0.8,0.7-1.6,1-2.1c0.1,1,0.2,1.6,0.5,2.5c0.1,0,0.6,0.1,0.7,0.2
					c-0.1-0.6-0.2-0.8-0.2-1.3C16-2.3,16.2-2.1,17-1.3c0.8,0.2,0.6,0.1,0.8,0.1c-1.1-1.8-1.9-3.4-2.1-5.8c1.6,0.9,3.7,1.4,6,1.4
					c5.4,0,10.8-4,18.4-4c6.6,0,12.3,3.7,14.8,7.8c0-1.1,0-2,0.3-3.1c0,0,0,1.6,0,2.8l0.2,0c0.3-1.4,0.8-2.6,1.7-3.7
					c-0.8,2.2-0.5,1-1.4,3.7L56-1.9c0.6-0.8,1.1-1.3,2.6-2.1c-1.1,1.1-1.9,1.7-2.4,2.4l0.1,0.1C57-2,57.6-2.2,58.3-1.7
					c-1.1-0.4-1.7,0.3-2.4,1.1c2.8,0.5,4.4,2.1,6.4,4.3C66.8,9,68,14.1,65.5,21.4c1,2.2,0.9,7.3-1.4,11.4
					C64.1,35.2,62.4,38.2,61.2,40.3z"/>
				<path id="SvgjsPath3577" class="st38" d="M22.4,11.1c0.2,0.1,0.3,0.3,0.5,0.4c-0.1,0-0.1-0.1-0.2-0.1c-6.2,11.9-3.4,6-7.1,28.1
					c-2.1-2.9-2.8-4.7-3.3-7.4c-0.1-0.9-0.3-2.2-0.2-3.1l0,0c-1.9-4.2-2.8-6.6-2.3-14.8c0.3-3.4,1.1-6,3.2-8.7
					c-0.3-1.4-0.3-2.9-0.1-4.3c0.3,0.4,0.5,0.7,0.8,1.1c0.2,1.1,0.3,2.2,0.1,3.1C9.7,18,12,23.8,14.6,32.7
					c-1.1-6.8-3.1-15.5,2.4-20.5c-2.3,5.6-1.7,8.1-1.1,12C16.3,19.1,18.1,14.4,22.4,11.1z M62.2,3.7c-0.2-0.2-0.3-0.3-0.5-0.5
					c-0.2,0.1-0.3,0.2-0.5,0.3c6.4,13.1,0.3,11.8,1.7,17.7c1.7,4.3-0.5,6.8-0.5,11.1c0-6.4-0.3-10.9-3.8-15.9
					c-1.2-1.7-1.5-7.4-2.3-10.3c-9.9,6.1-24.6,7.4-40-4.9c7.3,2.6,22.1,0.6,27.2-2.7c-5.8,1.1-17.9,1.1-23.3-1.1c13-1,12.9-5.2,24-6
					c-5.3-2-17,3.1-22.4,3.1c-2.3,0-4.5-0.5-6-1.4c0.2,2.4,1,4,2.1,5.8c-0.2,0,0,0-0.8-0.1c-0.7-0.9-0.9-1-1.2-1.5
					c0,0.5,0.1,0.8,0.2,1.3c-0.1,0-0.6-0.2-0.7-0.2c-0.3-0.9-0.4-1.6-0.5-2.5c-0.3,0.4-0.7,1.3-1,2.1c-1.3-0.4-1.4-0.5-3-1.7
					c0.3,0.8,1.1,2.9,2.2,4.9c0,0,0,0,0,0.1c2.7,3.9,6.5,7,10,10.3c1.9,1.2,3.7,1.3,5.9,0.6C31.9,13.9,34.6,14,39,14
					c4.8,0,10.3-0.1,15.2-3.2l0.1,0.1c-0.7,1-2.2,2.7-3.7,3.7c1.3-0.4,2.3-1,3.4-2.4l0.1,0.1c-0.3,0.5-0.6,1.3-0.7,1.7
					c0.3-0.4,0.8-1,1.2-1.6l0.2,0.1c-0.3,3.4,1.2,5.3,3,8.2c3.8,6,1.6,14.2,3.5,19.5c1.3-2.1,2.9-5,2.9-7.4
					c2.3-4.1,2.5-9.2,1.4-11.4C68,14.1,66.8,9,62.2,3.7z M62.5,14.7c-0.1-4.1-2.8-9.2-2.8-9.2c-1.3-2.2-2.4-3.3-4.3-3.7
					C60.7,2,62.8,9.9,62.6,14C62.6,14.4,62.5,14.7,62.5,14.7z M50.4-2.5c1.4,1.1,1.7,1.5,3.1,3.4c-7.1-12.8-21.1-3.1-25.5-3.4
					C32.6-1.6,42.7-8.2,50.4-2.5z M54.1,3c-8.5,7.1-21.6,4.1-32.2,0.7C32.5,8.6,46,11.3,54.1,3z M20.5,10.7
					c-2.8,1.5-4.1,5.1-4.2,7.6C16.8,16.2,18.4,12.3,20.5,10.7z M17,8.7c-4,2.4-4.8,8-4.4,12.7C13,17.1,13.8,11.4,17,8.7z M45.8,3.4
					c-0.4,0.1-3.1,0.5-4.6,0.5c-1.1,0.1-5.6,0.1-9.6,0c4.1,0.9,6.6,1,9.6,0.9c3.5-0.1,6.6-0.8,9.1-2.9C48.6,2.8,47.8,3,45.8,3.4z
					 M60.1,14.7c0,0-0.1-0.2-0.3-0.5c-0.4-0.7-0.8-2.4-2.5-8c1.3,10.3,3.3,8.5,4.3,13.8C61.6,18.1,61.5,17.1,60.1,14.7z"/>
				<path id="SvgjsPath3578" class="st39" d="M63.2,27.2c0.2-1.4,0.1-0.8,0.1-1.5c0.1-2.7-1.5-4.9-0.5-8.1c0.8-2.3,1.2-2.7,0.9-6.8
					c-0.1-0.6-0.2-2-0.5-2.6c0.4,0.6,0.6,1.8,0.7,2.5c0.7,4.1,0.1,4.7-0.6,7C62.4,21.2,64.3,22.7,63.2,27.2z M56.3,6.1
					c0.5,13,3.1,10,5.4,17.8C60.1,14.7,58.7,22.4,56.3,6.1z M16.5,12.7c-3.9,4.9-3.5,8.5-2.6,15.8C13.8,21.2,12.9,18.4,16.5,12.7z
					 M13.6,5.7c-2.3,7-2.7,10.1-1.7,17.6C11.8,15.8,11.8,14.1,13.6,5.7z M22.3,11.2c-4.1,3-6.3,8.4-6.4,13
					C16.5,19.8,18.9,14.2,22.3,11.2z M50.9,8.6c-5.1,1.9-13.5,2.4-19.7,0.6C26.4,7.8,19,3.1,15,0.2c3.6,2.9,10,7.2,14.5,8.9
					c4.6,1.7,11.9,2.4,17.6,1c4-1,6-1.9,9.3-3.9C54.8,6.9,52.7,8.1,50.9,8.6z M39.7-6.8c5.2-1,11.3,2.4,14.6,6.3
					c-3.4-4.8-8.9-7.2-12.2-7.3c-5.4-0.1-11,4.5-22,4.9C30.4-2.4,35.3-6.1,39.7-6.8z M43.8-1.4c-7.4,2.6-13.1,3.3-20.9,3.7
					C31,2.8,36.7,2,43.8-1.4z M51.6,0.1C47,2.3,45,2.6,35.6,3.2C41.5,3.5,47,3.1,51.6,0.1z M36.5,6.7C41,7.2,49,6.6,53,2.5
					c-4.8,4.1-13.7,3.9-20.7,3.6C35,6.5,34.5,6.5,36.5,6.7z M56,2.7c3.3,1.2,4.1,6.9,5.3,11.5C60.8,10.2,59.8,3.6,56,2.7z"/>
				<path id="SvgjsPath3579" class="st40" d="M62.3,3.6c-1.9-2-3.5-3.8-6.3-4.3c0.9-1.1,1.5-1.4,2.7-0.8c-0.7-0.8-1.5-1-2.4-0.1
					C56.8-2.3,57.8-3,59-4.3c-1.8,0.8-2.4,1.4-3,2.3c1-2.9,0.6-1.3,1.6-4.2c-1.1,1.2-1.8,2.5-2.1,4.2c0-2.5-0.1-2.2,0-3.3
					c-0.6,1.3-0.5,2.5-0.5,3.2c-1-1.6-2.4-2.9-3.9-4c-10.7-7.8-21.4-0.6-27.2,0.2c-2.3,0.4-5.9,0.1-8.3-1.3c0.2,2.5,0.9,4.1,2,5.8
					c0,0-0.6-0.1-0.6-0.1c-0.9-1-0.9-1-1.3-1.9c-0.1,0.8,0,1.2,0.1,1.6c-0.2-0.1-0.4-0.1-0.5-0.1c-0.3-1-0.4-1.8-0.5-2.7
					c-0.3,0.3-0.8,1.4-1.1,2.2c-1.3-0.4-1.4-0.5-3.2-1.9c0.2,0.4,1,2.8,2.3,5.2c-0.2,1.5-0.1,3,0.1,4.3c-2.1,2.7-2.9,5.3-3.2,8.7
					c-0.4,8.1,0.4,10.5,2.4,14.9c0,0,0,0,0,0c-0.1,0.8,0.1,2.2,0.2,3.1c0.5,2.7,1.1,4.6,3.4,7.5c0,0,0,0,0,0
					c1.5-8.7,1.3-8.9,1.6-11.1c1.5-11,1.5-9.3,5.5-17.1c1.6,1.1,3.4,1.5,6,0.7c1.9,1.1,3.8,1.9,9,1.9c5.2-0.1,11.2,0.2,16.5-3.2
					c-0.8,1.1-2.6,3.1-4,3.9c1.5-0.3,2.6-0.9,3.9-2.5c-0.4,0.8-0.9,2.1-0.9,2.2c0.1-0.1,0.9-1.1,1.5-2c-0.3,3.4,1.2,5.4,3,8.3
					c3.8,6.1,1.5,14.3,3.6,19.6c1.3-2.1,3-5.2,3-7.6c2.2-3.9,2.5-9,1.4-11.4C67.8,14.8,67.4,9.5,62.3,3.6z M15.8-2.9
					C16-2.3,16-2.4,16.8-1.4c-0.4-0.1-0.7-0.1-0.9-0.2C15.8-2,15.8-2.5,15.8-2.9z M14.7-4.1c0,0.7,0.2,1.5,0.4,2.3
					c-1.2-0.3-0.8-0.2-1.2-0.3C14.3-3.2,14.4-3.5,14.7-4.1z M15.4,38.8c-1.8-3.2-2.3-4.4-2.8-7.6c0-0.4-0.2-1.5-0.2-2
					C9.9,23.2,8.9,11.9,13,5.7c0,0,0,0,0,0s0.2-0.3,0.5-0.6c-0.1-0.6-0.2-1.8-0.2-3.1c0.3,0.6,0.7,1.1,1,1.6c0,0,0.3,0.3,0.3,0.3
					c1.9,2.5,3.7,4.5,8.1,7.6C17.4,19.9,17.7,17,15.4,38.8z M65.7,18.7c-0.2,1-0.5,2.4-0.7,3c1.2,3-0.1,8.7-1.3,11.3
					c-0.5,3-1.1,3.6-2.6,6.7c-1.1-4.7,1.1-13-2.9-19.3c-2.6-4.3-3.7-4.9-3.1-10.2c0,0,0-0.3,0-0.4c-5.4,3.3-11.4,3.7-19.2,3.5
					c-2.3,0-5.3-0.3-7.3-1.5c-3.9,1.1-5.3-0.6-8.6-3.1c-3.5-3-5.9-5.6-8.8-11.7c1.6,1.3,4.9,2,7,2.4c-1.4-1.9-2.2-3.6-2.6-6
					c1.5,1,5.1,2,8.2,1.6c5.8-0.5,13.9-6.5,23.8-2c4.6,2,7,4.9,7.5,6.4c0,0,0,0,0,0c0,0,0.1,0,0.1,0c0,0,0.1,0,0.2,0
					c3,1,3.2,1.2,6.1,4.5C63.3,6.1,67.2,10.1,65.7,18.7z"/>
			</g>
			<g id="svga-group-glasses-single_1_">
				<path id="SvgjsPath3697" class="st41" d="M18.3,31.9c5,1.4,12.1-0.1,17.1,3.1c0,0.2-0.1,0.4-0.1,0.6c-0.3,1.2-1.4,2.1-2.7,2.3
					c-3.6,0.6-9.6,0.6-13.2,0.3c-0.5,0-0.9-0.4-1-0.9C18.1,35.4,17.9,33.8,18.3,31.9z M41.4,32.5c0,1.1,0.1,2,0.4,3
					c0.3,1.2,1.4,2.1,2.7,2.3c3.6,0.6,9.6,0.6,13.2,0.3c0.5,0,0.9-0.4,1-0.9c0.1-0.7,0.2-1.4,0.3-2.1c-5-3.4-12.3-1.9-17.5-3.3
					C41.4,32.1,41.4,32.3,41.4,32.5z"/>
				<path id="SvgjsPath3698" class="st42" d="M35.7,32.5c0,0.9-0.1,1.7-0.2,2.5c-5-3.1-12.1-1.7-17.1-3.1c0-0.1,0-0.1,0-0.2
					c0.1-0.5,0.6-0.9,1.1-1c5.4-0.5,9.1-0.5,14.5,0C34.9,30.8,35.7,31.5,35.7,32.5z M58.7,31.7c-0.1-0.5-0.6-0.9-1.1-1
					c-5.4-0.5-9.1-0.5-14.5,0c-0.8,0.1-1.4,0.5-1.6,1.2c5.1,1.4,12.5-0.1,17.5,3.3C59,34.1,59,33,58.7,31.7z"/>
				<path id="SvgjsPath3699" class="st43" d="M61.2,31.8h-2.2c0,0,0-0.1,0-0.1c-0.1-0.6-0.7-1.1-1.3-1.1c-5.5-0.5-9.2-0.5-14.5,0
					c-0.1,0-0.1,0-0.2,0l0,0c0,0-0.1,0-0.1,0c0,0-0.1,0-0.1,0c-0.5,0.1-1.5,0.3-2.3,0.3c-1.7,0.1-2,0-3.6,0c-0.8,0-1.8-0.2-2.3-0.3
					c0,0-0.1,0-0.1,0c-0.1,0-0.1,0-0.1,0l0,0c-0.1,0-0.1,0-0.2,0c-5.3-0.4-9-0.5-14.5,0c-0.7,0.1-1.2,0.5-1.3,1.1c0,0,0,0.1,0,0.1
					h-2.2V33h2c-0.1,0.7-0.1,1.4,0,2.1h0.5c-0.1-1.1,0-2.2,0.2-3.4c0.1-0.4,0.5-0.8,0.9-0.8c2.7-0.3,5-0.4,7.3-0.4
					c2.1,0,4.3,0.1,7.2,0.3c0.9,0.1,1.5,0.7,1.5,1.5c0,0.9-0.1,1.8-0.3,2.7h0.5c0.2-0.9,0.3-1.7,0.3-2.7c0-0.3-0.1-0.5-0.2-0.8
					c0.1,0,0.4-0.1,0.6-0.1c1.1-0.1,3.4-0.1,4.3,0c0.3,0,0.5,0.1,0.6,0.1c-0.1,0.2-0.2,0.5-0.2,0.8c0,1,0.1,1.8,0.3,2.7h0.5
					c-0.2-0.9-0.3-1.7-0.3-2.7c0-0.8,0.6-1.5,1.5-1.5c2.9-0.2,5.1-0.3,7.2-0.3c2.3,0,4.6,0.1,7.3,0.4c0.5,0,0.9,0.4,0.9,0.8
					c0.3,1.2,0.3,2.3,0.2,3.4h0.4c0.1-0.7,0-1.4,0-2.1h2V31.8z"/>
			</g>
		</g>
	</g>
	<rect id="SvgjsRect1036" x="9" y="84.9" class="st44" width="85.5" height="6.4"/>
</g>
</svg>
