<?xml version="1.0" encoding="utf-8"?>
<!-- Generator: Adobe Illustrator 21.0.0, SVG Export Plug-In . SVG Version: 6.00 Build 0)  -->
<svg version="1.1" id="Layer_1" xmlns="http://www.w3.org/2000/svg" xmlns:xlink="http://www.w3.org/1999/xlink" x="0px" y="0px"
	 viewBox="0 0 300 300" style="enable-background:new 0 0 300 300;" xml:space="preserve">
<style type="text/css">
	.st0{fill:#EFE1BC;}
	.st1{fill:#D0B87A;}
	.st2{fill:#F3D4CF;}
	.st3{fill:#FFF4F3;}
	.st4{fill:#E4B3AB;}
	.st5{fill:none;stroke:#C5796D;stroke-width:1.5;}
	.st6{fill:url(#SvgjsPath3722_1_);}
	.st7{fill:#0F0F0F;}
	.st8{fill:#F3D4CF;stroke:#C5796D;stroke-width:1.5;}
	.st9{fill:#C5796D;}
	.st10{fill:#EBC3BD;}
	.st11{fill:url(#SvgjsPath3744_1_);}
	.st12{fill:#F771A9;stroke:#E85391;stroke-width:0.75;}
	.st13{fill:#C92066;}
	.st14{fill:#FF8EBD;}
	.st15{fill:#FFA8CC;}
	.st16{fill:url(#SvgjsPath3473_1_);}
	.st17{fill:#4E60A3;}
	.st18{fill:url(#SvgjsPath3532_1_);}
	.st19{fill:url(#SvgjsPath3536_1_);}
	.st20{opacity:0.9;enable-background:new    ;}
	.st21{opacity:0.5;fill:url(#SvgjsPath3542_1_);enable-background:new    ;}
	.st22{opacity:0.5;fill:url(#SvgjsPath3546_1_);enable-background:new    ;}
	.st23{opacity:0.75;fill:url(#SvgjsPath3550_1_);enable-background:new    ;}
	.st24{fill:url(#SvgjsPath3499_1_);}
	.st25{fill:url(#SvgjsPath3504_1_);}
	.st26{fill:url(#SvgjsPath3481_1_);}
	.st27{fill:url(#SvgjsPath3555_1_);}
	.st28{fill:url(#SvgjsPath3559_1_);}
	.st29{opacity:0.5;fill:url(#SvgjsPath3565_1_);enable-background:new    ;}
	.st30{opacity:0.5;fill:url(#SvgjsPath3569_1_);enable-background:new    ;}
	.st31{opacity:0.75;fill:url(#SvgjsPath3573_1_);enable-background:new    ;}
	.st32{fill:url(#SvgjsPath3520_1_);}
	.st33{fill:url(#SvgjsPath3525_1_);}
	.st34{fill:#2A232B;}
	.st35{opacity:0.2;fill:#FFFFFF;enable-background:new    ;}
	.st36{opacity:0.1;fill:#FEF6E1;enable-background:new    ;}
	.st37{fill:#FEF6E1;}
	.st38{fill:#DFCC99;}
	.st39{fill:#FFFEFB;}
	.st40{opacity:0.5;fill:#26120B;enable-background:new    ;}
	.st41{opacity:0.4;fill:#FFFFFF;enable-background:new    ;}
	.st42{fill:#26120B;}
	.st43{display:none;opacity:0.5;fill:#ECF0F1;enable-background:new    ;}
</style>
<g id="svga-group-wrapper" transform="scale(3 3)">
	<g id="svga-group-subwrapper" transform="matrix(0.84999948 0 0 0.84999948 14.849997513767534 17.200317882566836)">
		<g id="svga-group-hair-back">
			<path id="SvgjsPath3810" class="st0" d="M67.8,31.7c0.6-2.2,1-4.6,1.1-6.6h5.4c0.9,1.9,1.2,2.9,1.9,3.7c-0.9-0.3-1.9-0.7-3.6-2.3
				c0.1,0.4,2,5.8,2.1,6.7c-1.5-1.3-2.2-2.8-3.1-3.7c0.6,3.9,0.9,6-1.2,11C68.9,33.1,68.1,31.9,67.8,31.7z M10.7,25.7
				c-0.1,4.2-1.3,7.3-5.7,11c1.4-0.4,2.6-1.1,4.9-2.3c0.3-1,0.7-2.1,0.9-3.2c-0.3,3.6-2.6,6.3-0.6,10.6c0.3-3.6,1.5-6.2,4.7-8.3
				c-0.1,0.1-0.3,0.2-0.7,0.6c0.3-0.3,0.7-0.6,1.1-0.8C14.5,31,14,27.7,14,25.9h-3.3C10.7,25.9,10.7,25.7,10.7,25.7z M10.2,28.9
				c-0.7-0.9-1.3-2.2-1.7-3.1h2.1C10.6,26.4,10.5,27.8,10.2,28.9z"/>
			<path id="SvgjsPath3811" class="st1" d="M75.8,28.5c-0.6-0.9-1.1-1.9-1.5-2.9h0.6c0.4,1.1,1,2.3,1.7,3.4c-1.7-0.4-2.4-1-3.7-2.2
				c1.4,3.6,1.8,5.5,2.4,6.9c-2.1-1.3-2.4-2.9-3.5-4.1c0.7,3.6,1.4,6.5-1.7,11.7c0-2.9-0.6-6.5-1.7-9.3c1.5,1.4,1.8,6.3,1.9,7.9
				c0.4-1.1,0.9-2.3,1.2-3.4c0.8-3.1,0.1-6-0.1-7.4c0.9,0.6,1.9,2.8,3.2,3.9c-0.9-2.1-0.9-3.1-2.5-7.3
				C73.3,27.1,74.5,27.9,75.8,28.5z M9.8,41.5c-1.5-3.7,0.3-6.5,0.7-10.3c-0.1,1-0.6,2.1-0.9,3.1c-2.2,1.2-3.1,1.9-4.5,2.3
				c4.4-3.6,5.4-6.5,5.5-10.7l0,0c-0.1,0.7-0.2,1.8-0.4,2.8c-0.7-0.9-1.2-2-1.4-2.9H8.2c0.3,1.1,1,2.3,1.9,3.3
				c-0.8,3.3-3.2,5.7-5.6,7.9c1.5,0,3.6-1.3,5.1-2.2c-1,2.6-1,5,0.9,8.2c-0.1-5,2.4-7.9,3.7-9c0.3-0.2,0.6-0.4,0.7-0.6
				C11.5,35.6,10.2,37.9,9.8,41.5z"/>
		</g>
		<g id="svga-group-humanbody-single">
			<path id="SvgjsPath2761" class="st2" d="M83.7,84.4c-2.8-4.7-6.3-5.6-9.2-6.5c-3-1-9-1.4-12.3-2.2C59,75,51.4,72.9,51.3,69.4
				c-0.1-3.7,2-18.7,2-18.7H29.1c0,0,2.1,15,2,18.7C31,73,23.4,75,20.2,75.7c-3.3,0.7-9.4,1.2-12.3,2.2c-2.9,0.9-6.4,1.8-9.2,6.5
				c-1.7,2.9-2.8,7.5-2.8,12.7h90.6C86.6,91.9,85.5,87.3,83.7,84.4z"/>
			<path id="SvgjsPath2762" class="st3" d="M51.3,69.4c1.2,5.1,8.5,6.4,12.2,7.2c10.3,2.1,15.8,2.4,19.7,9.2
				C84.6,88,85.8,93.1,86,97c0.9,0.1,0.2-8.2-2.4-12.6c-4.5-7.7-13.6-7.1-21.5-8.7C59,75,51.4,72.9,51.3,69.4L51.3,69.4z M31.2,69.4
				c-0.1,3.6-7.7,5.6-10.9,6.3c-7.9,1.5-17,1-21.5,8.7C-3.9,88.8-4.5,97.1-3.6,97c0.2-3.9,1.4-9,2.8-11.2c4-6.7,9.5-7.1,19.7-9.2
				C22.7,75.8,30.1,74.5,31.2,69.4L31.2,69.4z"/>
			<path id="SvgjsPath2763" class="st4" d="M18.4,79.5c0,0,13.3,0.1,15.7,0.9C35.2,80.7,38,83,38,83s-3.1-1.4-4.1-1.8
				C31.7,80.6,18.4,79.5,18.4,79.5z M41.1,84.4c1,0,3.6-1.8,3.6-1.8s-2.6,1-3.4,1c-0.7,0-3-0.6-3-0.6S40.4,84.4,41.1,84.4z M49.2,81
				c3.2-0.9,13.9-1.5,13.9-1.5s-11-0.1-14.2,0.9c-1.1,0.3-3.5,2.4-3.5,2.4S48.2,81.3,49.2,81z"/>
			<path id="SvgjsPath2764" class="st5" d="M83.7,84.4c-4.5-7.7-13.6-7.1-21.5-8.7C59,75,51.4,72.9,51.3,69.4
				c-0.1-3.7,2-18.7,2-18.7H29.1c0,0,2.1,15,2,18.7C31,73,23.4,75,20.2,75.7c-3.3,0.7-9.4,1.2-12.3,2.2c-2.9,0.9-6.4,1.8-9.2,6.5
				c-1.7,2.9-2.8,7.5-2.8,12.7h90.6C86.6,91.9,85.5,87.3,83.7,84.4z"/>
		</g>
		<g id="svga-group-chinshadow-single">
			
				<linearGradient id="SvgjsPath3722_1_" gradientUnits="userSpaceOnUse" x1="23.4187" y1="22.0886" x2="23.4187" y2="38.4126" gradientTransform="matrix(16.5814 0 0 -16.5814 -347.1136 437.2441)">
				<stop  offset="0" style="stop-color:#E4B3AB;stop-opacity:0.8"/>
				<stop  offset="0.7" style="stop-color:#C5796D"/>
			</linearGradient>
			<path id="SvgjsPath3722" class="st6" d="M39.7,71.5c0.9,0.4,2.3,0.4,3.2,0c1.9-1,5.1-3,8.3-5.2c0.3-3.5,0.9-8.7,1.3-12.1
				c-6.7-0.7-15.9-0.7-22.6,0c0.4,3.4,1.1,8.5,1.3,12C34.5,68.5,37.8,70.5,39.7,71.5z"/>
		</g>
		<g id="svga-group-clothes-single">
			<path id="SvgjsPath3837" d="M11.8,97.1C6.1,97-4.4,96.9-4.4,96.9C-4.8,90.7-3.2,84,2,80.3c6-4.2,12.6-3.5,17.6-5
				c0.4,0.4,3.3,2.4,7.4,4.2c8.4,3.7,16.6,5.6,31.3,8.8c3.3-10.1,4-12.7,4.1-13.2H63c0.4,0,0.6,0,0.9,0.3c0.7-0.3,1.4-0.1,1.8,0.3
				C64.2,81.5,67.5,96,67.5,97C59.2,97,51.1,97.4,11.8,97.1z"/>
			<path id="SvgjsPath3838" class="st7" d="M-4.4,96.9c-0.4-6.1,1.5-12.8,6.6-16.4c6-4.2,12.2-3.5,17.4-4.9c0.1,0.1,0.8,0.4,1,0.6
				C2.8,78-3.5,84.2-4.4,96.9z M65.6,75.8c-0.1-0.1-0.1-0.2-0.2-0.2c-0.2-0.1-0.4-0.2-0.7-0.2c-0.2,0-0.6,0-0.8,0.1
				c-0.2-0.1-0.3-0.2-0.4-0.2c-0.1,0-0.2,0-0.4,0l0,0c-0.1,0-0.6,0-0.6,0c0,0.1,0.2-0.2,0,0.3c0.2,1.1-0.4,3-1.5,10.3
				c2.2-7.8,2.3-9.6,3.1-10c0.8,0.7-0.3,6.2,0.7,12.3C64.5,84,64.6,76.5,65.6,76C65.6,75.7,65.5,76.1,65.6,75.8z M16.7,76.7
				c4.6,5.2,6.4,6.5,16.4,10.3C22.9,82.2,22.7,82.4,16.7,76.7z M19.3,76.2c6.8,7.2,16.1,9.9,30.4,13.9C34,84.9,26,82.7,19.3,76.2z"
				/>
			<path id="SvgjsPath3839" d="M63.8,75.5c-0.1-0.1-0.3-0.2-0.6-0.2c-0.3-0.1-1,0-1,0c-0.9,4.4-2.6,8.9-4.1,13.1
				c-13-2.9-29.2-6.1-38.7-13c-7.1,1.9-24.8-0.1-24,21.4c0,0.1,0,0.1,0,0.2l26.5,0.3C34.8,97.4,67.2,97,67.6,97c0-4.3-3-14.6-2-21.2
				C65.3,75.4,64.5,75.1,63.8,75.5z M67.4,96.7C42,96.1,10,96.2-4.3,96.6c0.4-20.8,16.5-18.7,24.1-20.7c9.7,7.4,26.2,10.5,38.4,12.6
				C57.7,90,56.9,92.3,56,94c2.1-3.5,5.7-13.8,6.4-18.5c0.7-0.1,1.2,0.1,1.3,0.2c-0.7,3.7-1,7.5-1.7,11.2c1-4.7,1-5.6,2-11.4
				c0.2,0,0.6,0,0.8,0c0.2,0.1,0.3,0.2,0.4,0.3C64.5,80.3,65.9,88.4,67.4,96.7z"/>
		</g>
		<g id="svga-group-head">
			<g id="svga-group-ears-left">
				<path id="SvgjsPath3756" class="st8" d="M16.5,30.2c-0.7-1.1-2.6-3.7-4.6-3.1c-1.3,0.4-1.5,1.8-1.8,3c-0.2,1.5,0.2,4.7,0.7,5.8
					c0.4,1.1,1.7,3.2,2.4,4c1,1,2.2,4.1,2.4,4.4c0.3,0.6,0.8,1.3,1.9,1.2c1.3-0.1,2.1-0.8,2.8-0.9C21.7,44.3,18.2,33,16.5,30.2z"/>
				<path id="SvgjsPath3757" class="st9" d="M15.2,36.8c-0.1-0.2,0-0.7,0.1-1.1c0.1-0.3,0.1-0.8,0.1-1c-0.1-1-0.9-2.8-1.3-3.7
					c-0.6-1.1-1.4-2.5-2.4-2.9c-0.4-0.1-0.8,0-0.9,0.2c-0.1,0.1-0.1,0.3-0.1,0.3s0.1-0.1,0.2-0.2c0.1-0.1,0.2-0.2,0.4-0.2
					c-0.1,0.4-0.6,3.1-0.3,4.7c0.1,1.3,0.8,2.4,0.9,2.5c0,0.1,0,0.3,0.1,0.4c0.4,2,2.3,4.3,3,5.1c0.1,0.1,0.2,0.2,0.3,0.2
					c0,0,0-0.2-0.1-0.3c-0.7-0.8-2.5-3-3-5c-0.4-2.1,1.1-5.1,1.4-5.7c0.2,0.3,0.3,0.6,0.4,0.9c0.1,0.2,0.2,0.4,0.3,0.7
					c-0.2,0.3-1.7,2.8-1.1,4.7c0.2,0.8,1,1.7,1.7,1.9c0.3,0.1,0.4,0.3,0.6,0.6c0.1,0.3,0.3,0.6,0.9,0.9c0.1,0,0.2,0.1,0.3,0.1
					s0.2-0.1,0.3-0.1c0,0.1,0,0.3,0,0.4c0,0.2,0,0.3,0.1,0.3c0,0,0.1-0.1,0.1-0.3s0-0.6,0-0.7c-0.1-0.4-0.4-0.9-0.9-1.3
					C15.7,37.7,15.3,37.1,15.2,36.8z M11.8,35c-1-3.2,0.3-5.8,0.6-6.3c0.4,0.3,0.8,0.9,1,1.3C13.1,30.4,11.8,32.8,11.8,35z
					 M16.2,39.5c-0.4-0.2-0.7-0.4-0.8-0.8c-0.1-0.2-0.3-0.6-0.7-0.7c-0.1,0-0.1-0.1-0.2-0.1c-1.2-2.8,0.1-4,0.4-4.2
					c0.1,0.3,0.2,0.7,0.2,0.9s0,0.6-0.1,1c0,0.5,0,0.9,0,1.3c0.1,0.4,0.6,1,0.9,1.4c0.3,0.4,0.7,0.9,0.8,1.2
					C16.7,39.5,16.5,39.7,16.2,39.5z"/>
			</g>
			<g id="svga-group-ears-right">
				<path id="SvgjsPath3758" class="st8" d="M65.9,30.2c0.7-1.1,2.6-3.7,4.6-3.1c1.3,0.4,1.5,1.8,1.8,3c0.2,1.5-0.2,4.7-0.7,5.8
					c-0.4,1.1-1.7,3.2-2.4,4c-1,1-2.2,4.1-2.4,4.4c-0.3,0.6-0.8,1.3-1.9,1.2c-1.3-0.1-2.1-0.8-2.8-0.9C60.6,44.3,64.3,33,65.9,30.2z
					"/>
				<path id="SvgjsPath3759" class="st9" d="M66.4,38.1c-0.3,0.4-0.8,1-0.9,1.3c0,0.1,0,0.4,0,0.7c0,0.2,0,0.3,0.1,0.3
					c0,0,0.1-0.1,0.1-0.3c0-0.1,0-0.3,0-0.4c0.1,0.1,0.2,0.1,0.3,0.1s0.2,0,0.3-0.1c0.6-0.2,0.7-0.6,0.9-0.9
					c0.1-0.2,0.2-0.4,0.6-0.6c0.6-0.2,1.4-1.2,1.7-1.9c0.6-2-0.9-4.4-1.1-4.7c0.1-0.2,0.2-0.4,0.3-0.7c0.1-0.2,0.2-0.6,0.4-0.9
					c0.3,0.7,1.9,3.6,1.4,5.7c-0.4,2-2.3,4.2-3,5c-0.1,0.1-0.2,0.2-0.1,0.3c0,0,0.1,0,0.3-0.2c0.7-0.8,2.5-3,3-5.1
					c0-0.1,0-0.3,0.1-0.4c0.1-0.1,0.7-1.2,0.9-2.5c0.2-1.8-0.2-4.3-0.3-4.7c0.2,0,0.3,0.1,0.4,0.2s0.2,0.2,0.2,0.2s0-0.2-0.1-0.3
					C71.7,28,71.5,27.9,71,28c-1.1,0.3-2,1.8-2.4,2.9c-0.4,1-1.2,2.8-1.3,3.7c0,0.2,0,0.7,0.1,1c0.1,0.4,0.1,0.9,0.1,1.1
					C67.2,37.1,66.7,37.7,66.4,38.1z M69,29.9c0.3-0.4,0.7-1,1-1.3c0.2,0.4,1.5,3.2,0.6,6.3C70.6,32.8,69.2,30.4,69,29.9z
					 M65.7,39.4c0.1-0.3,0.4-0.8,0.8-1.2c0.3-0.4,0.8-1,0.9-1.4c0.1-0.3,0-0.8-0.1-1.2c0-0.3-0.1-0.7-0.1-1c0-0.2,0.1-0.6,0.2-0.9
					c0.3,0.2,1.7,1.4,0.4,4.2C67.7,38,67.6,38,67.6,38c-0.3,0.1-0.6,0.4-0.7,0.7c-0.1,0.2-0.3,0.6-0.8,0.8
					C65.9,39.7,65.7,39.5,65.7,39.4z"/>
			</g>
			<g id="svga-group-faceshape-wrap">
				<g id="svga-group-faceshape-single">
					<path id="SvgjsPath3719" class="st2" d="M60.1,52C57,56.5,46.8,63.3,42.8,65.7c-0.8,0.4-2.2,0.4-3,0c-4-2.3-14.2-9.2-17.3-13.7
						c-3.9-5.4-8.7-25-8.7-25.1c-0.7-2.3-0.9-4.7-0.9-7.2C12.9,4,25.6-8.7,41.4-8.7S69.8,4,69.8,19.7c0,2.5-0.3,4.9-0.9,7.2
						C68.8,26.8,64,46.6,60.1,52z"/>
					<path id="SvgjsPath3720" class="st10" d="M56.6-4.2C64,0.9,68.7,9.4,68.7,19c0,2.5-0.3,4.9-0.9,7.2c0,0-4.9,19.6-8.7,25.1
						C56,55.8,47,63.8,41.8,65.3c-0.2,0.1-0.7,0.1-0.9,0c-5.3-1.5-14.2-9.5-17.3-14c-3.7-5.5-8.7-25.1-8.7-25.1
						C14.2,23.9,14,21.4,14,19c0-9.6,4.7-18.1,12.1-23.3C18.2,0.8,13,9.6,13,19.7c0,2.5,0.3,4.9,0.9,7.2c0,0,4.9,19.6,8.7,25.1
						c3.1,4.5,13.3,11.4,17.3,13.7l0,0l0,0c0.4,0.2,1,0.3,1.5,0.3s1.1-0.1,1.5-0.3l0,0l0,0c4-2.3,14.2-9.2,17.3-13.7
						c3.7-5.4,8.7-25.1,8.7-25.1c0.7-2.3,0.9-4.7,0.9-7.2C69.7,9.6,64.5,0.8,56.6-4.2z"/>
					<path id="SvgjsPath3721" class="st5" d="M60.1,52C57,56.5,46.8,63.3,42.8,65.7c-0.8,0.4-2.2,0.4-3,0c-4-2.3-14.2-9.2-17.3-13.7
						c-3.9-5.4-8.7-25-8.7-25.1c-0.7-2.3-0.9-4.7-0.9-7.2C12.9,4,25.6-8.7,41.4-8.7S69.8,4,69.8,19.7c0,2.5-0.3,4.9-0.9,7.2
						C68.8,26.8,64,46.6,60.1,52z"/>
				</g>
			</g>
			<g id="svga-group-mouth-single">
				
					<linearGradient id="SvgjsPath3744_1_" gradientUnits="userSpaceOnUse" x1="23.4247" y1="22.942" x2="23.4247" y2="24.3445" gradientTransform="matrix(16.5814 0 0 -16.5814 -347.1136 437.2441)">
					<stop  offset="0.1" style="stop-color:#EBC3BD"/>
					<stop  offset="1" style="stop-color:#E4B3AB"/>
				</linearGradient>
				<path id="SvgjsPath3744" class="st11" d="M41.4,57.1c-2.2,0-3.1-2-3.1-2c2.6,1.2,6,0.1,6,0.1S43.6,57.1,41.4,57.1z"/>
				<path id="SvgjsPath3748" class="st12" d="M34.1,52c1.4-0.1,4.1-0.3,5.2-0.2c0.6,0,1.3,0.4,2,0.7c0.4,0.1,1.9-0.4,2.3-0.4
					c1,0,3.3,0.7,4.5,0.9c0.1,0,0,0,0,0s-3,3.2-6.8,3.1C36.7,55.6,34.1,52,34.1,52S34,52,34.1,52z"/>
				<path id="SvgjsPath3749" class="st13" d="M48,52.8c0-0.1-0.2-0.1-0.3-0.1s-0.2,0.2-0.6,0.2c-0.3,0-2.2,0.4-2.8,0.4
					c-1,0-2.2,0.3-3.2,0.2c-1,0-2.5-0.6-3.5-0.7c-0.6,0-2.5-0.7-2.9-0.8c-0.3-0.1-0.3-0.2-0.4-0.3c-0.1,0-0.3,0-0.4,0
					c-0.1,0,0,0.2,0,0.3c0.1,0.1,0.4,0.2,0.7,0.3s2.4,0.7,3,0.8c1,0.1,2.5,0.7,3.5,0.7c1,0.1,2.2-0.3,3.2-0.2c0.6,0,2.4-0.3,2.8-0.4
					c0.2,0,0.6-0.1,0.8-0.2C48,53,48.1,52.8,48,52.8z"/>
				<path id="SvgjsPath3750" class="st14" d="M41.1,55.2c-1.8-0.1-4.4-1-5.4-2.1c0.7,0.1,2,0.2,2.6,0.3c0.8,0.1,1.9,0.4,2.6,0.6
					c0.9,0.1,2-0.1,2.9-0.2c0.7-0.1,1.8-0.3,2.4-0.3C45.1,54.4,42.8,55.3,41.1,55.2z M43.9,53c0.7,0,1.5-0.3,2.2-0.3
					c-0.7-0.2-1.8-0.2-2.5-0.3c-0.7-0.1-1.7,0.3-2.2,0.4c-0.7,0.1-1.5-0.6-2.2-0.7c-0.8-0.1-2.2,0.1-3,0.3c0.6,0.1,1.9,0.2,2.5,0.3
					c0.8,0.1,1.8,0.4,2.5,0.6C42,53.2,43.1,53,43.9,53z"/>
				<path id="SvgjsPath3751" class="st15" d="M41.1,54.9c-1-0.1-2.8-0.6-3.4-1.2c0.2,0,0.8,0.1,0.9,0.1c0.1,0,0.1,0,0.2,0
					c0.3,0,0.6,0.1,0.9,0.2c0.3,0.1,1,0.2,1.3,0.2c0.1,0,0.1,0,0.2,0c0.4,0,1.2,0,1.5-0.1c0.2,0,0.4-0.1,0.7-0.1c0.1,0,0.2,0,0.4,0
					c0.1,0,0.2,0,0.4,0C43.4,54.5,42.2,54.9,41.1,54.9z"/>
				<path id="SvgjsPath3752" class="st9" d="M33.1,52.4c0,0-0.2-0.6-0.2-0.8c0-0.3,0.7-0.9,0.7-0.9s-0.4,0.7-0.4,0.9
					C33.1,51.8,33.1,52.4,33.1,52.4z"/>
			</g>
			<g id="svga-group-eyes-left">
				<g id="svga-group-eyesback-left">
					
						<radialGradient id="SvgjsPath3473_1_" cx="37.5945" cy="24.7208" r="7.0959" gradientTransform="matrix(-15.1684 0.7941 -0.8675 -16.5579 620.5204 411.0146)" gradientUnits="userSpaceOnUse">
						<stop  offset="0" style="stop-color:#FFFFFF"/>
						<stop  offset="0.544" style="stop-color:#FDFEFE"/>
						<stop  offset="0.74" style="stop-color:#F6F8F9"/>
						<stop  offset="0.879" style="stop-color:#EAEFF2"/>
						<stop  offset="0.992" style="stop-color:#D9E3E8"/>
						<stop  offset="1" style="stop-color:#D8E2E7"/>
					</radialGradient>
					<path id="SvgjsPath3473" class="st16" d="M22.8,30.2c0.6-0.6,4.3-1.2,6.4-1c3.3,0.4,6.1,3.4,6.1,3.4S33,34,28.9,34.2
						C26.2,34.5,23.5,32.7,22.8,30.2z"/>
				</g>
				<g id="svga-group-eyesiriswrapper-left" transform="translate(-1 0.25)">
					<g id="svga-group-eyesiriscontrol-left">
						<g id="svga-group-eyesiris-left">
							<path id="SvgjsPath3531" class="st17" d="M34.1,31.5c0,2.2-1.8,4-4,4c-2.2,0-4-1.8-4-4l0,0c0-2.2,1.8-4,4-4
								C32.3,27.5,34.1,29.3,34.1,31.5L34.1,31.5z"/>
							
								<radialGradient id="SvgjsPath3532_1_" cx="-48.7453" cy="130.2776" r="39.5703" gradientTransform="matrix(1.5917 -0.4113 -0.4062 -1.5937 160.5838 219.0326)" gradientUnits="userSpaceOnUse">
								<stop  offset="0" style="stop-color:#FFFFFF;stop-opacity:0.8"/>
								<stop  offset="1" style="stop-color:#FFFFFF;stop-opacity:0"/>
							</radialGradient>
							<path id="SvgjsPath3532" class="st18" d="M29.7,27.5L29.7,27.5c0,0.1,0,0.2,0,0.2S29.7,27.6,29.7,27.5z M29.7,27.8
								c0,1.3,0.1,2.4,0.3,2.9C30.1,30.2,29.9,29.1,29.7,27.8z M30,30.7c0,0.1-0.1,0.2-0.1,0.2c-0.1,0-0.1,0-0.2-0.1
								c0,0.1,0,0.2,0,0.2s-0.1,0.1-0.2,0c0.1,0.1,0.1,0.1,0.1,0.2s-0.1,0.1-0.2,0.1c0.1,0,0.2,0.1,0.2,0.1c0,0.1,0,0.1-0.1,0.2
								c0.1,0,0.2,0,0.2,0s0,0.1,0,0.2c0.1-0.1,0.2-0.1,0.2-0.1c0.1,0,0.1,0.1,0.1,0.2c0-0.1,0.1-0.1,0.2-0.2c0.1,0,0.1,0,0.2,0.1
								c0-0.1,0-0.2,0.1-0.2s0.1,0,0.2,0c0-0.1-0.1-0.2,0-0.2c0-0.1,0.1-0.1,0.2-0.1c-0.1-0.1-0.1-0.1-0.1-0.2s0.1-0.1,0.1-0.2
								c-0.1,0-0.2,0-0.2-0.1s0-0.1,0-0.2c-0.1,0-0.2,0-0.2,0c-0.1,0-0.1-0.1-0.1-0.2c-0.1,0.4-0.2,0.4-0.2,0.4
								C30.1,30.8,30.1,30.8,30,30.7z M30.4,30.7c0.3-0.3,0.7-1.4,1-2.8C30.9,29.2,30.4,30.3,30.4,30.7z M31.4,28
								c0-0.1,0.1-0.1,0.1-0.2l0,0C31.5,27.9,31.4,28,31.4,28z M30.8,31c0.4-0.2,1.3-1,2.2-1.9C31.9,29.8,31,30.5,30.8,31z M33,29.1
								c0.1,0,0.1-0.1,0.2-0.1l0,0C33.1,29,33,29,33,29.1z M31,31.3c0.4,0.1,1.5-0.3,2.9-0.7C32.5,30.8,31.3,31.1,31,31.3z
								 M33.8,30.6c0.1,0,0.1,0,0.2,0l0,0C34,30.6,33.9,30.6,33.8,30.6z M31,31.7c0.4,0.2,1.5,0.4,2.9,0.7
								C32.5,32.1,31.4,31.7,31,31.7z M33.8,32.5c0.1,0,0.1,0,0.2,0.1l0,0C33.9,32.5,33.9,32.5,33.8,32.5z M30.8,32.1
								c0.2,0.4,1.1,1.1,2.2,2C32,33,31.2,32.3,30.8,32.1z M33,34L33,34L33,34C33,34.1,33,34,33,34z M30.4,32.4c0,0.4,0.4,1.5,1,2.8
								C31.1,33.8,30.8,32.7,30.4,32.4z M31.4,35L31.4,35L31.4,35C31.4,35.1,31.4,35.1,31.4,35z M30,32.4c-0.2,0.4-0.3,1.5-0.3,2.9
								C29.9,34,30.1,32.8,30,32.4z M29.7,35.3L29.7,35.3L29.7,35.3C29.7,35.4,29.7,35.4,29.7,35.3z M29.7,32.3
								c-0.4,0.2-1,1.2-1.7,2.4C28.8,33.6,29.6,32.7,29.7,32.3z M28,34.6l-0.1,0.1l0,0C27.9,34.7,27.9,34.7,28,34.6z M29.3,31.9
								c-0.4,0.1-1.4,0.7-2.5,1.3C28,32.7,29,32.3,29.3,31.9z M26.8,33.3c-0.1,0-0.1,0-0.2,0.1l0,0C26.7,33.4,26.7,33.3,26.8,33.3z
								 M29.2,31.5c-0.4-0.2-1.7-0.1-2.9,0C27.7,31.6,28.8,31.7,29.2,31.5z M26.4,31.5c-0.1,0-0.1,0-0.2,0l0,0
								C26.3,31.5,26.3,31.5,26.4,31.5z M29.3,31.2c-0.3-0.3-1.3-0.9-2.5-1.3C27.9,30.5,28.9,31.1,29.3,31.2z M26.8,29.7
								c-0.1,0-0.1-0.1-0.2-0.1l0,0C26.7,29.7,26.7,29.7,26.8,29.7z M29.7,30.8c-0.1-0.4-0.8-1.4-1.7-2.4
								C28.7,29.5,29.2,30.5,29.7,30.8z M28,28.4c0-0.1-0.1-0.1-0.1-0.2l0,0C27.9,28.3,27.9,28.4,28,28.4z"/>
							
								<radialGradient id="SvgjsPath3536_1_" cx="-67.7771" cy="117.335" r="39.6006" gradientTransform="matrix(1.6432 1.468498e-02 1.823948e-02 -1.6432 139.2986 225.279)" gradientUnits="userSpaceOnUse">
								<stop  offset="0" style="stop-color:#FFFFFF;stop-opacity:0.8"/>
								<stop  offset="1" style="stop-color:#FFFFFF;stop-opacity:0"/>
							</radialGradient>
							<path id="SvgjsPath3536" class="st19" d="M30.7,27.5L30.7,27.5c0,0.1-0.1,0.2-0.1,0.2C30.7,27.8,30.7,27.6,30.7,27.5z
								 M30.7,27.8c-0.3,1.3-0.6,2.4-0.4,2.9C30.4,30.3,30.6,29.1,30.7,27.8z M30.2,30.7c-0.1,0.1-0.1,0.1-0.2,0.1s-0.1,0-0.2-0.1
								c0,0.1,0,0.2-0.1,0.2s-0.1,0-0.2,0c0,0.1,0.1,0.2,0,0.2c0,0.1-0.1,0.1-0.2,0.1c0.1,0.1,0.1,0.1,0.1,0.2s-0.1,0.1-0.1,0.2
								c0.1,0,0.2,0,0.2,0.1s0,0.1,0,0.2c0.1,0,0.2,0,0.2,0c0.1,0,0.1,0.1,0.1,0.2C29.9,32,29.9,32,30,32s0.1,0.1,0.2,0.2
								c0-0.1,0.1-0.2,0.1-0.2c0.1,0,0.1,0,0.2,0.1c0-0.1,0-0.2,0-0.2s0.1-0.1,0.2,0c-0.1-0.1-0.1-0.2-0.1-0.2
								c0-0.1,0.1-0.1,0.2-0.1c-0.1,0-0.2-0.1-0.2-0.2s0-0.1,0.1-0.2c-0.1,0-0.2,0-0.2-0.1c0,0,0-0.1,0-0.2C30.4,31,30.3,31,30.3,31
								C30.3,30.8,30.2,30.8,30.2,30.7z M30.6,30.8c0.4-0.2,1-1.2,1.7-2.3C31.4,29.5,30.8,30.4,30.6,30.8z M32.3,28.5
								c0.1-0.1,0.1-0.1,0.2-0.2l0,0C32.4,28.3,32.3,28.4,32.3,28.5z M30.9,31.2c0.4,0,1.5-0.7,2.6-1.3
								C32.2,30.3,31.2,30.8,30.9,31.2z M33.4,29.8c0.1,0,0.1-0.1,0.2-0.1l0,0C33.6,29.7,33.5,29.8,33.4,29.8z M31,31.5
								c0.4,0.2,1.7,0.1,2.9,0.1C32.5,31.5,31.4,31.4,31,31.5z M33.9,31.6c0.1,0,0.1,0,0.2,0l0,0C34,31.6,34,31.6,33.9,31.6z
								 M30.9,31.9c0.3,0.3,1.3,0.9,2.5,1.4C32.3,32.6,31.3,32.1,30.9,31.9z M33.4,33.4c0,0,0.1,0.1,0.2,0.1l0,0
								C33.5,33.4,33.4,33.4,33.4,33.4z M30.6,32.3c0.1,0.4,0.8,1.4,1.5,2.4C31.5,33.5,31,32.5,30.6,32.3z M32.2,34.7
								C32.2,34.7,32.2,34.8,32.2,34.7L32.2,34.7C32.2,34.8,32.2,34.7,32.2,34.7z M30.2,32.4c-0.1,0.4,0,1.7,0.3,2.9
								C30.4,33.9,30.4,32.8,30.2,32.4z M30.4,35.3L30.4,35.3L30.4,35.3C30.4,35.4,30.4,35.4,30.4,35.3z M29.8,32.3
								c-0.3,0.3-0.7,1.4-1.1,2.6C29.2,33.8,29.8,32.8,29.8,32.3z M28.7,35c0,0,0,0.1-0.1,0.1l0,0C28.7,35.1,28.7,35,28.7,35z
								 M29.5,32.1c-0.4,0.1-1.3,1-2.2,1.9C28.2,33.2,29.2,32.5,29.5,32.1z M27.2,33.9L27.1,34l0,0C27.1,34,27.1,34,27.2,33.9z
								 M29.2,31.7c-0.4-0.1-1.5,0.2-2.9,0.7C27.7,32.2,28.9,31.9,29.2,31.7z M26.5,32.4c-0.1,0-0.1,0-0.2,0l0,0
								C26.4,32.4,26.4,32.4,26.5,32.4z M29.2,31.3c-0.3-0.3-1.5-0.6-2.8-0.8C27.7,31,28.8,31.4,29.2,31.3z M26.5,30.5
								c-0.1,0-0.1,0-0.2-0.1l0,0C26.4,30.5,26.4,30.5,26.5,30.5z M29.5,31c-0.2-0.4-1.1-1.2-2.1-2C28.2,30,29,30.7,29.5,31z
								 M27.4,29c-0.1-0.1-0.1-0.1-0.2-0.2l0,0C27.2,28.9,27.2,29,27.4,29z M29.8,30.7c0-0.4-0.4-1.5-1-2.8
								C29.2,29.3,29.6,30.4,29.8,30.7z M28.9,28c0-0.1,0-0.2-0.1-0.2l0,0C28.8,27.9,28.8,27.9,28.9,28z"/>
							<path id="SvgjsPath3540" class="st17" d="M31.7,31.5c0,0.9-0.7,1.5-1.5,1.5c-0.9,0-1.5-0.7-1.5-1.5c0-0.9,0.7-1.5,1.5-1.5
								C31,29.8,31.7,30.6,31.7,31.5z"/>
							<path id="SvgjsPath3541" class="st20" d="M31.7,31.5c0,0.9-0.7,1.5-1.5,1.5c-0.9,0-1.5-0.7-1.5-1.5c0-0.9,0.7-1.5,1.5-1.5
								C31,29.8,31.7,30.6,31.7,31.5z"/>
							
								<linearGradient id="SvgjsPath3542_1_" gradientUnits="userSpaceOnUse" x1="27.299" y1="24.1118" x2="27.9193" y2="24.8509" gradientTransform="matrix(16.5814 0 0 -16.5814 -424.7477 434.0869)">
								<stop  offset="0" style="stop-color:#FFFFFF"/>
								<stop  offset="1" style="stop-color:#FFFFFF;stop-opacity:0"/>
							</linearGradient>
							<path id="SvgjsPath3542" class="st21" d="M27.9,33.3c0.3-0.2,0.7-0.1,0.9,0.2c0.2,0.3,0.1,0.7-0.2,0.9
								c-0.3,0.2-0.7,0.1-0.9-0.2C27.6,33.9,27.7,33.5,27.9,33.3L27.9,33.3z"/>
							
								<linearGradient id="SvgjsPath3546_1_" gradientUnits="userSpaceOnUse" x1="27.3598" y1="24.3467" x2="26.4248" y2="23.4117" gradientTransform="matrix(16.5814 0 0 -16.5814 -422.7477 434.0869)">
								<stop  offset="0" style="stop-color:#FFFFFF"/>
								<stop  offset="1" style="stop-color:#FFFFFF;stop-opacity:0"/>
							</linearGradient>
							<path id="SvgjsPath3546" class="st22" d="M31.3,31.3c-0.2,0.2-0.7,0.2-1.1-0.1c-0.4-0.3-0.7-0.7-0.4-1l0,0
								c0.2-0.2,0.7-0.2,1.1,0.1C31.3,30.5,31.5,31,31.3,31.3L31.3,31.3z"/>
							
								<linearGradient id="SvgjsPath3550_1_" gradientUnits="userSpaceOnUse" x1="27.4584" y1="24.4454" x2="25.5885" y2="22.5755" gradientTransform="matrix(16.5814 0 0 -16.5814 -422.7477 434.0869)">
								<stop  offset="0" style="stop-color:#FFFFFF"/>
								<stop  offset="1" style="stop-color:#FFFFFF;stop-opacity:0"/>
							</linearGradient>
							<path id="SvgjsPath3550" class="st23" d="M33.2,30.6c-0.3,0.6-1.3,0.7-2.2,0.1c-0.8-0.7-1.1-1.5-0.8-2.1s1.3-0.7,2.2-0.1
								C33.2,29.1,33.6,30,33.2,30.6L33.2,30.6z"/>
						</g>
					</g>
				</g>
				<g id="svga-group-eyesfront-left">
					<path id="SvgjsPath3498" class="st2" d="M20.4,32c0,6.5,3.7,11.7,8.4,11.7s8.4-5.2,8.4-11.7s-3.7-11.7-8.4-11.7
						S20.4,25.6,20.4,32z M22.8,30.2c0.6-0.6,4.3-1.2,6.4-1c3.3,0.4,6.1,3.4,6.1,3.4S33,34,28.9,34.2C26.2,34.5,23.5,32.7,22.8,30.2
						z"/>
					
						<radialGradient id="SvgjsPath3499_1_" cx="24.6753" cy="11.1725" r="7.9106" fx="31.0584" fy="11.0014" gradientTransform="matrix(16.4156 2.3396 -1.7993 12.6148 -354.25 -168.7333)" gradientUnits="userSpaceOnUse">
						<stop  offset="0" style="stop-color:#E4B3AB"/>
						<stop  offset="0.7" style="stop-color:#E4B3AB;stop-opacity:0.3"/>
						<stop  offset="1" style="stop-color:#F3D4CF;stop-opacity:0"/>
					</radialGradient>
					<path id="SvgjsPath3499" class="st24" d="M29.2,36.1c4.4,1,8.6-0.8,9.5-4c0.8-3.2-2.1-6.7-6.5-7.7c-4.4-1-8.6,0.8-9.5,4
						C21.9,31.6,24.8,35,29.2,36.1z M22.8,30.2c0.6-0.6,4.3-1.2,6.4-1c3.3,0.4,6.1,3.4,6.1,3.4S33,34,28.9,34.2
						C26.2,34.5,23.5,32.7,22.8,30.2z"/>
					
						<radialGradient id="SvgjsPath3504_1_" cx="22.7557" cy="23.8099" r="13.7953" gradientTransform="matrix(17.1385 0 0 -17.1385 -362.4443 452.084)" gradientUnits="userSpaceOnUse">
						<stop  offset="0.95" style="stop-color:#000000;stop-opacity:0"/>
						<stop  offset="1" style="stop-color:#000000;stop-opacity:0.3"/>
					</radialGradient>
					<path id="SvgjsPath3504" class="st25" d="M22.8,30.2c0.6-0.6,4.3-1.2,6.4-1c3.3,0.4,6.1,3.4,6.1,3.4S33,34,28.9,34.2
						C26.2,34.5,23.5,32.7,22.8,30.2z"/>
					<path id="SvgjsPath3508" class="st9" d="M35.4,30c-3.1-2-1.9-1.4-7.6-3.1c1.5,0.2,4.5,1,5.5,1.5C33.9,28.7,35,29.6,35.4,30z"/>
					<path id="SvgjsPath3509" d="M20.4,29.7c0,0,1,0.7,1.8,0.7c0.1,0.3,1.1,2,2.8,3c2.5,1.4,5.5,1,8.4,0.3c1.4-0.3,1.3-0.7,3.6-1
						c-1.9-0.8-1.7-1.2-4.2-2.5c1.1,0.2,2.8,1.1,2.8,1.1c-0.6-0.7-4.6-3.2-11.1-3.5c0,0,2.2,0.6,3,0.9c-3.7,0.6-4.7,0-5-0.2
						c0.2,0.1,0.6,0.6,1.4,0.9C23,29.5,21.4,29,21.4,29s0.4,0.4,1.2,0.9C21.8,30,20.4,29.7,20.4,29.7z M22.8,30.3
						c0.6-0.6,4.3-1.2,6.4-0.9c3.3,0.4,6.1,3.3,6.1,3.3s-2.3,1.4-6.4,1.7C26.2,34.3,23.5,32.7,22.8,30.3z"/>
				</g>
			</g>
			<g id="svga-group-eyes-right">
				<g id="svga-group-eyesback-right">
					
						<radialGradient id="SvgjsPath3481_1_" cx="23.117" cy="24.0264" r="7.0959" gradientTransform="matrix(15.1684 0.7941 0.8675 -16.5579 -317.7744 411.0146)" gradientUnits="userSpaceOnUse">
						<stop  offset="0" style="stop-color:#FFFFFF"/>
						<stop  offset="0.544" style="stop-color:#FDFEFE"/>
						<stop  offset="0.74" style="stop-color:#F6F8F9"/>
						<stop  offset="0.879" style="stop-color:#EAEFF2"/>
						<stop  offset="0.992" style="stop-color:#D9E3E8"/>
						<stop  offset="1" style="stop-color:#D8E2E7"/>
					</radialGradient>
					<path id="SvgjsPath3481" class="st26" d="M59.7,30.2c-0.6-0.6-4.3-1.2-6.4-1c-3.3,0.4-6.1,3.4-6.1,3.4s2.3,1.4,6.4,1.7
						C56.2,34.5,59,32.7,59.7,30.2z"/>
				</g>
				<g id="svga-group-eyesiriswrapper-right" transform="translate(1 0.25)">
					<g id="svga-group-eyesiriscontrol-right">
						<g id="svga-group-eyesiris-right">
							<path id="SvgjsPath3554" class="st17" d="M56.5,31.5c0,2.2-1.8,4-4,4s-4-1.8-4-4l0,0c0-2.2,1.8-4,4-4
								C54.6,27.5,56.5,29.3,56.5,31.5L56.5,31.5z"/>
							
								<radialGradient id="SvgjsPath3555_1_" cx="-69.3747" cy="134.4764" r="39.5883" gradientTransform="matrix(1.5917 -0.4113 -0.4062 -1.5937 217.437 217.2437)" gradientUnits="userSpaceOnUse">
								<stop  offset="0" style="stop-color:#FFFFFF;stop-opacity:0.8"/>
								<stop  offset="1" style="stop-color:#FFFFFF;stop-opacity:0"/>
							</radialGradient>
							<path id="SvgjsPath3555" class="st27" d="M51.9,27.5L51.9,27.5c0,0.1,0,0.2,0,0.2C52,27.8,51.9,27.6,51.9,27.5z M52,27.8
								c0,1.3,0.1,2.4,0.3,2.9C52.5,30.2,52.3,29.1,52,27.8z M52.4,30.7c0,0.1-0.1,0.2-0.1,0.2c-0.1,0-0.1,0-0.2-0.1
								c0,0.1,0,0.2,0,0.2s-0.1,0.1-0.2,0c0.1,0.1,0.1,0.1,0.1,0.2s-0.1,0.1-0.2,0.1c0.1,0,0.2,0.1,0.2,0.1c0,0.1,0,0.1-0.1,0.2
								c0.1,0,0.2,0,0.2,0s0,0.1,0,0.2c0.1-0.1,0.2-0.1,0.2-0.1c0.1,0,0.1,0.1,0.1,0.2c0-0.1,0.1-0.1,0.2-0.2c0.1,0,0.1,0,0.2,0.1
								c0-0.1,0-0.2,0.1-0.2s0.1,0,0.2,0c0-0.1-0.1-0.2,0-0.2c0-0.1,0.1-0.1,0.2-0.1c-0.1-0.1-0.1-0.1-0.1-0.2s0.1-0.1,0.1-0.2
								c-0.1,0-0.2,0-0.2-0.1s0-0.1,0-0.2c-0.1,0-0.2,0-0.2,0c-0.1,0-0.1-0.1-0.1-0.2c-0.1,0.4-0.2,0.4-0.3,0.4
								C52.5,30.8,52.4,30.8,52.4,30.7z M52.7,30.7c0.3-0.3,0.7-1.4,1-2.8C53.3,29.2,52.7,30.3,52.7,30.7z M53.8,28
								c0-0.1,0.1-0.1,0.1-0.2l0,0C53.8,27.9,53.8,28,53.8,28z M53,31c0.4-0.2,1.3-1,2.2-1.9C54.2,29.8,53.3,30.5,53,31z M55.2,29.1
								c0.1,0,0.1-0.1,0.2-0.1l0,0C55.3,29,55.3,29,55.2,29.1z M53.3,31.3c0.4,0.1,1.5-0.3,2.9-0.7C54.8,30.8,53.7,31.1,53.3,31.3z
								 M56.1,30.6c0.1,0,0.1,0,0.2,0l0,0C56.2,30.6,56.1,30.6,56.1,30.6z M53.3,31.7c0.4,0.2,1.5,0.4,2.9,0.7
								C54.8,32.1,53.7,31.7,53.3,31.7z M56.1,32.5c0.1,0,0.1,0,0.2,0.1l0,0C56.2,32.5,56.1,32.5,56.1,32.5z M53,32.1
								c0.2,0.4,1.1,1.1,2.2,2C54.4,33,53.5,32.3,53,32.1z M55.2,34L55.2,34L55.2,34L55.2,34z M52.7,32.4c0,0.4,0.4,1.5,1,2.8
								C53.4,33.8,53,32.7,52.7,32.4z M53.8,35L53.8,35L53.8,35C53.8,35.1,53.8,35.1,53.8,35z M52.4,32.4c-0.2,0.4-0.3,1.5-0.3,2.9
								C52.3,34,52.5,32.8,52.4,32.4z M51.9,35.3L51.9,35.3L51.9,35.3C51.9,35.4,51.9,35.4,51.9,35.3z M51.9,32.3
								c-0.4,0.2-1,1.2-1.7,2.4C51.2,33.6,51.8,32.7,51.9,32.3z M50.3,34.6L50.3,34.6L50.3,34.6C50.3,34.7,50.3,34.7,50.3,34.6z
								 M51.7,31.9c-0.4,0.1-1.4,0.7-2.5,1.3C50.3,32.7,51.4,32.3,51.7,31.9z M49.1,33.3c-0.1,0-0.1,0-0.2,0.1l0,0
								C49,33.4,49.1,33.3,49.1,33.3z M51.6,31.5c-0.4-0.2-1.7-0.1-2.9,0C49.9,31.6,51.2,31.7,51.6,31.5z M48.6,31.5
								c-0.1,0-0.1,0-0.2,0l0,0C48.5,31.5,48.6,31.5,48.6,31.5z M51.7,31.2c-0.3-0.4-1.4-0.9-2.6-1.4C50.2,30.5,51.2,31.1,51.7,31.2
								z M49.1,29.7c-0.1,0-0.1-0.1-0.2-0.1l0,0C49,29.7,49.1,29.7,49.1,29.7z M51.9,30.8c-0.1-0.4-0.8-1.4-1.7-2.4
								C50.9,29.5,51.6,30.5,51.9,30.8z M50.3,28.4c0-0.1-0.1-0.1-0.1-0.2l0,0C50.2,28.3,50.3,28.4,50.3,28.4z"/>
							
								<radialGradient id="SvgjsPath3559_1_" cx="-88.8916" cy="116.861" r="39.601" gradientTransform="matrix(1.6432 1.468498e-02 1.823948e-02 -1.6432 196.3123 224.8101)" gradientUnits="userSpaceOnUse">
								<stop  offset="0" style="stop-color:#FFFFFF;stop-opacity:0.8"/>
								<stop  offset="1" style="stop-color:#FFFFFF;stop-opacity:0"/>
							</radialGradient>
							<path id="SvgjsPath3559" class="st28" d="M53,27.5L53,27.5c0,0.1-0.1,0.2-0.1,0.2S53,27.6,53,27.5z M52.9,27.8
								c-0.3,1.3-0.6,2.4-0.4,2.9C52.8,30.3,52.9,29.1,52.9,27.8z M52.5,30.7c0,0.1-0.1,0.1-0.1,0.1c-0.1,0-0.1,0-0.2-0.1
								c0,0.1,0,0.2-0.1,0.2s-0.1,0-0.2,0c0,0.1,0.1,0.2,0,0.2c0,0.1-0.1,0.1-0.2,0.1c0.1,0.1,0.1,0.1,0.1,0.2s-0.1,0.1-0.1,0.2
								c0.1,0,0.2,0,0.2,0.1s0,0.1,0,0.2c0.1,0,0.2,0,0.2,0c0.1,0,0.1,0.1,0.1,0.2c0.1-0.1,0.1-0.1,0.2-0.1c0.1,0,0.1,0.1,0.2,0.2
								c0-0.1,0.1-0.2,0.1-0.2c0.1,0,0.1,0,0.2,0.1c0-0.1,0-0.2,0-0.2s0.1-0.1,0.2,0c-0.1,0-0.1-0.1-0.1-0.1c0-0.1,0.1-0.1,0.2-0.1
								c-0.1,0-0.2-0.1-0.2-0.2s0-0.1,0.1-0.2c-0.1,0-0.2,0-0.2-0.1c0,0,0-0.1,0-0.2c-0.1,0.1-0.2,0.1-0.2,0.1
								C52.6,30.8,52.6,30.8,52.5,30.7z M52.9,30.8c0.4-0.2,1-1.2,1.7-2.3C53.8,29.5,53,30.4,52.9,30.8z M54.6,28.5
								c0.1-0.1,0.1-0.1,0.2-0.2l0,0C54.7,28.3,54.7,28.4,54.6,28.5z M53.1,31.2c0.4,0,1.5-0.7,2.6-1.3
								C54.6,30.3,53.5,30.8,53.1,31.2z M55.8,29.8c0.1,0,0.1-0.1,0.2-0.1l0,0C55.9,29.7,55.9,29.8,55.8,29.8z M53.3,31.5
								c0.4,0.2,1.7,0.1,2.9,0.1C54.9,31.5,53.7,31.4,53.3,31.5z M56.1,31.6c0.1,0,0.1,0,0.2,0l0,0C56.3,31.6,56.2,31.6,56.1,31.6z
								 M53.1,31.9c0.3,0.3,1.3,0.9,2.5,1.4C54.6,32.6,53.6,32.1,53.1,31.9z M55.7,33.4c0,0,0.1,0.1,0.2,0.1l0,0
								C55.8,33.4,55.8,33.4,55.7,33.4z M52.9,32.3c0.1,0.4,0.8,1.4,1.5,2.4C53.8,33.5,53.3,32.5,52.9,32.3z M54.5,34.7
								C54.5,34.7,54.5,34.8,54.5,34.7L54.5,34.7L54.5,34.7z M52.5,32.4c-0.1,0.4,0,1.7,0.3,2.9C52.8,33.9,52.7,32.8,52.5,32.4z
								 M52.8,35.3L52.8,35.3L52.8,35.3C52.8,35.4,52.8,35.4,52.8,35.3z M52,32.3c-0.3,0.3-0.7,1.4-1.1,2.6
								C51.6,33.8,52,32.8,52,32.3z M51,35C51,35,51,35.1,51,35L51,35C50.9,35.1,50.9,35,51,35z M51.7,32.1c-0.4,0.1-1.3,1-2.2,1.9
								C50.6,33.2,51.5,32.5,51.7,32.1z M49.5,33.9L49.5,33.9L49.5,33.9C49.5,34,49.5,34,49.5,33.9z M51.6,31.7
								c-0.4-0.1-1.5,0.2-2.9,0.7C50.1,32.2,51.2,31.9,51.6,31.7z M48.7,32.4c-0.1,0-0.1,0-0.2,0l0,0C48.6,32.4,48.7,32.4,48.7,32.4
								z M51.6,31.3c-0.3-0.3-1.5-0.6-2.8-0.8C50.1,31,51.2,31.4,51.6,31.3z M48.7,30.5c-0.1,0-0.1,0-0.2-0.1l0,0
								C48.6,30.5,48.7,30.5,48.7,30.5z M51.8,31c-0.2-0.4-1.1-1.2-2.1-2C50.5,30,51.4,30.7,51.8,31z M49.6,29
								c-0.1-0.1-0.1-0.1-0.2-0.2l0,0C49.5,28.9,49.6,29,49.6,29z M52.2,30.7c0-0.4-0.4-1.5-1-2.8C51.5,29.3,51.8,30.4,52.2,30.7z
								 M51.2,28c0-0.1,0-0.2-0.1-0.2l0,0C51,27.9,51.2,27.9,51.2,28z"/>
							<path id="SvgjsPath3563" class="st17" d="M54,31.5c0,0.9-0.7,1.5-1.5,1.5S51,32.3,51,31.5c0-0.9,0.7-1.5,1.5-1.5
								C53.3,29.8,54,30.6,54,31.5z"/>
							<path id="SvgjsPath3564" class="st20" d="M54,31.5c0,0.9-0.7,1.5-1.5,1.5S51,32.3,51,31.5c0-0.9,0.7-1.5,1.5-1.5
								C53.3,29.8,54,30.6,54,31.5z"/>
							
								<linearGradient id="SvgjsPath3565_1_" gradientUnits="userSpaceOnUse" x1="22.4181" y1="24.1104" x2="23.0384" y2="24.8492" gradientTransform="matrix(16.5814 0 0 -16.5814 -321.4798 434.0869)">
								<stop  offset="0" style="stop-color:#FFFFFF"/>
								<stop  offset="1" style="stop-color:#FFFFFF;stop-opacity:0"/>
							</linearGradient>
							<path id="SvgjsPath3565" class="st29" d="M50.3,33.3c0.3-0.2,0.7-0.1,0.9,0.2s0.1,0.7-0.2,0.9s-0.7,0.1-0.9-0.2
								C49.8,33.9,49.9,33.5,50.3,33.3L50.3,33.3z"/>
							
								<linearGradient id="SvgjsPath3569_1_" gradientUnits="userSpaceOnUse" x1="22.6006" y1="24.344" x2="21.6657" y2="23.4089" gradientTransform="matrix(16.5814 0 0 -16.5814 -321.4798 434.0869)">
								<stop  offset="0" style="stop-color:#FFFFFF"/>
								<stop  offset="1" style="stop-color:#FFFFFF;stop-opacity:0"/>
							</linearGradient>
							<path id="SvgjsPath3569" class="st30" d="M53.7,31.3c-0.2,0.2-0.7,0.2-1.1-0.1c-0.4-0.3-0.7-0.7-0.4-1l0,0
								c0.2-0.2,0.7-0.2,1.1,0.1C53.6,30.5,53.8,31,53.7,31.3L53.7,31.3z"/>
							
								<linearGradient id="SvgjsPath3573_1_" gradientUnits="userSpaceOnUse" x1="22.7008" y1="24.4411" x2="20.8309" y2="22.5712" gradientTransform="matrix(16.5814 0 0 -16.5814 -321.4798 434.0869)">
								<stop  offset="0" style="stop-color:#FFFFFF"/>
								<stop  offset="1" style="stop-color:#FFFFFF;stop-opacity:0"/>
							</linearGradient>
							<path id="SvgjsPath3573" class="st31" d="M55.6,30.6c-0.3,0.6-1.3,0.7-2.2,0.1c-0.8-0.6-1.2-1.4-0.8-2
								c0.3-0.6,1.3-0.7,2.2-0.1C55.6,29.1,55.9,30,55.6,30.6L55.6,30.6z"/>
						</g>
					</g>
				</g>
				<g id="svga-group-eyesfront-right">
					<path id="SvgjsPath3519" class="st2" d="M53.7,20.3c-4.6,0-8.4,5.2-8.4,11.7s3.7,11.7,8.4,11.7s8.4-5.2,8.4-11.7
						C62.2,25.6,58.3,20.3,53.7,20.3z M53.6,34.2c-4.1-0.2-6.4-1.7-6.4-1.7s2.8-3,6.1-3.4c2.1-0.3,5.8,0.4,6.4,1
						C59,32.7,56.2,34.5,53.6,34.2z"/>
					
						<radialGradient id="SvgjsPath3520_1_" cx="37.8225" cy="8.7342" r="7.9106" fx="44.2055" fy="8.5629" gradientTransform="matrix(-16.4156 2.3396 1.7993 12.6148 656.9956 -168.7333)" gradientUnits="userSpaceOnUse">
						<stop  offset="0" style="stop-color:#E4B3AB"/>
						<stop  offset="0.7" style="stop-color:#E4B3AB;stop-opacity:0.3"/>
						<stop  offset="1" style="stop-color:#F3D4CF;stop-opacity:0"/>
					</radialGradient>
					<path id="SvgjsPath3520" class="st32" d="M59.9,28.3c-0.8-3.2-5.1-5.1-9.5-4c-4.4,1-7.3,4.5-6.5,7.7c0.8,3.2,5.1,5.1,9.5,4
						C57.8,35,60.6,31.6,59.9,28.3z M53.6,34.2c-4.1-0.2-6.4-1.7-6.4-1.7s2.8-3,6.1-3.4c2.1-0.3,5.8,0.4,6.4,1
						C59,32.7,56.2,34.5,53.6,34.2z"/>
					
						<radialGradient id="SvgjsPath3525_1_" cx="35.6043" cy="23.8099" r="13.7948" gradientTransform="matrix(-17.1385 0 0 -17.1385 665.1899 452.084)" gradientUnits="userSpaceOnUse">
						<stop  offset="0.95" style="stop-color:#000000;stop-opacity:0"/>
						<stop  offset="1" style="stop-color:#000000;stop-opacity:0.3"/>
					</radialGradient>
					<path id="SvgjsPath3525" class="st33" d="M59.7,30.2c-0.6-0.6-4.3-1.2-6.4-1c-3.3,0.4-6.1,3.4-6.1,3.4s2.3,1.4,6.4,1.7
						C56.2,34.5,59,32.7,59.7,30.2z"/>
					<path id="SvgjsPath3529" class="st9" d="M47.2,30c3.1-2,1.9-1.4,7.6-3.1c-1.5,0.2-4.5,1-5.5,1.5C48.7,28.7,47.6,29.6,47.2,30z"
						/>
					<path id="SvgjsPath3530" d="M60.1,29.7c0.8-0.6,1.2-0.9,1.2-0.9s-1.7,0.4-2.5,0.4c0.9-0.3,1.2-0.8,1.4-0.9
						c-0.2,0.1-1.2,0.7-5,0.2c0.8-0.3,3-0.9,3-0.9c-6.5,0.3-10.6,2.9-11.1,3.5c0,0,1.5-0.9,2.8-1.1c-2.5,1.3-2.3,1.8-4.2,2.5
						c2.3,0.2,2.2,0.7,3.6,1c2.9,0.8,5.8,1.2,8.4-0.3c1.7-1,2.6-2.6,2.8-3c0.8,0,1.8-0.7,1.8-0.7S60.8,30,60.1,29.7z M53.6,34.1
						c-4.1-0.2-6.4-1.7-6.4-1.7s2.8-2.9,6.1-3.3c2.1-0.2,5.8,0.4,6.4,0.9C59,32.7,56.2,34.3,53.6,34.1z"/>
				</g>
			</g>
			<g id="svga-group-eyebrows-left">
				<path id="SvgjsPath3577" class="st34" d="M29.4,23.2c-2-0.2-9.9,1.8-9.9,1.8s7.8-3.2,11.1-2.6c2.4,0.3,6.7,2.4,6,3.4
					C36,26.6,34,23.6,29.4,23.2z"/>
			</g>
			<g id="svga-group-eyebrows-right">
				<path id="SvgjsPath3578" class="st34" d="M45.9,25.6c-0.8-1.1,3.5-3,6.3-3.2c3.3-0.3,10.7,1.9,10.7,1.9s-7.4-1.2-9.5-1
					C48.7,23.9,46.4,26.5,45.9,25.6z"/>
			</g>
			<g id="svga-group-nose-single">
				<path id="SvgjsPath3753" class="st4" d="M37.7,45.3c-0.3,1,2.3,2,3.4,2.1c1.1,0.1,4.2-1.3,3.6-2.3S42.1,45,41.2,45
					C40.4,44.8,38.2,43.9,37.7,45.3z"/>
				<path id="SvgjsPath3754" class="st9" d="M42.3,45.7c-0.1-0.2,0.6-0.7,0.8-0.7c0.3-0.1,1.2,0.1,1.1,0.4c0,0.2-0.8-0.1-1,0
					C43,45.5,42.5,45.9,42.3,45.7z M39,45.5c0.3,0,0.8,0.2,0.9,0c0.1-0.2-0.8-0.6-1-0.4c-0.2,0-0.9,0.4-0.9,0.7
					C38.3,45.8,38.6,45.5,39,45.5z"/>
				<path id="SvgjsPath3755" class="st35" d="M41.2,43.9c0.3,0,0.9-0.3,0.9-0.9c0.3-2.6-0.2-9.5-0.9-9.5s-1.2,7.1-1,9.5
					C40.3,43.7,40.8,43.9,41.2,43.9"/>
			</g>
			<g id="svga-group-hair-front">
				<path id="SvgjsPath3813" class="st36" d="M61,4.4C56.7,0.3,40.1,4,35.2,4.5c-4.7,0.3-11-14.2-20.4,23.2c0,1.8,0.6,5,1.3,7.3
					c0.1,0,0.1-0.1,0.2-0.1c0,0-0.2,1.5,2.9,6.7c-0.1-3.7,0.6-6.5,1.2-10c7.4-9.4,14.2-11.6,19.4-13.1c-3.5,4.1-6.9,7.8-8.5,11.9
					c6.4-4.5,15.1-13.5,15.1-13.5S45.8,19,33.5,30.3c5.1-1.2,14.7-6.4,21.3-16.3c1.3,2.1-5.8,14.4-6,14.9c3.5-2.9,8.5-6.8,9.7-11.5
					c0,0,0.8,1.9,1.2,4.1c1.3,5.7,1.3,12.8,1.7,14.6c0.8-4.1,0.9-8.6,0.9-8.6c1.9,8.4,0.2,14.2,0.1,16.2c2.4-4.9,5-10.7,5.7-16.1
					C68.1,27.3,62.6,3.6,61,4.4z"/>
				<path id="SvgjsPath3814" class="st37" d="M74.3,22.7c0-2.5-0.6-6.5-1.3-8.8c1.5,1.5,3.4,3.4,5.1,4.4C76,16.5,75.3,14.9,70.6,5
					C67.7-1,65.7-7.4,60.1-8.2c-1.9-0.2-3.7,0.4-5.5,1.2c-4.5-4.1-10.1-5.7-15.3-5.3C23.4-11.1,19.2-0.8,10.7,1.2
					C12,1.6,14.2,1,15.6,0.4c-1.8,2.3-1.1,2.1-5,6C9,7.9,7.5,9.9,5.6,11c2.5-0.3,3.9-2.2,7.6-4.3c-0.6,0.9-2.4,3.7-5.6,6.7
					c-1.3,1.3-3.5,3.1-5.1,4.2c1.1-0.4,4.4-1.8,7.3-4.3c-1.4,2.2-5.6,6.2-3.7,14c0.4-3.4,0-7.7,3.3-9.8C9,19,7.6,22.2,8.6,25.7h5.1
					c0,1.8,0.7,5.1,1.3,7.4c0.1,0,0.1-0.1,0.2-0.1c0,0,0.2,1.5,3.4,6.7c-0.2-3.7,0.1-6.5,0.8-10c7.6-9.4,14.8-11.6,20.2-13.1
					c-3.6,4.1-6.5,8.8-8,12.9c5.2-5.4,15.8-13.9,15.8-13.9s-0.2,2.3-12.9,13.6c4.4-2.8,13.9-7.1,20.8-17c1.3,2.1-5.1,14.4-5.3,14.9
					c3.7-2.9,6.8-7.8,8.2-12.5c0,0,1.8,2.9,2.3,5c1.4,5.7,0.9,10.4,1.2,12.2c0.8-4.1,1.4-6.3,1.4-6.3c1.9,8.4-0.3,15.1-0.3,17.2
					c2.5-4.9,5.6-11.7,6.4-17.1h5.4C74.3,23.6,74.5,23.6,74.3,22.7z"/>
				<path id="SvgjsPath3815" class="st38" d="M77.4,8.3c-1.8-0.1-2.8,0-4.9-0.1c-0.3-0.7-1.3-2.6-1.7-3.3C72.6,6.3,76,8.2,77.4,8.3z
					"/>
				<path id="SvgjsPath3816" class="st0" d="M13.3,6.4c-3.6,2-5.3,4-7.3,4.3C7.9,9.6,9,8,10.7,6.3c3.9-3.9,3.4-3.9,5.2-6.3
					c-1.2,0.6-3.3,1.3-4.6,1.1C17.5,0.6,24.5-7.4,32-6.3C24.3-5.5,17.6,0.2,13.3,6.4z M50.1,27.1c5.2-10.8,5.5-12.5,5.3-14.9
					c-6.3,9-19.2,16-20.8,17c7.6-6.7,11-11.4,12.3-13c-10.6,8.4-10.6,8.6-15.1,13.3c2.6-6.8,1.3-5.4,8-12.9c-3,0.9-5.3,1.8-7.2,2.6
					c0.2-0.7,0.3-1,1.2-2.2c3.3-2,9.8-7.1,14.6-8.6c-1.7,1.3-2.5,3-4.1,4.3c2.5-0.7,5.5-1,10.4-3.6c-0.2,0.2,8.4-4.1,5.6-8.9
					c1.8,1.2,0.4,6.3-0.3,10.9c1.8,2.5,2.2,5.6,2.9,8.7c0.1-1,0.2-3.5,0-4.5c1.1,2.8,2.6,6.5,2.5,10.5c2.1-5.5,0.4-10.4,0.4-15.5
					c1.8,3,2.4,8.4,2.9,11.7c0.4-2.1,0.7-3.7-0.2-6.5c0.7,0.8,1.4,1.3,2,2.3c-0.8-4.4-2.3-7.5-4.3-10.7c1.9,2.2,4.7,4.1,5.7,6.9
					c-0.4-5.2-2.3-10.3-5.6-14.4c1.7,2,3.3,4,4.7,6.2c4.5,9.5,5.2,10.9,7.2,12.8c-1.5-1-3.5-2.9-5.1-4.4c0.9,2.3,1.3,6.3,1.3,8.8
					c0.2,1,0,1,0.3,3.1h-5.4c-0.8,5.4-3.9,12.2-6.4,17.1c0-2,2.1-8.5,0.4-16.5c0-0.2-0.1-0.4-0.1-0.6s-0.7,2.2-1.4,6.3
					c-0.2-1.8,0.2-6.5-1.2-12.2c-0.6-2.1-2.3-5-2.3-5C54.7,23.4,51.1,26.8,50.1,27.1z M38.8,11.1c-4.2,1.2-8.4,4.6-11.6,7.8
					c0.9-1.4,1.4-3.3,2.8-4.6c2.3-4.6,6.5-7.9,9.8-11.7c-7.1,4.2-11.2,10.3-16.3,16.3c1.4-2.8,2.8-6.5,5.2-8.9
					c-4.6,2.3-5.6,7.1-8.9,10.8C21.6,5.9,35.6-11.4,52-6.2C35.7-12.6,19.6,4.6,15.8,22.9c0-1.8,0.2-11.7,4-15.5
					c-3.7,2.8-4.6,7.5-7.1,10.8c-0.3-1.9,0.4-3.5,1.1-5.1c-0.4,0.8-1.4,1.3-2,2.1C13,11.4,14.1,7.4,17.9,5c-2.2,1.1-3.9,2.8-6.1,3.9
					c-1,1.3-2.4,3.1-4.1,4.7c-1.3,1.3-3.3,2.8-4.9,3.9c1.1-0.4,4.3-2.2,7.3-4.4C8.7,15.3,4.4,19,6,26.8c0.1-3.4,0.2-7.3,3.5-9.4
					c-0.3,1.5-1.9,5.2-0.9,8.7h5.1c0,1.8,0.7,5,1.3,7.3c0.1,0,0.1-0.1,0.2-0.1c0,0,0.1,0.9,1.8,3.7c0.4,0.8,1,1.8,1.8,3
					c-0.2-3.7,0.1-6.5,0.8-10c4.6-5.6,9-8.7,13-10.6C32.8,18.5,34.1,15.2,38.8,11.1z"/>
				<path id="SvgjsPath3817" class="st38" d="M12.8,7.3C18.2-3.4,29.1-6.3,33-6.3C24.6-4.5,18.6-0.7,12.8,7.3z M47-7.2
					C40.9-7.7,29.6-3.7,23.5,9C30.3-2.9,42.7-7.4,47-7.2z M62-5.3c-0.3-0.1-0.6-0.3-0.9-0.4c-3.6-1.4-6.9,1.1-7.3,3.5
					C54.4-4.7,58-6.8,62-5.3z M59.1-3.7c6.1-1.4,10.9,9.8,11,10.4C69.1,2.9,64.9-5.5,59.3-4C57.5-3.6,56-2.2,55-0.6
					C56-2,57.3-3.3,59.1-3.7z M37.8,14.3C41.1,11.5,56,6.9,55.6,0.4C55.4,6.3,43.7,9.3,37.8,14.3z M52.5-1.3c-1-0.4-3-2.3-8,0.8
					c-8.3,5-13.5,13.2-14.7,15.3C33.6,9.3,45.8-4.4,52.5-1.3z"/>
				<path id="SvgjsPath3818" class="st39" d="M30.9-4.7c-9,3.2-15.1,9.8-15.1,9.8C20.1,0.3,24.2-3,30.9-4.7z M19.2,6.1
					c0.9-1.4,7.6-8.9,11.6-10.4C26.6-3,21.4,2.4,19.2,6.1z M28.3,5c0,0,6.9-8.6,14.7-10.4C36.9-4.9,31.7-0.1,28.3,5z M37.2,7.7
					c0.4-0.6,8.8-7.5,12.6-8.5C45.7-0.3,38.4,5.9,37.2,7.7z M44.3,4.5c0.6-0.7,3.9-4.1,7.9-4.6C48.6-0.1,46.5,1.6,44.3,4.5z
					 M40.7,9.3c2.2-2.9,8-4,12.1-8.2C49.1,4.5,43.7,5.5,40.7,9.3z M47.9,11c0.4,0,8.7-4.3,10.5-6.1c1.5-1.7,1.9-3.4,0.7-4.2
					c1.7,1.8-0.6,3.5-1.4,4.3C56.8,5.7,53.2,8.1,47.9,11C47.9,11,48.3,10.7,47.9,11z M56.8,7.8c3-2.2,5-6.2,3.2-7.7
					c-0.7-0.6-1.7-0.8-2.4-0.8c0.8,0,2,0.3,2.4,0.9c1.9,2.2-1.8,6.1-4.2,7.7c-3.5,2.3-7.6,3.7-11.7,4.7
					C48.5,11.6,53.2,10.4,56.8,7.8z M29.3,6.9c0,0,6.1-7.4,12.3-9.8c0.8-0.3,1.5-0.4,2.3-0.6C38-2.9,32.6,2,29.3,6.9z M27.7,11.1
					c0.4-0.3,8.4-9.7,15.7-12.5C37.3,0.2,31.2,5.7,27.7,11.1z M69.1,7.4c-0.3-0.4-2.5-8.6-7.4-7.7C65.1-0.6,67.5,4,69.1,7.4z
					 M64.8,16.3c0.1-2.3,1-7.2-3.1-11C63.8,7.9,64.9,12.2,64.8,16.3z"/>
				<path id="SvgjsPath3819" class="st1" d="M80.1,19.6c-4-3.3-4.2-4.1-7.3-11.1c2.1,0.2,4,0,5.6-0.1c-3.5-0.3-6.2-3-7.5-4.1
					c-3.5-7.5-6.3-15-14.3-12.3c-0.7,0.2-1.2,0.4-1.9,0.8c-3.6-3.9-9-5.8-14.2-5.8C25.7-13.1,18.6-1.9,12.4,0.5
					C11.6,0.8,10.8,1,9.9,1.2c1.4,0.6,2.6,0.6,5-0.3c-2.9,3.9-1.5,1.9-5,5.4C8.4,7.9,7,10,4.7,11c1.9,0.2,3.1-0.3,4.7-1.4
					c1.1-0.8,2.3-1.8,3.1-2.3C9.2,12.4,1.2,18.1,1.2,18.1c2.6-0.4,5.3-2.1,7.5-3.9c-0.1,0.1-0.1,0.2-0.2,0.3c-1.1,1.5-2.2,3.2-2.8,5
					c-1,3.3-0.4,6.4,0.7,9.6C6.1,26.3,6.1,20.5,9,17.8c-0.6,1.7-2,4.9-1,8h0.4h0.1c-1-3.5,0.4-7.2,0.9-8.7c-3.3,2.1-3.4,6-3.5,9.4
					C4.4,18.7,8.7,15,10.2,12.7c-2.9,2.2-6.1,4-7.3,4.4c1.5-1.1,3.4-2.5,4.9-3.9c3.1-3,5.2-6.3,5.7-7.2c-3.7,2-5.4,4-7.4,4.4
					C8,9.3,9.1,7.6,10.7,6c3.9-3.9,3.4-3.9,5.2-6.3c-1.3,0.6-3.5,1.4-4.9,1c8.5-2.1,12.5-12,28.3-13.2c5.1-0.1,10.7,1.3,15.2,5.4
					c1.8-0.8,3.6-1.4,5.5-1.1C65.7-7.3,67.4-1,70.2,5c4.7,9.9,5.4,11.2,7.5,13.1c-1.5-1-3.5-3-5.1-4.6c0.9,2.3,1.4,6.2,1.4,8.7
					c-1-3.2-2.8-5.7-4.6-8.2c0.4,0.6,3.9,5.1,4.6,10.5c-1.4-2.9-3.2-5.4-5.3-7.7c3.2,4.3,4.3,6.9,5.3,8.9c0.1,0,0-0.1,0.6,0
					c0-0.1-0.1-0.2-0.1-0.3c0-0.4,0.4-5.8-1.3-10.9C75.5,17,76.6,18.4,80.1,19.6z M77,8.3c-1.8-0.1-2.3-0.1-4.4-0.2
					c-0.3-0.7-1.1-2-1.4-2.8C72.9,6.8,75.6,8.1,77,8.3z M67.8,31.6c-1.2,4.3-3.2,9-5.6,12.3c0.9-6.5,1.7-13,0.9-17.4
					c-0.2,2.6-0.9,5.2-1.7,7.8c0.2-3.3-0.1-6.7-0.4-10c-0.1-1.7-0.4-3.3-0.8-4.9c-0.3-1.5-1.1-3-1.8-4.3c-0.9,2.8-2.2,5.1-3.6,7.5
					c-1.4,2.3-3.2,4.3-5.6,5.6c1.5-2.5,2.9-6,3.9-7.9c0.9-1.8,2.5-4.9,2.3-7.6c-2.6,4.1-6.7,7.7-10.6,10.7c-3.6,2.8-11.5,6.8-12,7.1
					c0.1-0.1,4.4-4.1,7.3-6.8c5.3-5.2,6.2-6.2,6.9-7.3c-2.8,2.3-5.3,4.9-8,7.2c-2.6,2.3-5.4,4.5-7.8,7.1c0.7-2.5,1.9-4.9,3.1-7.1
					c1.3-2.4,3-4.4,5-6.3c-11,3.3-18.4,11.2-19.4,12.5c-0.2,2.1-0.6,9.3-0.3,12.3c-2.8-5-8.7-13-5.4-25.7c-1.2,6.2,0.4,16,4.6,22.8
					c-0.1-3,0.1-6.1,0.7-9c-0.9,0.9-1.8,1.8-2.8,2.5c0.6-3.1,2.2-6,3.6-8.6c1.4-2.5,3.1-5,5.2-6.9c-1.8,2.1-3.3,4.6-4.6,7.1
					c-1.5,2.6-3.3,6-3.9,7.9c3.2-3.1,4.9-6.7,12.6-11.5c4.5-2.9,7.3-3.3,10.1-4.2c0.6-0.6,1-1,1.4-1.5c0.9-1,1.8-2.1,2.5-3.2
					c-3.1,4.9-4.1,5.1-6.4,8.2c-3.5,4.7-3.9,6.1-5.2,9c2.9-3,4.4-4,7.4-6.8c2.3-2.2,7.7-6.3,7.9-6.5c0.6-1,1.1-2.4,2-3.7
					c-0.8,1.7-1.2,3.4-2.2,5c-1,1.6-2.4,3-3.7,4.3c-2.1,2.2-5.1,5.1-8.2,7.6c2.3-1.4,4.7-2.6,7.1-4.2c2.2-1.5,4.3-3.1,6.3-4.9
					c3.9-3.4,7.1-7.4,9.5-11.9c-0.8,1.7-1.7,3.2-2.5,4.6c0.3,1.8-0.1,3.4-0.8,5.1c-0.2,0.4-3.4,7.7-4.4,9.4c1.4-1.1,2.4-2.4,3.3-3.9
					c3.2-4.9,4.9-8.3,5.7-14.3c-0.2,2-0.4,4-1,5.8c1,2.4,1.5,3,2.1,5.1c1,3.7,1.2,7.6,1.1,11.6c1.1-5.3,1.5-10.6,0.8-16
					c1.1,6.5,0.7,10.5,0.7,10.5c0.2,1,0.4,2.1,0.6,3.1c0.6,4.5,0,9-0.9,13.5c4.4-8.5,5.6-20.4,3.4-29.5c1,3.2,1.4,6.5,1.5,9.8
					c0.1,3.2,0,6.5-0.6,9.7c1.1-2.8,2.1-7.4,2.1-8.2C69.5,25.7,68.6,28.8,67.8,31.6z"/>
			</g>
			<g id="svga-group-glasses-single" transform="translate(0 2.0000003000000004)">
				<path id="SvgjsPath3806" class="st40" d="M44.7,29.9c0.1,0.1,0.1,0.3,0.1,0.6s0,0.4,0,0.4s0,0.7,0.1,1.1c0.1,0.4,0,0.8-0.6,0.8
					c-0.7,0-0.8-1.8-0.8-2.2C43.4,29.7,44.1,29.1,44.7,29.9z M37.9,29.9c-0.1,0.1-0.1,0.3-0.1,0.6s0,0.4,0,0.4s0,0.7-0.1,1.1
					c-0.1,0.4,0,0.8,0.6,0.8c0.7,0,0.8-1.8,0.8-2.2C39.1,29.7,38.5,29.1,37.9,29.9z"/>
				<path id="SvgjsPath3807" class="st35" d="M64,29.7c-0.2,2.6-2,6.4-9.8,6.4l0,0c-3.4,0-6.2-0.9-7.8-2.6c-1.3-1.3-2-3.1-2-5.1
					C48.9,25.8,60.2,26.1,64,29.7z M18.5,28.9c0,2.6,1.3,7.1,9.9,7.1l0,0c3.4,0,6.2-0.9,7.8-2.6c1.2-1.2,1.8-2.8,1.9-4.5
					C33.3,25.7,21.8,26.1,18.5,28.9z"/>
				<path id="SvgjsPath3808" class="st41" d="M64,28.9c0,0.2,0,0.4,0,0.8c-3.7-3.6-15.1-3.9-19.6-1.4c0-0.1,0-0.1,0-0.2
					c0,0,0.8-4.4,8.9-4.4C61.1,23.5,64,26.8,64,28.9z M29.3,23.5c-7.8,0-10.7,3.3-10.7,5.4c0,0,0,0,0,0.1c3.2-3,14.7-3.3,19.7-0.1
					c0-0.2,0-0.6,0-0.8C38.3,27.9,37.5,23.5,29.3,23.5z"/>
				<path id="SvgjsPath3809" class="st42" d="M53.3,23.4c-7.3,0-8.7,3.4-9,4.3c-0.4-0.1-0.6-0.1-0.8-0.3c-1.2-1.1-3.1-1.1-4.3,0
					c-0.2,0.2-0.4,0.2-0.8,0.3c-0.2-0.9-1.8-4.3-9-4.3c-7.9,0-10.8,3.3-10.8,5.5c0,2.6,1.3,7.2,9.9,7.2c8.8,0,9.9-5.5,9.9-7.9
					c0.7-0.1,0.9-0.1,1.2-0.4c1-1,2.4-1,3.4,0c0.3,0.3,0.6,0.3,1.2,0.4c0,2.5,1.1,7.9,9.9,7.9c8.7,0,9.9-4.5,9.9-7.2
					C64.1,26.8,61.1,23.4,53.3,23.4z M28.5,35.8c-8.4,0-9.6-4.3-9.6-6.8c0-2,2.9-5.2,10.5-5.2c7.9,0,8.7,4.2,8.7,4.2
					C38.2,33,34.4,35.8,28.5,35.8z M54.1,35.8c-6,0-9.7-2.8-9.6-7.7c0,0,0.8-4.2,8.7-4.2c7.6,0,10.5,3.2,10.5,5.2
					C63.7,31.5,62.5,35.8,54.1,35.8z"/>
			</g>
		</g>
	</g>
	<rect id="SvgjsRect1033" x="3.3" y="87.9" class="st43" width="93.5" height="7.1"/>
</g>
</svg>
