<?xml version="1.0" encoding="utf-8"?>
<svg xml:space="preserve" xmlns:xlink="http://www.w3.org/1999/xlink" id="Layer_1" style="enable-background:new 0 0 72 72;" version="1.1" viewBox="0 0 72 72" x="0px" xmlns="http://www.w3.org/2000/svg" y="0px">
                                        <defs>
                                            <linearGradient id="grad1" x1="0%" x2="100%" y1="0%" y2="0%">
                                                <stop offset="0%" style="stop-color:rgb(57,146,230);stop-opacity:1"></stop>
                                                <stop offset="100%" style="stop-color:rgb(160,102,255);stop-opacity:1"></stop>
                                            </linearGradient>
                                        </defs>
    <style type="text/css">
                                            .st3{fill:#D1D1D1;}
                                            .st4{fill:#B4B4B4;}
                                            .st5{fill:#FFFFFF;}

                                        </style>
    <path class="angular-path st3" d="M67.1,36c-1.4,9.1-4.2,11.7-9.1,17.8c-4.9,5.2-12,13.8-22,13.3c-9.1-1.4-11.7-4.2-17.8-9.1
                                          C13.1,53.1,4.5,46,4.9,36c1.4-9.1,4.2-11.7,9.1-17.8c4.9-5.2,12-13.8,22-13.3c9.1,1.4,11.7,4.2,17.8,9.1C58.9,18.9,67.5,26,67.1,36z
                                          " id="angular-path"></path>
    <polygon class="angular-path st4" points="36,16.4 17.4,23 20.4,47.4 36.1,56 51.9,47.2 54.8,22.8 "></polygon>
    <polygon class="angular-path st5" points="36,18.5 19.5,24.3 22,46.2 36,53.9 50.2,46.1 52.9,24.2 "></polygon>
    <path class="angular-path st3" d="M36,19.8L36,19.8L36,19.8L36,19.8L36,19.8L24.5,45.4l4.3-0.1l2.3-5.8H36l0,0l5.4,0l2.5,5.8l4.1,0.1L36,19.8z
                                           M36,28l3.9,8.1H36l0,0h0h-3.4L36,28z"></path>
                                      </svg>
