<?xml version="1.0" encoding="utf-8"?>
<svg xml:space="preserve" xmlns:xlink="http://www.w3.org/1999/xlink" id="bootstrapIcon" style="enable-background:new 0 0 72 72;" version="1.1" viewBox="0 0 72 72" x="0px" xmlns="http://www.w3.org/2000/svg" y="0px">
                                        <style type="text/css">
                                            .st0{fill:#D1D1D1;}
                                            .st1{fill:#FFFFFF;}
                                        </style>
    <path class="bootstrapIcon st0" d="M71.1,36.4c-1.5,10.1-4.6,13-10.1,19.8C55.5,62,47.7,71.6,36.5,71c-10.1-1.5-13-4.6-19.8-10.1
                                            C10.9,55.4,1.3,47.6,1.9,36.4c1.5-10.1,4.6-13,10.1-19.8c5.5-5.8,13.3-15.4,24.5-14.8c10.1,1.5,13,4.6,19.8,10.1
                                            C62.1,17.4,71.7,25.2,71.1,36.4z"></path>
    <g>
                                            <path class="st1" d="M49,22.8c1.1,1.5,1.6,3.2,1.6,5.2c0,2.1-0.5,3.8-1.6,5.1c-0.6,0.7-1.5,1.4-2.6,2c1.8,0.6,3.1,1.6,4,3
                                                c0.9,1.4,1.3,3.1,1.3,5c0,2-0.5,3.9-1.5,5.5c-0.7,1.1-1.5,2-2.4,2.7c-1.1,0.8-2.4,1.4-3.9,1.7s-3.1,0.5-4.9,0.5H23.4V19.2h16.6
                                                C44.2,19.2,47.2,20.5,49,22.8z M30.3,25.1v7.6h8.4c1.5,0,2.7-0.3,3.6-0.9s1.4-1.6,1.4-3c0-1.6-0.6-2.7-1.8-3.2
                                                c-1.1-0.4-2.4-0.5-4.1-0.5L30.3,25.1L30.3,25.1z M30.3,38.4v9.2h8.3c1.5,0,2.7-0.2,3.5-0.6c1.5-0.7,2.3-2.2,2.3-4.3
                                                c0-1.8-0.7-3-2.2-3.7c-0.8-0.4-2-0.6-3.4-0.6H30.3z"></path>
                                        </g>
                                        </svg>
