<?xml version="1.0" encoding="utf-8"?>
<svg xml:space="preserve" xmlns:xlink="http://www.w3.org/1999/xlink" id="codeIgniterIcon" style="enable-background:new 0 0 72 72;" version="1.1" viewBox="0 0 72 72" x="0px" xmlns="http://www.w3.org/2000/svg" y="0px">
                                        <style type="text/css">
                                            .st0{fill:#D1D1D1;}
                                            .st1{fill:#FFFFFF;}
                                        </style>
    <path class="codeIgniterIcon st0" d="M71.1,36.4c-1.5,10.1-4.6,13-10.1,19.8C55.5,62,47.7,71.6,36.5,71c-10.1-1.5-13-4.6-19.8-10.1
                                            C10.9,55.4,1.3,47.6,1.9,36.4c1.5-10.1,4.6-13,10.1-19.8c5.5-5.8,13.3-15.4,24.5-14.8c10.1,1.5,13,4.6,19.8,10.1
                                            C62.1,17.4,71.7,25.2,71.1,36.4z"></path>
    <path class="st1" d="M20,55.9c-0.7,0-1-0.4-1-1.1c0-0.2,0-0.5,0.1-0.7c0.2-1.1,0.6-1.8,1.5-1.8c0.7,0,1,0.3,1,0.8v0.3h0.7
                                            c0,0,0-0.2,0-0.3c0-0.8-0.5-1.5-1.6-1.5c-1.6,0-2.2,0.9-2.5,2.5c0,0.2-0.1,0.4-0.1,0.7c0,1,0.4,1.9,1.8,1.9c1.1,0,1.7-0.5,2.1-1.1
                                            l-0.6-0.4C20.9,55.7,20.5,55.9,20,55.9L20,55.9z M24.2,52.8c-1.3,0-1.8,0.6-2,1.9c0,0.1,0,0.3,0,0.5c0,0.8,0.4,1.5,1.5,1.5
                                            c1.3,0,1.8-0.7,2-1.9c0-0.2,0-0.3,0-0.5C25.7,53.4,25.3,52.8,24.2,52.8z M24.8,54.7c-0.1,0.9-0.4,1.2-1,1.2c-0.4,0-0.7-0.2-0.7-0.7
                                            c0-0.1,0-0.3,0-0.5c0.1-0.9,0.4-1.2,1-1.2c0.4,0,0.7,0.2,0.7,0.7C24.8,54.4,24.8,54.5,24.8,54.7L24.8,54.7z M28.9,51.7l-0.2,1.3
                                            c0,0.1,0,0.1,0,0.2c-0.2-0.1-0.6-0.2-0.8-0.2c-1.1,0-1.8,0.5-2,1.9c0,0.2,0,0.3,0,0.5c0,1,0.6,1.4,1.4,1.4c0.3,0,0.7,0,1-0.2
                                            l0.1,0.4H29l0.8-5.2H28.9L28.9,51.7z M28.2,55.7c-0.3,0.2-0.6,0.2-0.8,0.2c-0.5,0-0.6-0.3-0.6-0.7c0-0.2,0-0.3,0-0.5
                                            c0.2-1.1,0.5-1.3,1-1.3c0.3,0,0.5,0,0.7,0.2L28.2,55.7z M31.8,52.8c-1.2,0-1.8,0.6-2,1.9c0,0.2,0,0.3,0,0.5c0,0.9,0.5,1.5,1.5,1.5
                                            c0.8,0,1.4-0.3,1.7-0.9l-0.7-0.3c-0.2,0.3-0.5,0.5-0.9,0.5c-0.5,0-0.7-0.1-0.7-0.6c0-0.1,0-0.2,0-0.2h2.5c0-0.3,0.1-0.6,0.1-0.8
                                            C33.2,53.7,32.9,52.8,31.8,52.8L31.8,52.8z M32.3,54.4h-1.5c0.1-0.3,0.4-0.9,0.9-0.9c0.4,0,0.6,0.2,0.6,0.6
                                            C32.3,54.3,32.3,54.4,32.3,54.4z M35.8,52.7l0.1-0.7H34l-0.1,0.7h0.5l-0.5,3.5h-0.5l-0.1,0.7h1.9l0.1-0.7h-0.5l0.5-3.5H35.8
                                            L35.8,52.7z M39.7,53.7l0.2-0.7h-0.7l-0.5,0.1c-0.3-0.2-0.6-0.3-1-0.3c-1,0-1.8,0.5-1.8,1.5c0,0.3,0.1,0.5,0.2,0.7
                                            c-0.2,0.1-0.4,0.3-0.4,0.5c0,0.1,0,0.2,0.1,0.3c-0.4,0.2-0.7,0.7-0.7,1.1c0,0.9,1,1.1,1.7,1.1c0.9,0,2-0.2,2-1.4
                                            c0-0.4-0.3-0.7-1-0.9l-1.3-0.2c-0.1,0-0.2-0.1-0.2-0.1c0-0.1,0.1-0.2,0.2-0.2l0.1,0c0.2,0,0.4,0.1,0.6,0.1c0.9,0,1.8-0.4,1.8-1.5
                                            c0-0.1,0-0.3-0.1-0.4c0.1,0.1,0.3,0.1,0.3,0.1H39.7L39.7,53.7L39.7,53.7z M37.8,56.6c0.3,0,0.3,0.1,0.3,0.3c0,0.6-0.6,0.6-1,0.6
                                            c-0.7,0-0.9-0.2-0.9-0.5c0-0.3,0.1-0.5,0.3-0.7L37.8,56.6z M37.6,54.8c-0.4,0-0.6-0.1-0.6-0.5c0-0.5,0.3-0.8,0.8-0.8
                                            c0.4,0,0.6,0.2,0.6,0.5C38.4,54.5,38.1,54.8,37.6,54.8z M42.1,52.8c-0.4,0-0.7,0.2-1.1,0.5l-0.1-0.3h-0.8l-0.5,3.8h0.9L41,54
                                            c0.3-0.2,0.6-0.4,0.9-0.4c0.3,0,0.5,0.2,0.5,0.5c0,0.1,0,0.3,0,0.4l-0.3,2.4h0.9l0.3-2.5c0-0.1,0-0.3,0-0.4
                                            C43.2,53.3,42.9,52.8,42.1,52.8L42.1,52.8z M44.9,55.9L44.9,55.9l0.4-2.9h-1.5l-0.1,0.7h0.7c-0.1,0-0.1,0.1-0.1,0.1L44,55.7
                                            c0,0.1,0,0.3,0,0.3c0,0.5,0.3,0.8,0.8,0.8h0.5l0.1-0.7h-0.3C45,56.2,44.9,56,44.9,55.9L44.9,55.9z M45.5,51.7h-0.9
                                            c-0.1,0-0.1-0.2-0.1-0.1l-0.1,1c0,0.1,0,0.2,0,0.2h0.9c0.1,0,0.1-0.2,0.1-0.3L45.5,51.7C45.6,51.6,45.6,51.7,45.5,51.7L45.5,51.7z
                                             M47.4,55.9c-0.2,0-0.3-0.1-0.3-0.3l0,0l0.3-1.9h1l0.3-0.7h-1.3l0.2-1.5l-1,0.3l-0.2,1.2h-0.6l-0.1,0.7h0.6
                                            c-0.1,0.3-0.1,0.1-0.1,0.2l-0.2,1.6c0,0.1,0,0.1,0,0.2c0,0.6,0.5,0.9,1.1,0.9c0.5,0,1-0.2,1.3-0.4L48,55.7
                                            C47.8,55.8,47.7,55.9,47.4,55.9L47.4,55.9z M50.7,52.8c-1.2,0-1.8,0.6-2,1.9c0,0.2,0,0.3,0,0.5c0,0.9,0.5,1.5,1.5,1.5
                                            c0.8,0,1.4-0.3,1.7-0.9l-0.7-0.3c-0.2,0.3-0.5,0.5-0.9,0.5c-0.5,0-0.7-0.1-0.7-0.6c0-0.1,0-0.2,0-0.2H52c0-0.3,0.1-0.6,0.1-0.8
                                            C52.1,53.7,51.8,52.8,50.7,52.8L50.7,52.8z M51.2,54.4h-1.5c0.1-0.3,0.4-0.9,0.9-0.9c0.4,0,0.6,0.2,0.6,0.6
                                            C51.2,54.3,51.2,54.4,51.2,54.4L51.2,54.4z M54.6,52.8c-0.3,0-0.6,0.2-0.9,0.5l-0.1-0.2h-0.7l-0.5,3.8h0.9l0.4-3
                                            c0.2-0.1,0.5-0.3,0.8-0.3c0.2,0,0.3,0,0.5,0l0.1-0.8C54.9,52.8,54.7,52.8,54.6,52.8L54.6,52.8z M31.4,48.9c-2.1-0.9-4-3.2-4-5.5
                                            c0-2.5,1.6-4.7,3.6-6.1c-0.2,0.9-0.4,1.7,0.2,2.5c0.6,0.8,1.5,1.1,2.4,0.9c2.1-0.5,2.2-2.8,1-4.2c-1.3-1.4-2.5-2.9-2-4.8
                                            c0.2-1,0.8-1.9,1.6-2.6c-0.6,1.5,1.1,3.1,2.2,3.8c1.9,1.3,4,2.3,5.8,3.9c1.8,1.6,3.2,3.8,2.9,6.4c-0.3,2.8-2.5,4.7-4.9,5.6
                                            c5.2-1.1,10.6-5.2,10.7-10.9c0.1-4.7-3.2-8.4-7.2-10.5l-0.2-0.1c0.1,0.3,0.1,0.5,0.1,0.7c0-0.2,0.1-0.3,0.1-0.5c0,0.2,0,0.4-0.1,0.6
                                            l0-0.1c-0.1,0.3-0.2,0.5-0.3,0.7l0.1-0.1c-0.8,1.3-3,1.6-4.1,0.2c-1.7-2.2,0-4.6,0.3-7c0.3-2.9-1.5-5.8-3.8-7.5
                                            c1.3,2-0.4,4.7-1.7,6.3c-1.3,1.5-2.9,2.7-4.3,4c-1.5,1.4-3,2.9-4.3,4.6c-2.5,3.4-4.1,7.6-2.9,11.8C23.7,45.3,27.3,48,31.4,48.9
                                            L31.4,48.9z"></path>
                                        </svg>
