<?xml version="1.0" encoding="utf-8"?>
<svg xml:space="preserve" xmlns:xlink="http://www.w3.org/1999/xlink" id="zurbIcon" style="enable-background:new 0 0 72 72;" version="1.1" viewBox="0 0 72 72" x="0px" xmlns="http://www.w3.org/2000/svg" y="0px">
                                        <style type="text/css">
                                            .st0{fill:#D1D1D1;}
                                            .st1{fill:#FFFFFF;}
                                            .st2{fill:#FCFCFC;}
                                        </style>
    <path class="zurbIcon st0" d="M71.1,36.4c-1.5,10.1-4.6,13-10.1,19.8C55.5,62,47.7,71.6,36.5,71c-10.1-1.5-13-4.6-19.8-10.1
                                            C10.9,55.4,1.3,47.6,1.9,36.4c1.5-10.1,4.6-13,10.1-19.8c5.5-5.8,13.3-15.4,24.5-14.8c10.1,1.5,13,4.6,19.8,10.1
                                            C62.1,17.4,71.7,25.2,71.1,36.4z"></path>
    <path class="st1" d="M50.7,26l0.4,0.1l0,0c-0.2-0.3-0.4-0.6-0.8-0.7c-0.3,0-0.6,0-0.9,0c0-0.1,0-0.2-0.2-0.1
                                            c-0.1,0.1-0.3,0.1-0.4,0.1c-0.3,0.1-0.6,0.2-1,0.4c-0.1,0-0.1,0-0.2,0c0-0.1,0-0.1,0-0.2c0.1-0.2,0.1-0.4,0.2-0.6c0-0.1,0-0.1,0-0.2
                                            l0.3,0.2c0.1-0.7-0.1-1.4-0.5-2l0.4,0c-0.2-0.4-0.4-0.7-0.8-0.9c-0.5-0.3-1-0.3-1.5-0.3c-0.1,0-0.2,0-0.3,0c0.4,0.6,0.6,1.7,0.3,2.1
                                            l-0.1-0.2c-0.3,0.5-0.6,1-0.9,1.4c-0.3,0.5-0.7,0.9-1.3,1.1l0.1-0.3c-0.1,0-0.1,0-0.2,0c-0.1,0-0.3,0.1-0.4,0
                                            c-0.2,0-0.5-0.1-0.7-0.2c-0.2,0-0.3-0.1-0.5-0.1l0,0l0,0c-0.2-0.1-0.2-0.3-0.1-0.5c0.1-0.1,0.1-0.3,0.2-0.4c0.1-0.3,0.2-0.6,0.3-0.9
                                            c0.1-0.1,0.2-0.2,0.3-0.4c0.1-0.2,0.2-0.3,0.3-0.5c0.1-0.1,0.1-0.2,0.3-0.3c0.1,0,0.2-0.1,0.2-0.2c0.1-0.1,0.1-0.3,0.2-0.4
                                            c0-0.1,0-0.2-0.1-0.2l-0.1,0c0,0,0-0.1,0-0.1c0.4-0.8,0.7-1.5,1.1-2.3c0.4-0.8,0.8-1.5,1.2-2.3c0.1-0.2,0.2-0.3,0.3-0.5
                                            c0.2,0,0.4,0,0.5,0c0.8,0,1.5-0.2,2.1-0.8c0.6-0.6,1.1-1.3,1.3-2.2l0.1-0.1l-0.1,0.1c-0.8,0.5-1.7,0.8-2.6,0.7c0,0,0-0.1,0-0.1
                                            c0.3-0.5,0.7-0.9,1-1.4c0.1-0.2,0.3-0.3,0.4-0.5c-0.1,0-0.2-0.1-0.2-0.1c-0.3-0.1-0.7-0.2-1-0.3c-0.1,0-0.2-0.1-0.1-0.2
                                            c0.1-0.3,0.3-0.6,0.4-0.9l0.2-0.3c-0.8-0.2-1.6-0.2-2.4-0.1V10c-0.5,0-0.7,0.1-1,0.1c-0.3,0.1-0.6,0.2-0.9,0.3l0,0l0.7-1.2
                                            c-0.4,0-0.7,0.1-1,0.1c-0.7,0.1-1.4,0.2-2,0.4c-0.3,0.1-0.6,0.1-0.9,0.2V9.4c-0.3,0.1-0.8,0.3-1.2,0.5c0.1-0.3,0.2-0.5,0.3-0.8
                                            c0-0.1,0-0.1,0-0.2c0,0,0,0-0.1,0c-0.2,0-0.4,0.1-0.6,0.1c-1,0.2-2,0.5-2.9,1.1c-0.1,0.1-0.2,0.1-0.4,0.2l-0.1-1.1
                                            c-0.6,0.2-1.1,0.5-1.5,0.9l-0.2-0.8l0-0.1l0,0l0,0c0,0.1-0.1,0.1-0.1,0.2c-0.4,0.6-0.7,1.3-0.7,2.1l-0.4-0.8L32,12.9l-0.8-1.1
                                            c-0.3,0.8-0.5,1.6-0.6,2.4L30,13.6c-0.4,1.2-0.7,2.4-0.8,3.6c-0.3-0.2-0.5-0.4-0.6-0.7c-0.2-0.4-0.2-0.8-0.2-1.3c0-0.1,0-0.1,0-0.2
                                            l0,0c-0.6,2-0.7,4.1-0.7,6.2l-0.7-1.4l0,0c0,0.5-0.1,1.1-0.1,1.6c0,0.3,0,0.3-0.3,0.3c-1,0.2-1.9,0.6-2.8,1.2
                                            c-0.1,0-0.1,0.1-0.2,0.1l0.1,0.1l0.8,0.3c-0.4,0.4-0.7,0.8-1.1,1.2c-0.3,0.4-0.6,0.9-0.8,1.4c0.2-0.1,0.3-0.1,0.5-0.2
                                            c0.2-0.1,0.3-0.1,0.5-0.1c-0.3,0.3-0.5,0.6-0.7,1c-0.7,1.3-0.9,2.7-1,4.1c-0.1,0.9,0,1.8,0.1,2.8c0,0.2,0.1,0.3,0.1,0.5l0.1,0l0.4-1
                                            c0.2,1,0.2,2.1,0.2,3.1l0,0l0.4-0.5c0.1,0.1,0.1,0.1,0.1,0.2c0.2,0.7,0.2,1.4,0.2,2.1c0,0.4,0,0.7,0.1,1.1c0.2,0.9,0.7,1.7,1.3,2.3
                                            c0.1,0.1,0.3,0.2,0.4,0.3c0.1,0.1,0.1,0,0.1-0.1l0,0l0,0l0.3,0.1l0.5,0.2l0,0l-0.3-0.6l0,0l0,0l0,0c0,0,0,0,0.1,0
                                            c0.3,0.3,0.7,0.4,1,0.6c0.1,0.2,0.3,0.4,0.5,0.6l0.3-0.2c0,0.1,0.1,0.1,0.1,0.1c0.3,0.4,0.6,0.6,1.1,0.5c0.3,0,0.6,0,0.9,0
                                            c1,0,2,0,3-0.1c0.7,0,1.4,0,2.1-0.1c0.3,0,0.7,0,1-0.1c-0.5-1.4-1.6-2.1-2.8-2.6l1-0.3c1.5,0.8,3.2,1.4,4.5,2.5l0.1,0l-0.1-1.2
                                            c0.1,0.1,0.2,0.1,0.3,0.2c0.3,0.2,0.7,0.5,1,0.7l0.1,0l0,0c0.5,0.4,1,0.8,1.7,0.7c1,0,1.9,0,2.9,0c0.1,0,0.2-0.1,0.2-0.1
                                            c0.2-0.4,0.4-0.7,0.6-1.1c0.5-0.9,1-1.8,1.4-2.8l0.1-0.3c-0.2,0.1-0.4,0.2-0.6,0.3c-0.2,0.1-0.4,0.2-0.6,0.3l0,0l0,0
                                            c0-0.1,0-0.1,0.1-0.2c0.4-0.7,0.9-1.4,1.3-2.2c0.5-0.7,1-1.4,1.3-2.2c0.1-0.4,0.2-0.7,0.3-1.1l0,0l0,0c-0.2,0.1-0.4,0.3-0.6,0.4
                                            c-0.3,0.1-0.5,0.3-0.8,0.4l0,0l0,0l0,0l0-0.2l0.2-0.8c-0.1,0-0.1,0-0.2,0c-0.6,0.3-1.2,0.6-1.8,0.9c-0.8,0.4-1.6,0.8-2.3,1.4
                                            c-0.2,0.2-0.5,0.4-0.7,0.6l-0.1,0c-0.2-0.2-0.5-0.4-0.7-0.6c-0.1-0.1-0.3-0.3-0.4-0.4c0.5-0.6,0.9-1.4,1.2-2.1
                                            c0.2-0.5,0.3-1,0.4-1.5l0.1,0c0.4-0.1,0.8-0.3,1.2-0.2c0.2,0,0.4,0.1,0.5,0.1l-0.1-0.3l0,0l0,0l0,0c0,0,0.1,0,0.1,0
                                            c0.3,0.1,0.6,0.3,0.9,0.4c0.5,0.2,1.1,0.3,1.6,0.3c0.1,0,0.1,0,0.1-0.1c0.1,0,0.1,0,0.2,0c0.4,0.2,0.9,0.2,1.3,0.2
                                            c0.4,0,0.7-0.2,0.9-0.6l0.1,0.1c0.1-0.3,0-0.6,0-0.9c0-0.1,0-0.1,0-0.2c0.1-0.1,0.2-0.2,0.4-0.3l0.1,0.2c0.2-0.3,0.2-0.6,0.2-1
                                            l0.2,0.2l0.1,0c-0.1-0.3-0.1-0.5-0.2-0.8c-0.2-0.3-0.2-0.6,0-0.9c0.1-0.2,0.2-0.4,0.3-0.7c0,0.1,0,0.1,0,0.1c0,0,0,0,0.1,0
                                            C51.2,26.8,51,26.4,50.7,26z"></path>
    <g>
                                            <path class="st1" d="M59.4,48.1L59.4,48.1c-0.2-0.1-0.4-0.2-0.3-0.4c0.1-0.5,0-1-0.2-1.4c-0.4-0.7-1.1-1.1-2-1.1h-6
                                                c-0.1,0-0.2,0-0.2,0c-0.3,0.1-0.6,0.4-0.5,0.7v6.6c0,0.2,0.1,0.3,0.3,0.3h8.2c1.1,0,2-0.8,2-1.9v-1.2C60.7,49,60.1,48.3,59.4,48.1z
                                                 M52.9,47.1h3.4c0.2-0.1,0.6,0.1,0.7,0.4c0,0.1,0,0.1,0,0.2c0.1,0.2-0.1,0.3-0.2,0.4c-0.1,0-0.1,0-0.2,0h-4c-0.2,0-0.3,0-0.3-0.3
                                                C52.2,47.1,52.2,47.1,52.9,47.1z M58.5,50.7c0,0.3-0.2,0.2-0.5,0.2h-2.8l0,0h-2.8c-0.2,0-0.4,0-0.3-0.3c0-0.1,0-0.2,0-0.2
                                                c0-0.2,0-0.4,0.3-0.4H58C58.4,50,58.6,50.3,58.5,50.7L58.5,50.7z"></path>
        <path class="st1" d="M21.8,47.1h-7.8c-0.2,0-0.4-0.1-0.3-0.3c0.1-0.2,0-0.7,0-1c-0.1-0.3,0.2-0.7,0.5-0.7c0.1,0,0.1,0,0.2,0h7.8
                                                c1-0.1,1.9,0.6,2.1,1.5c0.2,1-0.4,2-1.4,2.3c-1.1,0.3-2.1,0.7-3.2,0.9l-3.6,1.1c0.2,0.1,0.2,0.1,0.4,0H24c0.3,0,0.4,0.1,0.4,0.4
                                                s0,0.7,0,1c0.1,0.3-0.2,0.6-0.5,0.7c-0.1,0-0.1,0-0.2,0c-2.7,0-5.3,0-8,0c-1.1,0-2-0.8-2-1.9c0-0.3,0.1-0.7,0.2-1
                                                c0.3-0.5,0.7-0.8,1.3-1l6.4-1.8C21.7,47.2,21.8,47.2,21.8,47.1z"></path>
        <path class="st2" d="M48.5,48v-0.9c0-0.5-0.2-1.1-0.7-1.4c-0.5-0.4-1.1-0.6-1.6-0.6h-3.7l0,0h-3.9c-0.1,0-0.1,0-0.2,0
                                                c-0.3,0-0.7,0.3-0.6,0.7v6.8v0.1c0,0.1,0.2,0.2,0.2,0.2h1.2c0.1,0,0.2,0,0.2,0c0.3-0.1,0.5-0.4,0.4-0.7v-1.9c0-0.3,0.1-0.3,0.3-0.3
                                                h5.2c0.1,0,0.2,0,0.2,0c0.3,0.1,0.5,0.4,0.5,0.7v1.9c0,0.2,0,0.2,0.2,0.3H48c0.3,0,0.5-0.3,0.5-0.6V51c0.1-0.5-0.2-1.1-0.6-1.4
                                                c-0.2-0.2-0.2-0.2,0-0.3C48.4,49,48.6,48.5,48.5,48z M46.4,47.9c0,0.2-0.2,0.2-0.4,0.2h-2.8l0,0h-2.8c-0.2,0-0.4,0-0.3-0.3
                                                c0-0.1,0-0.2,0-0.3c0-0.2,0.1-0.3,0.3-0.3h5.4c0.2,0,0.4,0.1,0.5,0.2C46.4,47.4,46.5,47.6,46.4,47.9z"></path>
        <path class="st1" d="M31.1,52.9c-1.1,0-2,0-3.1,0c-1.1,0-2.1-0.9-2.1-2c0-0.1,0-0.1,0-0.2c0-1.6,0-3.3,0-4.8
                                                c-0.1-0.3,0.2-0.7,0.5-0.7c0.1,0,0.2,0,0.2,0c0.3,0,0.7,0,1.1,0c0.4,0,0.3,0.1,0.3,0.3c0,1.5,0,3,0,4.5c0,0.8,0.2,1,1,1h4.6
                                                c0.3,0.1,0.7-0.1,0.8-0.5c0-0.1,0-0.2,0-0.3c0-1.4,0-2.8,0-4.2c-0.1-0.3,0.2-0.7,0.5-0.7c0.1,0,0.2,0,0.2,0h1.1
                                                c0.1-0.1,0.2,0,0.2,0.1s0,0.1,0,0.2c0,1.9,0,3.8,0,5.6c-0.1,1.1-1,2-2.1,1.9l0,0C34.3,52.9,31.1,52.9,31.1,52.9z"></path>
                                        </g>
                                        </svg>
