<?xml version="1.0" encoding="utf-8"?>
<svg xml:space="preserve" xmlns:xlink="http://www.w3.org/1999/xlink" id="ionic" style="enable-background:new 0 0 72 72;" version="1.1" viewBox="0 0 72 72" x="0px" xmlns="http://www.w3.org/2000/svg" y="0px">
                                        <style type="text/css">
                                            .st0{fill:#D1D1D1;}
                                            .st1{fill:#FFFFFF;}
                                        </style>
    <path class="ionic st0" d="M71.1,36.4c-1.5,10.1-4.6,13-10.1,19.8C55.5,62,47.7,71.6,36.5,71c-10.1-1.5-13-4.6-19.8-10.1
                                            C10.9,55.4,1.3,47.6,1.9,36.4c1.5-10.1,4.6-13,10.1-19.8c5.5-5.8,13.3-15.4,24.5-14.8c10.1,1.5,13,4.6,19.8,10.1
                                            C62.1,17.4,71.7,25.2,71.1,36.4z"></path>
    <g>
                                            <circle class="st1" cx="36.5" cy="36.4" r="8.9"></circle>
        <path class="st1" d="M53.9,23.3c0.5-0.5,0.8-1.2,0.8-2c0-1.7-1.4-3.1-3.1-3.1c-0.8,0-1.5,0.3-2,0.8c-3.7-2.8-8.2-4.4-13.1-4.4
                                                c-12,0-21.8,9.8-21.8,21.8s9.8,21.8,21.8,21.8s21.8-9.8,21.8-21.8C58.3,31.5,56.7,27,53.9,23.3z M36.5,57.5
                                                c-11.6,0-21.1-9.5-21.1-21.1c0-11.6,9.5-21.1,21.1-21.1c4.7,0,9.1,1.6,12.6,4.2c-0.3,0.5-0.6,1.1-0.6,1.8c0,1.7,1.4,3.1,3.1,3.1
                                                c0.7,0,1.3-0.2,1.8-0.6c2.6,3.5,4.2,7.9,4.2,12.6C57.6,48,48.1,57.5,36.5,57.5z"></path>
                                        </g>
                                        </svg>
