<?xml version="1.0" encoding="utf-8"?>
<svg xml:space="preserve" xmlns:xlink="http://www.w3.org/1999/xlink" id="jq" style="enable-background:new 0 0 72 72;" version="1.1" viewBox="0 0 72 72" x="0px" xmlns="http://www.w3.org/2000/svg" y="0px">
                                          <defs>
                                              <linearGradient id="grad1" x1="0%" x2="100%" y1="0%" y2="0%">
                                                  <stop offset="0%" style="stop-color:rgb(57,146,230);stop-opacity:1"></stop>
                                                  <stop offset="100%" style="stop-color:rgb(160,102,255);stop-opacity:1"></stop>
                                              </linearGradient>
                                          </defs>
    <style type="text/css">
                                            .st0{fill:#D1D1D1;}
                                            .st1{fill:#FFFFFF;}
                                        </style>
    <path class="jq st0" d="M68.1,36c-1.4,9.1-4.2,11.7-9.1,17.8c-4.9,5.2-12,13.8-22,13.3c-9.1-1.4-11.7-4.2-17.8-9.1
                                            C14.1,53.1,5.5,46,5.9,36c1.4-9.1,4.2-11.7,9.1-17.8c4.9-5.2,12-13.8,22-13.3c9.1,1.4,11.7,4.2,17.8,9.1C59.9,18.9,68.5,26,68.1,36z
                                            "></path>
    <g id="Layer_6">
                                            <g>
                                                <path class="st1" d="M19.8,26.5c-3.3,4.7-2.9,10.9-0.4,15.9c0.1,0.1,0.1,0.2,0.2,0.4c0,0.1,0.1,0.2,0.1,0.2c0,0,0,0.1,0.1,0.1
                                                c0,0.1,0.1,0.2,0.1,0.2c0.1,0.1,0.2,0.3,0.2,0.4c0,0.1,0.1,0.2,0.1,0.2c0.1,0.1,0.2,0.3,0.3,0.4c0,0.1,0.1,0.1,0.1,0.2
                                                c0.1,0.2,0.3,0.4,0.4,0.6c0,0,0,0,0,0c0,0,0,0.1,0.1,0.1c0.1,0.2,0.2,0.3,0.4,0.5c0,0.1,0.1,0.1,0.1,0.2c0.1,0.1,0.2,0.3,0.3,0.4
                                                c0,0.1,0.1,0.1,0.1,0.2c0.2,0.2,0.3,0.4,0.5,0.5c0,0,0,0,0,0c0,0,0,0,0,0c0.2,0.2,0.3,0.3,0.5,0.5c0.1,0.1,0.1,0.1,0.2,0.2
                                                c0.1,0.1,0.3,0.3,0.4,0.4c0.1,0,0.1,0.1,0.2,0.1c0.2,0.2,0.3,0.3,0.5,0.5c0,0,0,0,0,0c0,0,0.1,0.1,0.1,0.1
                                                c0.2,0.1,0.3,0.3,0.5,0.4c0.1,0.1,0.1,0.1,0.2,0.2c0.1,0.1,0.3,0.2,0.4,0.3c0.1,0.1,0.1,0.1,0.2,0.2c0.1,0.1,0.3,0.2,0.4,0.3
                                                c0.1,0,0.1,0.1,0.2,0.1c0,0,0,0,0,0c0.1,0.1,0.3,0.2,0.4,0.3c0.1,0,0.1,0.1,0.2,0.1c0.2,0.1,0.5,0.3,0.7,0.4
                                                c0.1,0,0.1,0.1,0.2,0.1c0.2,0.1,0.3,0.2,0.5,0.3c0.1,0.1,0.2,0.1,0.3,0.1c0.1,0.1,0.2,0.1,0.4,0.2c0,0,0.1,0,0.1,0
                                                c0,0,0.1,0,0.1,0.1c0.2,0.1,0.4,0.2,0.6,0.3c0,0,0.1,0,0.1,0.1c0.2,0.1,0.4,0.2,0.7,0.3c0.1,0,0.1,0,0.2,0.1
                                                c0.2,0.1,0.4,0.2,0.6,0.2c0,0,0.1,0,0.1,0c0.2,0.1,0.5,0.2,0.7,0.2c0.1,0,0.1,0,0.2,0.1c0.2,0.1,0.5,0.2,0.7,0.2
                                                c15.9,2.9,20.5-9.6,20.5-9.6c-3.9,5.1-10.8,6.4-17.3,4.9c-0.2-0.1-0.5-0.1-0.7-0.2c-0.1,0-0.1,0-0.2-0.1c-0.2-0.1-0.5-0.1-0.7-0.2
                                                c0,0-0.1,0-0.1,0c-0.2-0.1-0.4-0.2-0.6-0.2c-0.1,0-0.1,0-0.2-0.1c-0.2-0.1-0.4-0.2-0.7-0.3c0,0-0.1,0-0.1-0.1
                                                c-0.2-0.1-0.4-0.2-0.6-0.3c-0.1,0-0.1-0.1-0.2-0.1c-0.1-0.1-0.3-0.1-0.4-0.2c-0.1-0.1-0.2-0.1-0.3-0.2c-0.2-0.1-0.4-0.2-0.5-0.3
                                                c-0.1,0-0.1-0.1-0.2-0.1c-0.2-0.1-0.5-0.3-0.7-0.4c-0.1,0-0.1-0.1-0.2-0.1c-0.2-0.1-0.3-0.2-0.5-0.3c-0.1,0-0.1-0.1-0.2-0.1
                                                c-0.2-0.1-0.3-0.2-0.5-0.3c-0.1-0.1-0.1-0.1-0.2-0.2c-0.1-0.1-0.3-0.2-0.4-0.3c-0.1,0-0.1-0.1-0.2-0.1c-0.2-0.1-0.3-0.3-0.5-0.4
                                                c0,0,0,0-0.1,0c-0.2-0.2-0.4-0.3-0.5-0.5c-0.1,0-0.1-0.1-0.2-0.1c-0.1-0.1-0.3-0.3-0.4-0.4c-0.1-0.1-0.1-0.1-0.2-0.2
                                                c-0.2-0.2-0.3-0.3-0.5-0.5c0,0,0,0,0,0c-0.2-0.2-0.3-0.4-0.5-0.6c0-0.1-0.1-0.1-0.1-0.2c-0.1-0.1-0.2-0.3-0.3-0.4
                                                c0-0.1-0.1-0.1-0.1-0.2c-0.1-0.2-0.3-0.4-0.4-0.5c-3.6-4.9-4.9-11.8-2-17.4"></path>
                                                <path class="st1" d="M30,22.5c-2.4,3.4-2.3,8-0.4,11.6c0.3,0.6,0.7,1.2,1.1,1.8c0.4,0.5,0.8,1.1,1.2,1.5c0.2,0.2,0.4,0.4,0.5,0.6
                                                c0,0,0.1,0.1,0.1,0.1c0.2,0.2,0.4,0.3,0.5,0.5c0,0,0,0,0,0c0,0,0,0,0,0c0.2,0.2,0.4,0.4,0.6,0.5c0,0,0.1,0.1,0.1,0.1
                                                c0.2,0.2,0.4,0.3,0.7,0.5c0,0,0,0,0,0c0.1,0.1,0.2,0.1,0.3,0.2c0,0,0.1,0.1,0.1,0.1c0.2,0.1,0.3,0.2,0.5,0.3c0,0,0,0,0.1,0
                                                c0.1,0.1,0.3,0.2,0.4,0.2c0.1,0,0.1,0.1,0.2,0.1c0.1,0.1,0.2,0.1,0.3,0.2c0,0,0,0,0,0c0.2,0.1,0.4,0.2,0.6,0.3c0,0,0.1,0,0.1,0.1
                                                c0.2,0.1,0.3,0.1,0.5,0.2c0.1,0,0.1,0.1,0.2,0.1c0.2,0.1,0.3,0.1,0.5,0.2c0.1,0,0.1,0,0.2,0.1c0.2,0.1,0.5,0.2,0.7,0.2
                                                c12.3,2,15.1-7.4,15.1-7.4c-2.6,3.7-7.5,5.4-12.8,4.1c-0.2-0.1-0.5-0.1-0.7-0.2c-0.1,0-0.1,0-0.2-0.1c-0.2-0.1-0.3-0.1-0.5-0.2
                                                c-0.1,0-0.1-0.1-0.2-0.1c-0.2-0.1-0.4-0.1-0.5-0.2c0,0-0.1,0-0.1-0.1c-0.2-0.1-0.4-0.2-0.6-0.3c-0.1-0.1-0.2-0.1-0.3-0.2
                                                c-0.1,0-0.1-0.1-0.2-0.1c-0.1-0.1-0.3-0.2-0.4-0.2c0,0-0.1,0-0.1-0.1c-0.2-0.1-0.3-0.2-0.5-0.3c-0.1,0-0.1-0.1-0.1-0.1
                                                c-0.1-0.1-0.2-0.1-0.3-0.2c-0.2-0.2-0.4-0.3-0.7-0.5c-0.1,0-0.1-0.1-0.1-0.1c-2.3-1.8-4.1-4.3-5-7.2c-0.9-2.9-0.7-6.2,0.9-8.9"></path>
                                                <path class="st1" d="M38.6,19.5c-1.4,2.1-1.5,4.6-0.6,6.9c1,2.4,3.1,4.3,5.6,5.2c0.1,0,0.2,0.1,0.3,0.1c0,0,0.1,0,0.1,0
                                                c0.1,0,0.3,0.1,0.4,0.1c6.8,1.3,8.6-3.5,9.1-4.2c-1.6,2.3-4.3,2.9-7.6,2.1c-0.3-0.1-0.6-0.2-0.8-0.2c-0.3-0.1-0.6-0.2-1-0.4
                                                c-0.6-0.3-1.2-0.6-1.7-1c-3-2.3-4.8-6.6-2.9-10.1"></path>
                                            </g>
                                        </g>
                                        </svg>
