<?xml version="1.0" encoding="utf-8"?>
<!-- Generator: Adobe Illustrator 21.0.0, SVG Export Plug-In . SVG Version: 6.00 Build 0)  -->
<svg version="1.1" id="laravel" xmlns="http://www.w3.org/2000/svg" xmlns:xlink="http://www.w3.org/1999/xlink" x="0px" y="0px"
	 viewBox="0 0 72 72" style="enable-background:new 0 0 72 72;" xml:space="preserve">
<style type="text/css">
	.st0{fill:#D1D1D1;}
	.st0:hover{fill:red;}
	.st1{fill:#FFFFFF;}
</style>
<path id="laravel-path" class="st0" d="M70.5,36.4c-1.6,10-4.6,12.9-10.1,19.6C55,61.7,47.2,71.2,36.2,70.7c-10-1.6-12.9-4.6-19.6-10.1
	C10.8,55.2,1.3,47.4,1.9,36.4c1.6-10,4.6-12.9,10.1-19.6c5.4-5.7,13.2-15.2,24.3-14.7c10,1.6,12.9,4.6,19.6,10.1
	C61.5,17.6,71,25.3,70.5,36.4z"/>
<path class="st1" d="M40.8,51.2c-0.4-0.2-0.7-0.5-1-0.9c-0.3-0.6-0.7-1.1-1-1.7c-1.2-2.2-2.5-4.4-3.7-6.6c0-0.1-0.1-0.1-0.1-0.2
	c-0.2,0.1-0.4,0.1-0.6,0.2c-2.7,0.7-5.4,1.4-8.1,2.1c-0.3,0.1-0.6,0.2-1,0.2c-0.6,0-1.1-0.3-1.5-0.8c-0.1-0.1-0.2-0.3-0.2-0.4
	c-2.5-5.4-5-10.8-7.5-16.2c-0.4-1-0.9-1.9-1.3-2.9c-0.1-0.2-0.2-0.5-0.3-0.8c0,0,0-0.1-0.1-0.1c0-0.1,0-0.2,0-0.3
	c0-0.1,0.1-0.1,0.1-0.1c0.1-0.2,0.2-0.3,0.3-0.3c0.1-0.1,0.2-0.1,0.4-0.1c0.6-0.1,1.3-0.1,1.9-0.2c0.9-0.1,1.8-0.1,2.7-0.2
	c1.1-0.1,2.3-0.2,3.5-0.3c0.2,0,0.4,0,0.5-0.1c0.2,0,0.4,0,0.6,0c0,0,0.1,0,0.1,0c0.3,0,0.5,0.2,0.6,0.4c0.1,0.2,0.3,0.4,0.4,0.6
	c3.4,5.7,6.8,11.3,10.2,17c0,0.1,0.1,0.1,0.1,0.2c4.4-1,8.7-2.1,13.1-3.1c-0.1-0.1-0.1-0.1-0.1-0.2c-1.4-2-2.8-3.9-4.2-5.9
	c-0.1-0.1-0.1-0.2-0.1-0.2c-0.1-0.2-0.1-0.4,0.2-0.5c0.2-0.1,0.3-0.1,0.5-0.2c0.8-0.1,1.6-0.3,2.4-0.4c1.1-0.2,2.1-0.4,3.2-0.5
	c0.3-0.1,0.5-0.1,0.8-0.1c0.2,0,0.5,0,0.7,0.2c0.2,0.2,0.4,0.3,0.5,0.5c1.1,1.3,2.2,2.7,3.2,4c0.6,0.7,1.1,1.4,1.7,2.1
	c0.1,0.1,0.1,0.1,0.1,0.2c0,0.1,0,0.2,0,0.3c-0.1,0.2-0.3,0.2-0.5,0.3c-1.9,0.5-3.8,1-5.7,1.5c-0.1,0-0.1,0-0.2,0.1
	c0.1,0.1,0.1,0.1,0.1,0.2c0.9,1.2,1.7,2.3,2.6,3.5s1.7,2.3,2.6,3.5c0.1,0.1,0.1,0.2,0.2,0.3c0.1,0.2,0.1,0.4-0.1,0.5
	c-0.1,0.1-0.2,0.2-0.4,0.2c-0.4,0.2-0.9,0.3-1.3,0.5c-3.5,1.3-7,2.5-10.6,3.8c-0.9,0.3-1.7,0.6-2.6,0.9c-0.2,0.1-0.5,0.1-0.7,0.2
	C41.2,51.2,41,51.2,40.8,51.2z M23.7,22.8c-0.5,0.1-1.1,0.1-1.7,0.1c-0.6,0.1-1.1,0.1-1.7,0.2c-0.7,0.1-1.5,0.1-2.2,0.2
	c-0.5,0-1,0.1-1.4,0.1c-0.1,0-0.2,0.1-0.1,0.2c0,0.1,0,0.1,0.1,0.2c0.1,0.1,0.1,0.2,0.2,0.3c2.2,4.5,4.4,9.1,6.6,13.6
	c0.7,1.5,1.4,2.9,2.1,4.4c0,0.1,0.1,0.1,0.2,0.1c0.1,0,0.2,0,0.3-0.1c2.4-0.6,4.7-1.1,7.1-1.7c0.2-0.1,0.5-0.1,0.7-0.2
	C34,40.3,34,40.2,34,40c0-0.1-0.1-0.2-0.1-0.2c-3.2-5.6-6.4-11.1-9.7-16.7C24,22.8,24,22.8,23.7,22.8z M36.8,41.4
	c0,0.1,0.1,0.1,0.1,0.1c1,1.7,1.9,3.3,2.9,5c0.4,0.6,0.8,1.3,1.2,1.9c0.1,0.1,0.2,0.3,0.3,0.4c0.1,0.1,0.3,0.2,0.4,0.1
	c0.1,0,0.1-0.1,0.2-0.1c2.9-1,5.7-1.9,8.6-2.9c1.3-0.4,2.6-0.9,3.9-1.3c0.1,0,0.2-0.1,0.2-0.1c0.1-0.1,0.2-0.1,0.1-0.3
	c-0.1-0.1-0.1-0.2-0.2-0.3c-0.5-0.7-1-1.4-1.6-2.1c-0.9-1.2-1.7-2.3-2.5-3.5c-0.1-0.1-0.1-0.2-0.2-0.3C50.1,38,50,38,49.8,38
	c-0.1,0-0.2,0.1-0.3,0.1c-1.4,0.4-2.8,0.7-4.2,1.1c-2.8,0.7-5.6,1.5-8.4,2.2C37,41.4,36.9,41.4,36.8,41.4z M50.4,36.3
	c0,0,0.1,0,0.1,0c1.6-0.4,3.3-0.8,4.9-1.2c0.1,0,0.1,0,0.2-0.1c0.2-0.1,0.2-0.2,0.1-0.3c0,0,0-0.1-0.1-0.1c-1.2-1.5-2.4-3.1-3.6-4.6
	C52,30,52,30,52,30c-0.1-0.1-0.3-0.2-0.4-0.1c-1.5,0.3-2.9,0.5-4.4,0.8c-0.2,0-0.4,0.1-0.5,0.1c-0.2,0-0.2,0.1-0.1,0.2
	c0,0.1,0.1,0.1,0.1,0.2c1.2,1.7,2.4,3.4,3.7,5C50.3,36.2,50.4,36.3,50.4,36.3z"/>
</svg>
