<?xml version="1.0" encoding="utf-8"?>
<svg xml:space="preserve" xmlns:xlink="http://www.w3.org/1999/xlink" id="mongoDB" style="enable-background:new 0 0 72 72;" version="1.1" viewBox="0 0 72 72" x="0px" xmlns="http://www.w3.org/2000/svg" y="0px">
                                        <style type="text/css">
                                            .st0{fill:#D1D1D1;}
                                            .st1{fill:#FFFFFF;}
                                            .st2{fill-rule:evenodd;clip-rule:evenodd;fill:#FFFFFF;}
                                        </style>
    <path class="mongoDB st0" d="M71.1,36.4c-1.5,10.1-4.6,13-10.1,19.8C55.5,62,47.7,71.6,36.5,71c-10.1-1.5-13-4.6-19.8-10.1
                                            C10.9,55.4,1.3,47.6,1.9,36.4c1.5-10.1,4.6-13,10.1-19.8c5.5-5.8,13.3-15.4,24.5-14.8c10.1,1.5,13,4.6,19.8,10.1
                                            C62.1,17.4,71.7,25.2,71.1,36.4z"></path>
    <g>
                                            <path class="st1" d="M56.3,44.3c0-2.9,0-5.7,0-8.6c0,0,0,0,0,0c0-2.9,0-5.9,0-8.8c0-1.7-0.6-3-2.1-3.8C49,20.1,43.7,17,38.5,14
                                                c-1.4-0.8-2.7-0.8-4.1,0c-5.2,3-10.5,6.1-15.8,9.1c-1.3,0.7-2,1.8-2,3.3c0,6.2,0,12.5,0,18.7c0,1.5,0.7,2.5,2,3.3
                                                c5.2,3,10.4,6,15.6,9c1.5,0.9,2.9,0.8,4.5-0.1c5-2.9,10-5.9,15.1-8.7C55.6,47.7,56.4,46.3,56.3,44.3z M53.4,45.4
                                                c-5.4,3.2-10.9,6.3-16.3,9.5c-0.5,0.3-0.9,0.3-1.4,0c-5.4-3.2-10.9-6.3-16.3-9.5c-0.2-0.3-0.1-0.6-0.1-0.9c0-5.8,0-11.6,0-17.5
                                                c0-0.3-0.1-0.6,0.1-0.9c4.6-2.7,9.4-5.3,13.9-8.2c2.3-1.5,3.9-1.5,6.2,0c4.5,2.9,9.4,5.3,13.9,8.2c0.2,0.3,0.1,0.6,0.1,0.9
                                                c0,5.8,0,11.6,0,17.5C53.6,44.8,53.6,45.1,53.4,45.4z"></path>
        <path class="st2" d="M19.4,26.1c0,6.4,0,12.9,0,19.3c-0.3-0.5-0.3-1-0.3-1.6c0-5.4,0-10.8,0-16.1C19.2,27.1,19.1,26.6,19.4,26.1z"></path>
        <path class="st2" d="M53.4,45.4c0-6.4,0-12.9,0-19.3c0.3,0.5,0.3,1,0.3,1.6c0,5.4,0,10.8,0,16.1C53.7,44.4,53.7,44.9,53.4,45.4z"></path>
        <path class="st2" d="M36.4,21.6c3.5,3.6,6.2,7.5,6.6,12.7c0.3,3.9-0.8,7.4-3.2,10.5c-0.7,0.9-1.3,0.7-1.7-0.2
                                                c-0.4-0.8-0.7-1.6-0.6-2.5c0.2-6.6-0.1-13.2-1.1-19.8C36.3,22.1,36.2,21.8,36.4,21.6z"></path>
        <path class="st2" d="M35.7,43.2c-1.2,2.6-1.6,2.7-3.2,0.4c-3.6-5-3.4-10.3-1-15.7c1-2.2,2.3-4,4.2-5.7c0.3,0.7,0.1,1.2,0,1.7
                                                c-0.2,0.2-0.1,0.5-0.1,0.8c0,6,0,11.9,0,17.9C35.6,42.8,35.6,43,35.7,43.2z"></path>
        <path class="st2" d="M36.3,50.6c-0.5,0.1-0.6-0.2-0.6-0.6c-0.1-1.2-0.3-2.4-0.6-3.6c-0.3-0.9,0.7-1,1.1-1.5
                                                c0.5-0.6,0.7,0.1,1.1,0.3c0.9,0.5,1.3,0.9,0.5,1.9c-0.5,0.7-0.6,1.7-0.7,2.6C37,50.1,36.9,50.5,36.3,50.6z"></path>
        <path class="st2" d="M35.7,43.2c-0.3-0.5-0.2-1-0.2-1.5c0-5.4,0-10.8,0-16.3c0-0.5,0-1.1,0.3-1.6C35.7,30.3,35.7,36.8,35.7,43.2z"></path>
                                        </g>
                                        </svg>
