<?xml version="1.0" encoding="utf-8"?>
<svg xml:space="preserve" xmlns:xlink="http://www.w3.org/1999/xlink" id="mySql" style="enable-background:new 0 0 72 72;" version="1.1" viewBox="0 0 72 72" x="0px" xmlns="http://www.w3.org/2000/svg" y="0px">
                                        <style type="text/css">
                                            .st0{fill:#D1D1D1;}
                                            .st1{fill-rule:evenodd;clip-rule:evenodd;fill:#FFFFFF;}
                                            .st2{fill:#FFFFFF;}
                                        </style>
    <path class="mySql st0" d="M71.1,36.4c-1.5,10.1-4.6,13-10.1,19.8C55.5,62,47.7,71.6,36.5,71c-10.1-1.5-13-4.6-19.8-10.1
                                            C10.9,55.4,1.3,47.6,1.9,36.4c1.5-10.1,4.6-13,10.1-19.8c5.5-5.8,13.3-15.4,24.5-14.8c10.1,1.5,13,4.6,19.8,10.1
                                            C62.1,17.4,71.7,25.2,71.1,36.4z"></path>
    <g>
                                            <path class="st1" d="M24.4,43.8c-1.7-0.4-2.1-0.8-2.1-2.6c0-1-0.2-2,0.2-3c1.5,0.2,1.4,0.2,1.5,1.7c0,0.8-0.2,1.6,0.2,2.4
                                                c0.2,0.3,0.6,0.4,0.9,0.4c1.3,0,2.7,0,4,0c0.2-1.1,0.1-2.2,0.1-3.4c0-1.2-0.1-1.1,1.1-1.1c0.1,0,0.3,0,0.4-0.1
                                                c0.3,0.2,0.2,0.5,0.2,0.8c0,1.4,0,2.8,0,4.3c0,2.2-0.1,2.3-2.1,3.1c-2.2,0-4.3,0-6.5,0c0.1-1.2,0.1-1.2,1.4-1.2c1.4,0,2.8,0,4.2,0
                                                c1,0,1.2-0.4,1-1.4C27.4,43.7,25.9,43.8,24.4,43.8z"></path>
        <path class="st1" d="M45.4,27.5c0.3-0.8,0.3-1.5-0.3-2.2c-0.3-0.4-0.5-0.9-0.6-1.3c-0.4-1.2-0.9-2.2-1.7-3.2
                                                c-0.8-1-0.6-1.8,0.5-2.4c0.1,0,0.2,0,0.3,0c0.9,0.3,1.8,0.6,2.5,1.3c0.1,0.1,0.3,0.1,0.4,0.1c4.1,0.6,6.6,3.3,8.3,6.8
                                                c0.6,1.1,1.1,2.3,1.6,3.5c0.2,0.4,0.5,0.6,0.9,0.8c1.1,0.4,2.1,1,3,1.9c0,0.2-0.2,0.3-0.3,0.3c-1-0.7-2.1-1.4-3.3-1.7
                                                c-0.5-0.1-0.7-0.5-0.9-0.9c-0.5-1.1-1.1-2.2-1.6-3.4c-1.1-2.6-2.9-4.5-5.3-5.9c-0.2-0.1-0.4-0.2-0.6-0.3c-1.6-0.3-3.1-0.8-4.5-1.6
                                                c-0.2-0.1-0.6-0.2-0.8,0.1c-0.2,0.3-0.1,0.6,0.1,0.8c1.1,1.3,1.7,2.8,2.2,4.4c0,0.1,0.1,0.3,0.2,0.4c1,1,0.7,2,0.2,3.1
                                                C45.4,28,45.5,27.7,45.4,27.5z"></path>
        <path class="st1" d="M8.6,44c0-0.1,0-0.1,0-0.2c0.1-2.5,0.1-5,0-7.5c0.9-1.2,2.8-1,3.4,0.3c0.7,1.6,1.4,3.3,2.2,5
                                                c0.1,0.3,0.2,0.6,0.5,0.9c0.7-1.5,1.3-2.9,2-4.4c0.2-0.5,0.5-1.1,0.7-1.6c0.6-1.2,2.5-1.3,3.3-0.2c-0.1,2.5-0.1,5,0,7.5
                                                c-0.5,0.2-1.1,0.2-1.6,0c0-2.2,0-4.4,0-6.6c-0.4,0-0.4,0.4-0.5,0.6c-0.8,1.7-1.5,3.4-2.3,5.1c-0.3,0.8-0.8,1.2-1.7,1.2
                                                c-0.9,0-1.4-0.4-1.7-1.2c-0.8-1.9-1.7-3.7-2.7-5.5c0,0.5,0,1,0,1.6c0,1.3-0.1,2.7,0,4c0,0.9-0.2,1.3-1.1,1.1C9,44,8.8,44,8.6,44z"></path>
        <path class="st1" d="M35.1,44c-0.6,0-1.2,0-1.8,0c-0.4,0-1,0.2-1-0.6c0-0.8,0.6-0.6,1-0.6c1.2,0,2.5,0,3.7,0c1.1,0,1.4-0.3,1.4-1.2
                                                c0-0.9-0.3-1.2-1.4-1.2c-1,0-2.1,0.1-3.1-0.2c-1.4-0.4-1.7-0.9-1.6-2.6c0.1-1,0.8-1.7,1.9-1.7c1.8-0.1,3.7,0,5.5-0.1
                                                c0.4,0,0.6,0.2,0.6,0.6c0,0.4-0.2,0.5-0.6,0.5c-1.4,0-2.8,0-4.3,0c-1.1,0-1.4,0.2-1.3,1.2c0,0.9,0.3,1.2,1.4,1.2
                                                c1,0,2.1-0.1,3.1,0.2c1.3,0.4,1.6,0.8,1.6,2.3c0,1.2-0.4,1.8-1.6,2.1C38.2,43.9,38,44,37.7,44C36.8,44,36,44,35.1,44
                                                C35.1,44,35.1,44,35.1,44z"></path>
        <path class="st1" d="M51.3,39.2c0-0.9,0-1.8,0-2.7c0-0.7,0.4-0.7,0.8-0.7c0.5,0,0.9,0,0.9,0.7c0,1,0,2,0,3.1c0,3.6-0.5,3.3,3.3,3.3
                                                c0.7,0,1.4,0,2.1,0c0.4,0,0.7,0,0.7,0.6c0,0.5-0.2,0.7-0.7,0.6c-1.7-0.1-3.4,0.1-5.1-0.1c-1.5-0.2-2.1-0.9-2.1-2.5
                                                C51.3,40.7,51.3,39.9,51.3,39.2C51.3,39.2,51.3,39.2,51.3,39.2z"></path>
        <path class="st1" d="M45.7,30.1c0.2,0.5,0.4,1,0.6,1.5c0.1,0.2,0.2,0.4,0.5,0.3c0.2-0.1,0.1-0.3,0.2-0.5c0.2-0.8,0.2-1.7,1-2.3
                                                c0.6,1.4,1.3,2.8,2.2,4.1c-1-0.5-1.5-1.4-2-2.4c-0.4,0.3-0.2,0.7-0.3,1c-0.1,0.4-0.2,0.8-0.6,0.8c-0.5,0.1-0.8-0.1-1.1-0.5
                                                c-0.6-0.7-0.8-1.6-0.9-2.5c0-0.7-0.1-1.3,0.2-2c0.4,0.2,0.2,0.7,0.3,1C45.7,29.2,45.5,29.7,45.7,30.1z"></path>
        <path class="st1" d="M61,33.3c0.2,0.2,0.6,0.4,0.5,0.7c-0.1,0.3-0.5,0.3-0.8,0.3c-0.6,0.2-1.6,0-1.8,0.6c-0.1,0.5,0.9,0.8,1.4,1.1
                                                c0.5,0.4,1.1,0.9,1.4,1.5c-1.3-0.7-2.7-1.1-3.7-2.3c-0.6-0.7-0.5-0.9,0.3-1.2c0.8-0.3,1.6-0.1,2.3-0.5C60.8,33.4,60.9,33.3,61,33.3
                                                z"></path>
        <path class="st1" d="M19.2,37.2c0.2,0.3,0.2,0.6,0.2,0.9c0,1.6,0,3.2,0,4.8c0,0.3,0,0.6-0.2,0.9C19,41.7,19,39.4,19.2,37.2z"></path>
        <path class="st1" d="M8.6,36.4c0.3,1.7,0.1,3.5,0.1,5.2c0,0.7,0.1,1.5-0.1,2.2c0-2.4,0-4.9-0.1-7.3C8.5,36.5,8.6,36.4,8.6,36.4z"></path>
        <path class="st1" d="M20.7,43.9c-0.1-0.2-0.2-0.5-0.2-0.8c0-2,0-4,0-6.1c0-0.2,0.1-0.4,0.1-0.7C20.9,38.9,20.8,41.4,20.7,43.9z"></path>
        <path class="st1" d="M30.7,38.3c-0.2,0-0.3,0.1-0.5,0.1c-0.8,0-0.9,0.4-0.9,1c0,0.8,0,1.6,0,2.3c0,0.3,0,0.7-0.2,1
                                                c0-1.2,0-2.3,0-3.5c-0.1-0.9,0.2-1.3,1.1-1.1C30.3,38.3,30.5,38.3,30.7,38.3z"></path>
        <path class="st1" d="M24.1,42.5c-0.5-0.7-0.2-1.5-0.2-2.3c0-1.5,0-1.5-1.4-1.9c1.6-0.1,1.6-0.1,1.6,1.5
                                                C24.1,40.7,24.1,41.6,24.1,42.5z"></path>
        <path class="st1" d="M24.4,43.8c1.5-0.2,3-0.3,4.5,0C27.4,43.9,25.9,43.9,24.4,43.8z"></path>
        <path class="st1" d="M47.1,23.1c-0.3-0.4-0.5-0.8-0.7-1.1C47.2,21.9,47.4,22.1,47.1,23.1z"></path>
        <path class="st1" d="M45.7,30.1c-0.4-0.7,0-1.6-0.4-2.3c0-0.1,0-0.2,0-0.3c0.1,0.2,0.2,0.4,0.3,0.5C45.7,28.7,45.7,29.4,45.7,30.1z
                                                "></path>
        <path class="st1" d="M61,33.3c-0.1,0.1-0.2,0.2-0.3,0.3c-0.2-0.2-0.5-0.4-0.7-0.5c0.1-0.1,0.2-0.2,0.3-0.3
                                                C60.6,32.9,60.8,33.1,61,33.3z"></path>
        <path class="st2" d="M49.6,44c-0.2-0.2-0.4-0.3-0.1-0.6c0.6-0.4,0.7-1.1,0.7-1.8c0-1.2,0-2.3,0-3.5c0-1.4-0.6-2.2-2.1-2.3
                                                c-1.6-0.1-3.2-0.1-4.8,0c-1.4,0.1-2,0.8-2,2.3c0,1.2,0,2.4,0,3.6c0,1.2,0.4,1.8,1.6,2.1c1.2,0.3,2.5,0.2,3.7,0.1
                                                c0.5,0,0.9,0,1.2,0.4c0.7,0.9,1.6,0.9,2.8,0.7C50.3,44.7,49.9,44.4,49.6,44z M48.5,41.6c0,0.3,0.1,0.7-0.3,0.9
                                                c-0.4,0.2-0.6-0.2-0.8-0.4c-0.7-0.8-1.6-0.6-2.6-0.4c0.4,0.3,0.7,0.5,1.1,0.8c-0.1,0.1-0.1,0.2-0.2,0.3c-0.5,0-1.1,0-1.6,0
                                                c-0.6,0-1-0.4-1-1c0-1.2,0-2.5,0-3.8c0-0.6,0.3-0.9,0.9-1c1.2-0.2,2.4-0.2,3.6,0c0.6,0.1,0.8,0.4,0.8,1
                                                C48.5,39.2,48.5,40.4,48.5,41.6z"></path>
                                        </g>
                                        </svg>
