<?xml version="1.0" encoding="utf-8"?>
<svg xml:space="preserve" xmlns:xlink="http://www.w3.org/1999/xlink" id="react" style="enable-background:new 0 0 72 72;" version="1.1" viewBox="0 0 72 72" x="0px" xmlns="http://www.w3.org/2000/svg" y="0px">
                                        <style type="text/css">
                                            .st0{fill:#D1D1D1;}
                                            .st1{fill:#FFFFFF;}
                                        </style>
    <path class="react st0" d="M71.1,36.4c-1.5,10.1-4.6,13-10.1,19.8C55.5,62,47.7,71.6,36.5,71c-10.1-1.5-13-4.6-19.8-10.1
                                            C10.9,55.4,1.3,47.6,1.9,36.4c1.5-10.1,4.6-13,10.1-19.8c5.5-5.8,13.3-15.4,24.5-14.8c10.1,1.5,13,4.6,19.8,10.1
                                            C62.1,17.4,71.7,25.2,71.1,36.4z"></path>
    <g>
                                            <circle class="st1" cx="36.5" cy="36.3" r="4.8"></circle>
        <path class="st1" d="M60.8,31.5c-1.7-1.4-4-2.6-6.9-3.6c-0.6-0.2-1.1-0.4-1.7-0.5c0.1-0.4,0.2-0.8,0.3-1.2
                                                c1.4-6.5,0.4-11.6-2.5-13.3c-1.4-0.8-3.3-0.8-5.6,0c-2,0.8-4.3,2.2-6.5,4.1c-0.4,0.4-0.9,0.8-1.4,1.2c-0.3-0.3-0.6-0.6-0.9-0.8
                                                c-5-4.4-9.9-6.1-12.7-4.5c-1.4,0.8-2.4,2.5-2.8,4.8c-0.4,2.1-0.3,4.8,0.3,7.7c0.1,0.6,0.3,1.2,0.4,1.8c-0.7,0.2-1.4,0.4-2,0.6
                                                c-5.9,2-9.4,5.2-9.4,8.4c0,1.7,1,3.4,2.8,5c1.7,1.5,4.2,2.8,7.1,3.8c0.5,0.2,1,0.3,1.5,0.5c-0.2,0.7-0.3,1.3-0.4,1.9
                                                c-1.2,6.1-0.2,10.7,2.6,12.3c0.7,0.4,1.6,0.6,2.6,0.6c0.9,0,2-0.2,3.1-0.6c2.2-0.8,4.5-2.2,6.8-4.2c0.4-0.3,0.8-0.7,1.1-1
                                                c0.5,0.5,1,0.9,1.5,1.3c3.5,3,6.8,4.6,9.4,4.6c0.9,0,1.8-0.2,2.5-0.6c1.4-0.8,2.5-2.5,2.9-4.9c0.4-2.3,0.3-5-0.3-8
                                                c-0.1-0.5-0.2-1-0.3-1.4c0.3-0.1,0.7-0.2,1-0.3c6.3-2.1,10.2-5.5,10.2-8.8C63.6,34.7,62.6,33,60.8,31.5z M45.2,15.1
                                                c1.5-0.6,2.8-0.6,3.6-0.2c1.5,0.9,2.6,4.7,1.4,10.8c-0.1,0.3-0.2,0.7-0.3,1.1c-2.3-0.5-4.7-0.9-7.3-1.1c-1.5-2.1-3-4-4.6-5.7
                                                c0.4-0.4,0.8-0.8,1.2-1.1C41.4,17,43.5,15.7,45.2,15.1z M44.1,40.8c-0.8,1.5-1.7,2.9-2.6,4.2c-1.6,0.1-3.3,0.2-5,0.2
                                                s-3.3-0.1-4.9-0.2c-0.9-1.4-1.8-2.8-2.6-4.2c-0.8-1.4-1.6-2.9-2.3-4.4c0.7-1.5,1.5-2.9,2.3-4.4l0,0c0.8-1.4,1.7-2.9,2.6-4.2
                                                c1.6-0.1,3.3-0.2,4.9-0.2c1.7,0,3.3,0.1,4.9,0.2c0.9,1.3,1.8,2.7,2.6,4.2c0.8,1.5,1.6,2.9,2.3,4.3C45.7,37.8,44.9,39.3,44.1,40.8z
                                                 M47.6,39c0.7,1.7,1.3,3.2,1.8,4.8c-1.6,0.4-3.3,0.7-5.1,0.9c0.6-0.9,1.1-1.8,1.7-2.8C46.6,40.9,47.2,40,47.6,39z M36.6,51.3
                                                c-1.1-1.2-2.2-2.5-3.3-3.9c1,0,2.1,0.1,3.2,0.1c1.1,0,2.2,0,3.3-0.1C38.7,48.8,37.7,50.1,36.6,51.3z M28.7,44.7
                                                c-1.8-0.2-3.5-0.5-5-0.8c0.5-1.5,1.1-3.1,1.8-4.8c0.5,0.9,1,1.9,1.5,2.8C27.5,42.9,28.1,43.8,28.7,44.7z M27,30.9
                                                c-0.5,0.9-1,1.9-1.5,2.8c-0.7-1.6-1.3-3.2-1.7-4.7c1.5-0.3,3.2-0.6,4.9-0.8C28.1,29,27.5,29.9,27,30.9z M36.5,21.6
                                                c1.1,1.2,2.1,2.4,3.2,3.8c-1.1-0.1-2.1-0.1-3.2-0.1c-1.1,0-2.1,0-3.2,0.1C34.4,24,35.5,22.8,36.5,21.6z M46.1,30.9
                                                c-0.5-0.9-1.1-1.8-1.6-2.7c1.7,0.2,3.4,0.5,4.9,0.9c-0.5,1.5-1,3.1-1.7,4.7C47.1,32.7,46.6,31.8,46.1,30.9z M22.7,25.1
                                                c-0.5-2.6-0.6-5-0.3-6.9c0.3-1.6,0.9-2.8,1.7-3.2c1.5-0.9,5.3,0,10,4.2c0.3,0.2,0.5,0.5,0.8,0.8c-1.6,1.7-3.1,3.6-4.6,5.7
                                                c-2.5,0.2-5,0.6-7.2,1.1C22.9,26.2,22.8,25.6,22.7,25.1z M20.1,42.9c-5.7-1.9-8.3-4.8-8.3-6.6c0-1.7,2.4-4.3,7.9-6.2
                                                c0.6-0.2,1.2-0.4,1.9-0.6c0.7,2.2,1.6,4.5,2.6,6.9c-1.1,2.4-2,4.7-2.7,6.9C21,43.2,20.5,43.1,20.1,42.9z M25.5,58.1
                                                c-0.6,0-1.1-0.1-1.4-0.3c-1.5-0.8-2.5-4.2-1.4-9.9c0.1-0.6,0.3-1.2,0.4-1.8c2.2,0.5,4.7,0.8,7.3,1.1c1.5,2.1,3.1,4.1,4.7,5.8
                                                c-0.3,0.3-0.7,0.7-1,0.9C30.5,56.9,27.5,58.1,25.5,58.1z M50.4,47.3c1.2,5.9,0,9.6-1.5,10.5c-1.5,0.9-4.9,0.1-9.3-3.7
                                                c-0.4-0.4-0.9-0.8-1.4-1.2c1.5-1.7,3-3.6,4.5-5.8c2.6-0.2,5.1-0.6,7.3-1.1C50.2,46.5,50.3,46.9,50.4,47.3z M52.6,42.9
                                                c-0.3,0.1-0.6,0.2-0.9,0.3C51,41,50.1,38.7,49,36.4c1.1-2.3,2-4.6,2.6-6.8c0.6,0.2,1.1,0.3,1.6,0.5c2.5,0.9,4.7,2,6.1,3.2
                                                c1.3,1,1.9,2.1,1.9,3C61.3,38.1,58.6,40.9,52.6,42.9z"></path>
                                        </g>
                                        </svg>
