<?xml version="1.0" encoding="utf-8"?>
<svg xml:space="preserve" xmlns:xlink="http://www.w3.org/1999/xlink" id="skeletonIcon" style="enable-background:new 0 0 72 72;" version="1.1" viewBox="0 0 72 72" x="0px" xmlns="http://www.w3.org/2000/svg" y="0px">
                                        <style type="text/css">
                                            .st0{fill:#D1D1D1;}
                                            .st1{fill:none;}
                                            .st2{fill:#FFFFFF;}
                                        </style>
    <path class="skeletonIcon st0" d="M71.1,36.4c-1.5,10.1-4.6,13-10.1,19.8C55.5,62,47.7,71.6,36.5,71c-10.1-1.5-13-4.6-19.8-10.1
                                            C10.9,55.4,1.3,47.6,1.9,36.4c1.5-10.1,4.6-13,10.1-19.8c5.5-5.8,13.3-15.4,24.5-14.8c10.1,1.5,13,4.6,19.8,10.1
                                            C62.1,17.4,71.7,25.2,71.1,36.4z"></path>
    <g>
                                            <path class="st1" d="M18.7,25.7c0,0.1,0,0.3,0.1,0.4C18.8,26,18.7,25.9,18.7,25.7z"></path>
        <path class="st1" d="M20.5,29.1C20.5,29.2,20.5,29.2,20.5,29.1C20.5,29.2,20.5,29.2,20.5,29.1z"></path>
        <path class="st1" d="M19.1,27.1c0-0.1-0.1-0.2-0.1-0.3C19,26.9,19,27,19.1,27.1z"></path>
        <path class="st1" d="M19.6,28.1c0-0.1-0.1-0.1-0.1-0.2C19.5,27.9,19.5,28,19.6,28.1z"></path>
        <path class="st1" d="M19.9,28.5c0-0.1-0.1-0.1-0.1-0.2C19.8,28.4,19.8,28.4,19.9,28.5z"></path>
        <path class="st1" d="M19.3,27.6c0-0.1-0.1-0.2-0.1-0.3C19.2,27.4,19.3,27.5,19.3,27.6z"></path>
        <path class="st1" d="M18.8,26.3c0,0.1,0.1,0.2,0.1,0.3C18.9,26.5,18.8,26.4,18.8,26.3z"></path>
        <path class="st1" d="M18.7,24.5c0-0.2,0-0.3,0.1-0.5C18.7,24.2,18.7,24.3,18.7,24.5z"></path>
        <path class="st1" d="M18.7,25.1c0-0.1,0-0.3,0-0.4C18.7,24.8,18.7,24.9,18.7,25.1z"></path>
        <path class="st1" d="M18.7,25.2c0,0.1,0,0.3,0,0.4C18.7,25.5,18.7,25.3,18.7,25.2z"></path>
        <path class="st1" d="M20.2,28.9c0,0-0.1-0.1-0.1-0.1C20.1,28.8,20.2,28.8,20.2,28.9z"></path>
        <path class="st1" d="M52.4,50.9c-0.1,0.1-0.3,0.2-0.5,0.3C52.1,51.1,52.3,51,52.4,50.9z"></path>
        <path class="st1" d="M51.6,51.4c-0.2,0.1-0.3,0.2-0.5,0.2C51.3,51.6,51.4,51.5,51.6,51.4z"></path>
        <path class="st1" d="M54.1,48.5c-0.1,0.2-0.2,0.3-0.2,0.5C54,48.8,54.1,48.6,54.1,48.5z"></path>
        <path class="st1" d="M52.7,50.6c0.1-0.1,0.3-0.2,0.4-0.4C53,50.3,52.9,50.4,52.7,50.6z"></path>
        <path class="st1" d="M53.7,49.4c-0.1,0.2-0.2,0.3-0.3,0.4C53.5,49.7,53.6,49.5,53.7,49.4z"></path>
        <path class="st1" d="M21.3,29.8C21.4,29.9,21.4,29.9,21.3,29.8C21.4,29.9,21.4,29.9,21.3,29.8z"></path>
        <path class="st1" d="M20.9,29.5C20.9,29.5,20.9,29.5,20.9,29.5C20.9,29.5,20.9,29.5,20.9,29.5z"></path>
        <path class="st1" d="M49.8,52.1c-0.3,0.1-0.7,0.1-1,0.1C49.1,52.2,49.4,52.2,49.8,52.1z"></path>
        <path class="st1" d="M50.1,52c0.2-0.1,0.4-0.1,0.6-0.2C50.5,51.9,50.3,52,50.1,52z"></path>
        <polygon class="st2" points="18.8,23.5 18.8,23.5 18.8,23.5 	"></polygon>
        <path class="st2" d="M48.6,34.3c-3.1-2-7-3.2-10.7-4.3c-2.2-0.7-4.3-1.3-6-2c-1.4-0.6-2.1-1.2-2-1.8c0.2-0.6,1.1-1.1,3.7-1.5
                                                c3.1-0.5,7-0.1,11,1.1c3.1,0.9,6.3-0.8,7.2-3.9c0.9-3.1-0.8-6.3-3.9-7.2c-8.7-2.6-17.3-2.3-22.9,0.8c-3.2,1.8-5.4,4.5-6.3,7.7
                                                c0,0.2-0.1,0.3-0.1,0.5c0-0.2,0.1-0.3,0.1-0.5c-1.4,5.5,0.3,10.2,5,13.5c3.1,2.1,7,3.3,10.8,4.4c2.4,0.7,4.7,1.4,6.5,2.2
                                                c1.7,0.8,2,1.3,1.9,1.9c-0.1,0.8-0.4,1.2-1,1.5c-2.2,1.3-8.1,1.7-15.9-0.7c-3.1-0.9-6.3,0.8-7.2,3.8c-0.9,3.1,0.8,6.3,3.8,7.2
                                                c2.9,0.9,8.3,2.3,13.9,2.3c4,0,8.1-0.7,11.5-2.8c3.4-2.1,5.5-5.3,6.3-9.2c0,0.1-0.1,0.3-0.1,0.4c0.1-0.2,0.1-0.4,0.2-0.7
                                                C55.3,41.9,53.3,37.4,48.6,34.3z M20.9,29.3C20.9,29.3,20.9,29.3,20.9,29.3C20.9,29.3,20.9,29.3,20.9,29.3z"></path>
                                        </g>
                                        </svg>
