<?xml version="1.0" encoding="utf-8"?>
<svg xml:space="preserve" xmlns:xlink="http://www.w3.org/1999/xlink" id="symfonyIcon" style="enable-background:new 0 0 72 72;" version="1.1" viewBox="0 0 72 72" x="0px" xmlns="http://www.w3.org/2000/svg" y="0px">
                                        <style type="text/css">
                                            .st0{fill:#D1D1D1;}
                                            .st1{fill-rule:evenodd;clip-rule:evenodd;fill:#FFFFFF;}
                                        </style>
    <path class="symfonyIcon st0" d="M71.1,36.4c-1.5,10.1-4.6,13-10.1,19.8C55.5,62,47.7,71.6,36.5,71c-10.1-1.5-13-4.6-19.8-10.1
                                            C10.9,55.4,1.3,47.6,1.9,36.4c1.5-10.1,4.6-13,10.1-19.8c5.5-5.8,13.3-15.4,24.5-14.8c10.1,1.5,13,4.6,19.8,10.1
                                            C62.1,17.4,71.7,25.2,71.1,36.4z"></path>
    <path class="st1" d="M37.3,28.8c-0.2-0.2-0.5-0.4-0.7-0.6c-0.8-0.7-1.6-1.5-2.5-2.1c-2.4-1.7-5-2.2-7.8-1c-2.5,1.1-4,3.3-3.8,5.8
                                            c0.1,1.7,0.9,3.1,2,4.4c0.6,0.7,1.3,1.3,1.9,2c1.1,1.3,0.8,3.1-0.6,4c-1.2,0.8-2.9,0.7-4.1-0.2c-0.6-0.5-0.7-0.9-0.3-1.6
                                            c0.2-0.4,0.4-0.8,0.6-1.3c0.3-1.3-0.5-2.6-1.8-2.8c-1.3-0.2-2.2,0.6-2.3,2.1c-0.1,1.8,0.8,3.2,2.3,4.1c2,1.3,4.2,1.8,6.6,1.3
                                            c4.1-0.8,7.2-5.2,3.7-9.5c-0.8-1-1.6-1.9-2.4-2.8c-0.8-0.9-1-2.1-0.5-3.1c0.6-1.1,1.7-1.7,2.9-1.5c1.5,0.2,2.7,0.7,3.8,1.7
                                            c0.9,0.7,1.7,1.5,2.5,2.2c0.3,0.3,0.3,0.5,0.3,0.8c-0.6,2.6-1.2,5.2-1.7,7.8c-0.6,3.2-1.2,6.4-2.2,9.6c-0.6,1.7-1.3,3.3-2.6,4.6
                                            c-0.7,0.8-1.6,1.4-2.7,1.5c-0.7,0.1-1.2,0-1.3-0.4c-0.2-0.6,0.3-0.8,0.7-1.1c0.5-0.3,0.7-0.8,0.7-1.4c0-1-0.6-2-1.6-2.3
                                            c-1.7-0.6-3.7,0.8-3.8,2.6c-0.1,1.7,1,3.1,2.9,3.5c2.1,0.5,4,0.1,5.8-0.9c2.8-1.4,4.8-3.8,6.4-6.4c2.1-3.4,3.1-7.3,3.8-11.2
                                            c0.3-1.5,0.5-3,0.8-4.5c0.3,0,0.6,0,0.8,0c1.6,0.1,3.3,0,4.8-0.6c1.2-0.5,2.3-1.2,2.9-2.4c0.5-0.9,0.5-1.8-0.1-2.7
                                            c-0.6-0.8-1.5-0.9-2.3-0.4c-0.8,0.5-1.1,1.3-0.6,2.2c0.1,0.2,0.2,0.4,0.3,0.5c0.3,0.6,0.2,0.9-0.3,1.3c-1.6,1-3.4,1-5.3,0.8
                                            c0.2-1,0.3-2,0.5-2.9c0.4-2.2,0.9-4.5,1.8-6.5c0.5-1.1,1.1-2.2,2.2-2.9c0.9-0.6,1.9-0.9,3-0.7c0.7,0.1,0.9,0.6,0.6,1.2
                                            c-0.1,0.3-0.3,0.5-0.4,0.8c-0.5,1,0,2.2,1,2.6c1.3,0.6,2.7,0,3.1-1.4c0.4-1.1,0.2-2.2-0.7-3c-0.6-0.5-1.4-0.9-2.1-1.1
                                            c-2.8-0.7-5.4,0.1-7.6,1.9c-1.7,1.3-3,3-4,4.8C38.8,25.3,38.1,27,37.3,28.8z"></path>
                                        </svg>
