<?xml version="1.0" encoding="utf-8"?>
<svg xml:space="preserve" xmlns:xlink="http://www.w3.org/1999/xlink" id="Шар_1" style="enable-background:new 0 0 72 72;" version="1.1" viewBox="0 0 72 72" x="0px" xmlns="http://www.w3.org/2000/svg" y="0px">
                                        <defs>
                                            <linearGradient id="grad1" x1="0%" x2="100%" y1="0%" y2="0%">
                                                <stop offset="0%" style="stop-color:rgb(57,146,230);stop-opacity:1"></stop>
                                                <stop offset="100%" style="stop-color:rgb(160,102,255);stop-opacity:1"></stop>
                                            </linearGradient>
                                        </defs>
    <style type="text/css">
                                            .vueSt0{fill:#D1D1D1;}
                                            .vueSt1{fill:#41B883;}
                                            .vueSt2{fill:#FFFFFF;}
                                            .vueSt3{fill:#F2F3F4;}
                                        </style>
    <path class="vue vueSt0" d="M68.1,36c-1.4,9.1-4.2,11.7-9.1,17.8c-4.9,5.2-12,13.8-22,13.3c-9.1-1.4-11.7-4.2-17.8-9.1
                                          C14.1,53.1,5.5,46,5.9,36c1.4-9.1,4.2-11.7,9.1-17.8c4.9-5.2,12-13.8,22-13.3c9.1,1.4,11.7,4.2,17.8,9.1C59.9,18.9,68.5,26,68.1,36z
                                          "></path>
    <g>
                                            <path class="vueSt1" d="M48.8,20h7.9L37,54L17.3,20h7.8h7.3l4.6,7.9l4.5-7.9H48.8z"></path>
        <path class="vueSt2" d="M17.3,20L37,54l19.7-34h-7.9L37,40.4L25.1,20H17.3z"></path>
        <path class="vueSt3" d="M25.1,20L37,40.5L48.8,20h-7.3L37,27.9L32.4,20H25.1z"></path>
                                        </g>
                                      </svg>
