<?xml version="1.0" encoding="utf-8"?>
<svg xml:space="preserve" xmlns:xlink="http://www.w3.org/1999/xlink" id="wordpressIcon" style="enable-background:new 0 0 72 72;" version="1.1" viewBox="0 0 72 72" x="0px" xmlns="http://www.w3.org/2000/svg" y="0px">
                                        <style type="text/css">
                                            .st0{fill:#D1D1D1;}
                                            .st1{fill:#FFFFFF;}
                                        </style>
    <path class="wordpressIcon st0" d="M71.1,36.4c-1.5,10.1-4.6,13-10.1,19.8C55.5,62,47.7,71.6,36.5,71c-10.1-1.5-13-4.6-19.8-10.1
                                            C10.9,55.4,1.3,47.6,1.9,36.4c1.5-10.1,4.6-13,10.1-19.8c5.5-5.8,13.3-15.4,24.5-14.8c10.1,1.5,13,4.6,19.8,10.1
                                            C62.1,17.4,71.7,25.2,71.1,36.4z"></path>
    <g>
                                            <path class="st1" d="M52.2,35.7c0-1.7-0.3-3.3-0.7-4.8l-7.2,18.8C49,46.8,52.2,41.6,52.2,35.7L52.2,35.7z"></path>
        <path class="st1" d="M30.9,51c1.6,0.5,3.3,0.8,5.1,0.8c1.9,0,3.7-0.3,5.3-0.9l-4.9-12.8L30.9,51L30.9,51z"></path>
        <path class="st1" d="M20.5,31.1c-0.4,1.4-0.7,3-0.7,4.6c0,6.1,3.3,11.3,8.3,14.1l-7.6-18.6L20.5,31.1z"></path>
        <path class="st1" d="M28.7,30.1L28,30c-1.5,0-1.3,1.5-1.3,1.5l5.4,13.5l3.6-8.6l-2-5.1c-0.8-1.4-2.8-1.3-2.8-1.3v-0.7h11.3l0,0.8
                                                L41,30.1c-1.5,0-1.2,1.4-1.2,1.4l4.9,13.1l1.4-3.6c2.5-5.7,1-9.8,1-9.8c-2.5-5.1,0.7-5.9,0.7-5.9c0.2,0,0.4,0,0.6-0.1
                                                c-3-3.5-7.4-5.7-12.3-5.7c-6.7,0-12.4,4-14.9,9.8l7.6-0.1L28.7,30.1L28.7,30.1z"></path>
        <path class="st1" d="M54.2,35.6c0,10-8.2,18.2-18.2,18.2c-10,0-18.2-8.2-18.2-18.2c0-10,8.2-18.2,18.2-18.2
                                                C46,17.5,54.2,25.6,54.2,35.6z M36,16.6c-10.5,0-19,8.5-19,19c0,10.5,8.5,19,19,19c10.5,0,19-8.5,19-19C55,25.1,46.5,16.6,36,16.6z
                                                "></path>
                                        </g>
                                        </svg>
