<?xml version="1.0" encoding="utf-8"?>
<svg xml:space="preserve" xmlns:xlink="http://www.w3.org/1999/xlink" id="Layer_1" style="enable-background:new 0 0 72 72;" version="1.1" viewBox="0 0 72 72" x="0px" xmlns="http://www.w3.org/2000/svg" y="0px">
      <defs>
          <linearGradient id="grad1" x1="0%" x2="100%" y1="0%" y2="0%">
              <stop offset="0%" style="stop-color:rgb(57,146,230);stop-opacity:1"></stop>
              <stop offset="100%" style="stop-color:rgb(160,102,255);stop-opacity:1"></stop>
          </linearGradient>
      </defs>
<style type="text/css">
        .st0{fill:#D1D1D1;}
        .st1{fill:#FFFFFF;}
    </style>
<path class="st0" d="M68.7,36.2c-1.5,9.5-4.4,12.3-9.6,18.7C54,60.4,46.5,69.5,36,69c-9.5-1.5-12.3-4.4-18.7-9.6
      c-5.4-5.2-14.5-12.6-14-23.1c1.5-9.5,4.4-12.3,9.6-18.7C18,12.1,25.5,3,36,3.5c9.5,1.5,12.3,4.4,18.7,9.6
      C60.2,18.3,69.2,25.7,68.7,36.2z" id="yii-path"></path>
<g>
        <path class="st1" d="M39.6,29.5c-1.8-5,3.4-10.4,7.7-10.5c2.6,1.3,4.8,4.7,4.6,9.4c-0.3,5.7-4.5,10.6-9,15.2
        C42.7,38,41.5,34.5,39.6,29.5L39.6,29.5z"></path>
<path class="st1" d="M29.6,56.6c-0.7-5.6,1.6-10.3,3.9-13.3c1.1-1.4,1.9-2.6,2.6-3.8c1.2,0.5,4.5,2.2,6.3,4.9
        C42.1,48.4,39.1,55.6,29.6,56.6L29.6,56.6z"></path>
<path class="st1" d="M26,35.4c-7.6-2.1-9.4-8.6-9.1-12.9c7.4-2.9,15.3,0.1,19.8,6.3c3.2,4.4,5.2,9.9,5.6,14.8
        c-2.2-2.8-5-4.5-8.5-5.8C31.4,37,29.2,36.4,26,35.4L26,35.4z"></path>
    </g>
</svg>
