<?xml version="1.0" encoding="utf-8"?>
<svg xml:space="preserve" xmlns:xlink="http://www.w3.org/1999/xlink" id="Layer_1" style="enable-background:new 0 0 72 72;" version="1.1" viewBox="0 0 72 72" x="0px" xmlns="http://www.w3.org/2000/svg" y="0px">
                                          <defs>
                                            <linearGradient id="grad1" x1="0%" x2="100%" y1="0%" y2="0%">
                                              <stop offset="0%" style="stop-color:rgb(57,146,230);stop-opacity:1"></stop>
                                                <stop offset="100%" style="stop-color:rgb(160,102,255);stop-opacity:1"></stop>
                                            </linearGradient>
                                          </defs>
    <style type="text/css">
                                        .st0{fill:#D1D1D1;}
                                        .st1{fill:#FFFFFF;}
                                      </style>
    <path class="st0" d="M70.5,36c-1.6,10.1-4.7,13-10.1,19.8C54.9,61.5,47.1,71,36,70.5c-10.1-1.6-13-4.7-19.8-10.1
                                        C10.5,54.9,1,47.1,1.5,36c1.6-10.1,4.7-13,10.1-19.8C17.1,10.5,24.9,1,36,1.5c10.1,1.6,13,4.7,19.8,10.1C61.5,17.1,71,24.9,70.5,36z
                                        " id="zend-path"></path>
    <path class="st1" d="M52.7,15.6L32.4,42.4h15.7c2.5,0,4.6-2.1,4.6-4.6V15.6L52.7,15.6z M24.2,20c-2.5,0-4.6,2.1-4.6,4.6v22.2
                                        L39.9,20L24.2,20L24.2,20z"></path>
    <path class="st1" d="M27.3,56.7l-0.9-1.1h-4.1c0.1-0.1,5-6.6,5-6.6H20l0.9,1.1H25c-0.1,0.1-5,6.6-5,6.6H27.3L27.3,56.7z"></path>
    <path class="st1" d="M40.1,49h-3.4v7.7h1.1v-6.5h2c2,0,3.2,0.9,3.2,2.5v4.1h1.1v-4.1C44.3,50.7,43,49,40.1,49"></path>
    <path class="st1" d="M51.7,46.7c0,0,0,2.1,0,2.2H49c-2,0-3.5,1.3-3.8,3.2c0,0.3-0.1,0.5-0.1,0.7c0,0.3,0.1,0.6,0.1,0.6
                                        c0.3,1.8,1.9,3.2,3.8,3.2h3.7V46L51.7,46.7L51.7,46.7z M51.5,50.1v5.4H49c-1.2,0-2.4-0.9-2.6-2.1l-0.1-0.6c0-0.2,0-0.4,0.1-0.6
                                        c0.3-1.3,1.3-2.1,2.7-2.1C49.1,50.1,51.5,50.1,51.5,50.1"></path>
    <path class="st1" d="M35.6,53.2v-0.4c0-2.3-1.8-4.1-4.1-4.1s-4.1,1.8-4.1,4.1c0,2.3,1.8,4.1,4.1,4.1c1.7,0,3.3-1.1,3.9-2.7h-1.2
                                        c-0.5,1-1.5,1.6-2.7,1.6c-1.5,0-2.7-1.1-3-2.6h6L35.6,53.2L35.6,53.2z M28.6,52.1c0.3-1.3,1.5-2.3,2.9-2.3c1.3,0,2.6,0.9,2.9,2.3
                                        H28.6L28.6,52.1z"></path>
                                      </svg>
